mtllib ticket_block_screen_card.mtl
o 0
v 7.989073638881028 1.565276938786917 -4.7146636588950255
v 7.989071358500577 1.565661233553476 -4.715586866579523
v 7.990962763742947 -0.2811406074853613 -5.483258758344183
v 7.990960483362495 -0.2807563127188013 -5.484181966028681
v -8.010880004109287 1.5376872836442659 -4.687710437319746
v -8.010877723728834 1.5373029888777068 -4.686787229635248
v -8.008990879247369 -0.3087302626280115 -5.4563055367689035
v -8.008988598866916 -0.3091145573945715 -5.455382329084406
vt 0 1
vt 0 0.875
vt 0 1
vt 0 0.875
vt 0 0.875
vt 0 1
vt 0 1
vt 0 0.875
vt 0 1
vt 0 0.875
vt 0 0.875
vt 0 1
vt 0 1
vt 0 1
vt 1 1
vt 0 1
vt 1 1
vt 1 1
vt 0 1
vt 0 1
vt 1 1
vt 0 1
vt 1 1
vt 1 1
vt 0 1
vt 0 1
vt 0 1
vt 0 1
vt 0 1
vt 0 1
vt 0.5 0.875
vt 0.5 0.8125
vt 1 0.875
vt 0.5 0.8125
vt 1 0.8125
vt 1 0.875
vn 0.9999969601631165 0.0017483718693256378 -0.0017422768287360668
vn 0.9999969601631165 0.0017483718693256378 -0.0017422768287360668
vn 0.9999969601631165 0.0017483718693256378 -0.0017422768287360668
vn 0.9999969601631165 0.0017483718693256378 -0.0017422768287360668
vn 0.9999969601631165 0.0017483718693256378 -0.0017422768287360668
vn 0.9999969601631165 0.0017483718693256378 -0.0017422768287360668
vn -0.9999969601631165 -0.0017483718693256378 0.0017422768287360668
vn -0.9999969601631165 -0.0017483718693256378 0.0017422768287360668
vn -0.9999969601631165 -0.0017483718693256378 0.0017422768287360668
vn -0.9999969601631165 -0.0017483718693256378 0.0017422768287360668
vn -0.9999969601631165 -0.0017483718693256378 0.0017422768287360668
vn -0.9999969601631165 -0.0017483718693256378 0.0017422768287360668
vn -0.0009445624309591949 0.9232088327407837 0.38429757952690125
vn -0.0009445624309591949 0.9232088327407837 0.38429757952690125
vn -0.0009445624309591949 0.9232088327407837 0.38429757952690125
vn -0.0009445624309591949 0.9232088327407837 0.38429757952690125
vn -0.0009445624309591949 0.9232088327407837 0.38429757952690125
vn -0.0009445624309591949 0.9232088327407837 0.38429757952690125
vn 0.0009445624309591949 -0.9232088327407837 -0.38429757952690125
vn 0.0009445624309591949 -0.9232088327407837 -0.38429757952690125
vn 0.0009445624309591949 -0.9232088327407837 -0.38429757952690125
vn 0.0009445624309591949 -0.9232088327407837 -0.38429757952690125
vn 0.0009445624309591949 -0.9232088327407837 -0.38429757952690125
vn 0.0009445624309591949 -0.9232088327407837 -0.38429757952690125
vn 0.00228038034401834 -0.3842947483062744 0.9232076406478882
vn 0.00228038034401834 -0.3842947483062744 0.9232076406478882
vn 0.00228038034401834 -0.3842947483062744 0.9232076406478882
vn 0.00228038034401834 -0.3842947483062744 0.9232076406478882
vn 0.00228038034401834 -0.3842947483062744 0.9232076406478882
vn 0.00228038034401834 -0.3842947483062744 0.9232076406478882
vn -0.00228038034401834 0.3842947483062744 -0.9232076406478882
vn -0.00228038034401834 0.3842947483062744 -0.9232076406478882
vn -0.00228038034401834 0.3842947483062744 -0.9232076406478882
vn -0.00228038034401834 0.3842947483062744 -0.9232076406478882
vn -0.00228038034401834 0.3842947483062744 -0.9232076406478882
vn -0.00228038034401834 0.3842947483062744 -0.9232076406478882
usemtl 0
f 1/1/1 3/2/2 2/3/3
f 3/4/4 4/5/5 2/6/6
usemtl 0
f 5/7/7 7/8/8 6/9/9
f 7/10/10 8/11/11 6/12/12
usemtl 0
f 5/13/13 6/14/14 2/15/15
f 6/16/16 1/17/17 2/18/18
usemtl 0
f 8/19/19 7/20/20 3/21/21
f 7/22/22 4/23/23 3/24/24
usemtl $transparent
f 6/25/25 8/26/26 1/27/27
f 8/28/28 3/29/29 1/30/30
usemtl 0
f 2/31/31 4/32/32 5/33/33
f 4/34/34 7/35/35 5/36/36
o 1
v 7.990962390864671 -0.2811400114389131 -5.483258877553473
v 7.990960110484219 -0.280755716672354 -5.48418208523797
v 7.992851515726589 -2.1275575577111914 -6.2518539770026305
v 7.992849235346138 -2.1271732629446314 -6.252777184687128
v -8.008991252125645 -0.3087296665815642 -5.456305655978193
v -8.008988971745191 -0.3091139613481233 -5.455382448293696
v -8.007102127263726 -2.1551472128538416 -6.224900755427351
v -8.007099846883273 -2.1555315076204016 -6.223977547742853
vt 0 1
vt 0 0.875
vt 0 1
vt 0 0.875
vt 0 0.875
vt 0 1
vt 0 1
vt 0 0.875
vt 0 1
vt 0 0.875
vt 0 0.875
vt 0 1
vt 0 1
vt 0 1
vt 1 1
vt 0 1
vt 1 1
vt 1 1
vt 0 1
vt 0 1
vt 1 1
vt 0 1
vt 1 1
vt 1 1
vt 0 1
vt 0 1
vt 0 1
vt 0 1
vt 0 1
vt 0 1
vt 0.5 0.8125
vt 0.5 0.75
vt 1 0.8125
vt 0.5 0.75
vt 1 0.75
vt 1 0.8125
vn 0.9999969601631165 0.0017483718693256378 -0.0017422768287360668
vn 0.9999969601631165 0.0017483718693256378 -0.0017422768287360668
vn 0.9999969601631165 0.0017483718693256378 -0.0017422768287360668
vn 0.9999969601631165 0.0017483718693256378 -0.0017422768287360668
vn 0.9999969601631165 0.0017483718693256378 -0.0017422768287360668
vn 0.9999969601631165 0.0017483718693256378 -0.0017422768287360668
vn -0.9999969601631165 -0.0017483718693256378 0.0017422768287360668
vn -0.9999969601631165 -0.0017483718693256378 0.0017422768287360668
vn -0.9999969601631165 -0.0017483718693256378 0.0017422768287360668
vn -0.9999969601631165 -0.0017483718693256378 0.0017422768287360668
vn -0.9999969601631165 -0.0017483718693256378 0.0017422768287360668
vn -0.9999969601631165 -0.0017483718693256378 0.0017422768287360668
vn -0.0009445624309591949 0.9232088327407837 0.38429757952690125
vn -0.0009445624309591949 0.9232088327407837 0.38429757952690125
vn -0.0009445624309591949 0.9232088327407837 0.38429757952690125
vn -0.0009445624309591949 0.9232088327407837 0.38429757952690125
vn -0.0009445624309591949 0.9232088327407837 0.38429757952690125
vn -0.0009445624309591949 0.9232088327407837 0.38429757952690125
vn 0.0009445624309591949 -0.9232088327407837 -0.38429757952690125
vn 0.0009445624309591949 -0.9232088327407837 -0.38429757952690125
vn 0.0009445624309591949 -0.9232088327407837 -0.38429757952690125
vn 0.0009445624309591949 -0.9232088327407837 -0.38429757952690125
vn 0.0009445624309591949 -0.9232088327407837 -0.38429757952690125
vn 0.0009445624309591949 -0.9232088327407837 -0.38429757952690125
vn 0.00228038034401834 -0.3842947483062744 0.9232076406478882
vn 0.00228038034401834 -0.3842947483062744 0.9232076406478882
vn 0.00228038034401834 -0.3842947483062744 0.9232076406478882
vn 0.00228038034401834 -0.3842947483062744 0.9232076406478882
vn 0.00228038034401834 -0.3842947483062744 0.9232076406478882
vn 0.00228038034401834 -0.3842947483062744 0.9232076406478882
vn -0.00228038034401834 0.3842947483062744 -0.9232076406478882
vn -0.00228038034401834 0.3842947483062744 -0.9232076406478882
vn -0.00228038034401834 0.3842947483062744 -0.9232076406478882
vn -0.00228038034401834 0.3842947483062744 -0.9232076406478882
vn -0.00228038034401834 0.3842947483062744 -0.9232076406478882
vn -0.00228038034401834 0.3842947483062744 -0.9232076406478882
usemtl 0
f 9/37/37 11/38/38 10/39/39
f 11/40/40 12/41/41 10/42/42
usemtl 0
f 13/43/43 15/44/44 14/45/45
f 15/46/46 16/47/47 14/48/48
usemtl 0
f 13/49/49 14/50/50 10/51/51
f 14/52/52 9/53/53 10/54/54
usemtl 0
f 16/55/55 15/56/56 11/57/57
f 15/58/58 12/59/59 11/60/60
usemtl $transparent
f 14/61/61 16/62/62 9/63/63
f 16/64/64 11/65/65 9/66/66
usemtl 0
f 10/67/67 12/68/68 13/69/69
f 12/70/70 15/71/71 13/72/72
