mtllib ticket_block_screen_over1.mtl
o 0
v 1.9909801232464908 -0.2916301551105449 -5.47280540587237
v 1.990977842866041 -0.2912458603439858 -5.473728613556867
v 1.9928692481084092 -2.138047701382823 -6.241400505321527
v 1.9928669677279593 -2.137663406616263 -6.242323713006025
v 0.9909808827029245 -0.29299423221331145 -5.471986336728131
v 0.9909831630833743 -0.29337852697987055 -5.471063129043634
v 0.9928700075648429 -2.139411778485589 -6.240581436177289
v 0.9928722879452927 -2.139796073252149 -6.239658228492791
vt 0 1
vt 0 0.875
vt 0 1
vt 0 0.875
vt 0 0.875
vt 0 1
vt 0 1
vt 0 0.875
vt 0 1
vt 0 0.875
vt 0 0.875
vt 0 1
vt 0 1
vt 0 1
vt 0.0625 1
vt 0 1
vt 0.0625 1
vt 0.0625 1
vt 0 1
vt 0 1
vt 0.0625 1
vt 0 1
vt 0.0625 1
vt 0.0625 1
vt 0 1
vt 0 1
vt 0 1
vt 0 1
vt 0 1
vt 0 1
vt 0 1
vt 0 0
vt 0.5 1
vt 0 0
vt 0.5 0
vt 0.5 1
vn 0.9999969601631165 0.0017483718693256378 -0.0017422768287360668
vn 0.9999969601631165 0.0017483718693256378 -0.0017422768287360668
vn 0.9999969601631165 0.0017483718693256378 -0.0017422768287360668
vn 0.9999969601631165 0.0017483718693256378 -0.0017422768287360668
vn 0.9999969601631165 0.0017483718693256378 -0.0017422768287360668
vn 0.9999969601631165 0.0017483718693256378 -0.0017422768287360668
vn -0.9999969601631165 -0.0017483718693256378 0.0017422768287360668
vn -0.9999969601631165 -0.0017483718693256378 0.0017422768287360668
vn -0.9999969601631165 -0.0017483718693256378 0.0017422768287360668
vn -0.9999969601631165 -0.0017483718693256378 0.0017422768287360668
vn -0.9999969601631165 -0.0017483718693256378 0.0017422768287360668
vn -0.9999969601631165 -0.0017483718693256378 0.0017422768287360668
vn -0.0009445624309591949 0.9232088327407837 0.38429757952690125
vn -0.0009445624309591949 0.9232088327407837 0.38429757952690125
vn -0.0009445624309591949 0.9232088327407837 0.38429757952690125
vn -0.0009445624309591949 0.9232088327407837 0.38429757952690125
vn -0.0009445624309591949 0.9232088327407837 0.38429757952690125
vn -0.0009445624309591949 0.9232088327407837 0.38429757952690125
vn 0.0009445624309591949 -0.9232088327407837 -0.38429757952690125
vn 0.0009445624309591949 -0.9232088327407837 -0.38429757952690125
vn 0.0009445624309591949 -0.9232088327407837 -0.38429757952690125
vn 0.0009445624309591949 -0.9232088327407837 -0.38429757952690125
vn 0.0009445624309591949 -0.9232088327407837 -0.38429757952690125
vn 0.0009445624309591949 -0.9232088327407837 -0.38429757952690125
vn 0.00228038034401834 -0.3842947483062744 0.9232076406478882
vn 0.00228038034401834 -0.3842947483062744 0.9232076406478882
vn 0.00228038034401834 -0.3842947483062744 0.9232076406478882
vn 0.00228038034401834 -0.3842947483062744 0.9232076406478882
vn 0.00228038034401834 -0.3842947483062744 0.9232076406478882
vn 0.00228038034401834 -0.3842947483062744 0.9232076406478882
vn -0.00228038034401834 0.3842947483062744 -0.9232076406478882
vn -0.00228038034401834 0.3842947483062744 -0.9232076406478882
vn -0.00228038034401834 0.3842947483062744 -0.9232076406478882
vn -0.00228038034401834 0.3842947483062744 -0.9232076406478882
vn -0.00228038034401834 0.3842947483062744 -0.9232076406478882
vn -0.00228038034401834 0.3842947483062744 -0.9232076406478882
usemtl 0
f 1/1/1 3/2/2 2/3/3
f 3/4/4 4/5/5 2/6/6
usemtl 0
f 5/7/7 7/8/8 6/9/9
f 7/10/10 8/11/11 6/12/12
usemtl 0
f 5/13/13 6/14/14 2/15/15
f 6/16/16 1/17/17 2/18/18
usemtl 0
f 8/19/19 7/20/20 3/21/21
f 7/22/22 4/23/23 3/24/24
usemtl $transparent
f 6/25/25 8/26/26 1/27/27
f 8/28/28 3/29/29 1/30/30
usemtl 1
f 2/31/31 4/32/32 5/33/33
f 4/34/34 7/35/35 5/36/36
