mtllib ticket_block_screen_over3.mtl
o 0
v -0.00901355866116127 -0.29512694355267977 -5.469320746044124
v -0.009015839041614626 -0.29474264878612066 -5.470243953728621
v -0.00712443379924288 -2.141544489824958 -6.237915845493282
v -0.007126714179696236 -2.141160195058398 -6.238839053177779
v -1.009012799204731 -0.2964910206554463 -5.468501676899885
v -1.0090105188242777 -0.2968753154220054 -5.467578469215388
v -1.0071236743428127 -2.1429085669277237 -6.237096776349043
v -1.0071213939623593 -2.1432928616942837 -6.236173568664546
vt 0 1
vt 0 0.875
vt 0 1
vt 0 0.875
vt 0 0.875
vt 0 1
vt 0 1
vt 0 0.875
vt 0 1
vt 0 0.875
vt 0 0.875
vt 0 1
vt 0 1
vt 0 1
vt 0.0625 1
vt 0 1
vt 0.0625 1
vt 0.0625 1
vt 0 1
vt 0 1
vt 0.0625 1
vt 0 1
vt 0.0625 1
vt 0.0625 1
vt 0 1
vt 0 1
vt 0 1
vt 0 1
vt 0 1
vt 0 1
vt 0 1
vt 0 0
vt 0.5 1
vt 0 0
vt 0.5 0
vt 0.5 1
vn 0.9999969601631165 0.0017483718693256378 -0.0017422768287360668
vn 0.9999969601631165 0.0017483718693256378 -0.0017422768287360668
vn 0.9999969601631165 0.0017483718693256378 -0.0017422768287360668
vn 0.9999969601631165 0.0017483718693256378 -0.0017422768287360668
vn 0.9999969601631165 0.0017483718693256378 -0.0017422768287360668
vn 0.9999969601631165 0.0017483718693256378 -0.0017422768287360668
vn -0.9999969601631165 -0.0017483718693256378 0.0017422768287360668
vn -0.9999969601631165 -0.0017483718693256378 0.0017422768287360668
vn -0.9999969601631165 -0.0017483718693256378 0.0017422768287360668
vn -0.9999969601631165 -0.0017483718693256378 0.0017422768287360668
vn -0.9999969601631165 -0.0017483718693256378 0.0017422768287360668
vn -0.9999969601631165 -0.0017483718693256378 0.0017422768287360668
vn -0.0009445624309591949 0.9232088327407837 0.38429757952690125
vn -0.0009445624309591949 0.9232088327407837 0.38429757952690125
vn -0.0009445624309591949 0.9232088327407837 0.38429757952690125
vn -0.0009445624309591949 0.9232088327407837 0.38429757952690125
vn -0.0009445624309591949 0.9232088327407837 0.38429757952690125
vn -0.0009445624309591949 0.9232088327407837 0.38429757952690125
vn 0.0009445624309591949 -0.9232088327407837 -0.38429757952690125
vn 0.0009445624309591949 -0.9232088327407837 -0.38429757952690125
vn 0.0009445624309591949 -0.9232088327407837 -0.38429757952690125
vn 0.0009445624309591949 -0.9232088327407837 -0.38429757952690125
vn 0.0009445624309591949 -0.9232088327407837 -0.38429757952690125
vn 0.0009445624309591949 -0.9232088327407837 -0.38429757952690125
vn 0.00228038034401834 -0.3842947483062744 0.9232076406478882
vn 0.00228038034401834 -0.3842947483062744 0.9232076406478882
vn 0.00228038034401834 -0.3842947483062744 0.9232076406478882
vn 0.00228038034401834 -0.3842947483062744 0.9232076406478882
vn 0.00228038034401834 -0.3842947483062744 0.9232076406478882
vn 0.00228038034401834 -0.3842947483062744 0.9232076406478882
vn -0.00228038034401834 0.3842947483062744 -0.9232076406478882
vn -0.00228038034401834 0.3842947483062744 -0.9232076406478882
vn -0.00228038034401834 0.3842947483062744 -0.9232076406478882
vn -0.00228038034401834 0.3842947483062744 -0.9232076406478882
vn -0.00228038034401834 0.3842947483062744 -0.9232076406478882
vn -0.00228038034401834 0.3842947483062744 -0.9232076406478882
usemtl 0
f 1/1/1 3/2/2 2/3/3
f 3/4/4 4/5/5 2/6/6
usemtl 0
f 5/7/7 7/8/8 6/9/9
f 7/10/10 8/11/11 6/12/12
usemtl 0
f 5/13/13 6/14/14 2/15/15
f 6/16/16 1/17/17 2/18/18
usemtl 0
f 8/19/19 7/20/20 3/21/21
f 7/22/22 4/23/23 3/24/24
usemtl $transparent
f 6/25/25 8/26/26 1/27/27
f 8/28/28 3/29/29 1/30/30
usemtl 1
f 2/31/31 4/32/32 5/33/33
f 4/34/34 7/35/35 5/36/36
