# Blender v2.79 (sub 0) OBJ File: ''
# www.blender.org
mtllib ticket_block_once_base.mtl
o 1
v 7.979032 8.020945 -3.999938
v 7.986013 4.020957 -4.006933
v 7.972051 8.027926 -7.999926
v 7.979032 4.027939 -8.006920
v -8.027901 7.999953 -7.972049
v -8.020920 3.999965 -7.979044
v -8.020920 7.992970 -3.972062
v -8.013938 3.992983 -3.979056
vt 0.000000 1.000000
vt 0.000000 0.875000
vt 0.125000 1.000000
vt 0.125000 0.875000
vt 0.000000 1.000000
vt 0.000000 0.875000
vt 0.125000 1.000000
vt 0.125000 0.875000
vt 0.000000 0.875000
vt 0.500000 1.000000
vt 0.500000 0.875000
vt 0.000000 1.000000
vt 0.500000 1.000000
vt 0.500000 0.875000
vt 0.000000 1.000000
vt 0.000000 0.875000
vt 0.500000 1.000000
vt 0.500000 0.875000
vt 0.000000 0.125000
vt 0.000000 0.000000
vt 0.500000 0.125000
vt 0.500000 0.000000
vn 1.0000 0.0017 -0.0017
vn -1.0000 -0.0017 0.0017
vn -0.0017 1.0000 0.0017
vn 0.0017 -1.0000 -0.0017
vn 0.0017 -0.0017 1.0000
vn -0.0017 0.0017 -1.0000
usemtl 0.001
s 1
f 1/1/1 2/2/1 3/3/1
f 2/2/1 4/4/1 3/3/1
f 5/5/2 6/6/2 7/7/2
f 6/6/2 8/8/2 7/7/2
f 5/5/3 7/9/3 3/10/3
f 7/9/3 1/11/3 3/10/3
f 8/12/4 6/6/4 2/13/4
f 6/6/4 4/14/4 2/13/4
f 7/15/5 8/16/5 1/17/5
f 8/16/5 2/18/5 1/17/5
f 3/19/6 4/20/6 5/21/6
f 4/20/6 6/22/6 5/21/6
o 6
v 7.999976 -3.979018 -4.020920
v 8.006957 -7.979006 -4.027916
v 7.992994 -3.972036 -8.020909
v 7.999976 -7.972023 -8.027904
v 6.992997 -3.973784 -8.019168
v 6.999979 -7.973772 -8.026161
v 6.999979 -3.980766 -4.019178
v 7.006960 -7.980754 -4.026175
vt 0.000000 1.000000
vt 0.000000 0.875000
vt 0.125000 1.000000
vt 0.125000 0.875000
vt 0.000000 1.000000
vt 0.000000 0.875000
vt 0.125000 1.000000
vt 0.125000 0.875000
vt 0.000000 0.875000
vt 0.031250 1.000000
vt 0.031250 0.875000
vt 0.000000 1.000000
vt 0.031250 1.000000
vt 0.031250 0.875000
vt 0.000000 1.000000
vt 0.000000 0.875000
vt 0.031250 1.000000
vt 0.031250 0.875000
vt 0.000000 1.000000
vt 0.000000 0.875000
vt 0.031250 1.000000
vt 0.031250 0.875000
vn 1.0000 0.0017 -0.0017
vn -1.0000 -0.0017 0.0017
vn -0.0017 1.0000 0.0017
vn 0.0017 -1.0000 -0.0017
vn 0.0017 -0.0017 1.0000
vn -0.0017 0.0017 -1.0000
usemtl 0
s 1
f 9/23/7 10/24/7 11/25/7
f 10/24/7 12/26/7 11/25/7
f 13/27/8 14/28/8 15/29/8
f 14/28/8 16/30/8 15/29/8
f 13/27/9 15/31/9 11/32/9
f 15/31/9 9/33/9 11/32/9
f 16/34/10 14/28/10 10/35/10
f 14/28/10 12/36/10 10/35/10
f 15/37/11 16/38/11 9/39/11
f 16/38/11 10/40/11 9/39/11
f 11/41/12 12/42/12 13/43/12
f 12/42/12 14/44/12 13/43/12
o 0
v 7.005212 -6.979010 -4.026167
v 7.006957 -7.979006 -4.027916
v 6.998230 -6.972026 -8.026155
v 6.999976 -7.972023 -8.027904
v -7.001721 -7.000000 -7.998278
v -6.999976 -7.999998 -8.000027
v -6.994740 -7.006984 -3.998291
v -6.992994 -8.006980 -4.000040
vt 0.000000 1.000000
vt 0.000000 0.968750
vt 0.125000 1.000000
vt 0.125000 0.968750
vt 0.000000 1.000000
vt 0.000000 0.968750
vt 0.125000 1.000000
vt 0.125000 0.968750
vt 0.000000 0.875000
vt 0.500000 1.000000
vt 0.500000 0.875000
vt 0.000000 1.000000
vt 0.000000 0.875000
vt 0.500000 1.000000
vt 0.500000 0.875000
vt 0.000000 1.000000
vt 0.000000 0.968750
vt 0.500000 1.000000
vt 0.500000 0.968750
vt 0.000000 1.000000
vt 0.000000 0.968750
vt 0.500000 1.000000
vt 0.500000 0.968750
vn 1.0000 0.0017 -0.0017
vn -1.0000 -0.0017 0.0017
vn -1.0000 -0.0018 0.0017
vn -0.0020 1.0000 0.0017
vn 0.0020 -1.0000 -0.0017
vn 0.0020 -0.0017 1.0000
vn -0.0020 0.0017 -1.0000
usemtl 0
s 1
f 17/45/13 18/46/13 19/47/13
f 18/46/13 20/48/13 19/47/13
f 21/49/14 22/50/14 23/51/15
f 22/50/14 24/52/15 23/51/15
f 21/49/16 23/53/16 19/54/16
f 23/53/16 17/55/16 19/54/16
f 24/56/17 22/57/17 18/58/17
f 22/57/17 20/59/17 18/58/17
f 23/60/18 24/61/18 17/62/18
f 24/61/18 18/63/18 17/62/18
f 19/64/19 20/65/19 21/66/19
f 20/65/19 22/67/19 21/66/19
o 4
v 6.999976 -3.979018 -4.020920
v 7.001721 -4.979015 -4.022670
v 6.992994 -3.972036 -8.020909
v 6.994740 -4.972033 -8.022658
v -7.006957 -4.000010 -7.993032
v -7.005212 -5.000007 -7.994782
v -6.999976 -4.006992 -3.993045
v -6.998230 -5.006989 -3.994793
vt 0.000000 1.000000
vt 0.000000 0.968750
vt 0.125000 1.000000
vt 0.125000 0.968750
vt 0.000000 1.000000
vt 0.000000 0.968750
vt 0.125000 1.000000
vt 0.125000 0.968750
vt 0.000000 0.875000
vt 0.500000 1.000000
vt 0.500000 0.875000
vt 0.000000 1.000000
vt 0.000000 0.875000
vt 0.500000 1.000000
vt 0.500000 0.875000
vt 0.000000 1.000000
vt 0.000000 0.968750
vt 0.500000 1.000000
vt 0.500000 0.968750
vt 0.000000 1.000000
vt 0.000000 0.968750
vt 0.500000 1.000000
vt 0.500000 0.968750
vn 1.0000 0.0017 -0.0017
vn -1.0000 -0.0017 0.0017
vn -0.0020 1.0000 0.0017
vn 0.0020 -1.0000 -0.0017
vn 0.0020 -0.0017 1.0000
vn -0.0020 0.0017 -1.0000
usemtl 0
s 1
f 25/68/20 26/69/20 27/70/20
f 26/69/20 28/71/20 27/70/20
f 29/72/21 30/73/21 31/74/21
f 30/73/21 32/75/21 31/74/21
f 29/72/22 31/76/22 27/77/22
f 31/76/22 25/78/22 27/77/22
f 32/79/23 30/80/23 26/81/23
f 30/80/23 28/82/23 26/81/23
f 31/83/24 32/84/24 25/85/24
f 32/84/24 26/86/24 25/85/24
f 27/87/25 28/88/25 29/89/25
f 28/88/25 30/90/25 29/89/25
o 5
v -6.999979 -4.005245 -3.994787
v -6.992997 -8.005231 -4.001782
v -7.006960 -3.998262 -7.994774
v -6.999979 -7.998249 -8.001769
v -8.006957 -4.000010 -7.993032
v -7.999976 -7.999998 -8.000027
v -7.999976 -4.006992 -3.993045
v -7.992994 -8.006979 -4.000040
vt 0.000000 1.000000
vt 0.000000 0.875000
vt 0.125000 1.000000
vt 0.125000 0.875000
vt 0.000000 1.000000
vt 0.000000 0.875000
vt 0.125000 1.000000
vt 0.125000 0.875000
vt 0.000000 0.875000
vt 0.031250 1.000000
vt 0.031250 0.875000
vt 0.000000 1.000000
vt 0.031250 1.000000
vt 0.031250 0.875000
vt 0.000000 1.000000
vt 0.000000 0.875000
vt 0.031250 1.000000
vt 0.031250 0.875000
vt 0.000000 1.000000
vt 0.000000 0.875000
vt 0.031250 1.000000
vt 0.031250 0.875000
vn 1.0000 0.0017 -0.0017
vn -1.0000 -0.0017 0.0017
vn -0.0017 1.0000 0.0017
vn 0.0017 -1.0000 -0.0017
vn 0.0017 -0.0017 1.0000
vn -0.0017 0.0017 -1.0000
usemtl 0
s 1
f 33/91/26 34/92/26 35/93/26
f 34/92/26 36/94/26 35/93/26
f 37/95/27 38/96/27 39/97/27
f 38/96/27 40/98/27 39/97/27
f 37/95/28 39/99/28 35/100/28
f 39/99/28 33/101/28 35/100/28
f 40/102/29 38/96/29 34/103/29
f 38/96/29 36/104/29 34/103/29
f 39/105/30 40/106/30 33/107/30
f 40/106/30 34/108/30 33/107/30
f 35/109/31 36/110/31 37/111/31
f 36/110/31 38/112/31 37/111/31
o 2
v 7.999976 7.999998 8.000026
v 8.027901 -7.999954 7.972048
v 7.979032 8.020946 -3.999937
v 8.006957 -7.979006 -4.027916
v -8.020920 7.992970 -3.972061
v -7.992994 -8.006979 -4.000041
v -7.999976 7.972023 8.027903
v -7.972050 -8.027927 7.999924
vt 0.000000 1.000000
vt 0.000000 0.500000
vt 0.375000 1.000000
vt 0.375000 0.500000
vt 0.000000 1.000000
vt 0.000000 0.500000
vt 0.375000 1.000000
vt 0.375000 0.500000
vt 0.000000 0.625000
vt 0.500000 1.000000
vt 0.500000 0.625000
vt 0.000000 1.000000
vt 0.000000 0.625000
vt 0.500000 1.000000
vt 0.500000 0.625000
vt 0.000000 1.000000
vt 0.000000 0.500000
vt 0.500000 1.000000
vt 0.500000 0.500000
vt 0.000000 1.000000
vt 0.000000 0.500000
vt 0.500000 1.000000
vt 0.500000 0.500000
vn 1.0000 0.0017 -0.0017
vn -1.0000 -0.0017 0.0017
vn -0.0017 1.0000 0.0017
vn 0.0017 -1.0000 -0.0017
vn 0.0017 -0.0017 1.0000
vn -0.0017 0.0017 -1.0000
usemtl 0
s 1
f 41/113/32 42/114/32 43/115/32
f 42/114/32 44/116/32 43/115/32
f 45/117/33 46/118/33 47/119/33
f 46/118/33 48/120/33 47/119/33
f 45/117/34 47/121/34 43/122/34
f 47/121/34 41/123/34 43/122/34
f 48/124/35 46/125/35 42/126/35
f 46/125/35 44/127/35 42/126/35
f 47/128/36 48/129/36 41/130/36
f 48/129/36 42/131/36 41/130/36
f 43/132/37 44/133/37 45/134/37
f 44/133/37 46/135/37 45/134/37
o 3
v 8.000000 -3.979999 -7.000000
v -8.000000 -3.980024 -4.000000
v -8.000000 -3.979999 -7.000000
v 8.000000 -3.980025 -4.000000
v -8.000000 3.198026 -4.000000
v 8.000000 3.198026 -4.000000
vt 0.428428 1.000000
vt 0.356855 0.500000
vt 0.428427 0.500000
vt 0.185605 0.500000
vt 0.356855 1.000000
vt 0.185605 1.000000
vt 0.500000 0.967430
vt 0.428428 0.967429
vt 0.500000 0.743116
vt -0.000000 0.500000
vt 0.500000 0.250000
vt 0.500000 0.500000
vt 0.494465 0.743116
vt 0.428428 0.706965
vt 0.494465 0.500000
vt 0.356855 1.000000
vt 0.356855 0.500000
vt -0.000000 0.250000
vn 0.0000 -1.0000 -0.0000
vn 0.0000 -0.0000 1.0000
vn 1.0000 0.0000 0.0000
vn 0.0000 0.3856 -0.9227
vn -1.0000 0.0000 0.0000
usemtl None
s off
f 49/136/38 50/137/38 51/138/38
f 52/139/39 53/140/39 50/141/39
f 52/142/40 49/143/40 54/144/40
f 54/145/41 51/146/41 53/147/41
f 51/148/42 50/149/42 53/150/42
f 49/136/38 52/151/38 50/137/38
f 52/139/39 54/152/39 53/140/39
f 54/145/41 49/153/41 51/146/41
