# Blender v2.79 (sub 0) OBJ File: ''
# www.blender.org
mtllib mono_rail_curved.mtl
o 1
v 0.750000 0.760000 0.250000
v 0.250000 0.760000 0.750000
v 0.750000 0.760000 0.750000
v 0.250000 0.760000 0.250000
vt 0.500000 0.000000
vt 1.000000 0.500000
vt 0.500000 0.500000
vt 1.000000 0.000000
vn 0.0000 1.0000 0.0000
usemtl main
s 1
f 1/1/1 2/2/1 3/3/1
f 1/1/1 4/4/1 2/2/1
o 0
v 0.250000 0.000000 0.250000
v 0.750000 -0.000000 0.750000
v 0.250000 0.000000 0.750000
v 0.250000 0.750000 0.750000
v 0.312500 0.062500 0.000000
v 0.750000 -0.000000 0.250000
v 0.750000 0.750000 0.250000
v 0.250000 0.750000 0.250000
v 0.312500 0.687500 0.000000
v 0.687500 0.062500 0.000000
v 0.687500 0.687500 0.000000
v 0.687500 0.687500 1.000000
v 0.312500 0.062500 1.000000
v 0.687500 0.062500 1.000000
v 0.750000 0.750000 0.750000
v 0.312500 0.687500 1.000000
vt 0.000000 0.812500
vt 0.138889 0.937500
vt 0.000000 0.937500
vt 0.208333 0.687500
vt 0.416667 0.562500
vt 0.416667 0.687500
vt 0.013889 0.750000
vt 0.138889 0.812500
vt 0.208333 0.562500
vt 0.000000 0.687500
vt 0.000000 0.562500
vt 0.277778 0.937500
vt 0.138889 0.812500
vt 0.277778 0.812500
vt 0.208333 0.562500
vt 0.416667 0.500000
vt 0.500000 0.937500
vt 0.388889 0.750000
vt 0.500000 0.750000
vt 0.208333 0.500000
vt 0.000000 0.500000
vt 0.152778 0.750000
vt 0.263889 0.750000
vt 0.277778 0.750000
vt 0.388889 0.937500
vt 0.277778 0.937500
vt 0.125000 1.000000
vt 0.013889 1.000000
vt 0.208333 0.687500
vt 0.000000 0.750000
vt 0.263889 1.000000
vt 0.138889 0.937500
vt 0.208333 0.750000
vt 0.416667 0.750000
vt 0.125000 0.750000
vt 0.208333 0.500000
vt 0.388889 0.937500
vt 0.388889 0.750000
vt 0.208333 0.750000
vt 0.152778 1.000000
vn -0.0000 -1.0000 0.0000
vn -1.0000 0.0000 0.0000
vn -0.0000 -0.9701 -0.2425
vn 1.0000 -0.0000 -0.0000
vn 0.0000 1.0000 -0.0000
vn -0.9701 0.0000 -0.2425
vn 0.0000 0.0000 -1.0000
vn 0.9701 -0.0000 -0.2425
vn 0.0000 0.9701 -0.2425
vn 0.0000 0.0000 1.0000
vn -0.0000 -0.9701 0.2425
vn 0.9701 -0.0000 0.2425
vn 0.0000 0.9701 0.2425
vn -0.9701 0.0000 0.2425
usemtl main
s 1
f 5/5/2 6/6/2 7/7/2
f 8/8/3 5/9/3 7/10/3
f 9/11/4 10/12/4 5/5/4
f 11/13/5 6/14/5 10/15/5
f 8/16/6 11/17/6 12/18/6
f 12/19/7 9/20/7 5/9/7
f 13/21/8 14/22/8 9/23/8
f 15/24/9 10/15/9 14/25/9
f 12/18/10 15/26/10 13/27/10
f 16/28/11 17/29/11 18/30/11
f 7/7/12 18/31/12 17/32/12
f 19/33/13 18/34/13 6/14/13
f 20/35/14 19/36/14 8/16/14
f 20/37/15 7/10/15 17/38/15
f 5/5/2 10/12/2 6/6/2
f 8/8/3 12/19/3 5/9/3
f 9/11/4 14/39/4 10/12/4
f 11/13/5 19/33/5 6/14/5
f 8/16/6 19/36/6 11/17/6
f 12/19/7 13/40/7 9/20/7
f 13/21/8 15/41/8 14/22/8
f 15/24/9 11/13/9 10/15/9
f 12/18/10 11/17/10 15/26/10
f 16/28/11 20/42/11 17/29/11
f 7/7/12 6/6/12 18/31/12
f 19/33/13 16/43/13 18/34/13
f 20/35/14 16/44/14 19/36/14
f 20/37/15 8/8/15 7/10/15
