# Blender v2.79 (sub 0) OBJ File: ''
# www.blender.org
mtllib mono_rail.mtl
o 1
v 0.750000 1.750000 1.000000
v 0.750000 1.000000 1.000000
v 0.750000 0.750000 0.000000
v 0.750000 0.000000 0.000000
v 0.250000 0.750000 0.000000
v 0.250000 0.000000 0.000000
v 0.250000 1.750000 1.000000
v 0.250000 1.000000 1.000000
vt 0.257359 1.000000
vt 0.000000 0.727273
vt 0.257359 0.272727
vt 0.000000 0.000000
vt 0.514719 0.727273
vt 0.257359 1.000000
vt 0.514719 0.000000
vt 0.257359 0.272727
vt 1.000000 0.385695
vt 1.000000 0.899954
vt 0.757359 0.385695
vt 0.757359 0.899954
vt 0.757359 0.385695
vt 0.757359 0.899954
vt 0.514719 0.385695
vt 0.514719 0.899954
vt 0.757359 0.000000
vt 0.514719 0.000000
vt 0.757359 0.000000
vt 1.000000 0.000000
vn 1.0000 0.0000 0.0000
vn -1.0000 0.0000 0.0000
vn 0.0000 0.7071 -0.7071
vn 0.0000 -0.7071 0.7071
vn 0.0000 -0.0000 1.0000
vn 0.0000 0.0000 -1.0000
usemtl main
s 1
f 1/1/1 2/2/1 3/3/1
f 2/2/1 4/4/1 3/3/1
f 5/5/2 6/6/2 7/7/2
f 6/6/2 8/8/2 7/7/2
f 5/9/3 7/10/3 3/11/3
f 7/10/3 1/12/3 3/11/3
f 8/13/4 6/14/4 2/15/4
f 6/14/4 4/16/4 2/15/4
f 7/17/5 8/13/5 1/18/5
f 8/13/5 2/15/5 1/18/5
f 3/11/6 4/19/6 5/9/6
f 4/19/6 6/20/6 5/9/6
