# Blender v2.79 (sub 0) OBJ File: ''
# www.blender.org
mtllib rail_ns.mtl
o r2
v 0.125000 0.093750 1.000000
v 0.125000 0.031250 0.000000
v 0.125000 0.031250 1.000000
v 0.125000 0.093750 0.000000
v 0.187500 0.031250 0.000000
v 0.187500 0.093750 0.000000
v 0.187500 0.031250 1.000000
v 0.187500 0.093750 1.000000
vt 0.100000 0.500000
vt 0.000000 1.000000
vt 0.000000 0.500000
vt 0.400000 0.562500
vt 0.500000 0.531250
vt 0.500000 0.562500
vt 0.400000 0.500000
vt 0.300000 1.000000
vt 0.300000 0.500000
vt 0.500000 0.500000
vt 0.400000 0.531250
vt 0.400000 0.500000
vt 0.200000 1.000000
vt 0.300000 0.500000
vt 0.300000 1.000000
vt 0.100000 1.000000
vt 0.200000 0.500000
vt 0.200000 1.000000
vt 0.400000 0.531250
vt 0.400000 1.000000
vt 0.500000 0.531250
vt 0.200000 0.500000
vn -1.0000 0.0000 0.0000
vn 0.0000 0.0000 -1.0000
vn 1.0000 0.0000 0.0000
vn 0.0000 0.0000 1.0000
vn 0.0000 -1.0000 -0.0000
vn 0.0000 1.0000 0.0000
usemtl main
s 1
f 1/1/1 2/2/1 3/3/1
f 4/4/2 5/5/2 2/6/2
f 6/7/3 7/8/3 5/9/3
f 8/10/4 3/11/4 7/12/4
f 5/13/5 3/14/5 2/15/5
f 4/16/6 8/17/6 6/18/6
f 1/1/1 4/16/1 2/2/1
f 4/4/2 6/19/2 5/5/2
f 6/7/3 8/20/3 7/8/3
f 8/10/4 1/21/4 3/11/4
f 5/13/5 7/22/5 3/14/5
f 4/16/6 1/1/6 8/17/6
o b3
v 0.000000 0.000000 0.312500
v 0.000000 0.015625 0.437500
v 0.000000 0.015625 0.312500
v 0.062500 0.015625 0.437500
v 0.062500 0.015625 0.312500
v 0.250000 0.015625 0.312500
v 0.312500 0.000000 0.312500
v 0.000000 0.000000 0.437500
v 0.250000 0.015625 0.437500
v 0.093750 0.046875 0.437500
v 0.218750 0.046875 0.437500
v 0.093750 0.046875 0.312500
v 0.218750 0.046875 0.312500
v 0.312500 0.015625 0.437500
v 0.312500 0.015625 0.312500
v 0.312500 0.000000 0.437500
v 0.750000 0.015625 0.312500
v 0.937500 0.015625 0.312500
v 1.000000 0.000000 0.312500
v 0.687500 0.015625 0.312500
v 0.750000 0.015625 0.437500
v 0.781250 0.046875 0.437500
v 0.906250 0.046875 0.437500
v 0.781250 0.046875 0.312500
v 0.906250 0.046875 0.312500
v 0.937500 0.015625 0.437500
v 1.000000 0.015625 0.437500
v 1.000000 0.000000 0.437500
v 1.000000 0.015625 0.312500
v 0.687500 0.000000 0.437500
v 0.687500 0.000000 0.312500
v 0.687500 0.015625 0.437500
vt 0.833333 0.500000
vt 0.847222 0.357143
vt 0.847222 0.500000
vt 0.722222 0.428571
vt 0.777778 0.285714
vt 0.777778 0.428571
vt 0.888889 0.071429
vt 0.888889 0.285714
vt 0.875000 0.357143
vt 0.611111 0.000000
vt 0.722222 0.357143
vt 0.611111 0.357143
vt 0.972222 0.071429
vt 0.972222 0.285714
vt 0.958333 0.357143
vt 0.638889 0.500000
vt 0.666667 0.357143
vt 0.666667 0.500000
vt 0.722222 0.142857
vt 0.833333 0.285714
vt 0.722222 0.285714
vt 0.611111 0.500000
vt 0.638889 0.357143
vt 0.638889 0.500000
vt 0.611111 0.357143
vt 0.555556 0.500000
vt 0.555556 0.357143
vt 0.875000 0.357143
vt 0.861111 0.500000
vt 0.861111 0.357143
vt 0.861111 0.285714
vt 0.861111 0.071429
vt 0.875000 0.000000
vt 0.833333 0.285714
vt 0.777778 0.428571
vt 0.777778 0.285714
vt 0.694444 0.500000
vt 0.722222 0.357143
vt 0.722222 0.500000
vt 0.833333 0.000000
vt 0.722222 0.142857
vt 0.722222 0.000000
vt 0.694444 0.357143
vt 0.666667 0.500000
vt 0.666667 0.357143
vt 0.500000 0.500000
vt 0.555556 0.357143
vt 0.555556 0.500000
vt 0.888889 0.357143
vt 0.875000 0.500000
vt 0.875000 0.357143
vt 0.500000 0.000000
vt 0.611111 0.357143
vt 0.500000 0.357143
vt 0.930556 0.071429
vt 0.930556 0.285714
vt 0.916667 0.357143
vt 0.861111 0.500000
vt 0.847222 0.357143
vt 0.861111 0.357143
vt 0.833333 0.357143
vt 0.722222 0.285714
vt 0.875000 0.000000
vt 0.916667 0.107143
vt 0.916667 0.250000
vt 0.888889 0.000000
vt 0.888889 0.357143
vt 0.722222 0.000000
vt 0.958333 0.000000
vt 0.972222 0.000000
vt 1.000000 0.107143
vt 1.000000 0.250000
vt 0.972222 0.357143
vt 0.638889 0.357143
vt 0.833333 0.142857
vt 0.611111 0.357143
vt 0.611111 0.500000
vt 0.875000 0.500000
vt 0.875000 0.357143
vt 0.861111 0.357143
vt 0.833333 0.250000
vt 0.833333 0.107143
vt 0.861111 0.000000
vt 0.833333 0.428571
vt 0.694444 0.357143
vt 0.833333 0.142857
vt 0.694444 0.500000
vt 0.500000 0.357143
vt 0.888889 0.500000
vt 0.611111 0.000000
vt 0.916667 0.000000
vt 0.958333 0.107143
vt 0.958333 0.250000
vt 0.930556 0.000000
vt 0.930556 0.357143
vt 0.847222 0.500000
vn -1.0000 0.0000 0.0000
vn 0.0000 1.0000 0.0000
vn 0.0000 0.0000 -1.0000
vn 0.0000 -1.0000 -0.0000
vn 0.0000 0.0000 1.0000
vn -0.7071 0.7071 0.0000
vn 0.7071 0.7071 0.0000
vn 1.0000 0.0000 0.0000
usemtl main
s 1
f 9/23/7 10/24/7 11/25/7
f 11/26/8 12/27/8 13/28/8
f 13/29/9 14/30/9 15/31/9
f 15/32/10 16/33/10 9/34/10
f 17/35/11 12/36/11 16/37/11
f 18/38/12 13/39/12 12/40/12
f 19/41/8 20/42/8 18/43/8
f 21/44/13 17/45/13 14/46/13
f 14/47/8 22/48/8 23/49/8
f 24/50/14 23/51/14 22/52/14
f 25/53/9 26/54/9 27/55/9
f 28/56/8 29/57/8 25/58/8
f 30/59/12 25/60/12 29/61/12
f 31/62/8 32/63/8 30/64/8
f 33/65/13 34/66/13 26/67/13
f 35/68/8 26/69/8 34/70/8
f 36/71/14 37/72/14 35/73/14
f 27/74/10 38/75/10 39/76/10
f 34/77/11 29/78/11 38/79/11
f 28/80/7 38/81/7 40/82/7
f 9/23/7 16/83/7 10/24/7
f 11/26/8 10/84/8 12/27/8
f 15/31/9 9/85/9 13/29/9
f 13/29/9 20/86/9 21/87/9
f 9/85/9 11/88/9 13/29/9
f 14/30/9 23/89/9 15/31/9
f 13/29/9 21/87/9 14/30/9
f 15/32/10 24/90/10 16/33/10
f 24/91/11 22/92/11 17/35/11
f 17/35/11 19/93/11 18/94/11
f 12/36/11 10/95/11 16/37/11
f 17/35/11 18/94/11 12/36/11
f 16/37/11 24/91/11 17/35/11
f 18/38/12 20/96/12 13/39/12
f 19/41/8 21/97/8 20/42/8
f 21/44/13 19/98/13 17/45/13
f 14/47/8 17/99/8 22/48/8
f 24/50/14 15/100/14 23/51/14
f 39/101/9 28/102/9 25/53/9
f 25/53/9 32/103/9 33/104/9
f 26/54/9 37/105/9 27/55/9
f 25/53/9 33/104/9 26/54/9
f 27/55/9 39/101/9 25/53/9
f 28/56/8 40/106/8 29/57/8
f 30/59/12 32/107/12 25/60/12
f 31/62/8 33/108/8 32/63/8
f 33/65/13 31/109/13 34/66/13
f 35/68/8 37/110/8 26/69/8
f 36/71/14 27/111/14 37/72/14
f 27/74/10 36/112/10 38/75/10
f 38/79/11 36/113/11 34/77/11
f 34/77/11 31/114/11 30/115/11
f 36/113/11 35/116/11 34/77/11
f 29/78/11 40/117/11 38/79/11
f 34/77/11 30/115/11 29/78/11
f 28/80/7 39/118/7 38/81/7
o r1
v 0.812500 0.093750 1.000000
v 0.812500 0.031250 0.000000
v 0.812500 0.031250 1.000000
v 0.812500 0.093750 0.000000
v 0.875000 0.031250 0.000000
v 0.875000 0.093750 0.000000
v 0.875000 0.031250 1.000000
v 0.875000 0.093750 1.000000
vt 0.100000 0.500000
vt 0.000000 1.000000
vt 0.000000 0.500000
vt 0.400000 0.562500
vt 0.500000 0.531250
vt 0.500000 0.562500
vt 0.400000 0.500000
vt 0.300000 1.000000
vt 0.300000 0.500000
vt 0.500000 0.500000
vt 0.400000 0.531250
vt 0.400000 0.500000
vt 0.200000 1.000000
vt 0.300000 0.500000
vt 0.300000 1.000000
vt 0.100000 1.000000
vt 0.200000 0.500000
vt 0.200000 1.000000
vt 0.400000 0.531250
vt 0.400000 1.000000
vt 0.500000 0.531250
vt 0.200000 0.500000
vn -1.0000 0.0000 0.0000
vn 0.0000 0.0000 -1.0000
vn 1.0000 0.0000 0.0000
vn 0.0000 0.0000 1.0000
vn 0.0000 -1.0000 -0.0000
vn 0.0000 1.0000 0.0000
usemtl main
s 1
f 41/119/15 42/120/15 43/121/15
f 44/122/16 45/123/16 42/124/16
f 46/125/17 47/126/17 45/127/17
f 48/128/18 43/129/18 47/130/18
f 45/131/19 43/132/19 42/133/19
f 44/134/20 48/135/20 46/136/20
f 41/119/15 44/134/15 42/120/15
f 44/122/16 46/137/16 45/123/16
f 46/125/17 48/138/17 47/126/17
f 48/128/18 41/139/18 43/129/18
f 45/131/19 47/140/19 43/132/19
f 44/134/20 41/119/20 48/135/20
o b4
v 0.000000 0.000000 0.062500
v 0.000000 0.015625 0.187500
v 0.000000 0.015625 0.062500
v 0.062500 0.015625 0.187500
v 0.062500 0.015625 0.062500
v 0.250000 0.015625 0.062500
v 0.312500 0.000000 0.062500
v 0.000000 0.000000 0.187500
v 0.250000 0.015625 0.187500
v 0.093750 0.046875 0.187500
v 0.218750 0.046875 0.187500
v 0.093750 0.046875 0.062500
v 0.218750 0.046875 0.062500
v 0.312500 0.015625 0.187500
v 0.312500 0.015625 0.062500
v 0.312500 0.000000 0.187500
v 0.750000 0.015625 0.062500
v 0.937500 0.015625 0.062500
v 1.000000 0.000000 0.062500
v 0.687500 0.015625 0.062500
v 0.750000 0.015625 0.187500
v 0.781250 0.046875 0.187500
v 0.906250 0.046875 0.187500
v 0.781250 0.046875 0.062500
v 0.906250 0.046875 0.062500
v 0.937500 0.015625 0.187500
v 1.000000 0.015625 0.187500
v 1.000000 0.000000 0.187500
v 1.000000 0.015625 0.062500
v 0.687500 0.000000 0.187500
v 0.687500 0.000000 0.062500
v 0.687500 0.015625 0.187500
vt 0.805556 0.428571
vt 0.819444 0.285714
vt 0.819444 0.428571
vt 0.777778 0.285714
vt 0.722222 0.428571
vt 0.722222 0.285714
vt 0.902778 0.285714
vt 0.902778 0.071429
vt 0.916667 0.000000
vt 0.611111 0.000000
vt 0.722222 0.357143
vt 0.611111 0.357143
vt 0.972222 0.071429
vt 0.972222 0.285714
vt 0.958333 0.357143
vt 0.722222 0.357143
vt 0.694444 0.500000
vt 0.694444 0.357143
vt 0.833333 0.142857
vt 0.722222 0.285714
vt 0.722222 0.142857
vt 0.861111 0.357143
vt 0.833333 0.500000
vt 0.833333 0.357143
vt 0.611111 0.500000
vt 0.666667 0.357143
vt 0.666667 0.500000
vt 0.888889 0.357143
vt 0.875000 0.500000
vt 0.875000 0.357143
vt 0.861111 0.285714
vt 0.861111 0.071429
vt 0.875000 0.000000
vt 0.555556 0.500000
vt 0.611111 0.357143
vt 0.611111 0.500000
vt 0.777778 0.428571
vt 0.805556 0.285714
vt 0.805556 0.428571
vt 0.833333 0.000000
vt 0.722222 0.142857
vt 0.722222 0.000000
vt 0.694444 0.357143
vt 0.666667 0.500000
vt 0.666667 0.357143
vt 0.555556 0.357143
vt 0.500000 0.500000
vt 0.500000 0.357143
vt 0.902778 0.357143
vt 0.888889 0.500000
vt 0.888889 0.357143
vt 0.500000 0.000000
vt 0.611111 0.357143
vt 0.500000 0.357143
vt 0.930556 0.071429
vt 0.930556 0.285714
vt 0.916667 0.357143
vt 0.875000 0.500000
vt 0.861111 0.357143
vt 0.875000 0.357143
vt 0.805556 0.285714
vt 0.777778 0.428571
vt 0.916667 0.357143
vt 0.875000 0.250000
vt 0.875000 0.107143
vt 0.902778 0.357143
vt 0.902778 0.000000
vt 0.722222 0.000000
vt 0.958333 0.000000
vt 0.972222 0.000000
vt 1.000000 0.107143
vt 1.000000 0.250000
vt 0.972222 0.357143
vt 0.722222 0.500000
vt 0.833333 0.285714
vt 0.861111 0.500000
vt 0.611111 0.357143
vt 0.888889 0.500000
vt 0.875000 0.357143
vt 0.861111 0.357143
vt 0.833333 0.250000
vt 0.833333 0.107143
vt 0.861111 0.000000
vt 0.555556 0.357143
vt 0.777778 0.285714
vt 0.833333 0.142857
vt 0.694444 0.500000
vt 0.555556 0.500000
vt 0.902778 0.500000
vt 0.611111 0.000000
vt 0.916667 0.000000
vt 0.958333 0.107143
vt 0.958333 0.250000
vt 0.930556 0.000000
vt 0.930556 0.357143
vt 0.861111 0.500000
vn -1.0000 0.0000 0.0000
vn 0.0000 1.0000 0.0000
vn 0.0000 0.0000 -1.0000
vn 0.0000 -1.0000 -0.0000
vn 0.0000 0.0000 1.0000
vn -0.7071 0.7071 0.0000
vn 0.7071 0.7071 0.0000
vn 1.0000 0.0000 0.0000
usemtl main
s 1
f 49/141/21 50/142/21 51/143/21
f 51/144/22 52/145/22 53/146/22
f 53/147/23 54/148/23 55/149/23
f 55/150/24 56/151/24 49/152/24
f 57/153/25 52/154/25 56/155/25
f 58/156/26 53/157/26 52/158/26
f 59/159/22 60/160/22 58/161/22
f 61/162/27 57/163/27 54/164/27
f 54/165/22 62/166/22 63/167/22
f 64/168/28 63/169/28 62/170/28
f 65/171/23 66/172/23 67/173/23
f 68/174/22 69/175/22 65/176/22
f 70/177/26 65/178/26 69/179/26
f 71/180/22 72/181/22 70/182/22
f 73/183/27 74/184/27 66/185/27
f 75/186/22 66/187/22 74/188/22
f 76/189/28 77/190/28 75/191/28
f 67/192/24 78/193/24 79/194/24
f 74/195/25 69/196/25 78/197/25
f 68/198/21 78/199/21 80/200/21
f 49/141/21 56/201/21 50/142/21
f 51/144/22 50/202/22 52/145/22
f 55/149/23 49/203/23 53/147/23
f 53/147/23 60/204/23 61/205/23
f 49/203/23 51/206/23 53/147/23
f 54/148/23 63/207/23 55/149/23
f 53/147/23 61/205/23 54/148/23
f 55/150/24 64/208/24 56/151/24
f 64/209/25 62/210/25 57/153/25
f 57/153/25 59/211/25 58/212/25
f 52/154/25 50/213/25 56/155/25
f 57/153/25 58/212/25 52/154/25
f 56/155/25 64/209/25 57/153/25
f 58/156/26 60/214/26 53/157/26
f 59/159/22 61/215/22 60/160/22
f 61/162/27 59/216/27 57/163/27
f 54/165/22 57/217/22 62/166/22
f 64/168/28 55/218/28 63/169/28
f 79/219/23 68/220/23 65/171/23
f 65/171/23 72/221/23 73/222/23
f 66/172/23 77/223/23 67/173/23
f 65/171/23 73/222/23 66/172/23
f 67/173/23 79/219/23 65/171/23
f 68/174/22 80/224/22 69/175/22
f 70/177/26 72/225/26 65/178/26
f 71/180/22 73/226/22 72/181/22
f 73/183/27 71/227/27 74/184/27
f 75/186/22 77/228/22 66/187/22
f 76/189/28 67/229/28 77/190/28
f 67/192/24 76/230/24 78/193/24
f 78/197/25 76/231/25 74/195/25
f 74/195/25 71/232/25 70/233/25
f 76/231/25 75/234/25 74/195/25
f 69/196/25 80/235/25 78/197/25
f 74/195/25 70/233/25 69/196/25
f 68/198/21 79/236/21 78/199/21
o b2
v 0.000000 0.000000 0.562500
v 0.000000 0.015625 0.687500
v 0.000000 0.015625 0.562500
v 0.062500 0.015625 0.687500
v 0.062500 0.015625 0.562500
v 0.250000 0.015625 0.562500
v 0.312500 0.000000 0.562500
v 0.000000 0.000000 0.687500
v 0.250000 0.015625 0.687500
v 0.093750 0.046875 0.687500
v 0.218750 0.046875 0.687500
v 0.093750 0.046875 0.562500
v 0.218750 0.046875 0.562500
v 0.312500 0.015625 0.687500
v 0.312500 0.015625 0.562500
v 0.312500 0.000000 0.687500
v 0.750000 0.015625 0.562500
v 0.937500 0.015625 0.562500
v 1.000000 0.000000 0.562500
v 0.687500 0.015625 0.562500
v 0.750000 0.015625 0.687500
v 0.781250 0.046875 0.687500
v 0.906250 0.046875 0.687500
v 0.781250 0.046875 0.562500
v 0.906250 0.046875 0.562500
v 0.937500 0.015625 0.687500
v 1.000000 0.015625 0.687500
v 1.000000 0.000000 0.687500
v 1.000000 0.015625 0.562500
v 0.687500 0.000000 0.687500
v 0.687500 0.000000 0.562500
v 0.687500 0.015625 0.687500
vt 0.861111 0.500000
vt 0.875000 0.357143
vt 0.875000 0.500000
vt 0.777778 0.428571
vt 0.833333 0.285714
vt 0.833333 0.428571
vt 0.888889 0.071429
vt 0.888889 0.285714
vt 0.875000 0.357143
vt 0.500000 0.000000
vt 0.611111 0.357143
vt 0.500000 0.357143
vt 0.972222 0.071429
vt 0.972222 0.285714
vt 0.958333 0.357143
vt 0.638889 0.500000
vt 0.666667 0.357143
vt 0.666667 0.500000
vt 0.722222 0.142857
vt 0.833333 0.285714
vt 0.722222 0.285714
vt 0.722222 0.357143
vt 0.694444 0.500000
vt 0.694444 0.357143
vt 0.722222 0.428571
vt 0.777778 0.285714
vt 0.777778 0.428571
vt 0.861111 0.357143
vt 0.847222 0.500000
vt 0.847222 0.357143
vt 0.861111 0.285714
vt 0.861111 0.071429
vt 0.875000 0.000000
vt 0.500000 0.500000
vt 0.555556 0.357143
vt 0.555556 0.500000
vt 0.666667 0.500000
vt 0.694444 0.357143
vt 0.694444 0.500000
vt 0.722222 0.000000
vt 0.833333 0.142857
vt 0.722222 0.142857
vt 0.611111 0.500000
vt 0.638889 0.357143
vt 0.638889 0.500000
vt 0.555556 0.500000
vt 0.611111 0.357143
vt 0.611111 0.500000
vt 0.847222 0.357143
vt 0.833333 0.500000
vt 0.833333 0.357143
vt 0.611111 0.000000
vt 0.722222 0.357143
vt 0.611111 0.357143
vt 0.930556 0.071429
vt 0.930556 0.285714
vt 0.916667 0.357143
vt 0.888889 0.500000
vt 0.875000 0.357143
vt 0.888889 0.357143
vt 0.861111 0.357143
vt 0.777778 0.285714
vt 0.875000 0.000000
vt 0.916667 0.107143
vt 0.916667 0.250000
vt 0.888889 0.000000
vt 0.888889 0.357143
vt 0.611111 0.000000
vt 0.958333 0.000000
vt 0.972222 0.000000
vt 1.000000 0.107143
vt 1.000000 0.250000
vt 0.972222 0.357143
vt 0.638889 0.357143
vt 0.833333 0.142857
vt 0.722222 0.500000
vt 0.722222 0.285714
vt 0.861111 0.500000
vt 0.875000 0.357143
vt 0.861111 0.357143
vt 0.833333 0.250000
vt 0.833333 0.107143
vt 0.861111 0.000000
vt 0.500000 0.357143
vt 0.666667 0.357143
vt 0.833333 0.000000
vt 0.611111 0.357143
vt 0.555556 0.357143
vt 0.847222 0.500000
vt 0.722222 0.000000
vt 0.916667 0.000000
vt 0.958333 0.107143
vt 0.958333 0.250000
vt 0.930556 0.000000
vt 0.930556 0.357143
vt 0.875000 0.500000
vn -1.0000 0.0000 0.0000
vn 0.0000 1.0000 0.0000
vn 0.0000 0.0000 -1.0000
vn 0.0000 -1.0000 -0.0000
vn 0.0000 0.0000 1.0000
vn -0.7071 0.7071 0.0000
vn 0.7071 0.7071 0.0000
vn 1.0000 0.0000 0.0000
usemtl main
s 1
f 81/237/29 82/238/29 83/239/29
f 83/240/30 84/241/30 85/242/30
f 85/243/31 86/244/31 87/245/31
f 87/246/32 88/247/32 81/248/32
f 89/249/33 84/250/33 88/251/33
f 90/252/34 85/253/34 84/254/34
f 91/255/30 92/256/30 90/257/30
f 93/258/35 89/259/35 86/260/35
f 86/261/30 94/262/30 95/263/30
f 96/264/36 95/265/36 94/266/36
f 97/267/31 98/268/31 99/269/31
f 100/270/30 101/271/30 97/272/30
f 102/273/34 97/274/34 101/275/34
f 103/276/30 104/277/30 102/278/30
f 105/279/35 106/280/35 98/281/35
f 107/282/30 98/283/30 106/284/30
f 108/285/36 109/286/36 107/287/36
f 99/288/32 110/289/32 111/290/32
f 106/291/33 101/292/33 110/293/33
f 100/294/29 110/295/29 112/296/29
f 81/237/29 88/297/29 82/238/29
f 83/240/30 82/298/30 84/241/30
f 87/245/31 81/299/31 85/243/31
f 85/243/31 92/300/31 93/301/31
f 81/299/31 83/302/31 85/243/31
f 86/244/31 95/303/31 87/245/31
f 85/243/31 93/301/31 86/244/31
f 87/246/32 96/304/32 88/247/32
f 96/305/33 94/306/33 89/249/33
f 89/249/33 91/307/33 90/308/33
f 84/250/33 82/309/33 88/251/33
f 89/249/33 90/308/33 84/250/33
f 88/251/33 96/305/33 89/249/33
f 90/252/34 92/310/34 85/253/34
f 91/255/30 93/311/30 92/256/30
f 93/258/35 91/312/35 89/259/35
f 86/261/30 89/313/30 94/262/30
f 96/264/36 87/314/36 95/265/36
f 111/315/31 100/316/31 97/267/31
f 97/267/31 104/317/31 105/318/31
f 98/268/31 109/319/31 99/269/31
f 97/267/31 105/318/31 98/268/31
f 99/269/31 111/315/31 97/267/31
f 100/270/30 112/320/30 101/271/30
f 102/273/34 104/321/34 97/274/34
f 103/276/30 105/322/30 104/277/30
f 105/279/35 103/323/35 106/280/35
f 107/282/30 109/324/30 98/283/30
f 108/285/36 99/325/36 109/286/36
f 99/288/32 108/326/32 110/289/32
f 110/293/33 108/327/33 106/291/33
f 106/291/33 103/328/33 102/329/33
f 108/327/33 107/330/33 106/291/33
f 101/292/33 112/331/33 110/293/33
f 106/291/33 102/329/33 101/292/33
f 100/294/29 111/332/29 110/295/29
o b1
v 0.000000 0.000000 0.812500
v 0.000000 0.015625 0.937500
v 0.000000 0.015625 0.812500
v 0.062500 0.015625 0.937500
v 0.062500 0.015625 0.812500
v 0.250000 0.015625 0.812500
v 0.312500 0.000000 0.812500
v 0.000000 0.000000 0.937500
v 0.250000 0.015625 0.937500
v 0.093750 0.046875 0.937500
v 0.218750 0.046875 0.937500
v 0.093750 0.046875 0.812500
v 0.218750 0.046875 0.812500
v 0.312500 0.015625 0.937500
v 0.312500 0.015625 0.812500
v 0.312500 0.000000 0.937500
v 0.750000 0.015625 0.812500
v 0.937500 0.015625 0.812500
v 1.000000 0.000000 0.812500
v 0.687500 0.015625 0.812500
v 0.750000 0.015625 0.937500
v 0.781250 0.046875 0.937500
v 0.906250 0.046875 0.937500
v 0.781250 0.046875 0.812500
v 0.906250 0.046875 0.812500
v 0.937500 0.015625 0.937500
v 1.000000 0.015625 0.937500
v 1.000000 0.000000 0.937500
v 1.000000 0.015625 0.812500
v 0.687500 0.000000 0.937500
v 0.687500 0.000000 0.812500
v 0.687500 0.015625 0.937500
vt 0.861111 0.500000
vt 0.875000 0.357143
vt 0.875000 0.500000
vt 0.722222 0.428571
vt 0.777778 0.285714
vt 0.777778 0.428571
vt 0.888889 0.071429
vt 0.888889 0.285714
vt 0.875000 0.357143
vt 0.500000 0.000000
vt 0.611111 0.357143
vt 0.500000 0.357143
vt 0.972222 0.071429
vt 0.972222 0.285714
vt 0.958333 0.357143
vt 0.666667 0.357143
vt 0.638889 0.500000
vt 0.638889 0.357143
vt 0.833333 0.000000
vt 0.722222 0.142857
vt 0.722222 0.000000
vt 0.694444 0.357143
vt 0.666667 0.500000
vt 0.666667 0.357143
vt 0.777778 0.428571
vt 0.833333 0.285714
vt 0.833333 0.428571
vt 0.847222 0.357143
vt 0.833333 0.500000
vt 0.833333 0.357143
vt 0.861111 0.285714
vt 0.861111 0.071429
vt 0.875000 0.000000
vt 0.500000 0.500000
vt 0.555556 0.357143
vt 0.555556 0.500000
vt 0.611111 0.500000
vt 0.638889 0.357143
vt 0.638889 0.500000
vt 0.833333 0.142857
vt 0.722222 0.285714
vt 0.722222 0.142857
vt 0.694444 0.500000
vt 0.722222 0.357143
vt 0.722222 0.500000
vt 0.611111 0.357143
vt 0.555556 0.500000
vt 0.555556 0.357143
vt 0.861111 0.357143
vt 0.847222 0.500000
vt 0.847222 0.357143
vt 0.611111 0.000000
vt 0.722222 0.357143
vt 0.611111 0.357143
vt 0.930556 0.071429
vt 0.930556 0.285714
vt 0.916667 0.357143
vt 0.888889 0.500000
vt 0.875000 0.357143
vt 0.888889 0.357143
vt 0.861111 0.357143
vt 0.722222 0.285714
vt 0.875000 0.000000
vt 0.916667 0.107143
vt 0.916667 0.250000
vt 0.888889 0.000000
vt 0.888889 0.357143
vt 0.611111 0.000000
vt 0.958333 0.000000
vt 0.972222 0.000000
vt 1.000000 0.107143
vt 1.000000 0.250000
vt 0.972222 0.357143
vt 0.666667 0.500000
vt 0.833333 0.142857
vt 0.694444 0.500000
vt 0.777778 0.285714
vt 0.847222 0.500000
vt 0.875000 0.357143
vt 0.861111 0.357143
vt 0.833333 0.250000
vt 0.833333 0.107143
vt 0.861111 0.000000
vt 0.500000 0.357143
vt 0.611111 0.357143
vt 0.833333 0.285714
vt 0.694444 0.357143
vt 0.611111 0.500000
vt 0.861111 0.500000
vt 0.722222 0.000000
vt 0.916667 0.000000
vt 0.958333 0.107143
vt 0.958333 0.250000
vt 0.930556 0.000000
vt 0.930556 0.357143
vt 0.875000 0.500000
vn -1.0000 0.0000 0.0000
vn 0.0000 1.0000 0.0000
vn 0.0000 0.0000 -1.0000
vn 0.0000 -1.0000 -0.0000
vn 0.0000 0.0000 1.0000
vn -0.7071 0.7071 0.0000
vn 0.7071 0.7071 0.0000
vn 1.0000 0.0000 0.0000
usemtl main
s 1
f 113/333/37 114/334/37 115/335/37
f 115/336/38 116/337/38 117/338/38
f 117/339/39 118/340/39 119/341/39
f 119/342/40 120/343/40 113/344/40
f 121/345/41 116/346/41 120/347/41
f 122/348/42 117/349/42 116/350/42
f 123/351/38 124/352/38 122/353/38
f 125/354/43 121/355/43 118/356/43
f 118/357/38 126/358/38 127/359/38
f 128/360/44 127/361/44 126/362/44
f 129/363/39 130/364/39 131/365/39
f 132/366/38 133/367/38 129/368/38
f 134/369/42 129/370/42 133/371/42
f 135/372/38 136/373/38 134/374/38
f 137/375/43 138/376/43 130/377/43
f 139/378/38 130/379/38 138/380/38
f 140/381/44 141/382/44 139/383/44
f 131/384/40 142/385/40 143/386/40
f 138/387/41 133/388/41 142/389/41
f 132/390/37 142/391/37 144/392/37
f 113/333/37 120/393/37 114/334/37
f 115/336/38 114/394/38 116/337/38
f 119/341/39 113/395/39 117/339/39
f 117/339/39 124/396/39 125/397/39
f 113/395/39 115/398/39 117/339/39
f 118/340/39 127/399/39 119/341/39
f 117/339/39 125/397/39 118/340/39
f 119/342/40 128/400/40 120/343/40
f 128/401/41 126/402/41 121/345/41
f 121/345/41 123/403/41 122/404/41
f 116/346/41 114/405/41 120/347/41
f 121/345/41 122/404/41 116/346/41
f 120/347/41 128/401/41 121/345/41
f 122/348/42 124/406/42 117/349/42
f 123/351/38 125/407/38 124/352/38
f 125/354/43 123/408/43 121/355/43
f 118/357/38 121/409/38 126/358/38
f 128/360/44 119/410/44 127/361/44
f 143/411/39 132/412/39 129/363/39
f 129/363/39 136/413/39 137/414/39
f 130/364/39 141/415/39 131/365/39
f 129/363/39 137/414/39 130/364/39
f 131/365/39 143/411/39 129/363/39
f 132/366/38 144/416/38 133/367/38
f 134/369/42 136/417/42 129/370/42
f 135/372/38 137/418/38 136/373/38
f 137/375/43 135/419/43 138/376/43
f 139/378/38 141/420/38 130/379/38
f 140/381/44 131/421/44 141/382/44
f 131/384/40 140/422/40 142/385/40
f 142/389/41 140/423/41 138/387/41
f 138/387/41 135/424/41 134/425/41
f 140/423/41 139/426/41 138/387/41
f 133/388/41 144/427/41 142/389/41
f 138/387/41 134/425/41 133/388/41
f 132/390/37 143/428/37 142/391/37
