# Blender v2.79 (sub 0) OBJ File: ''
# www.blender.org
mtllib rail_nor.mtl
o b4
v -0.500000 0.191631 0.275693
v -0.500000 0.456795 0.364081
v -0.500000 0.280019 0.187305
v -0.375000 0.456795 0.364081
v -0.375000 0.280019 0.187305
v 0.125000 0.257921 0.209401
v 0.875000 0.257921 0.209401
v 1.500000 0.191631 0.275693
v -0.500000 0.368406 0.452469
v 0.875000 0.434699 0.386179
v 0.125000 0.434699 0.386179
v -0.312500 0.302115 0.165207
v -0.062500 0.478893 0.341985
v -0.312500 0.478893 0.341985
v 1.312500 0.478893 0.341985
v 1.062500 0.302115 0.165207
v 1.062500 0.478893 0.341985
v 1.312500 0.302115 0.165207
v 1.375000 0.456795 0.364081
v 1.375000 0.280019 0.187305
v 1.500000 0.456795 0.364081
v 1.500000 0.280019 0.187305
v -0.062500 0.302115 0.165207
v 1.500000 0.368406 0.452469
vt 0.933333 0.125000
vt 1.000000 0.062500
vt 1.000000 0.125000
vt 0.500000 0.000000
vt 0.633333 0.031250
vt 0.500000 0.031250
vt 0.816667 0.156250
vt 0.816667 0.343750
vt 0.766667 0.500000
vt 0.633333 0.000000
vt 0.766667 0.500000
vt 0.633333 0.500000
vt 0.883333 0.343750
vt 0.883333 0.156250
vt 0.933333 0.000000
vt 0.500000 0.046875
vt 0.633333 0.109375
vt 0.633333 0.046875
vt 0.633333 0.453125
vt 0.500000 0.390625
vt 0.633333 0.390625
vt 0.500000 0.453125
vt 0.633333 0.468750
vt 0.500000 0.468750
vt 0.633333 0.500000
vt 1.000000 0.062500
vt 0.933333 0.000000
vt 1.000000 0.000000
vt 0.500000 0.109375
vt 0.633333 0.156250
vt 0.500000 0.156250
vt 0.633333 0.343750
vt 0.500000 0.343750
vt 0.933333 0.062500
vt 0.633333 0.000000
vt 0.766667 0.000000
vt 0.833333 0.031250
vt 0.850000 0.046875
vt 0.850000 0.109375
vt 0.833333 0.000000
vt 0.833333 0.468750
vt 0.833333 0.500000
vt 0.850000 0.390625
vt 0.850000 0.453125
vt 0.766666 0.000000
vt 0.933333 0.500000
vt 0.866667 0.468750
vt 0.850000 0.453125
vt 0.850000 0.390625
vt 0.866667 0.500000
vt 0.866667 0.031250
vt 0.866667 0.000000
vt 0.850000 0.109375
vt 0.850000 0.046875
vt 0.500000 0.500000
vt 0.933333 0.062500
vn -1.0000 0.0000 0.0000
vn 0.0000 0.7071 -0.7071
vn -0.0000 -0.7071 -0.7071
vn 0.0000 -0.7071 0.7071
vn 0.0000 0.7071 0.7071
vn -0.4472 0.6325 -0.6325
vn 0.4472 0.6325 -0.6325
vn 1.0000 0.0000 0.0000
vn 0.3162 0.6708 -0.6708
vn -0.3162 0.6708 -0.6708
usemtl main
s 1
f 1/1/1 2/2/1 3/3/1
f 3/4/2 4/5/2 5/6/2
f 6/7/3 7/8/3 8/9/3
f 8/10/4 9/11/4 1/12/4
f 10/13/5 11/14/5 9/15/5
f 4/5/6 12/16/6 5/6/6
f 13/17/2 12/16/2 14/18/2
f 15/19/2 16/20/2 17/21/2
f 18/22/7 19/23/7 20/24/7
f 21/25/2 20/24/2 19/23/2
f 21/26/8 8/27/8 22/28/8
f 23/29/9 11/30/9 6/31/9
f 6/31/2 10/32/2 7/33/2
f 10/32/10 16/20/10 7/33/10
f 1/1/1 9/34/1 2/2/1
f 3/4/2 2/35/2 4/5/2
f 8/9/3 1/36/3 6/7/3
f 5/37/3 12/38/3 23/39/3
f 1/36/3 3/40/3 5/37/3
f 20/41/3 22/42/3 8/9/3
f 16/43/3 18/44/3 20/41/3
f 7/8/3 16/43/3 8/9/3
f 5/37/3 23/39/3 1/36/3
f 16/43/3 20/41/3 8/9/3
f 1/36/3 23/39/3 6/7/3
f 8/10/4 24/45/4 9/11/4
f 9/15/5 24/46/5 10/13/5
f 19/47/5 15/48/5 17/49/5
f 24/46/5 21/50/5 19/47/5
f 4/51/5 2/52/5 9/15/5
f 13/53/5 14/54/5 4/51/5
f 11/14/5 13/53/5 9/15/5
f 19/47/5 17/49/5 24/46/5
f 13/53/5 4/51/5 9/15/5
f 24/46/5 17/49/5 10/13/5
f 4/5/6 14/18/6 12/16/6
f 13/17/2 23/29/2 12/16/2
f 15/19/2 18/22/2 16/20/2
f 18/22/7 15/19/7 19/23/7
f 21/25/2 22/55/2 20/24/2
f 21/26/8 24/56/8 8/27/8
f 23/29/9 13/17/9 11/30/9
f 6/31/2 11/30/2 10/32/2
f 10/32/10 17/21/10 16/20/10
o r2
v -0.250000 1.088776 1.000063
v -0.250000 0.213776 -0.000937
v -0.250000 0.088776 -0.000937
v -0.125000 0.088776 -0.000937
v -0.125000 0.213776 -0.000937
v -0.125000 1.088776 1.000063
v -0.125000 1.213776 1.000063
v -0.250000 1.213776 1.000063
vt 0.396416 0.529384
vt 0.500000 0.970616
vt 0.396416 1.000000
vt 0.292832 0.529384
vt 0.146416 0.500000
vt 0.292832 0.500000
vt 0.396416 0.529384
vt 0.292833 0.970616
vt 0.292833 0.500000
vt 0.000000 0.500000
vt 0.146416 0.529384
vt 0.000000 0.529384
vt 0.000000 1.000000
vt 0.146416 1.000000
vt 0.146416 1.000000
vt 0.146416 0.529384
vt 0.500000 0.500000
vt 0.396416 1.000000
vt 0.146416 0.500000
vt 0.292833 1.000000
vn -1.0000 -0.0000 0.0000
vn 0.0000 0.0000 -1.0000
vn 1.0000 0.0000 0.0000
vn 0.0000 -0.0000 1.0000
vn 0.0000 -0.7075 0.7068
vn 0.0000 0.7075 -0.7068
usemtl main
s 1
f 25/57/11 26/58/11 27/59/11
f 26/60/12 28/61/12 27/62/12
f 29/63/13 30/64/13 28/65/13
f 31/66/14 25/67/14 30/68/14
f 28/69/15 25/67/15 27/70/15
f 26/60/16 31/71/16 29/72/16
f 25/57/11 32/73/11 26/58/11
f 26/60/12 29/72/12 28/61/12
f 29/63/13 31/74/13 30/64/13
f 31/66/14 32/75/14 25/67/14
f 28/69/15 30/68/15 25/67/15
f 26/60/16 32/76/16 31/71/16
o b3
v -0.500000 0.692791 0.776856
v -0.500000 0.957957 0.865244
v -0.500000 0.781179 0.688466
v -0.375000 0.957957 0.865244
v -0.375000 0.781179 0.688466
v 0.125000 0.759083 0.710564
v 0.875000 0.759083 0.710564
v 1.500000 0.692791 0.776856
v -0.500000 0.869567 0.953632
v 0.875000 0.935859 0.887340
v 0.125000 0.935859 0.887340
v -0.312500 0.980053 0.843146
v -0.062500 0.980053 0.843146
v -0.312500 0.803277 0.666370
v 1.312500 0.980053 0.843146
v 1.062500 0.803277 0.666370
v 1.062500 0.980053 0.843146
v 1.375000 0.781179 0.688466
v 1.375000 0.957957 0.865244
v 1.500000 0.957957 0.865244
v 1.500000 0.781179 0.688466
v -0.062500 0.803277 0.666370
v 1.312500 0.803277 0.666370
v 1.500000 0.869567 0.953632
vt 1.000000 0.000000
vt 0.933334 0.062500
vt 0.933333 0.000000
vt 0.766667 0.500000
vt 0.633334 0.468750
vt 0.766667 0.468750
vt 0.816667 0.156250
vt 0.816667 0.343750
vt 0.766667 0.500000
vt 0.500000 0.000000
vt 0.633333 0.500000
vt 0.500000 0.500000
vt 0.900000 0.156250
vt 0.900000 0.343750
vt 0.850000 0.500000
vt 0.633334 0.453125
vt 0.633334 0.390625
vt 0.766667 0.453125
vt 0.633333 0.046875
vt 0.766667 0.109375
vt 0.633334 0.109375
vt 0.766667 0.031250
vt 0.633334 0.031250
vt 0.633334 0.000000
vt 0.933334 0.062500
vt 1.000000 0.125000
vt 0.933333 0.125000
vt 0.766667 0.390625
vt 0.633334 0.343750
vt 0.766667 0.343750
vt 0.633334 0.156250
vt 0.766667 0.156250
vt 1.000000 0.062500
vt 0.633334 0.500000
vt 0.766667 0.000000
vt 0.833334 0.031250
vt 0.850000 0.046875
vt 0.850000 0.109375
vt 0.833334 0.000000
vt 0.833334 0.468750
vt 0.833334 0.500000
vt 0.850000 0.390625
vt 0.850000 0.453125
vt 0.633333 0.000000
vt 0.850000 0.000000
vt 0.916667 0.031250
vt 0.933333 0.046875
vt 0.933333 0.109375
vt 0.916667 0.000000
vt 0.916667 0.468750
vt 0.916667 0.500000
vt 0.933333 0.390625
vt 0.933333 0.453125
vt 0.766667 0.046875
vt 0.766667 0.000000
vt 1.000000 0.062500
vn -1.0000 0.0000 0.0000
vn 0.0000 0.7071 -0.7071
vn 0.0000 -0.7071 -0.7071
vn 0.0000 -0.7071 0.7071
vn 0.0000 0.7071 0.7071
vn -0.4472 0.6325 -0.6325
vn 0.4472 0.6325 -0.6325
vn 1.0000 0.0000 0.0000
vn 0.3162 0.6708 -0.6708
vn -0.3162 0.6708 -0.6708
usemtl main
s 1
f 33/77/17 34/78/17 35/79/17
f 35/80/18 36/81/18 37/82/18
f 38/83/19 39/84/19 40/85/19
f 40/86/20 41/87/20 33/88/20
f 42/89/21 43/90/21 41/91/21
f 44/92/22 37/82/22 36/81/22
f 45/93/18 46/94/18 44/92/18
f 47/95/18 48/96/18 49/97/18
f 50/98/23 47/95/23 51/99/23
f 52/100/18 50/98/18 51/99/18
f 52/101/24 40/102/24 53/103/24
f 54/104/25 43/105/25 38/106/25
f 38/106/18 42/107/18 39/108/18
f 42/107/26 48/96/26 39/108/26
f 33/77/17 41/109/17 34/78/17
f 35/80/18 34/110/18 36/81/18
f 40/85/19 33/111/19 38/83/19
f 37/112/19 46/113/19 54/114/19
f 33/111/19 35/115/19 37/112/19
f 50/116/19 53/117/19 40/85/19
f 48/118/19 55/119/19 50/116/19
f 39/84/19 48/118/19 40/85/19
f 37/112/19 54/114/19 33/111/19
f 48/118/19 50/116/19 40/85/19
f 33/111/19 54/114/19 38/83/19
f 40/86/20 56/120/20 41/87/20
f 41/91/21 56/121/21 42/89/21
f 51/122/21 47/123/21 49/124/21
f 56/121/21 52/125/21 51/122/21
f 36/126/21 34/127/21 41/91/21
f 45/128/21 44/129/21 36/126/21
f 43/90/21 45/128/21 41/91/21
f 51/122/21 49/124/21 56/121/21
f 45/128/21 36/126/21 41/91/21
f 56/121/21 49/124/21 42/89/21
f 44/92/22 46/94/22 37/82/22
f 45/93/18 54/104/18 46/94/18
f 47/95/18 55/130/18 48/96/18
f 50/98/23 55/130/23 47/95/23
f 52/100/18 53/131/18 50/98/18
f 52/101/24 56/132/24 40/102/24
f 54/104/25 45/93/25 43/105/25
f 38/106/18 43/105/18 42/107/18
f 42/107/26 49/97/26 48/96/26
o r1
v 1.125000 1.088776 1.000063
v 1.125000 0.213776 -0.000937
v 1.125000 0.088776 -0.000937
v 1.250000 0.088776 -0.000937
v 1.250000 0.213776 -0.000937
v 1.250000 1.088776 1.000063
v 1.250000 1.213776 1.000063
v 1.125000 1.213776 1.000063
vt 0.396416 0.529384
vt 0.500000 0.970616
vt 0.396416 1.000000
vt 0.292832 0.529384
vt 0.146416 0.500000
vt 0.292832 0.500000
vt 0.396416 0.529384
vt 0.292833 0.970616
vt 0.292833 0.500000
vt 0.000000 0.500000
vt 0.146416 0.529384
vt 0.000000 0.529384
vt 0.000000 1.000000
vt 0.146416 1.000000
vt 0.146416 1.000000
vt 0.146416 0.529384
vt 0.500000 0.500000
vt 0.396416 1.000000
vt 0.146416 0.500000
vt 0.292833 1.000000
vn -1.0000 0.0000 0.0000
vn 0.0000 0.0000 -1.0000
vn 1.0000 0.0000 0.0000
vn 0.0000 -0.0000 1.0000
vn 0.0000 -0.7075 0.7068
vn 0.0000 0.7075 -0.7068
usemtl main
s 1
f 57/133/27 58/134/27 59/135/27
f 58/136/28 60/137/28 59/138/28
f 61/139/29 62/140/29 60/141/29
f 63/142/30 57/143/30 62/144/30
f 60/145/31 57/143/31 59/146/31
f 58/136/32 63/147/32 61/148/32
f 57/133/27 64/149/27 58/134/27
f 58/136/28 61/148/28 60/137/28
f 61/139/29 63/150/29 62/140/29
f 63/142/30 64/151/30 57/143/30
f 60/145/31 62/144/31 57/143/31
f 58/136/32 64/152/32 63/147/32
