# Blender v2.79 (sub 0) OBJ File: ''
# www.blender.org
mtllib rail_nor.mtl
o r1
v 1.125000 0.213541 1.000000
v 1.125000 0.088542 0.000000
v 1.125000 0.088541 1.000000
v 1.125000 0.213542 0.000000
v 1.250000 0.088542 0.000000
v 1.250000 0.213542 0.000000
v 1.250000 0.088541 1.000000
v 1.250000 0.213541 1.000000
vt 0.000000 1.000000
vt 0.100000 0.500000
vt 0.100000 1.000000
vt 0.400000 0.625000
vt 0.500000 0.562500
vt 0.500000 0.625000
vt 0.200000 0.500000
vt 0.100000 1.000000
vt 0.100000 0.500000
vt 0.500000 0.500000
vt 0.400000 0.562500
vt 0.400000 0.500000
vt 0.200000 1.000000
vt 0.300000 0.500000
vt 0.300000 1.000000
vt 0.300000 1.000000
vt 0.400000 0.500000
vt 0.400000 1.000000
vt 0.000000 0.500000
vt 0.400000 0.562500
vt 0.200000 1.000000
vt 0.500000 0.562500
vt 0.200000 0.500000
vt 0.300000 0.500000
vn -1.0000 0.0000 0.0000
vn 0.0000 0.0000 -1.0000
vn 1.0000 0.0000 0.0000
vn 0.0000 0.0000 1.0000
vn 0.0000 -1.0000 -0.0000
vn 0.0000 1.0000 0.0000
usemtl main
s 1
f 1/1/1 2/2/1 3/3/1
f 4/4/2 5/5/2 2/6/2
f 6/7/3 7/8/3 5/9/3
f 8/10/4 3/11/4 7/12/4
f 5/13/5 3/14/5 2/15/5
f 4/16/6 8/17/6 6/18/6
f 1/1/1 4/19/1 2/2/1
f 4/4/2 6/20/2 5/5/2
f 6/7/3 8/21/3 7/8/3
f 8/10/4 1/22/4 3/11/4
f 5/13/5 7/23/5 3/14/5
f 4/16/6 1/24/6 8/17/6
o b2
v -0.480000 -0.036458 0.625000
v -0.480000 0.088542 0.875000
v -0.480000 0.088542 0.625000
v -0.375000 0.088542 0.875000
v -0.375000 0.088542 0.625000
v 0.125000 0.057292 0.625000
v 0.875000 0.057292 0.625000
v 1.480000 -0.036458 0.625000
v -0.480000 -0.036458 0.875000
v 0.875000 0.057292 0.875000
v 0.125000 0.057292 0.875000
v -0.312500 0.119792 0.875000
v -0.062500 0.119792 0.875000
v -0.312500 0.119792 0.625000
v 1.312500 0.119792 0.875000
v 1.062500 0.119792 0.625000
v 1.062500 0.119792 0.875000
v 1.312500 0.119792 0.625000
v 1.375000 0.088542 0.875000
v 1.375000 0.088542 0.625000
v 1.480000 0.088542 0.875000
v 1.480000 -0.036458 0.875000
v 1.480000 0.088542 0.625000
v -0.062500 0.119792 0.625000
vt 0.933333 0.125000
vt 1.000000 0.062500
vt 1.000000 0.125000
vt 0.633333 0.500000
vt 0.500000 0.468750
vt 0.633333 0.468750
vt 0.816667 0.156250
vt 0.816667 0.343750
vt 0.766667 0.500000
vt 0.633333 0.000000
vt 0.766667 0.500000
vt 0.633334 0.500000
vt 0.900000 0.156250
vt 0.900000 0.343750
vt 0.850000 0.500000
vt 0.500000 0.453125
vt 0.500000 0.390625
vt 0.633333 0.453125
vt 0.500000 0.046875
vt 0.633333 0.109375
vt 0.500000 0.109375
vt 0.633333 0.046875
vt 0.500000 0.031250
vt 0.633333 0.031250
vt 0.500000 0.000000
vt 1.000000 0.000000
vt 0.933333 0.062500
vt 0.933333 0.000000
vt 0.633333 0.390625
vt 0.500000 0.343750
vt 0.633333 0.343750
vt 0.500000 0.156250
vt 0.633333 0.156250
vt 0.933333 0.062500
vt 0.500000 0.500000
vt 0.766667 0.000000
vt 0.833333 0.031250
vt 0.850000 0.046875
vt 0.850000 0.109375
vt 0.833333 0.000000
vt 0.833333 0.468750
vt 0.833333 0.500000
vt 0.850000 0.390625
vt 0.850000 0.453125
vt 0.766666 0.000000
vt 0.850000 0.000000
vt 0.916667 0.031250
vt 0.933333 0.046875
vt 0.933333 0.109375
vt 0.916667 0.000000
vt 0.916667 0.468750
vt 0.916667 0.500000
vt 0.933333 0.390625
vt 0.933333 0.453125
vt 0.633333 0.000000
vt 1.000000 0.062500
vn -1.0000 0.0000 0.0000
vn 0.0000 1.0000 0.0000
vn -0.0000 0.0000 -1.0000
vn 0.0000 -1.0000 -0.0000
vn 0.0000 0.0000 1.0000
vn -0.4472 0.8944 0.0000
vn 0.4472 0.8944 0.0000
vn 1.0000 0.0000 0.0000
vn 0.3162 0.9487 0.0000
vn -0.3162 0.9487 0.0000
usemtl main
s 1
f 9/25/7 10/26/7 11/27/7
f 11/28/8 12/29/8 13/30/8
f 14/31/9 15/32/9 16/33/9
f 16/34/10 17/35/10 9/36/10
f 18/37/11 19/38/11 17/39/11
f 20/40/12 13/30/12 12/29/12
f 21/41/8 22/42/8 20/40/8
f 23/43/8 24/44/8 25/45/8
f 26/46/13 27/47/13 28/48/13
f 29/49/8 28/48/8 27/47/8
f 30/50/14 31/51/14 29/52/14
f 32/53/15 19/54/15 14/55/15
f 14/55/8 18/56/8 15/57/8
f 25/45/16 15/57/16 18/56/16
f 9/25/7 17/58/7 10/26/7
f 11/28/8 10/59/8 12/29/8
f 16/33/9 9/60/9 14/31/9
f 13/61/9 22/62/9 32/63/9
f 9/60/9 11/64/9 13/61/9
f 28/65/9 31/66/9 16/33/9
f 24/67/9 26/68/9 28/65/9
f 15/32/9 24/67/9 16/33/9
f 13/61/9 32/63/9 9/60/9
f 24/67/9 28/65/9 16/33/9
f 9/60/9 32/63/9 14/31/9
f 16/34/10 30/69/10 17/35/10
f 17/39/11 30/70/11 18/37/11
f 27/71/11 23/72/11 25/73/11
f 30/70/11 29/74/11 27/71/11
f 12/75/11 10/76/11 17/39/11
f 21/77/11 20/78/11 12/75/11
f 19/38/11 21/77/11 17/39/11
f 27/71/11 25/73/11 30/70/11
f 21/77/11 12/75/11 17/39/11
f 30/70/11 25/73/11 18/37/11
f 20/40/12 22/42/12 13/30/12
f 21/41/8 32/53/8 22/42/8
f 23/43/8 26/46/8 24/44/8
f 26/46/13 23/43/13 27/47/13
f 29/49/8 31/79/8 28/48/8
f 30/50/14 16/80/14 31/51/14
f 32/53/15 21/41/15 19/54/15
f 14/55/8 19/54/8 18/56/8
f 25/45/16 24/44/16 15/57/16
o b3
v -0.480000 -0.036458 0.125000
v -0.480000 0.088542 0.375000
v -0.480000 0.088542 0.125000
v -0.375000 0.088542 0.375000
v -0.375000 0.088542 0.125000
v 0.125000 0.057292 0.125000
v 0.875000 0.057292 0.125000
v 1.480000 -0.036458 0.125000
v -0.480000 -0.036458 0.375000
v 0.875000 0.057292 0.375000
v 0.125000 0.057292 0.375000
v -0.312500 0.119792 0.375000
v -0.062500 0.119792 0.375000
v -0.312500 0.119792 0.125000
v 1.312500 0.119792 0.375000
v 1.062500 0.119792 0.125000
v 1.062500 0.119792 0.375000
v 1.312500 0.119792 0.125000
v 1.375000 0.088542 0.375000
v 1.375000 0.088542 0.125000
v 1.480000 0.088542 0.375000
v 1.480000 -0.036458 0.375000
v 1.480000 0.088542 0.125000
v -0.062500 0.119792 0.125000
vt 0.933333 0.062500
vt 1.000000 0.000000
vt 1.000000 0.062500
vt 0.633333 0.000000
vt 0.766667 0.031250
vt 0.633333 0.031250
vt 0.816667 0.156250
vt 0.816667 0.343750
vt 0.766667 0.500000
vt 0.500000 0.000000
vt 0.633333 0.500000
vt 0.500000 0.500000
vt 0.900000 0.156250
vt 0.900000 0.343750
vt 0.850000 0.500000
vt 0.766667 0.046875
vt 0.766667 0.109375
vt 0.633333 0.046875
vt 0.766666 0.453125
vt 0.633333 0.390625
vt 0.766667 0.390625
vt 0.633333 0.453125
vt 0.766666 0.468750
vt 0.633333 0.468750
vt 0.766667 0.500000
vt 0.933333 0.125000
vt 1.000000 0.062500
vt 1.000000 0.125000
vt 0.633333 0.109375
vt 0.766667 0.156250
vt 0.633333 0.156250
vt 0.766667 0.343750
vt 0.633333 0.343750
vt 0.933333 0.000000
vt 0.766667 0.000000
vt 0.766667 0.000000
vt 0.833333 0.031250
vt 0.850000 0.046875
vt 0.850000 0.109375
vt 0.833333 0.000000
vt 0.833333 0.468750
vt 0.833333 0.500000
vt 0.850000 0.390625
vt 0.850000 0.453125
vt 0.633333 0.000000
vt 0.850000 0.000000
vt 0.916667 0.031250
vt 0.933333 0.046875
vt 0.933333 0.109375
vt 0.916667 0.000000
vt 0.916667 0.468750
vt 0.916667 0.500000
vt 0.933333 0.390625
vt 0.933333 0.453125
vt 0.633333 0.500000
vt 0.933333 0.062500
vn -1.0000 -0.0000 0.0000
vn 0.0000 1.0000 0.0000
vn 0.0000 0.0000 -1.0000
vn 0.0000 -1.0000 -0.0000
vn 0.0000 0.0000 1.0000
vn -0.4472 0.8944 0.0000
vn 0.4472 0.8944 0.0000
vn 1.0000 -0.0000 0.0000
vn 0.3162 0.9487 0.0000
vn -0.3162 0.9487 0.0000
usemtl main
s 1
f 33/81/17 34/82/17 35/83/17
f 35/84/18 36/85/18 37/86/18
f 38/87/19 39/88/19 40/89/19
f 40/90/20 41/91/20 33/92/20
f 42/93/21 43/94/21 41/95/21
f 44/96/22 37/86/22 36/85/22
f 45/97/18 46/98/18 44/96/18
f 47/99/18 48/100/18 49/101/18
f 50/102/23 51/103/23 52/104/23
f 53/105/18 52/104/18 51/103/18
f 54/106/24 55/107/24 53/108/24
f 56/109/25 43/110/25 38/111/25
f 38/111/18 42/112/18 39/113/18
f 49/101/26 39/113/26 42/112/26
f 33/81/17 41/114/17 34/82/17
f 35/84/18 34/115/18 36/85/18
f 40/89/19 33/116/19 38/87/19
f 37/117/19 46/118/19 56/119/19
f 33/116/19 35/120/19 37/117/19
f 52/121/19 55/122/19 40/89/19
f 48/123/19 50/124/19 52/121/19
f 39/88/19 48/123/19 40/89/19
f 37/117/19 56/119/19 33/116/19
f 48/123/19 52/121/19 40/89/19
f 33/116/19 56/119/19 38/87/19
f 40/90/20 54/125/20 41/91/20
f 41/95/21 54/126/21 42/93/21
f 51/127/21 47/128/21 49/129/21
f 54/126/21 53/130/21 51/127/21
f 36/131/21 34/132/21 41/95/21
f 45/133/21 44/134/21 36/131/21
f 43/94/21 45/133/21 41/95/21
f 51/127/21 49/129/21 54/126/21
f 45/133/21 36/131/21 41/95/21
f 54/126/21 49/129/21 42/93/21
f 44/96/22 46/98/22 37/86/22
f 45/97/18 56/109/18 46/98/18
f 47/99/18 50/102/18 48/100/18
f 50/102/23 47/99/23 51/103/23
f 53/105/18 55/135/18 52/104/18
f 54/106/24 40/136/24 55/107/24
f 56/109/25 45/97/25 43/110/25
f 38/111/18 43/110/18 42/112/18
f 49/101/26 48/100/26 39/113/26
o r2
v -0.250000 0.213541 1.000000
v -0.250000 0.088542 0.000000
v -0.250000 0.088541 1.000000
v -0.250000 0.213542 0.000000
v -0.125000 0.088542 0.000000
v -0.125000 0.213542 0.000000
v -0.125000 0.088541 1.000000
v -0.125000 0.213541 1.000000
vt 0.000000 1.000000
vt 0.100000 0.500000
vt 0.100000 1.000000
vt 0.400000 0.625000
vt 0.500000 0.562500
vt 0.500000 0.625000
vt 0.200000 0.500000
vt 0.100000 1.000000
vt 0.100000 0.500000
vt 0.500000 0.500000
vt 0.400000 0.562500
vt 0.400000 0.500000
vt 0.200000 1.000000
vt 0.300000 0.500000
vt 0.300000 1.000000
vt 0.300000 1.000000
vt 0.400000 0.500000
vt 0.400000 1.000000
vt 0.000000 0.500000
vt 0.400000 0.562500
vt 0.200000 1.000000
vt 0.500000 0.562500
vt 0.200000 0.500000
vt 0.300000 0.500000
vn -1.0000 0.0000 0.0000
vn 0.0000 0.0000 -1.0000
vn 1.0000 0.0000 0.0000
vn 0.0000 0.0000 1.0000
vn 0.0000 -1.0000 -0.0000
vn 0.0000 1.0000 0.0000
usemtl main
s 1
f 57/137/27 58/138/27 59/139/27
f 60/140/28 61/141/28 58/142/28
f 62/143/29 63/144/29 61/145/29
f 64/146/30 59/147/30 63/148/30
f 61/149/31 59/150/31 58/151/31
f 60/152/32 64/153/32 62/154/32
f 57/137/27 60/155/27 58/138/27
f 60/140/28 62/156/28 61/141/28
f 62/143/29 64/157/29 63/144/29
f 64/146/30 57/158/30 59/147/30
f 61/149/31 63/159/31 59/150/31
f 60/152/32 57/160/32 64/153/32
