# Blender v2.79 (sub 0) OBJ File: ''
# www.blender.org
mtllib rail_ns.mtl
o b4
v -0.062500 -0.000000 0.500000
v 0.062500 0.015625 0.500000
v -0.062500 0.015625 0.500000
v 0.062500 0.015625 0.437500
v -0.062500 0.015625 0.437500
v -0.062500 0.015625 0.250000
v -0.062500 -0.000000 0.187500
v 0.062500 -0.000000 0.500000
v 0.062500 0.015625 0.250000
v 0.062500 0.046875 0.406250
v 0.062500 0.046875 0.281250
v -0.062500 0.046875 0.406250
v -0.062500 0.046875 0.281250
v 0.062500 0.015625 0.187500
v -0.062500 0.015625 0.187500
v 0.062500 -0.000000 0.187500
v -0.062500 0.015625 -0.250000
v -0.062500 0.015625 -0.437500
v -0.062500 -0.000000 -0.500000
v -0.062500 0.015625 -0.187500
v 0.062500 0.015625 -0.250000
v 0.062500 0.046875 -0.281250
v 0.062500 0.046875 -0.406250
v -0.062500 0.046875 -0.281250
v -0.062500 0.046875 -0.406250
v 0.062500 0.015625 -0.437500
v 0.062500 0.015625 -0.500000
v 0.062500 -0.000000 -0.500000
v -0.062500 0.015625 -0.500000
v 0.062500 -0.000000 -0.187500
v -0.062500 -0.000000 -0.187500
v 0.062500 0.015625 -0.187500
vt 0.805556 0.428571
vt 0.819444 0.285714
vt 0.819444 0.428571
vt 0.777778 0.285714
vt 0.722222 0.428571
vt 0.722222 0.285714
vt 0.902778 0.285714
vt 0.902778 0.071429
vt 0.916667 0.000000
vt 0.611111 0.000000
vt 0.722222 0.357143
vt 0.611111 0.357143
vt 0.972222 0.071429
vt 0.972222 0.285714
vt 0.958333 0.357143
vt 0.722222 0.357143
vt 0.694444 0.500000
vt 0.694444 0.357143
vt 0.833333 0.142857
vt 0.722222 0.285714
vt 0.722222 0.142857
vt 0.861111 0.357143
vt 0.833333 0.500000
vt 0.833333 0.357143
vt 0.611111 0.500000
vt 0.666667 0.357143
vt 0.666667 0.500000
vt 0.888889 0.357143
vt 0.875000 0.500000
vt 0.875000 0.357143
vt 0.861111 0.285714
vt 0.861111 0.071429
vt 0.875000 0.000000
vt 0.555556 0.500000
vt 0.611111 0.357143
vt 0.611111 0.500000
vt 0.777778 0.428571
vt 0.805556 0.285714
vt 0.805556 0.428571
vt 0.833333 0.000000
vt 0.722222 0.142857
vt 0.722222 0.000000
vt 0.694444 0.357143
vt 0.666667 0.500000
vt 0.666667 0.357143
vt 0.555556 0.357143
vt 0.500000 0.500000
vt 0.500000 0.357143
vt 0.902778 0.357143
vt 0.888889 0.500000
vt 0.888889 0.357143
vt 0.500000 0.000000
vt 0.611111 0.357143
vt 0.500000 0.357143
vt 0.930556 0.071429
vt 0.930556 0.285714
vt 0.916667 0.357143
vt 0.875000 0.500000
vt 0.861111 0.357143
vt 0.875000 0.357143
vt 0.805556 0.285714
vt 0.777778 0.428571
vt 0.916667 0.357143
vt 0.875000 0.250000
vt 0.875000 0.107143
vt 0.902778 0.357143
vt 0.902778 0.000000
vt 0.722222 0.000000
vt 0.958333 0.000000
vt 0.972222 0.000000
vt 1.000000 0.107143
vt 1.000000 0.250000
vt 0.972222 0.357143
vt 0.722222 0.500000
vt 0.833333 0.285714
vt 0.861111 0.500000
vt 0.611111 0.357143
vt 0.888889 0.500000
vt 0.875000 0.357143
vt 0.861111 0.357143
vt 0.833333 0.250000
vt 0.833333 0.107143
vt 0.861111 0.000000
vt 0.555556 0.357143
vt 0.777778 0.285714
vt 0.833333 0.142857
vt 0.694444 0.500000
vt 0.555556 0.500000
vt 0.902778 0.500000
vt 0.611111 0.000000
vt 0.916667 0.000000
vt 0.958333 0.107143
vt 0.958333 0.250000
vt 0.930556 0.000000
vt 0.930556 0.357143
vt 0.861111 0.500000
vn -0.0000 0.0000 1.0000
vn 0.0000 1.0000 0.0000
vn -1.0000 0.0000 0.0000
vn -0.0000 -1.0000 0.0000
vn 1.0000 -0.0000 -0.0000
vn 0.0000 0.7071 0.7071
vn -0.0000 0.7071 -0.7071
vn 0.0000 0.0000 -1.0000
usemtl main
s 1
f 1/1/1 2/2/1 3/3/1
f 3/4/2 4/5/2 5/6/2
f 5/7/3 6/8/3 7/9/3
f 7/10/4 8/11/4 1/12/4
f 9/13/5 4/14/5 8/15/5
f 10/16/6 5/17/6 4/18/6
f 11/19/2 12/20/2 10/21/2
f 13/22/7 9/23/7 6/24/7
f 6/25/2 14/26/2 15/27/2
f 16/28/8 15/29/8 14/30/8
f 17/31/3 18/32/3 19/33/3
f 20/34/2 21/35/2 17/36/2
f 22/37/6 17/38/6 21/39/6
f 23/40/2 24/41/2 22/42/2
f 25/43/7 26/44/7 18/45/7
f 27/46/2 18/47/2 26/48/2
f 28/49/8 29/50/8 27/51/8
f 19/52/4 30/53/4 31/54/4
f 26/55/5 21/56/5 30/57/5
f 20/58/1 30/59/1 32/60/1
f 1/1/1 8/61/1 2/2/1
f 3/4/2 2/62/2 4/5/2
f 7/9/3 1/63/3 5/7/3
f 5/7/3 12/64/3 13/65/3
f 1/63/3 3/66/3 5/7/3
f 6/8/3 15/67/3 7/9/3
f 5/7/3 13/65/3 6/8/3
f 7/10/4 16/68/4 8/11/4
f 16/69/5 14/70/5 9/13/5
f 9/13/5 11/71/5 10/72/5
f 4/14/5 2/73/5 8/15/5
f 9/13/5 10/72/5 4/14/5
f 8/15/5 16/69/5 9/13/5
f 10/16/6 12/74/6 5/17/6
f 11/19/2 13/75/2 12/20/2
f 13/22/7 11/76/7 9/23/7
f 6/25/2 9/77/2 14/26/2
f 16/28/8 7/78/8 15/29/8
f 31/79/3 20/80/3 17/31/3
f 17/31/3 24/81/3 25/82/3
f 18/32/3 29/83/3 19/33/3
f 17/31/3 25/82/3 18/32/3
f 19/33/3 31/79/3 17/31/3
f 20/34/2 32/84/2 21/35/2
f 22/37/6 24/85/6 17/38/6
f 23/40/2 25/86/2 24/41/2
f 25/43/7 23/87/7 26/44/7
f 27/46/2 29/88/2 18/47/2
f 28/49/8 19/89/8 29/50/8
f 19/52/4 28/90/4 30/53/4
f 30/57/5 28/91/5 26/55/5
f 26/55/5 23/92/5 22/93/5
f 28/91/5 27/94/5 26/55/5
f 21/56/5 32/95/5 30/57/5
f 26/55/5 22/93/5 21/56/5
f 20/58/1 31/96/1 30/59/1
o r1
v 0.187500 0.093750 -0.312500
v -0.187500 0.031250 -0.312500
v 0.187500 0.031250 -0.312500
v -0.187500 0.093750 -0.312500
v -0.187500 0.031250 -0.375000
v -0.187500 0.093750 -0.375000
v 0.187500 0.031250 -0.375000
v 0.187500 0.093750 -0.375000
vt 0.100000 1.000000
vt 0.200000 0.500000
vt 0.200000 1.000000
vt 0.500000 0.666667
vt 0.400000 0.583333
vt 0.500000 0.583333
vt 0.100000 0.500000
vt 0.000000 1.000000
vt 0.000000 0.500000
vt 0.400000 0.500000
vt 0.500000 0.583333
vt 0.400000 0.583333
vt 0.300000 1.000000
vt 0.400000 0.500000
vt 0.400000 1.000000
vt 0.200000 1.000000
vt 0.300000 0.500000
vt 0.300000 1.000000
vt 0.100000 0.500000
vt 0.400000 0.666667
vt 0.100000 1.000000
vt 0.500000 0.500000
vt 0.300000 0.500000
vt 0.200000 0.500000
vn -0.0000 0.0000 1.0000
vn -1.0000 0.0000 0.0000
vn -0.0000 0.0000 -1.0000
vn 1.0000 0.0000 0.0000
vn -0.0000 -1.0000 0.0000
vn 0.0000 1.0000 0.0000
usemtl main
s 1
f 33/97/9 34/98/9 35/99/9
f 36/100/10 37/101/10 34/102/10
f 38/103/11 39/104/11 37/105/11
f 40/106/12 35/107/12 39/108/12
f 37/109/13 35/110/13 34/111/13
f 36/112/14 40/113/14 38/114/14
f 33/97/9 36/115/9 34/98/9
f 36/100/10 38/116/10 37/101/10
f 38/103/11 40/117/11 39/104/11
f 40/106/12 33/118/12 35/107/12
f 37/109/13 39/119/13 35/110/13
f 36/112/14 33/120/14 40/113/14
o r2
v 0.187500 0.093750 0.375000
v -0.187500 0.031250 0.375000
v 0.187500 0.031250 0.375000
v -0.187500 0.093750 0.375000
v -0.187500 0.031250 0.312500
v -0.187500 0.093750 0.312500
v 0.187500 0.031250 0.312500
v 0.187500 0.093750 0.312500
vt 0.100000 1.000000
vt 0.200000 0.500000
vt 0.200000 1.000000
vt 0.500000 0.666667
vt 0.400000 0.583333
vt 0.500000 0.583333
vt 0.100000 0.500000
vt 0.000000 1.000000
vt 0.000000 0.500000
vt 0.400000 0.500000
vt 0.500000 0.583333
vt 0.400000 0.583333
vt 0.300000 1.000000
vt 0.400000 0.500000
vt 0.400000 1.000000
vt 0.200000 1.000000
vt 0.300000 0.500000
vt 0.300000 1.000000
vt 0.100000 0.500000
vt 0.400000 0.666667
vt 0.100000 1.000000
vt 0.500000 0.500000
vt 0.300000 0.500000
vt 0.200000 0.500000
vn 0.0000 0.0000 1.0000
vn -1.0000 0.0000 0.0000
vn 0.0000 0.0000 -1.0000
vn 1.0000 0.0000 0.0000
vn -0.0000 -1.0000 0.0000
vn 0.0000 1.0000 0.0000
usemtl main
s 1
f 41/121/15 42/122/15 43/123/15
f 44/124/16 45/125/16 42/126/16
f 46/127/17 47/128/17 45/129/17
f 48/130/18 43/131/18 47/132/18
f 45/133/19 43/134/19 42/135/19
f 44/136/20 48/137/20 46/138/20
f 41/121/15 44/139/15 42/122/15
f 44/124/16 46/140/16 45/125/16
f 46/127/17 48/141/17 47/128/17
f 48/130/18 41/142/18 43/131/18
f 45/133/19 47/143/19 43/134/19
f 44/136/20 41/144/20 48/137/20
