mtllib mono_rail_turned.mtl
o 0
v -8.020815280635034 4 4.020815643112982
v 3.999999793808783 4 -7.999999431330835
v -8.020815280635034 -8 4.020815643112982
v 3.999999793808783 -8 -7.999999431330835
v 0.004846481043969675 4 -11.995152744095648
v -12.015968593399847 4 0.025662330348168894
v 0.004846481043969675 -8 -11.995152744095648
v -12.015968593399847 -8 0.025662330348168894
vt 0 1
vt 0 0.625
vt 0.53125 1
vt 0 0.625
vt 0.53125 0.625
vt 0.53125 1
vt 0 1
vt 0 0.625
vt 0.53125 1
vt 0 0.625
vt 0.53125 0.625
vt 0.53125 1
vt 0 1
vt 0 0.46875
vt 0.1765625 1
vt 0 0.46875
vt 0.1765625 0.46875
vt 0.1765625 1
vt 0 1
vt 0 0.46875
vt 0.1765625 1
vt 0 0.46875
vt 0.1765625 0.46875
vt 0.1765625 1
vt 0 1
vt 0 0.625
vt 0.1765625 1
vt 0 0.625
vt 0.1765625 0.625
vt 0.1765625 1
vt 0 1
vt 0 0.625
vt 0.1765625 1
vt 0 0.625
vt 0.1765625 0.625
vt 0.1765625 1
vn 0.7071067690849304 0 0.7071067690849304
vn 0.7071067690849304 0 0.7071067690849304
vn 0.7071067690849304 0 0.7071067690849304
vn 0.7071067690849304 0 0.7071067690849304
vn 0.7071067690849304 0 0.7071067690849304
vn 0.7071067690849304 0 0.7071067690849304
vn -0.7071067690849304 0 -0.7071067690849304
vn -0.7071067690849304 0 -0.7071067690849304
vn -0.7071067690849304 0 -0.7071067690849304
vn -0.7071067690849304 0 -0.7071067690849304
vn -0.7071067690849304 0 -0.7071067690849304
vn -0.7071067690849304 0 -0.7071067690849304
vn 0 1 0
vn 0 1 0
vn 0 1 0
vn 0 1 0
vn 0 1 0
vn 0 1 0
vn 0 -1 0
vn 0 -1 0
vn 0 -1 0
vn 0 -1 0
vn 0 -1 0
vn 0 -1 0
vn -0.7071067690849304 0 0.7071067690849304
vn -0.7071067690849304 0 0.7071067690849304
vn -0.7071067690849304 0 0.7071067690849304
vn -0.7071067690849304 0 0.7071067690849304
vn -0.7071067690849304 0 0.7071067690849304
vn -0.7071067690849304 0 0.7071067690849304
vn 0.7071067690849304 0 -0.7071067690849304
vn 0.7071067690849304 0 -0.7071067690849304
vn 0.7071067690849304 0 -0.7071067690849304
vn 0.7071067690849304 0 -0.7071067690849304
vn 0.7071067690849304 0 -0.7071067690849304
vn 0.7071067690849304 0 -0.7071067690849304
usemtl 0
f 1/1/1 3/2/2 2/3/3
f 3/4/4 4/5/5 2/6/6
usemtl 0
f 5/7/7 7/8/8 6/9/9
f 7/10/10 8/11/11 6/12/12
usemtl 0
f 5/13/13 6/14/14 2/15/15
f 6/16/16 1/17/17 2/18/18
usemtl 0
f 8/19/19 7/20/20 3/21/21
f 7/22/22 4/23/23 3/24/24
usemtl 0
f 6/25/25 8/26/26 1/27/27
f 8/28/28 3/29/29 1/30/30
usemtl 0
f 2/31/31 4/32/32 5/33/33
f 4/34/34 7/35/35 5/36/36
