# Blender v2.79 (sub 0) OBJ File: ''
# www.blender.org
mtllib mono_rail_turned.mtl
o 1
v -8.020815 3.999998 4.020816
v -8.020815 -8.000002 4.020813
v 4.000000 4.000002 -7.999999
v 4.000000 -7.999998 -8.000002
v -3.995153 4.000003 -7.995152
v -3.995153 -7.999997 -7.995155
v -8.015968 4.000000 -3.974336
v -8.015968 -8.000000 -3.974340
vt 0.809443 0.500000
vt 0.404722 0.500000
vt 0.809444 0.000000
vt 0.404722 0.000000
vt 0.404722 0.333622
vt 0.000000 0.333622
vt 0.404722 0.166378
vt 0.000000 0.166378
vt 0.000000 0.833622
vt 0.000000 0.666378
vt 0.190556 1.000000
vt 0.190556 0.500000
vt 0.809444 0.333622
vt 0.809443 0.166378
vt 1.000000 0.500000
vt 1.000000 0.000000
vt 0.404722 0.000000
vt 0.000000 0.000000
vt 0.404722 0.500000
vt 0.000000 0.500000
vn 0.7071 -0.0000 0.7071
vn -0.7071 0.0000 -0.7071
vn 0.0000 1.0000 0.0000
vn 0.0000 -1.0000 -0.0000
vn -1.0000 0.0000 -0.0006
vn -0.0006 0.0000 -1.0000
usemtl 0.009
s 1
f 1/1/1 2/2/1 3/3/1
f 2/2/1 4/4/1 3/3/1
f 5/5/2 6/6/2 7/7/2
f 6/6/2 8/8/2 7/7/2
f 5/9/3 7/10/3 3/11/3
f 7/10/3 1/12/3 3/11/3
f 8/13/4 6/14/4 2/15/4
f 6/14/4 4/16/4 2/15/4
f 7/7/5 8/8/5 1/17/5
f 8/8/5 2/18/5 1/17/5
f 3/19/6 4/20/6 5/5/6
f 4/20/6 6/6/6 5/5/6
