# Blender v2.79 (sub 0) OBJ File: ''
# www.blender.org
mtllib mono_rail_slope_magnet.mtl
o 0
v 4.000000 4.020662 7.919957
v 4.000000 4.019955 7.920664
v 4.000000 -11.899645 -8.000356
v 4.000000 -11.900351 -7.999649
v -4.000000 -11.899645 -8.000356
v -4.000000 -11.900351 -7.999649
v -4.000000 4.020662 7.919957
v -4.000000 4.019955 7.920664
vt 0.000000 1.000000
vt 0.000000 1.000000
vt 1.000000 1.000000
vt 1.000000 1.000000
vt 0.000000 1.000000
vt 0.000000 1.000000
vt 1.000000 1.000000
vt 1.000000 1.000000
vt 0.250000 0.273438
vt 0.250000 1.000000
vt 0.000000 0.273438
vt 0.000000 1.000000
vt 0.000000 0.273438
vt 0.250000 1.000000
vt 0.250000 0.273438
vt 0.000000 1.000000
vt 0.500000 1.000000
vt 0.500000 1.000000
vt 0.000000 1.000000
vt 0.000000 1.000000
vt 0.500000 1.000000
vt 0.500000 1.000000
vn 1.0000 0.0000 0.0000
vn 1.0000 -0.0003 0.0000
vn 1.0000 -0.0008 -0.0000
vn -1.0000 -0.0005 0.0000
vn -1.0000 -0.0006 -0.0000
vn -1.0000 -0.0002 0.0000
vn 0.0000 0.7071 -0.7071
vn 0.0000 -0.7071 0.7071
vn 0.0000 0.7069 0.7073
vn 0.0000 0.7073 0.7069
vn -0.0000 -0.7072 -0.7070
usemtl 0
s 1
f 1/1/1 2/2/1 3/3/2
f 2/2/1 4/4/3 3/3/2
f 5/5/4 6/6/5 7/7/6
f 6/6/5 8/8/6 7/7/6
f 5/9/7 7/10/7 3/11/7
f 7/10/7 1/1/7 3/11/7
f 8/12/8 6/13/8 2/14/8
f 6/13/8 4/15/8 2/14/8
f 7/16/9 8/12/9 1/17/10
f 8/12/9 2/18/10 1/17/10
f 3/19/11 4/20/11 5/21/11
f 4/20/11 6/22/11 5/21/11
