# Blender v2.79 (sub 0) OBJ File: ''
# www.blender.org
mtllib rail_straight.mtl
o b1
v -8.000000 -7.500001 4.999999
v -8.000000 -8.500001 4.999999
v -8.000000 -8.500001 6.999999
v -8.000000 -7.500001 6.999999
v -7.000000 -7.500001 4.999999
v -7.000000 -7.500001 6.999999
v -6.500000 -7.250001 4.999999
v -4.500000 -7.250001 4.999999
v -3.000000 -7.750001 4.999999
v 3.000000 -7.750001 4.999999
v 4.500000 -7.250001 4.999999
v 6.500000 -7.250001 4.999999
v 7.000000 -7.500001 4.999999
v 8.000000 -7.500001 4.999999
v 8.000000 -8.500001 4.999999
v 8.000000 -8.500001 6.999999
v 8.000000 -7.500001 6.999999
v 7.000000 -7.500001 6.999999
v 6.500000 -7.250001 6.999999
v 4.500000 -7.250001 6.999999
v 3.000000 -7.750001 6.999999
v -3.000000 -7.750001 6.999999
v -4.500000 -7.250001 6.999999
v -6.500000 -7.250001 6.999999
vt 0.933334 0.062500
vt 1.000000 0.000000
vt 1.000000 0.062500
vt 0.633333 0.500000
vt 0.500000 0.468750
vt 0.633333 0.468750
vt 0.816667 0.156250
vt 0.816667 0.343750
vt 0.766667 0.500000
vt 0.633333 0.000000
vt 0.766667 0.500000
vt 0.633334 0.500000
vt 0.900000 0.156250
vt 0.900000 0.343750
vt 0.850000 0.500000
vt 0.500000 0.453125
vt 0.500000 0.390625
vt 0.633333 0.453125
vt 0.500000 0.046875
vt 0.633333 0.109375
vt 0.500000 0.109375
vt 0.633333 0.046875
vt 0.500000 0.031250
vt 0.633333 0.031250
vt 0.500000 0.000000
vt 1.000000 0.062500
vt 0.933333 0.125000
vt 0.933333 0.062500
vt 0.633333 0.390625
vt 0.500000 0.343750
vt 0.633333 0.343750
vt 0.500000 0.156250
vt 0.633333 0.156250
vt 0.933333 0.000000
vt 0.500000 0.500000
vt 0.766667 0.000000
vt 0.833333 0.031250
vt 0.850000 0.046875
vt 0.850000 0.109375
vt 0.833333 0.000000
vt 0.833333 0.468750
vt 0.833333 0.500000
vt 0.850000 0.390625
vt 0.850000 0.453125
vt 0.766666 0.000000
vt 0.850000 0.000000
vt 0.916667 0.031250
vt 0.933333 0.046875
vt 0.933333 0.109375
vt 0.916667 0.000000
vt 0.916667 0.468750
vt 0.916667 0.500000
vt 0.933333 0.390625
vt 0.933333 0.453125
vt 0.633333 0.000000
vt 1.000000 0.125000
vn -1.0000 0.0000 0.0000
vn 0.0000 1.0000 0.0000
vn -0.0000 0.0000 -1.0000
vn 0.0000 -1.0000 0.0000
vn -0.0000 -0.0000 1.0000
vn -0.4472 0.8944 0.0000
vn 0.4472 0.8944 0.0000
vn 1.0000 0.0000 0.0000
vn 0.3162 0.9487 0.0000
vn -0.3162 0.9487 0.0000
usemtl None.055
s 1
f 2/1/1 4/2/1 1/3/1
f 1/4/2 6/5/2 5/6/2
f 9/7/3 10/8/3 15/9/3
f 15/10/4 3/11/4 2/12/4
f 21/13/5 22/14/5 3/15/5
f 24/16/6 5/6/6 6/5/6
f 23/17/2 7/18/2 24/16/2
f 19/19/2 11/20/2 20/21/2
f 12/22/7 18/23/7 13/24/7
f 17/25/2 13/24/2 18/23/2
f 16/26/8 14/27/8 17/28/8
f 8/29/9 22/30/9 9/31/9
f 9/31/2 21/32/2 10/33/2
f 20/21/10 10/33/10 21/32/10
f 2/1/1 3/34/1 4/2/1
f 1/4/2 4/35/2 6/5/2
f 15/9/3 2/36/3 9/7/3
f 5/37/3 7/38/3 8/39/3
f 2/36/3 1/40/3 5/37/3
f 13/41/3 14/42/3 15/9/3
f 11/43/3 12/44/3 13/41/3
f 10/8/3 11/43/3 15/9/3
f 5/37/3 8/39/3 2/36/3
f 11/43/3 13/41/3 15/9/3
f 2/36/3 8/39/3 9/7/3
f 15/10/4 16/45/4 3/11/4
f 3/15/5 16/46/5 21/13/5
f 18/47/5 19/48/5 20/49/5
f 16/46/5 17/50/5 18/47/5
f 6/51/5 4/52/5 3/15/5
f 23/53/5 24/54/5 6/51/5
f 22/14/5 23/53/5 3/15/5
f 18/47/5 20/49/5 16/46/5
f 23/53/5 6/51/5 3/15/5
f 16/46/5 20/49/5 21/13/5
f 24/16/6 7/18/6 5/6/6
f 23/17/2 8/29/2 7/18/2
f 19/19/2 12/22/2 11/20/2
f 12/22/7 19/19/7 18/23/7
f 17/25/2 14/55/2 13/24/2
f 16/26/8 15/56/8 14/27/8
f 8/29/9 23/17/9 22/30/9
f 9/31/2 22/30/2 21/32/2
f 20/21/10 11/20/10 10/33/10
o r2
v -6.000000 -7.500001 7.999999
v -6.000000 -6.500001 7.999999
v -6.000000 -6.499999 -8.000001
v -6.000000 -7.499999 -8.000001
v -5.000000 -6.499999 -8.000001
v -5.000000 -7.499999 -8.000001
v -5.000000 -6.500001 7.999999
v -5.000000 -7.500001 7.999999
vt 0.100000 0.500000
vt 0.000000 1.000000
vt 0.000000 0.500000
vt 0.400000 0.562500
vt 0.500000 0.531250
vt 0.500000 0.562500
vt 0.400000 0.500000
vt 0.300000 1.000000
vt 0.300000 0.500000
vt 0.500000 0.500000
vt 0.400000 0.531250
vt 0.400000 0.500000
vt 0.200000 1.000000
vt 0.300000 0.500000
vt 0.300000 1.000000
vt 0.100000 1.000000
vt 0.200000 0.500000
vt 0.200000 1.000000
vt 0.400000 0.531250
vt 0.400000 1.000000
vt 0.500000 0.531250
vt 0.200000 0.500000
vn -1.0000 0.0000 0.0000
vn 0.0000 0.0000 -1.0000
vn 1.0000 -0.0000 0.0000
vn 0.0000 -0.0000 1.0000
vn 0.0000 -1.0000 -0.0000
vn 0.0000 1.0000 0.0000
usemtl None.055
s 1
f 26/57/11 28/58/11 25/59/11
f 27/60/12 30/61/12 28/62/12
f 29/63/13 32/64/13 30/65/13
f 31/66/14 25/67/14 32/68/14
f 30/69/15 25/70/15 28/71/15
f 27/72/16 31/73/16 29/74/16
f 26/57/11 27/72/11 28/58/11
f 27/60/12 29/75/12 30/61/12
f 29/63/13 31/76/13 32/64/13
f 31/66/14 26/77/14 25/67/14
f 30/69/15 32/78/15 25/70/15
f 27/72/16 26/57/16 31/73/16
o b3
v -8.000000 -7.500000 -3.000001
v -8.000000 -8.499999 -3.000001
v -8.000000 -8.500000 -1.000001
v -8.000000 -7.500000 -1.000001
v -7.000000 -7.500000 -3.000001
v -7.000000 -7.500000 -1.000001
v -6.500000 -7.250000 -3.000001
v -4.500000 -7.250000 -3.000001
v -3.000000 -7.750000 -3.000001
v 3.000000 -7.750000 -3.000001
v 4.500000 -7.250000 -3.000001
v 6.500000 -7.250000 -3.000001
v 7.000000 -7.500000 -3.000001
v 8.000000 -7.500000 -3.000001
v 8.000000 -8.499999 -3.000001
v 8.000000 -8.500000 -1.000001
v 8.000000 -7.500000 -1.000001
v 7.000000 -7.500000 -1.000001
v 6.500000 -7.250000 -1.000001
v 4.500000 -7.250000 -1.000001
v 3.000000 -7.750000 -1.000001
v -3.000000 -7.750000 -1.000001
v -4.500000 -7.250000 -1.000001
v -6.500000 -7.250000 -1.000001
vt 0.933333 0.062500
vt 1.000000 0.000000
vt 1.000000 0.062500
vt 0.633333 0.000000
vt 0.766667 0.031250
vt 0.633333 0.031250
vt 0.816667 0.156250
vt 0.816667 0.343750
vt 0.766667 0.500000
vt 0.500000 0.000000
vt 0.633333 0.500000
vt 0.500000 0.500000
vt 0.900000 0.156250
vt 0.900000 0.343750
vt 0.850000 0.500000
vt 0.766667 0.046875
vt 0.766667 0.109375
vt 0.633333 0.046875
vt 0.766666 0.453125
vt 0.633333 0.390625
vt 0.766667 0.390625
vt 0.633333 0.453125
vt 0.766666 0.468750
vt 0.633333 0.468750
vt 0.766667 0.500000
vt 0.933333 0.125000
vt 1.000000 0.062500
vt 1.000000 0.125000
vt 0.633333 0.109375
vt 0.766667 0.156250
vt 0.633333 0.156250
vt 0.766667 0.343750
vt 0.633333 0.343750
vt 0.933333 0.000000
vt 0.766667 0.000000
vt 0.766667 0.000000
vt 0.833333 0.031250
vt 0.850000 0.046875
vt 0.850000 0.109375
vt 0.833333 0.000000
vt 0.833333 0.468750
vt 0.833333 0.500000
vt 0.850000 0.390625
vt 0.850000 0.453125
vt 0.633333 0.000000
vt 0.850000 0.000000
vt 0.916667 0.031250
vt 0.933333 0.046875
vt 0.933333 0.109375
vt 0.916667 0.000000
vt 0.916667 0.468750
vt 0.916667 0.500000
vt 0.933333 0.390625
vt 0.933333 0.453125
vt 0.633333 0.500000
vt 0.933333 0.062500
vn -1.0000 0.0000 0.0000
vn 0.0000 1.0000 0.0000
vn 0.0000 0.0000 -1.0000
vn 0.0000 -1.0000 -0.0000
vn 0.0000 -0.0000 1.0000
vn -0.4472 0.8944 0.0000
vn 0.4472 0.8944 0.0000
vn 1.0000 0.0000 0.0000
vn 0.3162 0.9487 0.0000
vn -0.3162 0.9487 0.0000
usemtl None.055
s 1
f 34/79/17 36/80/17 33/81/17
f 33/82/18 38/83/18 37/84/18
f 41/85/19 42/86/19 47/87/19
f 47/88/20 35/89/20 34/90/20
f 53/91/21 54/92/21 35/93/21
f 56/94/22 37/84/22 38/83/22
f 55/95/18 39/96/18 56/94/18
f 51/97/18 43/98/18 52/99/18
f 44/100/23 50/101/23 45/102/23
f 49/103/18 45/102/18 50/101/18
f 48/104/24 46/105/24 49/106/24
f 40/107/25 54/108/25 41/109/25
f 41/109/18 53/110/18 42/111/18
f 52/99/26 42/111/26 53/110/26
f 34/79/17 35/112/17 36/80/17
f 33/82/18 36/113/18 38/83/18
f 47/87/19 34/114/19 41/85/19
f 37/115/19 39/116/19 40/117/19
f 34/114/19 33/118/19 37/115/19
f 45/119/19 46/120/19 47/87/19
f 43/121/19 44/122/19 45/119/19
f 42/86/19 43/121/19 47/87/19
f 37/115/19 40/117/19 34/114/19
f 43/121/19 45/119/19 47/87/19
f 34/114/19 40/117/19 41/85/19
f 47/88/20 48/123/20 35/89/20
f 35/93/21 48/124/21 53/91/21
f 50/125/21 51/126/21 52/127/21
f 48/124/21 49/128/21 50/125/21
f 38/129/21 36/130/21 35/93/21
f 55/131/21 56/132/21 38/129/21
f 54/92/21 55/131/21 35/93/21
f 50/125/21 52/127/21 48/124/21
f 55/131/21 38/129/21 35/93/21
f 48/124/21 52/127/21 53/91/21
f 56/94/22 39/96/22 37/84/22
f 55/95/18 40/107/18 39/96/18
f 51/97/18 44/100/18 43/98/18
f 44/100/23 51/97/23 50/101/23
f 49/103/18 46/133/18 45/102/18
f 48/104/24 47/134/24 46/105/24
f 40/107/25 55/95/25 54/108/25
f 41/109/18 54/108/18 53/110/18
f 52/99/26 43/98/26 42/111/26
o b4
v -8.000000 -7.499999 -7.000001
v -8.000000 -8.499999 -7.000001
v -8.000000 -8.499999 -5.000001
v -8.000000 -7.499999 -5.000001
v -7.000000 -7.499999 -7.000001
v -7.000000 -7.499999 -5.000001
v -6.500000 -7.249999 -7.000001
v -4.500000 -7.249999 -7.000001
v -3.000000 -7.749999 -7.000001
v 3.000000 -7.749999 -7.000001
v 4.500000 -7.249999 -7.000001
v 6.500000 -7.249999 -7.000001
v 7.000000 -7.499999 -7.000001
v 8.000000 -7.499999 -7.000001
v 8.000000 -8.499999 -7.000001
v 8.000000 -8.499999 -5.000001
v 8.000000 -7.499999 -5.000001
v 7.000000 -7.499999 -5.000001
v 6.500000 -7.249999 -5.000001
v 4.500000 -7.249999 -5.000001
v 3.000000 -7.749999 -5.000001
v -3.000000 -7.749999 -5.000001
v -4.500000 -7.249999 -5.000001
v -6.500000 -7.249999 -5.000001
vt 0.933334 0.062500
vt 1.000000 0.000000
vt 1.000000 0.062500
vt 0.633333 0.500000
vt 0.500000 0.468750
vt 0.633333 0.468750
vt 0.816667 0.156250
vt 0.816667 0.343750
vt 0.766667 0.500000
vt 0.633333 0.000000
vt 0.766667 0.500000
vt 0.633333 0.500000
vt 0.900000 0.156250
vt 0.900000 0.343750
vt 0.850000 0.500000
vt 0.500000 0.453125
vt 0.500000 0.390625
vt 0.633333 0.453125
vt 0.500000 0.046875
vt 0.633333 0.109375
vt 0.500000 0.109375
vt 0.633333 0.046875
vt 0.500000 0.031250
vt 0.633333 0.031250
vt 0.500000 0.000000
vt 0.933333 0.125000
vt 1.000000 0.062500
vt 1.000000 0.125000
vt 0.633333 0.390625
vt 0.500000 0.343750
vt 0.633333 0.343750
vt 0.500000 0.156250
vt 0.633333 0.156250
vt 0.933333 0.000000
vt 0.500000 0.500000
vt 0.766667 0.000000
vt 0.833333 0.031250
vt 0.850000 0.046875
vt 0.850000 0.109375
vt 0.833333 0.000000
vt 0.833333 0.468750
vt 0.833333 0.500000
vt 0.850000 0.390625
vt 0.850000 0.453125
vt 0.766666 0.000000
vt 0.850000 0.000000
vt 0.916667 0.031250
vt 0.933333 0.046875
vt 0.933333 0.109375
vt 0.916667 0.000000
vt 0.916667 0.468750
vt 0.916667 0.500000
vt 0.933333 0.390625
vt 0.933333 0.453125
vt 0.633333 0.000000
vt 0.933333 0.062500
vn -1.0000 0.0000 0.0000
vn 0.0000 1.0000 0.0000
vn -0.0000 0.0000 -1.0000
vn 0.0000 -1.0000 0.0000
vn -0.0000 -0.0000 1.0000
vn -0.4472 0.8944 0.0000
vn 0.4472 0.8944 0.0000
vn 1.0000 0.0000 0.0000
vn 0.3162 0.9487 0.0000
vn -0.3162 0.9487 0.0000
usemtl None.055
s 1
f 58/135/27 60/136/27 57/137/27
f 57/138/28 62/139/28 61/140/28
f 65/141/29 66/142/29 71/143/29
f 71/144/30 59/145/30 58/146/30
f 77/147/31 78/148/31 59/149/31
f 80/150/32 61/140/32 62/139/32
f 79/151/28 63/152/28 80/150/28
f 75/153/28 67/154/28 76/155/28
f 68/156/33 74/157/33 69/158/33
f 73/159/28 69/158/28 74/157/28
f 72/160/34 70/161/34 73/162/34
f 64/163/35 78/164/35 65/165/35
f 65/165/28 77/166/28 66/167/28
f 76/155/36 66/167/36 77/166/36
f 58/135/27 59/168/27 60/136/27
f 57/138/28 60/169/28 62/139/28
f 71/143/29 58/170/29 65/141/29
f 61/171/29 63/172/29 64/173/29
f 58/170/29 57/174/29 61/171/29
f 69/175/29 70/176/29 71/143/29
f 67/177/29 68/178/29 69/175/29
f 66/142/29 67/177/29 71/143/29
f 61/171/29 64/173/29 58/170/29
f 67/177/29 69/175/29 71/143/29
f 58/170/29 64/173/29 65/141/29
f 71/144/30 72/179/30 59/145/30
f 59/149/31 72/180/31 77/147/31
f 74/181/31 75/182/31 76/183/31
f 72/180/31 73/184/31 74/181/31
f 62/185/31 60/186/31 59/149/31
f 79/187/31 80/188/31 62/185/31
f 78/148/31 79/187/31 59/149/31
f 74/181/31 76/183/31 72/180/31
f 79/187/31 62/185/31 59/149/31
f 72/180/31 76/183/31 77/147/31
f 80/150/32 63/152/32 61/140/32
f 79/151/28 64/163/28 63/152/28
f 75/153/28 68/156/28 67/154/28
f 68/156/33 75/153/33 74/157/33
f 73/159/28 70/189/28 69/158/28
f 72/160/34 71/190/34 70/161/34
f 64/163/35 79/151/35 78/164/35
f 65/165/28 78/164/28 77/166/28
f 76/155/36 67/154/36 66/167/36
o r1
v 5.000000 -7.500001 7.999999
v 5.000000 -6.500001 7.999999
v 5.000000 -6.499999 -8.000001
v 5.000000 -7.499999 -8.000001
v 6.000000 -6.499999 -8.000001
v 6.000000 -7.499999 -8.000001
v 6.000000 -6.500001 7.999999
v 6.000000 -7.500001 7.999999
vt 0.100000 0.500000
vt 0.000000 1.000000
vt 0.000000 0.500000
vt 0.400000 0.562500
vt 0.500000 0.531250
vt 0.500000 0.562500
vt 0.400000 0.500000
vt 0.300000 1.000000
vt 0.300000 0.500000
vt 0.500000 0.500000
vt 0.400000 0.531250
vt 0.400000 0.500000
vt 0.200000 1.000000
vt 0.300000 0.500000
vt 0.300000 1.000000
vt 0.100000 1.000000
vt 0.200000 0.500000
vt 0.200000 1.000000
vt 0.400000 0.531250
vt 0.400000 1.000000
vt 0.500000 0.531250
vt 0.200000 0.500000
vn -1.0000 0.0000 0.0000
vn 0.0000 0.0000 -1.0000
vn 1.0000 0.0000 0.0000
vn 0.0000 -0.0000 1.0000
vn 0.0000 -1.0000 -0.0000
vn 0.0000 1.0000 0.0000
usemtl None.055
s 1
f 82/191/37 84/192/37 81/193/37
f 83/194/38 86/195/38 84/196/38
f 85/197/39 88/198/39 86/199/39
f 87/200/40 81/201/40 88/202/40
f 86/203/41 81/204/41 84/205/41
f 83/206/42 87/207/42 85/208/42
f 82/191/37 83/206/37 84/192/37
f 83/194/38 85/209/38 86/195/38
f 85/197/39 87/210/39 88/198/39
f 87/200/40 82/211/40 81/201/40
f 86/203/41 88/212/41 81/204/41
f 83/206/42 82/191/42 87/207/42
o b2
v -8.000000 -7.500000 0.999999
v -8.000000 -8.500000 0.999999
v -8.000000 -8.500001 2.999999
v -8.000000 -7.500000 2.999999
v -7.000000 -7.500000 0.999999
v -7.000000 -7.500000 2.999999
v -6.500000 -7.250000 0.999999
v -4.500000 -7.250000 0.999999
v -3.000000 -7.750000 0.999999
v 3.000000 -7.750000 0.999999
v 4.500000 -7.250000 0.999999
v 6.500000 -7.250000 0.999999
v 7.000000 -7.500000 0.999999
v 8.000000 -7.500000 0.999999
v 8.000000 -8.500000 0.999999
v 8.000000 -8.500001 2.999999
v 8.000000 -7.500000 2.999999
v 7.000000 -7.500000 2.999999
v 6.500000 -7.250000 2.999999
v 4.500000 -7.250000 2.999999
v 3.000000 -7.750000 2.999999
v -3.000000 -7.750000 2.999999
v -4.500000 -7.250000 2.999999
v -6.500000 -7.250000 2.999999
vt 0.933333 0.125000
vt 1.000000 0.062500
vt 1.000000 0.125000
vt 0.633333 0.500000
vt 0.500000 0.468750
vt 0.633333 0.468750
vt 0.816667 0.156250
vt 0.816667 0.343750
vt 0.766667 0.500000
vt 0.633333 0.000000
vt 0.766667 0.500000
vt 0.633334 0.500000
vt 0.900000 0.156250
vt 0.900000 0.343750
vt 0.850000 0.500000
vt 0.500000 0.453125
vt 0.500000 0.390625
vt 0.633333 0.453125
vt 0.500000 0.046875
vt 0.633333 0.109375
vt 0.500000 0.109375
vt 0.633333 0.046875
vt 0.500000 0.031250
vt 0.633333 0.031250
vt 0.500000 0.000000
vt 1.000000 0.000000
vt 0.933333 0.062500
vt 0.933333 0.000000
vt 0.633333 0.390625
vt 0.500000 0.343750
vt 0.633333 0.343750
vt 0.500000 0.156250
vt 0.633333 0.156250
vt 0.933333 0.062500
vt 0.500000 0.500000
vt 0.766667 0.000000
vt 0.833333 0.031250
vt 0.850000 0.046875
vt 0.850000 0.109375
vt 0.833333 0.000000
vt 0.833333 0.468750
vt 0.833333 0.500000
vt 0.850000 0.390625
vt 0.850000 0.453125
vt 0.766666 0.000000
vt 0.850000 0.000000
vt 0.916667 0.031250
vt 0.933333 0.046875
vt 0.933333 0.109375
vt 0.916667 0.000000
vt 0.916667 0.468750
vt 0.916667 0.500000
vt 0.933333 0.390625
vt 0.933333 0.453125
vt 0.633333 0.000000
vt 1.000000 0.062500
vn -1.0000 0.0000 0.0000
vn 0.0000 1.0000 0.0000
vn 0.0000 0.0000 -1.0000
vn 0.0000 -1.0000 -0.0000
vn 0.0000 -0.0000 1.0000
vn -0.4472 0.8944 0.0000
vn 0.4472 0.8944 0.0000
vn 1.0000 0.0000 0.0000
vn 0.3162 0.9487 0.0000
vn -0.3162 0.9487 0.0000
usemtl None.055
s 1
f 90/213/43 92/214/43 89/215/43
f 89/216/44 94/217/44 93/218/44
f 97/219/45 98/220/45 103/221/45
f 103/222/46 91/223/46 90/224/46
f 109/225/47 110/226/47 91/227/47
f 112/228/48 93/218/48 94/217/48
f 111/229/44 95/230/44 112/228/44
f 107/231/44 99/232/44 108/233/44
f 100/234/49 106/235/49 101/236/49
f 105/237/44 101/236/44 106/235/44
f 104/238/50 102/239/50 105/240/50
f 96/241/51 110/242/51 97/243/51
f 97/243/44 109/244/44 98/245/44
f 108/233/52 98/245/52 109/244/52
f 90/213/43 91/246/43 92/214/43
f 89/216/44 92/247/44 94/217/44
f 103/221/45 90/248/45 97/219/45
f 93/249/45 95/250/45 96/251/45
f 90/248/45 89/252/45 93/249/45
f 101/253/45 102/254/45 103/221/45
f 99/255/45 100/256/45 101/253/45
f 98/220/45 99/255/45 103/221/45
f 93/249/45 96/251/45 90/248/45
f 99/255/45 101/253/45 103/221/45
f 90/248/45 96/251/45 97/219/45
f 103/222/46 104/257/46 91/223/46
f 91/227/47 104/258/47 109/225/47
f 106/259/47 107/260/47 108/261/47
f 104/258/47 105/262/47 106/259/47
f 94/263/47 92/264/47 91/227/47
f 111/265/47 112/266/47 94/263/47
f 110/226/47 111/265/47 91/227/47
f 106/259/47 108/261/47 104/258/47
f 111/265/47 94/263/47 91/227/47
f 104/258/47 108/261/47 109/225/47
f 112/228/48 95/230/48 93/218/48
f 111/229/44 96/241/44 95/230/44
f 107/231/44 100/234/44 99/232/44
f 100/234/49 107/231/49 106/235/49
f 105/237/44 102/267/44 101/236/44
f 104/238/50 103/268/50 102/239/50
f 96/241/51 111/229/51 110/242/51
f 97/243/44 110/242/44 109/244/44
f 108/233/52 99/232/52 98/245/52
