# Blender v2.79 (sub 0) OBJ File: ''
# www.blender.org
mtllib rail_wire_slope.mtl
o 0
v 0.500000 16.999996 8.000000
v 0.500000 15.999998 8.000000
v 0.500000 1.000002 -8.000000
v 0.500000 0.000002 -8.000000
v -0.500000 1.000002 -8.000000
v -0.500000 0.000002 -8.000000
v -0.500000 16.999996 8.000000
v -0.500000 15.999998 8.000000
vt 0.792894 0.000000
vt 1.000000 0.030303
vt 0.792894 0.969697
vt 1.000000 1.000000
vt 0.585787 0.030303
vt 0.792894 0.000000
vt 0.585787 1.000000
vt 0.792893 0.969697
vt 0.000000 0.969697
vt 0.000000 0.000000
vt 0.292893 0.969697
vt 0.292893 0.000000
vt 0.585786 0.030303
vt 0.585787 1.000000
vt 0.292893 0.030303
vt 0.292894 1.000000
vt 0.585786 0.000000
vt 0.000000 1.000000
vn 1.0000 0.0000 0.0000
vn -1.0000 0.0000 0.0000
vn 0.0000 0.7071 -0.7071
vn 0.0000 -0.7071 0.7071
vn 0.0000 0.0000 1.0000
vn 0.0000 0.0000 -1.0000
usemtl 0.006
s 1
f 1/1/1 2/2/1 3/3/1
f 2/2/1 4/4/1 3/3/1
f 5/5/2 6/6/2 7/7/2
f 6/6/2 8/8/2 7/7/2
f 5/9/3 7/10/3 3/11/3
f 7/10/3 1/12/3 3/11/3
f 8/13/4 6/14/4 2/15/4
f 6/14/4 4/16/4 2/15/4
f 7/17/5 8/13/5 1/12/5
f 8/13/5 2/15/5 1/12/5
f 3/11/6 4/16/6 5/9/6
f 4/16/6 6/18/6 5/9/6
o 1
v 0.500000 23.999998 8.000003
v 0.500000 22.999998 8.000002
v 0.500000 8.000002 -7.999998
v 0.500000 7.000002 -7.999998
v -0.500000 8.000002 -7.999998
v -0.500000 7.000002 -7.999998
v -0.500000 23.999998 8.000003
v -0.500000 22.999998 8.000002
vt 0.792891 1.000000
vt 0.585785 0.969697
vt 0.792893 0.030303
vt 0.585787 0.000000
vt 0.999999 0.969697
vt 0.792894 1.000000
vt 1.000000 0.000000
vt 0.792893 0.030303
vt 0.292893 0.969697
vt 0.292893 0.000000
vt 0.585785 0.969697
vt 0.585785 0.000000
vt 0.292892 0.030303
vt 0.292893 1.000000
vt 0.000000 0.030303
vt 0.000001 1.000000
vt 0.000000 0.000000
vt 0.585785 1.000000
vn 1.0000 0.0000 0.0000
vn -1.0000 0.0000 0.0000
vn 0.0000 0.7071 -0.7071
vn 0.0000 -0.7071 0.7071
vn 0.0000 -0.0000 1.0000
vn 0.0000 0.0000 -1.0000
usemtl 0.006
s 1
f 9/19/7 10/20/7 11/21/7
f 10/20/7 12/22/7 11/21/7
f 13/23/8 14/24/8 15/25/8
f 14/24/8 16/26/8 15/25/8
f 13/27/9 15/28/9 11/29/9
f 15/28/9 9/30/9 11/29/9
f 16/31/10 14/32/10 10/33/10
f 14/32/10 12/34/10 10/33/10
f 15/28/11 16/31/11 9/35/11
f 16/31/11 10/33/11 9/35/11
f 11/29/12 12/36/12 13/27/12
f 12/36/12 14/32/12 13/27/12
o 2
v 0.500000 8.000001 -6.999998
v 0.500000 9.000000 0.000000
v 0.500000 7.000001 -7.999998
v 0.500000 8.000000 -1.000000
v -0.500000 7.000001 -7.999998
v -0.500000 8.000000 -1.000000
v -0.500000 8.000001 -6.999998
v -0.500000 9.000000 0.000000
vt 0.770485 0.137931
vt 0.770485 1.000000
vt 0.540971 0.000000
vt 0.540971 0.862069
vt 0.999999 0.000000
vt 1.000000 0.862069
vt 0.770485 0.137931
vt 0.770486 1.000000
vt 0.540970 0.000000
vt 0.540970 0.137931
vt 0.270485 0.000000
vt 0.270485 0.137931
vt 0.270485 0.000000
vt 0.270485 0.137931
vt 0.000000 0.000000
vt 0.000000 0.137931
vt 0.540971 1.000000
vt 0.270486 1.000000
vt 0.000000 1.000000
vt 0.270485 1.000000
vn 1.0000 0.0000 0.0000
vn -1.0000 0.0000 0.0000
vn 0.0000 0.7071 -0.7071
vn 0.0000 -0.7071 0.7071
vn 0.0000 0.9899 -0.1414
vn 0.0000 -0.9899 0.1414
usemtl 0.006
s 1
f 17/37/13 18/38/13 19/39/13
f 18/38/13 20/40/13 19/39/13
f 21/41/14 22/42/14 23/43/14
f 22/42/14 24/44/14 23/43/14
f 21/45/15 23/46/15 19/47/15
f 23/46/15 17/48/15 19/47/15
f 24/49/16 22/50/16 18/51/16
f 22/50/16 20/52/16 18/51/16
f 23/46/17 24/53/17 17/48/17
f 24/53/17 18/54/17 17/48/17
f 19/55/18 20/52/18 21/56/18
f 20/52/18 22/50/18 21/56/18
o 3
v 0.500000 22.999998 8.000002
v 0.500000 10.000000 1.000000
v 0.500000 21.999998 7.000002
v 0.500000 9.000000 0.000000
v -0.500000 21.999998 7.000002
v -0.500000 9.000000 0.000000
v -0.500000 22.999998 8.000002
v -0.500000 10.000000 1.000000
vt 0.711049 1.000000
vt 0.711048 0.084034
vt 0.855524 0.915966
vt 0.855523 0.000000
vt 1.000000 0.084034
vt 1.000000 1.000000
vt 0.855524 0.000000
vt 0.855525 0.915966
vt 0.355525 0.086804
vt 0.355525 0.000000
vt 0.711048 0.086804
vt 0.711048 0.000000
vt 0.355524 0.906257
vt 0.355524 0.993061
vt 0.000000 0.906257
vt 0.000000 0.993061
vt 0.000000 0.000000
vt 0.711048 0.993061
vn 1.0000 0.0000 0.0000
vn -1.0000 0.0000 0.0000
vn 0.0000 0.7071 -0.7071
vn 0.0000 -0.7071 0.7071
vn 0.0000 -0.4741 0.8805
vn 0.0000 0.4741 -0.8805
usemtl 0.005
s 1
f 25/57/19 26/58/19 27/59/19
f 26/58/19 28/60/19 27/59/19
f 29/61/20 30/62/20 31/63/20
f 30/62/20 32/64/20 31/63/20
f 29/65/21 31/66/21 27/67/21
f 31/66/21 25/68/21 27/67/21
f 32/69/22 30/70/22 26/71/22
f 30/70/22 28/72/22 26/71/22
f 31/66/23 32/69/23 25/73/23
f 32/69/23 26/71/23 25/73/23
f 27/67/24 28/74/24 29/65/24
f 28/74/24 30/70/24 29/65/24
