# Blender v2.79 (sub 0) OBJ File: ''
# www.blender.org
mtllib rail_ns_straight.mtl
o b2
v -8.000000 -7.750000 0.999999
v -8.000000 -8.000000 0.999999
v -8.000000 -8.000001 2.999999
v -8.000000 -7.750000 2.999999
v -7.000000 -7.750000 0.999999
v -7.000000 -7.750000 2.999999
v -6.500000 -7.250000 0.999999
v -4.500000 -7.250000 0.999999
v -4.000000 -7.750000 0.999999
v -3.000000 -7.750000 0.999999
v -3.000000 -8.000000 0.999999
v -3.000000 -8.000001 2.999999
v -3.000000 -7.750000 2.999999
v -4.000000 -7.750000 2.999999
v -4.500000 -7.250000 2.999999
v -6.500000 -7.250000 2.999999
v 3.000000 -7.750000 0.999999
v 4.000000 -7.750000 0.999999
v 4.500000 -7.250000 0.999999
v 6.500000 -7.250000 0.999999
v 7.000000 -7.750000 0.999999
v 8.000000 -7.750000 0.999999
v 8.000000 -8.000000 0.999999
v 3.000000 -8.000000 0.999999
v 3.000000 -7.750000 2.999999
v 4.000000 -7.750000 2.999999
v 4.500000 -7.250000 2.999999
v 6.500000 -7.250000 2.999999
v 7.000000 -7.750000 2.999999
v 8.000000 -7.750000 2.999999
v 8.000000 -8.000001 2.999999
v 3.000000 -8.000001 2.999999
vt 0.861111 0.500000
vt 0.875000 0.357143
vt 0.875000 0.500000
vt 0.777778 0.428571
vt 0.833333 0.285714
vt 0.833333 0.428571
vt 0.888889 0.071429
vt 0.888889 0.285714
vt 0.875000 0.357143
vt 0.500000 0.000000
vt 0.611111 0.357143
vt 0.500000 0.357143
vt 0.972222 0.071429
vt 0.972222 0.285714
vt 0.958333 0.357143
vt 0.638889 0.500000
vt 0.666667 0.357143
vt 0.666667 0.500000
vt 0.722222 0.142857
vt 0.833333 0.285714
vt 0.722222 0.285714
vt 0.722222 0.357143
vt 0.694444 0.500000
vt 0.694444 0.357143
vt 0.722222 0.428571
vt 0.777778 0.285714
vt 0.777778 0.428571
vt 0.861111 0.357143
vt 0.847222 0.500000
vt 0.847222 0.357143
vt 0.861111 0.285714
vt 0.861111 0.071429
vt 0.875000 0.000000
vt 0.500000 0.500000
vt 0.555556 0.357143
vt 0.555556 0.500000
vt 0.666667 0.500000
vt 0.694444 0.357143
vt 0.694444 0.500000
vt 0.722222 0.000000
vt 0.833333 0.142857
vt 0.722222 0.142857
vt 0.611111 0.500000
vt 0.638889 0.357143
vt 0.638889 0.500000
vt 0.555556 0.500000
vt 0.611111 0.357143
vt 0.611111 0.500000
vt 0.847222 0.357143
vt 0.833333 0.500000
vt 0.833333 0.357143
vt 0.611111 0.000000
vt 0.722222 0.357143
vt 0.611111 0.357143
vt 0.930556 0.071429
vt 0.930556 0.285714
vt 0.916667 0.357143
vt 0.888889 0.500000
vt 0.875000 0.357143
vt 0.888889 0.357143
vt 0.861111 0.357143
vt 0.777778 0.285714
vt 0.875000 0.000000
vt 0.916667 0.107143
vt 0.916667 0.250000
vt 0.888889 0.000000
vt 0.888889 0.357143
vt 0.611111 0.000000
vt 0.958333 0.000000
vt 0.972222 0.000000
vt 1.000000 0.107143
vt 1.000000 0.250000
vt 0.972222 0.357143
vt 0.638889 0.357143
vt 0.833333 0.142857
vt 0.722222 0.500000
vt 0.722222 0.285714
vt 0.861111 0.500000
vt 0.875000 0.357143
vt 0.861111 0.357143
vt 0.833333 0.250000
vt 0.833333 0.107143
vt 0.861111 0.000000
vt 0.500000 0.357143
vt 0.666667 0.357143
vt 0.833333 0.000000
vt 0.611111 0.357143
vt 0.555556 0.357143
vt 0.847222 0.500000
vt 0.722222 0.000000
vt 0.916667 0.000000
vt 0.958333 0.107143
vt 0.958333 0.250000
vt 0.930556 0.000000
vt 0.930556 0.357143
vt 0.875000 0.500000
vn -1.0000 0.0000 0.0000
vn 0.0000 1.0000 0.0000
vn 0.0000 0.0000 -1.0000
vn 0.0000 -1.0000 -0.0000
vn 0.0000 0.0000 1.0000
vn -0.7071 0.7071 0.0000
vn 0.7071 0.7071 0.0000
vn 1.0000 0.0000 0.0000
usemtl None.066
s 1
f 2/1/1 4/2/1 1/3/1
f 1/4/2 6/5/2 5/6/2
f 5/7/3 9/8/3 11/9/3
f 11/10/4 3/11/4 2/12/4
f 14/13/5 6/14/5 3/15/5
f 16/16/6 5/17/6 6/18/6
f 15/19/2 7/20/2 16/21/2
f 8/22/7 14/23/7 9/24/7
f 9/25/2 13/26/2 10/27/2
f 12/28/8 10/29/8 13/30/8
f 18/31/3 21/32/3 23/33/3
f 17/34/2 26/35/2 18/36/2
f 27/37/6 18/38/6 26/39/6
f 28/40/2 19/41/2 27/42/2
f 20/43/7 29/44/7 21/45/7
f 30/46/2 21/47/2 29/48/2
f 31/49/8 22/50/8 30/51/8
f 23/52/4 32/53/4 24/54/4
f 29/55/5 26/56/5 32/57/5
f 17/58/1 32/59/1 25/60/1
f 2/1/1 3/61/1 4/2/1
f 1/4/2 4/62/2 6/5/2
f 11/9/3 2/63/3 5/7/3
f 5/7/3 7/64/3 8/65/3
f 2/63/3 1/66/3 5/7/3
f 9/8/3 10/67/3 11/9/3
f 5/7/3 8/65/3 9/8/3
f 11/10/4 12/68/4 3/11/4
f 12/69/5 13/70/5 14/13/5
f 14/13/5 15/71/5 16/72/5
f 6/14/5 4/73/5 3/15/5
f 14/13/5 16/72/5 6/14/5
f 3/15/5 12/69/5 14/13/5
f 16/16/6 7/74/6 5/17/6
f 15/19/2 8/75/2 7/20/2
f 8/22/7 15/76/7 14/23/7
f 9/25/2 14/77/2 13/26/2
f 12/28/8 11/78/8 10/29/8
f 24/79/3 17/80/3 18/31/3
f 18/31/3 19/81/3 20/82/3
f 21/32/3 22/83/3 23/33/3
f 18/31/3 20/82/3 21/32/3
f 23/33/3 24/79/3 18/31/3
f 17/34/2 25/84/2 26/35/2
f 27/37/6 19/85/6 18/38/6
f 28/40/2 20/86/2 19/41/2
f 20/43/7 28/87/7 29/44/7
f 30/46/2 22/88/2 21/47/2
f 31/49/8 23/89/8 22/50/8
f 23/52/4 31/90/4 32/53/4
f 32/57/5 31/91/5 29/55/5
f 29/55/5 28/92/5 27/93/5
f 31/91/5 30/94/5 29/55/5
f 26/56/5 25/95/5 32/57/5
f 29/55/5 27/93/5 26/56/5
f 17/58/1 24/96/1 32/59/1
o r2
v -6.000000 -7.500001 7.999999
v -6.000000 -6.500001 7.999999
v -6.000000 -6.499999 -8.000001
v -6.000000 -7.499999 -8.000001
v -5.000000 -6.499999 -8.000001
v -5.000000 -7.499999 -8.000001
v -5.000000 -6.500001 7.999999
v -5.000000 -7.500001 7.999999
vt 0.100000 0.500000
vt 0.000000 1.000000
vt 0.000000 0.500000
vt 0.400000 0.562500
vt 0.500000 0.531250
vt 0.500000 0.562500
vt 0.400000 0.500000
vt 0.300000 1.000000
vt 0.300000 0.500000
vt 0.500000 0.500000
vt 0.400000 0.531250
vt 0.400000 0.500000
vt 0.200000 1.000000
vt 0.300000 0.500000
vt 0.300000 1.000000
vt 0.100000 1.000000
vt 0.200000 0.500000
vt 0.200000 1.000000
vt 0.400000 0.531250
vt 0.400000 1.000000
vt 0.500000 0.531250
vt 0.200000 0.500000
vn -1.0000 0.0000 0.0000
vn 0.0000 0.0000 -1.0000
vn 1.0000 -0.0000 0.0000
vn 0.0000 -0.0000 1.0000
vn 0.0000 -1.0000 -0.0000
vn 0.0000 1.0000 0.0000
usemtl None.066
s 1
f 34/97/9 36/98/9 33/99/9
f 35/100/10 38/101/10 36/102/10
f 37/103/11 40/104/11 38/105/11
f 39/106/12 33/107/12 40/108/12
f 38/109/13 33/110/13 36/111/13
f 35/112/14 39/113/14 37/114/14
f 34/97/9 35/112/9 36/98/9
f 35/100/10 37/115/10 38/101/10
f 37/103/11 39/116/11 40/104/11
f 39/106/12 34/117/12 33/107/12
f 38/109/13 40/118/13 33/110/13
f 35/112/14 34/97/14 39/113/14
o b4
v -8.000000 -7.749999 -7.000001
v -8.000000 -7.999999 -7.000001
v -8.000000 -7.999999 -5.000001
v -8.000000 -7.749999 -5.000001
v -7.000000 -7.749999 -7.000001
v -7.000000 -7.749999 -5.000001
v -6.500000 -7.249999 -7.000001
v -4.500000 -7.249999 -7.000001
v -4.000000 -7.749999 -7.000001
v -3.000000 -7.749999 -7.000001
v -3.000000 -7.999999 -7.000001
v -3.000000 -7.999999 -5.000001
v -3.000000 -7.749999 -5.000001
v -4.000000 -7.749999 -5.000001
v -4.500000 -7.249999 -5.000001
v -6.500000 -7.249999 -5.000001
v 3.000000 -7.749999 -7.000001
v 4.000000 -7.749999 -7.000001
v 4.500000 -7.249999 -7.000001
v 6.500000 -7.249999 -7.000001
v 7.000000 -7.749999 -7.000001
v 8.000000 -7.749999 -7.000001
v 8.000000 -7.999999 -7.000001
v 3.000000 -7.999999 -7.000001
v 3.000000 -7.749999 -5.000001
v 4.000000 -7.749999 -5.000001
v 4.500000 -7.249999 -5.000001
v 6.500000 -7.249999 -5.000001
v 7.000000 -7.749999 -5.000001
v 8.000000 -7.749999 -5.000001
v 8.000000 -7.999999 -5.000001
v 3.000000 -7.999999 -5.000001
vt 0.805556 0.428571
vt 0.819444 0.285714
vt 0.819444 0.428571
vt 0.777778 0.285714
vt 0.722222 0.428571
vt 0.722222 0.285714
vt 0.902778 0.285714
vt 0.902778 0.071429
vt 0.916667 0.000000
vt 0.611111 0.000000
vt 0.722222 0.357143
vt 0.611111 0.357143
vt 0.972222 0.071429
vt 0.972222 0.285714
vt 0.958333 0.357143
vt 0.722222 0.357143
vt 0.694444 0.500000
vt 0.694444 0.357143
vt 0.833333 0.142857
vt 0.722222 0.285714
vt 0.722222 0.142857
vt 0.861111 0.357143
vt 0.833333 0.500000
vt 0.833333 0.357143
vt 0.611111 0.500000
vt 0.666667 0.357143
vt 0.666667 0.500000
vt 0.888889 0.357143
vt 0.875000 0.500000
vt 0.875000 0.357143
vt 0.861111 0.285714
vt 0.861111 0.071429
vt 0.875000 0.000000
vt 0.555556 0.500000
vt 0.611111 0.357143
vt 0.611111 0.500000
vt 0.777778 0.428571
vt 0.805556 0.285714
vt 0.805556 0.428571
vt 0.833333 0.000000
vt 0.722222 0.142857
vt 0.722222 0.000000
vt 0.694444 0.357143
vt 0.666667 0.500000
vt 0.666667 0.357143
vt 0.555556 0.357143
vt 0.500000 0.500000
vt 0.500000 0.357143
vt 0.902778 0.357143
vt 0.888889 0.500000
vt 0.888889 0.357143
vt 0.500000 0.000000
vt 0.611111 0.357143
vt 0.500000 0.357143
vt 0.930556 0.071429
vt 0.930556 0.285714
vt 0.916667 0.357143
vt 0.875000 0.500000
vt 0.861111 0.357143
vt 0.875000 0.357143
vt 0.805556 0.285714
vt 0.777778 0.428571
vt 0.916667 0.357143
vt 0.875000 0.250000
vt 0.875000 0.107143
vt 0.902778 0.357143
vt 0.902778 0.000000
vt 0.722222 0.000000
vt 0.958333 0.000000
vt 0.972222 0.000000
vt 1.000000 0.107143
vt 1.000000 0.250000
vt 0.972222 0.357143
vt 0.722222 0.500000
vt 0.833333 0.285714
vt 0.861111 0.500000
vt 0.611111 0.357143
vt 0.888889 0.500000
vt 0.875000 0.357143
vt 0.861111 0.357143
vt 0.833333 0.250000
vt 0.833333 0.107143
vt 0.861111 0.000000
vt 0.555556 0.357143
vt 0.777778 0.285714
vt 0.833333 0.142857
vt 0.694444 0.500000
vt 0.555556 0.500000
vt 0.902778 0.500000
vt 0.611111 0.000000
vt 0.916667 0.000000
vt 0.958333 0.107143
vt 0.958333 0.250000
vt 0.930556 0.000000
vt 0.930556 0.357143
vt 0.861111 0.500000
vn -1.0000 0.0000 0.0000
vn 0.0000 1.0000 0.0000
vn 0.0000 0.0000 -1.0000
vn 0.0000 -1.0000 0.0000
vn 0.0000 -0.0000 1.0000
vn -0.7071 0.7071 0.0000
vn 0.7071 0.7071 0.0000
vn 1.0000 0.0000 0.0000
usemtl None.066
s 1
f 42/119/15 44/120/15 41/121/15
f 41/122/16 46/123/16 45/124/16
f 45/125/17 49/126/17 51/127/17
f 51/128/18 43/129/18 42/130/18
f 54/131/19 46/132/19 43/133/19
f 56/134/20 45/135/20 46/136/20
f 55/137/16 47/138/16 56/139/16
f 48/140/21 54/141/21 49/142/21
f 49/143/16 53/144/16 50/145/16
f 52/146/22 50/147/22 53/148/22
f 58/149/17 61/150/17 63/151/17
f 57/152/16 66/153/16 58/154/16
f 67/155/20 58/156/20 66/157/20
f 68/158/16 59/159/16 67/160/16
f 60/161/21 69/162/21 61/163/21
f 70/164/16 61/165/16 69/166/16
f 71/167/22 62/168/22 70/169/22
f 63/170/18 72/171/18 64/172/18
f 69/173/19 66/174/19 72/175/19
f 57/176/15 72/177/15 65/178/15
f 42/119/15 43/179/15 44/120/15
f 41/122/16 44/180/16 46/123/16
f 51/127/17 42/181/17 45/125/17
f 45/125/17 47/182/17 48/183/17
f 42/181/17 41/184/17 45/125/17
f 49/126/17 50/185/17 51/127/17
f 45/125/17 48/183/17 49/126/17
f 51/128/18 52/186/18 43/129/18
f 52/187/19 53/188/19 54/131/19
f 54/131/19 55/189/19 56/190/19
f 46/132/19 44/191/19 43/133/19
f 54/131/19 56/190/19 46/132/19
f 43/133/19 52/187/19 54/131/19
f 56/134/20 47/192/20 45/135/20
f 55/137/16 48/193/16 47/138/16
f 48/140/21 55/194/21 54/141/21
f 49/143/16 54/195/16 53/144/16
f 52/146/22 51/196/22 50/147/22
f 64/197/17 57/198/17 58/149/17
f 58/149/17 59/199/17 60/200/17
f 61/150/17 62/201/17 63/151/17
f 58/149/17 60/200/17 61/150/17
f 63/151/17 64/197/17 58/149/17
f 57/152/16 65/202/16 66/153/16
f 67/155/20 59/203/20 58/156/20
f 68/158/16 60/204/16 59/159/16
f 60/161/21 68/205/21 69/162/21
f 70/164/16 62/206/16 61/165/16
f 71/167/22 63/207/22 62/168/22
f 63/170/18 71/208/18 72/171/18
f 72/175/19 71/209/19 69/173/19
f 69/173/19 68/210/19 67/211/19
f 71/209/19 70/212/19 69/173/19
f 66/174/19 65/213/19 72/175/19
f 69/173/19 67/211/19 66/174/19
f 57/176/15 64/214/15 72/177/15
o b3
v -8.000000 -7.750000 -3.000001
v -8.000000 -8.000000 -3.000001
v -8.000000 -8.000000 -1.000001
v -8.000000 -7.750000 -1.000001
v -7.000000 -7.750000 -3.000001
v -7.000000 -7.750000 -1.000001
v -6.500000 -7.250000 -3.000001
v -4.500000 -7.250000 -3.000001
v -4.000000 -7.750000 -3.000001
v -3.000000 -7.750000 -3.000001
v -3.000000 -8.000000 -3.000001
v -3.000000 -8.000000 -1.000001
v -3.000000 -7.750000 -1.000001
v -4.000000 -7.750000 -1.000001
v -4.500000 -7.250000 -1.000001
v -6.500000 -7.250000 -1.000001
v 3.000000 -7.750000 -3.000001
v 4.000000 -7.750000 -3.000001
v 4.500000 -7.250000 -3.000001
v 6.500000 -7.250000 -3.000001
v 7.000000 -7.750000 -3.000001
v 8.000000 -7.750000 -3.000001
v 8.000000 -8.000000 -3.000001
v 3.000000 -8.000000 -3.000001
v 3.000000 -7.750000 -1.000001
v 4.000000 -7.750000 -1.000001
v 4.500000 -7.250000 -1.000001
v 6.500000 -7.250000 -1.000001
v 7.000000 -7.750000 -1.000001
v 8.000000 -7.750000 -1.000001
v 8.000000 -8.000000 -1.000001
v 3.000000 -8.000000 -1.000001
vt 0.833333 0.500000
vt 0.847222 0.357143
vt 0.847222 0.500000
vt 0.722222 0.428571
vt 0.777778 0.285714
vt 0.777778 0.428571
vt 0.888889 0.071429
vt 0.888889 0.285714
vt 0.875000 0.357143
vt 0.611111 0.000000
vt 0.722222 0.357143
vt 0.611111 0.357143
vt 0.972222 0.071429
vt 0.972222 0.285714
vt 0.958333 0.357143
vt 0.638889 0.500000
vt 0.666667 0.357143
vt 0.666667 0.500000
vt 0.722222 0.142857
vt 0.833333 0.285714
vt 0.722222 0.285714
vt 0.611111 0.500000
vt 0.638889 0.357143
vt 0.638889 0.500000
vt 0.611111 0.357143
vt 0.555556 0.500000
vt 0.555556 0.357143
vt 0.875000 0.357143
vt 0.861111 0.500000
vt 0.861111 0.357143
vt 0.861111 0.285714
vt 0.861111 0.071429
vt 0.875000 0.000000
vt 0.833333 0.285714
vt 0.777778 0.428571
vt 0.777778 0.285714
vt 0.694444 0.500000
vt 0.722222 0.357143
vt 0.722222 0.500000
vt 0.833333 0.000000
vt 0.722222 0.142857
vt 0.722222 0.000000
vt 0.694444 0.357143
vt 0.666667 0.500000
vt 0.666667 0.357143
vt 0.500000 0.500000
vt 0.555556 0.357143
vt 0.555556 0.500000
vt 0.888889 0.357143
vt 0.875000 0.500000
vt 0.875000 0.357143
vt 0.500000 0.000000
vt 0.611111 0.357143
vt 0.500000 0.357143
vt 0.930556 0.071429
vt 0.930556 0.285714
vt 0.916667 0.357143
vt 0.861111 0.500000
vt 0.847222 0.357143
vt 0.861111 0.357143
vt 0.833333 0.357143
vt 0.722222 0.285714
vt 0.875000 0.000000
vt 0.916667 0.107143
vt 0.916667 0.250000
vt 0.888889 0.000000
vt 0.888889 0.357143
vt 0.722222 0.000000
vt 0.958333 0.000000
vt 0.972222 0.000000
vt 1.000000 0.107143
vt 1.000000 0.250000
vt 0.972222 0.357143
vt 0.638889 0.357143
vt 0.833333 0.142857
vt 0.611111 0.357143
vt 0.611111 0.500000
vt 0.875000 0.500000
vt 0.875000 0.357143
vt 0.861111 0.357143
vt 0.833333 0.250000
vt 0.833333 0.107143
vt 0.861111 0.000000
vt 0.833333 0.428571
vt 0.694444 0.357143
vt 0.833333 0.142857
vt 0.694444 0.500000
vt 0.500000 0.357143
vt 0.888889 0.500000
vt 0.611111 0.000000
vt 0.916667 0.000000
vt 0.958333 0.107143
vt 0.958333 0.250000
vt 0.930556 0.000000
vt 0.930556 0.357143
vt 0.847222 0.500000
vn -1.0000 0.0000 0.0000
vn 0.0000 1.0000 0.0000
vn 0.0000 0.0000 -1.0000
vn 0.0000 -1.0000 -0.0000
vn 0.0000 -0.0000 1.0000
vn -0.7071 0.7071 0.0000
vn 0.7071 0.7071 0.0000
vn 1.0000 0.0000 0.0000
usemtl None.066
s 1
f 74/215/23 76/216/23 73/217/23
f 73/218/24 78/219/24 77/220/24
f 77/221/25 81/222/25 83/223/25
f 83/224/26 75/225/26 74/226/26
f 86/227/27 78/228/27 75/229/27
f 88/230/28 77/231/28 78/232/28
f 87/233/24 79/234/24 88/235/24
f 80/236/29 86/237/29 81/238/29
f 81/239/24 85/240/24 82/241/24
f 84/242/30 82/243/30 85/244/30
f 90/245/25 93/246/25 95/247/25
f 89/248/24 98/249/24 90/250/24
f 99/251/28 90/252/28 98/253/28
f 100/254/24 91/255/24 99/256/24
f 92/257/29 101/258/29 93/259/29
f 102/260/24 93/261/24 101/262/24
f 103/263/30 94/264/30 102/265/30
f 95/266/26 104/267/26 96/268/26
f 101/269/27 98/270/27 104/271/27
f 89/272/23 104/273/23 97/274/23
f 74/215/23 75/275/23 76/216/23
f 73/218/24 76/276/24 78/219/24
f 83/223/25 74/277/25 77/221/25
f 77/221/25 79/278/25 80/279/25
f 74/277/25 73/280/25 77/221/25
f 81/222/25 82/281/25 83/223/25
f 77/221/25 80/279/25 81/222/25
f 83/224/26 84/282/26 75/225/26
f 84/283/27 85/284/27 86/227/27
f 86/227/27 87/285/27 88/286/27
f 78/228/27 76/287/27 75/229/27
f 86/227/27 88/286/27 78/228/27
f 75/229/27 84/283/27 86/227/27
f 88/230/28 79/288/28 77/231/28
f 87/233/24 80/289/24 79/234/24
f 80/236/29 87/290/29 86/237/29
f 81/239/24 86/291/24 85/240/24
f 84/242/30 83/292/30 82/243/30
f 96/293/25 89/294/25 90/245/25
f 90/245/25 91/295/25 92/296/25
f 93/246/25 94/297/25 95/247/25
f 90/245/25 92/296/25 93/246/25
f 95/247/25 96/293/25 90/245/25
f 89/248/24 97/298/24 98/249/24
f 99/251/28 91/299/28 90/252/28
f 100/254/24 92/300/24 91/255/24
f 92/257/29 100/301/29 101/258/29
f 102/260/24 94/302/24 93/261/24
f 103/263/30 95/303/30 94/264/30
f 95/266/26 103/304/26 104/267/26
f 104/271/27 103/305/27 101/269/27
f 101/269/27 100/306/27 99/307/27
f 103/305/27 102/308/27 101/269/27
f 98/270/27 97/309/27 104/271/27
f 101/269/27 99/307/27 98/270/27
f 89/272/23 96/310/23 104/273/23
o r1
v 5.000000 -7.500001 7.999999
v 5.000000 -6.500001 7.999999
v 5.000000 -6.499999 -8.000001
v 5.000000 -7.499999 -8.000001
v 6.000000 -6.499999 -8.000001
v 6.000000 -7.499999 -8.000001
v 6.000000 -6.500001 7.999999
v 6.000000 -7.500001 7.999999
vt 0.100000 0.500000
vt 0.000000 1.000000
vt 0.000000 0.500000
vt 0.400000 0.562500
vt 0.500000 0.531250
vt 0.500000 0.562500
vt 0.400000 0.500000
vt 0.300000 1.000000
vt 0.300000 0.500000
vt 0.500000 0.500000
vt 0.400000 0.531250
vt 0.400000 0.500000
vt 0.200000 1.000000
vt 0.300000 0.500000
vt 0.300000 1.000000
vt 0.100000 1.000000
vt 0.200000 0.500000
vt 0.200000 1.000000
vt 0.400000 0.531250
vt 0.400000 1.000000
vt 0.500000 0.531250
vt 0.200000 0.500000
vn -1.0000 0.0000 0.0000
vn 0.0000 0.0000 -1.0000
vn 1.0000 0.0000 0.0000
vn 0.0000 -0.0000 1.0000
vn 0.0000 -1.0000 -0.0000
vn 0.0000 1.0000 0.0000
usemtl None.066
s 1
f 106/311/31 108/312/31 105/313/31
f 107/314/32 110/315/32 108/316/32
f 109/317/33 112/318/33 110/319/33
f 111/320/34 105/321/34 112/322/34
f 110/323/35 105/324/35 108/325/35
f 107/326/36 111/327/36 109/328/36
f 106/311/31 107/326/31 108/312/31
f 107/314/32 109/329/32 110/315/32
f 109/317/33 111/330/33 112/318/33
f 111/320/34 106/331/34 105/321/34
f 110/323/35 112/332/35 105/324/35
f 107/326/36 106/311/36 111/327/36
o b1
v -8.000000 -7.750001 4.999999
v -8.000000 -8.000001 4.999999
v -8.000000 -8.000001 6.999999
v -8.000000 -7.750001 6.999999
v -7.000000 -7.750001 4.999999
v -7.000000 -7.750001 6.999999
v -6.500000 -7.250001 4.999999
v -4.500000 -7.250001 4.999999
v -4.000000 -7.750001 4.999999
v -3.000000 -7.750001 4.999999
v -3.000000 -8.000001 4.999999
v -3.000000 -8.000001 6.999999
v -3.000000 -7.750001 6.999999
v -4.000000 -7.750001 6.999999
v -4.500000 -7.250001 6.999999
v -6.500000 -7.250001 6.999999
v 3.000000 -7.750001 4.999999
v 4.000000 -7.750001 4.999999
v 4.500000 -7.250001 4.999999
v 6.500000 -7.250001 4.999999
v 7.000000 -7.750001 4.999999
v 8.000000 -7.750001 4.999999
v 8.000000 -8.000001 4.999999
v 3.000000 -8.000001 4.999999
v 3.000000 -7.750001 6.999999
v 4.000000 -7.750001 6.999999
v 4.500000 -7.250001 6.999999
v 6.500000 -7.250001 6.999999
v 7.000000 -7.750001 6.999999
v 8.000000 -7.750001 6.999999
v 8.000000 -8.000001 6.999999
v 3.000000 -8.000001 6.999999
vt 0.861111 0.500000
vt 0.875000 0.357143
vt 0.875000 0.500000
vt 0.722222 0.428571
vt 0.777778 0.285714
vt 0.777778 0.428571
vt 0.888889 0.071429
vt 0.888889 0.285714
vt 0.875000 0.357143
vt 0.500000 0.000000
vt 0.611111 0.357143
vt 0.500000 0.357143
vt 0.972222 0.071429
vt 0.972222 0.285714
vt 0.958333 0.357143
vt 0.666667 0.357143
vt 0.638889 0.500000
vt 0.638889 0.357143
vt 0.833333 0.000000
vt 0.722222 0.142857
vt 0.722222 0.000000
vt 0.694444 0.357143
vt 0.666667 0.500000
vt 0.666667 0.357143
vt 0.777778 0.428571
vt 0.833333 0.285714
vt 0.833333 0.428571
vt 0.847222 0.357143
vt 0.833333 0.500000
vt 0.833333 0.357143
vt 0.861111 0.285714
vt 0.861111 0.071429
vt 0.875000 0.000000
vt 0.500000 0.500000
vt 0.555556 0.357143
vt 0.555556 0.500000
vt 0.611111 0.500000
vt 0.638889 0.357143
vt 0.638889 0.500000
vt 0.833333 0.142857
vt 0.722222 0.285714
vt 0.722222 0.142857
vt 0.694444 0.500000
vt 0.722222 0.357143
vt 0.722222 0.500000
vt 0.611111 0.357143
vt 0.555556 0.500000
vt 0.555556 0.357143
vt 0.861111 0.357143
vt 0.847222 0.500000
vt 0.847222 0.357143
vt 0.611111 0.000000
vt 0.722222 0.357143
vt 0.611111 0.357143
vt 0.930556 0.071429
vt 0.930556 0.285714
vt 0.916667 0.357143
vt 0.888889 0.500000
vt 0.875000 0.357143
vt 0.888889 0.357143
vt 0.861111 0.357143
vt 0.722222 0.285714
vt 0.875000 0.000000
vt 0.916667 0.107143
vt 0.916667 0.250000
vt 0.888889 0.000000
vt 0.888889 0.357143
vt 0.611111 0.000000
vt 0.958333 0.000000
vt 0.972222 0.000000
vt 1.000000 0.107143
vt 1.000000 0.250000
vt 0.972222 0.357143
vt 0.666667 0.500000
vt 0.833333 0.142857
vt 0.694444 0.500000
vt 0.777778 0.285714
vt 0.847222 0.500000
vt 0.875000 0.357143
vt 0.861111 0.357143
vt 0.833333 0.250000
vt 0.833333 0.107143
vt 0.861111 0.000000
vt 0.500000 0.357143
vt 0.611111 0.357143
vt 0.833333 0.285714
vt 0.694444 0.357143
vt 0.611111 0.500000
vt 0.861111 0.500000
vt 0.722222 0.000000
vt 0.916667 0.000000
vt 0.958333 0.107143
vt 0.958333 0.250000
vt 0.930556 0.000000
vt 0.930556 0.357143
vt 0.875000 0.500000
vn -1.0000 0.0000 0.0000
vn 0.0000 1.0000 0.0000
vn 0.0000 0.0000 -1.0000
vn 0.0000 -1.0000 0.0000
vn 0.0000 -0.0000 1.0000
vn -0.7071 0.7071 0.0000
vn 0.7071 0.7071 0.0000
vn 1.0000 0.0000 0.0000
usemtl None.066
s 1
f 114/333/37 116/334/37 113/335/37
f 113/336/38 118/337/38 117/338/38
f 117/339/39 121/340/39 123/341/39
f 123/342/40 115/343/40 114/344/40
f 126/345/41 118/346/41 115/347/41
f 128/348/42 117/349/42 118/350/42
f 127/351/38 119/352/38 128/353/38
f 120/354/43 126/355/43 121/356/43
f 121/357/38 125/358/38 122/359/38
f 124/360/44 122/361/44 125/362/44
f 130/363/39 133/364/39 135/365/39
f 129/366/38 138/367/38 130/368/38
f 139/369/42 130/370/42 138/371/42
f 140/372/38 131/373/38 139/374/38
f 132/375/43 141/376/43 133/377/43
f 142/378/38 133/379/38 141/380/38
f 143/381/44 134/382/44 142/383/44
f 135/384/40 144/385/40 136/386/40
f 141/387/41 138/388/41 144/389/41
f 129/390/37 144/391/37 137/392/37
f 114/333/37 115/393/37 116/334/37
f 113/336/38 116/394/38 118/337/38
f 123/341/39 114/395/39 117/339/39
f 117/339/39 119/396/39 120/397/39
f 114/395/39 113/398/39 117/339/39
f 121/340/39 122/399/39 123/341/39
f 117/339/39 120/397/39 121/340/39
f 123/342/40 124/400/40 115/343/40
f 124/401/41 125/402/41 126/345/41
f 126/345/41 127/403/41 128/404/41
f 118/346/41 116/405/41 115/347/41
f 126/345/41 128/404/41 118/346/41
f 115/347/41 124/401/41 126/345/41
f 128/348/42 119/406/42 117/349/42
f 127/351/38 120/407/38 119/352/38
f 120/354/43 127/408/43 126/355/43
f 121/357/38 126/409/38 125/358/38
f 124/360/44 123/410/44 122/361/44
f 136/411/39 129/412/39 130/363/39
f 130/363/39 131/413/39 132/414/39
f 133/364/39 134/415/39 135/365/39
f 130/363/39 132/414/39 133/364/39
f 135/365/39 136/411/39 130/363/39
f 129/366/38 137/416/38 138/367/38
f 139/369/42 131/417/42 130/370/42
f 140/372/38 132/418/38 131/373/38
f 132/375/43 140/419/43 141/376/43
f 142/378/38 134/420/38 133/379/38
f 143/381/44 135/421/44 134/382/44
f 135/384/40 143/422/40 144/385/40
f 144/389/41 143/423/41 141/387/41
f 141/387/41 140/424/41 139/425/41
f 143/423/41 142/426/41 141/387/41
f 138/388/41 137/427/41 144/389/41
f 141/387/41 139/425/41 138/388/41
f 129/390/37 136/428/37 144/391/37
