# Blender v2.79 (sub 0) OBJ File: ''
# www.blender.org
mtllib rail_wire_turned.mtl
o 0
v -8.000001 0.999998 0.500000
v -8.000001 -0.000002 0.500000
v 0.499999 1.000002 -8.000000
v 0.499999 0.000002 -8.000000
v -0.500001 1.000002 -8.000000
v -0.500001 0.000002 -8.000000
v -8.000001 0.999998 -0.500000
v -8.000001 -0.000002 -0.500000
vt 0.585510 0.000000
vt 0.828312 0.000000
vt 0.585509 0.999999
vt 0.828312 0.999999
vt 0.342706 0.058824
vt 0.585509 0.058824
vt 0.342706 0.941177
vt 0.585509 0.941177
vt 1.000000 0.058823
vt 1.000000 0.941176
vt 0.828312 0.000000
vt 0.828313 1.000000
vt 0.160643 0.943012
vt 0.000000 0.062378
vt 0.342706 0.998052
vt 0.160644 0.000000
vt 0.342706 1.000000
vt 0.585509 1.000000
vt 0.342706 0.000000
vt 0.585509 0.000000
vn 0.7071 0.0000 0.7071
vn -0.7071 0.0000 -0.7071
vn 0.0000 1.0000 0.0000
vn 0.0000 -1.0000 -0.0000
vn -1.0000 0.0000 0.0000
vn 0.0000 0.0000 -1.0000
usemtl 0.014
s 1
f 1/1/1 2/2/1 3/3/1
f 2/2/1 4/4/1 3/3/1
f 5/5/2 6/6/2 7/7/2
f 6/6/2 8/8/2 7/7/2
f 5/9/3 7/10/3 3/11/3
f 7/10/3 1/12/3 3/11/3
f 8/13/4 6/14/4 2/15/4
f 6/14/4 4/16/4 2/15/4
f 7/7/5 8/8/5 1/17/5
f 8/8/5 2/18/5 1/17/5
f 3/19/6 4/20/6 5/5/6
f 4/20/6 6/6/6 5/5/6
o 1
v -8.000002 7.999998 0.500001
v -8.000002 6.999998 0.500001
v 0.499999 8.000002 -7.999999
v 0.499999 7.000002 -7.999999
v -0.500001 8.000002 -7.999999
v -0.500001 7.000002 -7.999999
v -8.000002 7.999998 -0.499999
v -8.000002 6.999998 -0.499999
vt 0.585509 0.000000
vt 0.828312 0.000000
vt 0.585509 0.999999
vt 0.828312 0.999999
vt 0.585509 0.941176
vt 0.342706 0.941176
vt 0.585509 0.058824
vt 0.342706 0.058824
vt 0.828312 0.941176
vt 0.828313 0.058823
vt 1.000000 0.999999
vt 1.000000 0.000000
vt 0.342706 0.062378
vt 0.182063 0.943013
vt 0.182063 0.000000
vt 0.000000 0.998052
vt 0.342706 0.000000
vt 0.342706 1.000000
vn 0.7071 0.0000 0.7071
vn -0.7071 0.0000 -0.7071
vn 0.0000 1.0000 0.0000
vn 0.0000 -1.0000 0.0000
vn -1.0000 0.0000 0.0000
vn 0.0000 0.0000 -1.0000
usemtl 0.015
s 1
f 9/21/7 10/22/7 11/23/7
f 10/22/7 12/24/7 11/23/7
f 13/25/8 14/26/8 15/27/8
f 14/26/8 16/28/8 15/27/8
f 13/29/9 15/30/9 11/31/9
f 15/30/9 9/32/9 11/31/9
f 16/33/10 14/34/10 10/35/10
f 14/34/10 12/36/10 10/35/10
f 15/27/11 16/28/11 9/21/11
f 16/28/11 10/37/11 9/21/11
f 11/23/12 12/38/12 13/25/12
f 12/38/12 14/26/12 13/25/12
o 2
v -3.757360 0.999998 -3.742640
v -3.050253 0.999998 -4.449747
v 0.000074 7.000003 -7.500075
v 0.499999 7.000003 -8.000000
v -0.500001 7.000003 -7.999999
v -4.257285 0.999998 -4.242715
v -3.757360 0.999999 -4.742640
vt 0.709099 1.000000
vt 0.401122 0.921848
vt 0.709100 0.055253
vt 0.491359 0.000000
vt 0.401122 0.943773
vt 0.299325 0.052715
vt 0.401122 0.000000
vt 1.000000 0.055261
vt 1.000000 0.999991
vt 0.000000 0.076306
vt 0.042157 0.998249
vt 0.143983 0.001745
vt 0.709100 0.000000
vn 0.7071 0.0000 0.7071
vn -0.5602 0.6623 0.4974
vn -0.7071 0.0000 -0.7071
vn -0.8014 0.5837 0.1307
vn -0.5293 0.6630 0.5294
vn -0.5294 0.6630 0.5293
vn 0.3121 -0.5786 -0.7536
vn 0.0179 -0.1438 -0.9894
vn 0.2926 -0.5760 -0.7633
vn -0.0000 0.2316 -0.9728
vn -0.0000 -1.0000 -0.0000
vn 0.0000 1.0000 0.0000
usemtl 0.016
s 1
f 17/39/13 18/40/13 19/41/13
f 18/40/13 20/42/13 19/41/13
f 21/43/14 23/44/15 22/45/16
f 21/46/14 22/47/16 19/41/17
f 22/47/16 17/39/18 19/41/17
f 23/44/19 21/43/20 18/48/21
f 21/43/20 20/49/22 18/48/21
f 22/45/23 23/44/23 17/50/23
f 23/44/23 18/48/23 17/50/23
f 19/41/24 20/51/22 21/46/20
o 3
v -3.727924 1.000000 -3.772075
v -4.435031 1.000000 -3.064968
v -7.485361 7.000003 -0.014641
v -7.985285 7.000003 0.485284
v -7.985285 7.000003 -0.514716
v -4.227999 1.000000 -4.272000
v -4.727924 1.000000 -3.772075
vt 0.709099 1.000000
vt 0.709100 0.055253
vt 0.401122 0.921848
vt 0.491359 0.000000
vt 0.401122 0.943773
vt 0.401122 0.000000
vt 0.299325 0.052715
vt 1.000000 0.055261
vt 1.000000 0.999991
vt 0.000000 0.076306
vt 0.042157 0.998249
vt 0.143983 0.001745
vt 0.709100 0.000000
vn 0.7071 0.0000 0.7071
vn 0.4974 0.6623 -0.5602
vn 0.1307 0.5837 -0.8014
vn -0.7071 0.0000 -0.7071
vn 0.5294 0.6630 -0.5293
vn 0.5293 0.6630 -0.5294
vn -0.7536 -0.5786 0.3121
vn -0.7633 -0.5760 0.2926
vn -0.9894 -0.1438 0.0179
vn -0.9728 0.2316 0.0000
vn 0.0000 -1.0000 0.0000
vn 0.0000 1.0000 0.0000
usemtl 0.017
s 1
f 24/52/25 26/53/25 25/54/25
f 25/54/25 26/53/25 27/55/25
f 28/56/26 29/57/27 30/58/28
f 28/59/26 26/53/29 29/60/27
f 29/60/27 26/53/29 24/52/30
f 30/58/31 25/61/32 28/56/33
f 28/56/33 25/61/32 27/62/34
f 29/57/35 24/63/35 30/58/35
f 30/58/35 24/63/35 25/61/35
f 26/53/36 28/59/33 27/64/34
