# Blender v2.79 (sub 0) OBJ File: ''
# www.blender.org
mtllib trd_rail_l.mtl
o 1
v -4.000000 3.999955 -8.000000
v -3.000000 -0.999997 -8.000000
v -4.000000 -0.999997 -8.000000
v -3.000000 3.999955 -8.000000
v -3.000000 12.813685 0.813737
v -3.000000 10.313707 3.313712
v -4.000000 12.813685 0.813737
v -4.000000 10.313707 3.313712
vt 0.900705 0.312497
vt 0.801410 0.000000
vt 0.900705 0.000000
vt 0.801410 0.312497
vt 0.000000 0.779031
vt 0.000000 0.000000
vt 0.351057 0.000000
vt 0.900705 0.863355
vt 0.801410 0.863355
vt 0.900705 0.000000
vt 1.000000 0.000000
vt 1.000000 0.220969
vt 0.351057 1.000000
vt 0.900705 0.220969
vt 0.801410 0.000000
vt 0.801410 1.000000
vt 0.702115 0.000000
vt 0.702115 1.000000
vt 0.351057 1.000000
vt 0.702115 0.000000
vt 0.702115 0.779031
vt 0.351058 0.000000
vn 0.0000 0.0000 -1.0000
vn 1.0000 0.0000 0.0000
vn 0.0000 0.7071 -0.7071
vn 0.0000 0.7071 0.7071
vn 0.0000 -0.7071 0.7071
vn -1.0000 -0.0000 0.0000
usemtl 0.029
s off
f 1/1/1 2/2/1 3/3/1
f 1/1/1 4/4/1 2/2/1
s 1
f 4/5/2 5/6/2 6/7/2
f 4/4/3 7/8/3 5/9/3
f 8/10/4 6/11/4 5/12/4
f 4/5/2 6/7/2 2/13/2
f 1/1/3 7/8/3 4/4/3
f 7/14/4 8/10/4 5/12/4
f 8/15/5 3/16/5 6/17/5
f 3/16/5 2/18/5 6/17/5
f 3/19/6 7/20/6 1/21/6
f 3/19/6 8/22/6 7/20/6
o 2
v 1.000000 -5.999997 -8.000001
v -1.000000 -5.999997 -8.000001
v -1.000000 0.999934 -8.000000
v 1.000000 0.999934 -8.000000
v 1.000000 8.813674 -0.186255
v 1.000000 5.313707 3.313710
v -1.000000 8.813674 -0.186255
v -1.000000 5.313707 3.313710
vt 0.748418 0.925854
vt 0.748418 0.488359
vt 0.874209 0.488359
vt 0.874209 0.925854
vt 0.622627 0.309356
vt 0.622627 1.000000
vt 0.311314 1.000000
vt 0.748418 0.000000
vt 0.874209 0.000000
vt 0.874209 0.000000
vt 1.000000 0.000000
vt 1.000000 0.309356
vt 0.311314 0.000000
vt 0.874209 0.309356
vt 0.748418 1.000000
vt 0.622627 0.000000
vt 0.748418 0.000000
vt 0.622627 1.000000
vt 0.311314 0.000000
vt 0.000000 1.000000
vt 0.000000 0.309356
vt 0.311314 1.000000
vn 0.0000 0.0000 -1.0000
vn 1.0000 0.0000 0.0000
vn 0.0000 0.7071 -0.7071
vn 0.0000 0.7071 0.7071
vn 0.0000 -0.7071 0.7071
vn -1.0000 0.0000 0.0000
usemtl 0.029
s off
f 10/23/7 11/24/7 12/25/7
f 12/25/7 9/26/7 10/23/7
s 1
f 12/27/8 13/28/8 14/29/8
f 12/25/9 15/30/9 13/31/9
f 16/32/10 14/33/10 13/34/10
f 12/27/8 14/29/8 9/35/8
f 11/24/9 15/30/9 12/25/9
f 15/36/10 16/32/10 13/34/10
f 10/37/11 14/38/11 16/39/11
f 9/40/11 14/38/11 10/37/11
f 10/41/12 15/42/12 11/43/12
f 10/41/12 16/44/12 15/42/12
o 3
v 3.000000 15.000042 8.000003
v 4.000000 19.999992 8.000003
v 3.000000 19.999989 8.000003
v 4.000000 15.000042 8.000003
v 4.000000 12.221825 0.221829
v 4.000000 9.721848 2.721805
v 3.000000 9.721848 2.721805
v 3.000000 12.221825 0.221829
vt 0.801410 0.479836
vt 0.900705 0.934377
vt 0.801410 0.934377
vt 0.900705 0.479836
vt 0.351057 0.321409
vt 0.000000 1.000000
vt 0.000000 0.000000
vt 0.351058 1.000000
vt 0.801410 0.000000
vt 0.801410 0.999999
vt 0.702115 0.000000
vt 0.801410 0.000000
vt 0.900705 0.000000
vt 0.900705 0.321409
vt 1.000000 0.321409
vt 0.702115 0.999999
vt 1.000000 0.000000
vt 0.351058 0.999999
vt 0.351058 0.321409
vn 0.0000 0.0000 1.0000
vn 1.0000 0.0000 0.0000
vn -0.0000 0.7071 -0.7071
vn 0.0000 -0.7071 0.7071
vn 0.0000 -0.7071 -0.7071
vn -1.0000 0.0000 0.0000
usemtl 0.030
s off
f 17/45/13 18/46/13 19/47/13
f 17/45/13 20/48/13 18/46/13
s 1
f 20/49/14 21/50/14 18/51/14
f 20/49/14 22/52/14 21/50/14
f 18/53/15 21/54/15 19/55/15
f 20/48/16 23/56/16 22/57/16
f 21/58/17 22/57/17 24/59/17
f 19/55/15 21/54/15 24/60/15
f 17/45/16 23/56/16 20/48/16
f 22/57/17 23/61/17 24/59/17
f 19/55/18 24/60/18 23/62/18
f 19/55/18 23/62/18 17/63/18
o 4
v 3.000000 1.000003 -8.000000
v -3.000000 2.999984 -8.000000
v 3.000000 2.999984 -8.000000
v -3.000000 1.000003 -8.000000
v 3.000000 13.313700 2.313722
v 3.000000 12.313707 3.313712
v -3.000000 13.313700 2.313722
v -3.000000 12.313707 3.313712
vt 0.369399 1.000000
vt 0.000000 0.911613
vt 0.369399 0.911612
vt 0.000000 1.000000
vt 0.825865 0.088387
vt 0.825865 1.000000
vt 0.738798 1.000000
vt 0.000000 0.000000
vt 0.369399 0.000000
vt 1.000000 0.000000
vt 1.000000 0.375000
vt 0.912933 0.375000
vt 0.738798 0.000000
vt 0.912933 0.000000
vt 0.738798 0.000000
vt 0.738798 1.000000
vt 0.369399 0.000000
vt 0.825865 1.000000
vt 0.912933 0.911612
vt 0.825865 0.000000
vn 0.0000 0.0000 -1.0000
vn 1.0000 -0.0000 0.0000
vn 0.0000 0.7071 -0.7071
vn 0.0000 0.7071 0.7071
vn 0.0000 -0.7071 0.7071
vn -1.0000 0.0000 0.0000
usemtl 0.029
s off
f 25/64/19 26/65/19 27/66/19
f 25/64/19 28/67/19 26/65/19
s 1
f 27/68/20 29/69/20 30/70/20
f 27/66/21 31/71/21 29/72/21
f 32/73/22 30/74/22 29/75/22
f 27/68/20 30/70/20 25/76/20
f 26/65/21 31/71/21 27/66/21
f 31/77/22 32/73/22 29/75/22
f 32/78/23 28/79/23 30/80/23
f 28/79/23 25/64/23 30/80/23
f 28/81/24 31/77/24 26/82/24
f 28/81/24 32/83/24 31/77/24
o 5
v -1.000000 10.000062 8.000002
v 1.000000 16.999992 8.000003
v -1.000000 16.999987 8.000003
v 1.000000 10.000062 8.000002
v 1.000000 8.514718 -0.485279
v 1.000000 5.014750 3.014687
v -1.000000 5.014750 3.014687
v -1.000000 8.514718 -0.485279
vt 0.874209 0.583328
vt 0.748418 0.000000
vt 0.874209 0.000000
vt 0.748418 0.583328
vt 0.311314 0.412475
vt 0.000000 1.000000
vt 0.000000 0.000000
vt 0.311314 1.000000
vt 0.748418 1.000000
vt 0.622627 0.000000
vt 0.874209 0.998771
vt 0.748418 0.998771
vt 0.874209 0.412475
vt 0.874209 0.000000
vt 1.000000 0.412475
vt 0.622627 1.000000
vt 1.000000 0.000000
vt 0.311314 1.000000
vt 0.311314 0.000000
vt 0.622627 0.000000
vt 0.622627 0.587525
vn 0.0000 -0.0000 1.0000
vn 1.0000 0.0000 0.0000
vn -0.0000 0.7071 -0.7071
vn 0.0000 -0.7071 0.7071
vn 0.0000 -0.7071 -0.7071
vn -1.0000 0.0000 0.0000
usemtl 0.029
s off
f 33/84/25 34/85/25 35/86/25
f 33/84/25 36/87/25 34/85/25
s 1
f 36/88/26 37/89/26 34/90/26
f 36/88/26 38/91/26 37/89/26
f 34/85/27 37/92/27 35/93/27
f 36/87/28 39/94/28 38/95/28
f 37/96/29 38/97/29 40/98/29
f 35/93/27 37/92/27 40/99/27
f 33/84/28 39/94/28 36/87/28
f 38/97/29 39/100/29 40/98/29
f 35/101/30 40/102/30 39/103/30
f 35/101/30 39/103/30 33/104/30
o 6
v 3.000000 8.004216 8.000001
v 3.000000 10.004197 8.000002
v -3.000000 10.004196 8.000002
v -3.000000 8.004216 8.000001
v 3.000000 3.640240 1.636040
v 3.000000 2.640249 2.636030
v -3.000000 2.640249 2.636030
v -3.000000 3.640240 1.636040
vt 0.000000 0.094280
vt 0.000000 0.000000
vt 0.404629 0.000000
vt 0.404629 0.094280
vt 0.904629 0.094280
vt 0.809258 0.600000
vt 0.809258 0.000000
vt 0.904629 0.600000
vt 0.404629 0.600000
vt 0.000000 0.600000
vt 0.000000 0.600000
vt 0.095371 0.600000
vt 0.000000 1.000000
vt 0.404629 0.600000
vt 0.095371 1.000000
vt 0.904629 0.600000
vt 0.904629 0.000000
vt 1.000000 0.000000
vt 1.000000 0.505720
vn 0.0000 -0.0000 1.0000
vn 1.0000 0.0000 0.0000
vn -0.0000 0.7071 -0.7071
vn 0.0000 -0.7071 0.7071
vn 0.0000 -0.7071 -0.7071
vn -1.0000 0.0000 0.0000
usemtl 0.029
s off
f 41/105/31 42/106/31 43/107/31
f 44/108/31 41/105/31 43/107/31
s 1
f 41/109/32 45/110/32 42/111/32
f 41/109/32 46/112/32 45/110/32
f 42/111/33 45/110/33 43/107/33
f 41/105/34 47/113/34 46/114/34
f 45/115/35 46/116/35 48/117/35
f 43/107/33 45/110/33 48/118/33
f 44/108/34 47/113/34 41/105/34
f 46/116/35 47/119/35 48/117/35
f 43/120/36 48/121/36 47/122/36
f 43/120/36 47/122/36 44/123/36
o 7
v -4.000000 15.000042 8.000003
v -3.000000 19.999992 8.000003
v -4.000000 19.999989 8.000003
v -3.000000 15.000042 8.000003
v -3.000000 12.221825 0.221829
v -3.000000 9.721848 2.721805
v -4.000000 9.721848 2.721805
v -4.000000 12.221825 0.221829
vt 0.801410 0.479836
vt 0.900705 0.934377
vt 0.801410 0.934377
vt 0.900705 0.479836
vt 0.351057 0.321409
vt 0.000000 1.000000
vt 0.000000 0.000000
vt 0.351057 1.000000
vt 0.801410 0.000000
vt 0.801410 1.000000
vt 0.702115 0.000000
vt 0.801410 0.000000
vt 0.900705 0.000000
vt 0.900705 0.321409
vt 1.000000 0.321409
vt 0.702115 1.000000
vt 1.000000 0.000000
vt 0.351058 1.000000
vt 0.351057 0.000000
vt 0.702115 0.000000
vt 0.702115 0.678591
vn 0.0000 0.0000 1.0000
vn 1.0000 0.0000 0.0000
vn -0.0000 0.7071 -0.7071
vn 0.0000 -0.7071 0.7071
vn 0.0000 -0.7071 -0.7071
vn -1.0000 0.0000 0.0000
usemtl 0.029
s off
f 49/124/37 50/125/37 51/126/37
f 49/124/37 52/127/37 50/125/37
s 1
f 52/128/38 53/129/38 50/130/38
f 52/128/38 54/131/38 53/129/38
f 50/132/39 53/133/39 51/134/39
f 52/127/40 55/135/40 54/136/40
f 53/137/41 54/136/41 56/138/41
f 51/134/39 53/133/39 56/139/39
f 49/124/40 55/135/40 52/127/40
f 54/136/41 55/140/41 56/138/41
f 51/141/42 56/142/42 55/143/42
f 51/141/42 55/143/42 49/144/42
o 8
v -3.000000 -7.999997 -8.000001
v -3.000000 -6.000016 -8.000001
v 3.000000 -6.000015 -8.000001
v 3.000000 -7.999997 -8.000001
v 3.000000 4.313697 2.313720
v 3.000000 3.313708 3.313709
v -3.000000 4.313697 2.313720
v -3.000000 3.313708 3.313709
vt 0.000000 0.911613
vt 0.369399 0.911612
vt 0.000000 1.000000
vt 0.369399 1.000000
vt 0.912933 1.000000
vt 0.825865 1.000000
vt 0.912933 0.088388
vt 0.000000 0.000000
vt 0.369399 0.000000
vt 0.912933 0.375000
vt 0.912933 0.000000
vt 1.000000 0.000000
vt 0.825865 0.000000
vt 1.000000 0.375000
vt 0.738798 1.000000
vt 0.369399 0.000000
vt 0.738798 0.000000
vt 0.825865 0.000000
vt 0.825865 0.911612
vn 0.0000 0.0000 -1.0000
vn 1.0000 0.0000 0.0000
vn -0.0000 0.7071 -0.7071
vn 0.0000 0.7071 0.7071
vn 0.0000 -0.7071 0.7071
vn -1.0000 0.0000 0.0000
usemtl 0.029
s off
f 58/145/43 59/146/43 57/147/43
f 59/146/43 60/148/43 57/147/43
s 1
f 61/149/44 62/150/44 59/151/44
f 63/152/45 61/153/45 59/146/45
f 64/154/46 62/155/46 61/156/46
f 59/151/44 62/150/44 60/157/44
f 59/146/45 58/145/45 63/152/45
f 63/158/46 64/154/46 61/156/46
f 57/159/47 62/160/47 64/161/47
f 60/148/47 62/160/47 57/159/47
f 57/159/48 63/162/48 58/163/48
f 57/159/48 64/161/48 63/162/48
o 9
v 3.000000 3.999955 -8.000000
v 4.000000 -0.999997 -8.000000
v 3.000000 -0.999997 -8.000000
v 4.000000 3.999955 -8.000000
v 4.000000 12.813685 0.813737
v 4.000000 10.313707 3.313712
v 3.000000 12.813685 0.813737
v 3.000000 10.313707 3.313712
vt 0.900705 0.312497
vt 0.801410 0.000000
vt 0.900705 0.000000
vt 0.801410 0.312497
vt 0.000000 0.779031
vt 0.000000 0.000000
vt 0.351057 0.000000
vt 0.900705 0.863355
vt 0.801410 0.863355
vt 0.900705 0.000000
vt 1.000000 0.000000
vt 1.000000 0.220969
vt 0.351057 1.000000
vt 0.900705 0.220969
vt 0.801410 0.000000
vt 0.801410 1.000000
vt 0.702115 0.000000
vt 0.702115 1.000000
vt 0.351057 1.000000
vt 0.702115 0.000000
vt 0.702115 0.779031
vt 0.351058 0.000000
vn 0.0000 0.0000 -1.0000
vn 1.0000 -0.0000 0.0000
vn 0.0000 0.7071 -0.7071
vn 0.0000 0.7071 0.7071
vn 0.0000 -0.7071 0.7071
vn -1.0000 0.0000 0.0000
usemtl 0.030
s off
f 65/164/49 66/165/49 67/166/49
f 65/164/49 68/167/49 66/165/49
s 1
f 68/168/50 69/169/50 70/170/50
f 68/167/51 71/171/51 69/172/51
f 72/173/52 70/174/52 69/175/52
f 68/168/50 70/170/50 66/176/50
f 65/164/51 71/171/51 68/167/51
f 71/177/52 72/173/52 69/175/52
f 72/178/53 67/179/53 70/180/53
f 67/179/53 66/181/53 70/180/53
f 67/182/54 71/183/54 65/184/54
f 67/182/54 72/185/54 71/183/54
o 10
v 3.000000 17.004213 8.000003
v 3.000000 19.004194 8.000003
v -3.000000 19.004192 8.000003
v -3.000000 17.004213 8.000003
v 3.000000 12.640239 1.636043
v 3.000000 11.640249 2.636033
v -3.000000 11.640249 2.636033
v -3.000000 12.640239 1.636043
vt 0.404629 0.094280
vt 0.404629 0.000000
vt 0.809258 0.000000
vt 0.809258 0.094280
vt 0.904629 0.094280
vt 0.809258 0.600000
vt 0.809258 0.000000
vt 0.904628 0.600000
vt 0.404629 0.600000
vt 0.000000 0.000000
vt 0.809258 0.600000
vt 0.404629 0.600000
vt 0.000000 0.600000
vt 0.095371 0.600000
vt 0.000000 1.000000
vt 0.000000 0.600000
vt 0.095371 1.000000
vt 0.904629 0.600000
vt 0.904629 0.000000
vt 1.000000 0.000000
vt 1.000000 0.505720
vn 0.0000 0.0000 1.0000
vn 1.0000 0.0000 0.0000
vn -0.0000 0.7071 -0.7071
vn 0.0000 -0.7071 0.7071
vn 0.0000 -0.7071 -0.7071
vn -1.0000 -0.0000 0.0000
usemtl 0.029
s off
f 73/186/55 74/187/55 75/188/55
f 76/189/55 73/186/55 75/188/55
s 1
f 73/190/56 77/191/56 74/192/56
f 73/190/56 78/193/56 77/191/56
f 74/187/57 77/194/57 75/195/57
f 73/186/58 79/196/58 78/197/58
f 77/198/59 78/199/59 80/200/59
f 75/195/57 77/194/57 80/201/57
f 76/189/58 79/196/58 73/186/58
f 78/199/59 79/202/59 80/200/59
f 75/203/60 80/204/60 79/205/60
f 75/203/60 79/205/60 76/206/60
