mtllib trd_rail_p.mtl
o 0
v 3.0191894931485876 -7.999966781353578 2.9807767211459577
v 3.008717522607185 -7.98949482687749 -3.019205039832741
v 3.0331520991167054 -15.99994246265851 2.9667897461913526
v 3.0226801285753027 -15.989470508182421 -3.033192014787346
v -2.991264238371514 -7.9999850580934435 -3.0087513788603246
v -2.980792267830111 -8.010457012569532 2.991230382118374
v -2.977301632403396 -15.999960739398375 -3.0227383538149297
v -2.9668296618619934 -16.010432693874463 2.977243407163769
vt 0 1
vt 0 0.5
vt 0.375 1
vt 0 0.5
vt 0.375 0.5
vt 0.375 1
vt 0 1
vt 0 0.5
vt 0.375 1
vt 0 0.5
vt 0.375 0.5
vt 0.375 1
vt 0 1
vt 0 0.625
vt 0.375 1
vt 0 0.625
vt 0.375 0.625
vt 0.375 1
vt 0 1
vt 0 0.625
vt 0.375 1
vt 0 0.625
vt 0.375 0.625
vt 0.375 1
vt 0 1
vt 0 0.5
vt 0.375 1
vt 0 0.5
vt 0.375 0.5
vt 0.375 1
vt 0 1
vt 0 0.5
vt 0.375 1
vt 0 0.5
vt 0.375 0.5
vt 0.375 1
vn 0.9999969601631165 0.0017483718693256378 -0.0017422769451513886
vn 0.9999969601631165 0.0017483718693256378 -0.0017422769451513886
vn 0.9999969601631165 0.0017483718693256378 -0.0017422769451513886
vn 0.9999969601631165 0.0017483718693256378 -0.0017422769451513886
vn 0.9999969601631165 0.0017483718693256378 -0.0017422769451513886
vn 0.9999969601631165 0.0017483718693256378 -0.0017422769451513886
vn -0.9999969601631165 -0.0017483718693256378 0.0017422769451513886
vn -0.9999969601631165 -0.0017483718693256378 0.0017422769451513886
vn -0.9999969601631165 -0.0017483718693256378 0.0017422769451513886
vn -0.9999969601631165 -0.0017483718693256378 0.0017422769451513886
vn -0.9999969601631165 -0.0017483718693256378 0.0017422769451513886
vn -0.9999969601631165 -0.0017483718693256378 0.0017422769451513886
vn -0.0017453256295993924 0.9999969601631165 0.0017483718693256378
vn -0.0017453256295993924 0.9999969601631165 0.0017483718693256378
vn -0.0017453256295993924 0.9999969601631165 0.0017483718693256378
vn -0.0017453256295993924 0.9999969601631165 0.0017483718693256378
vn -0.0017453256295993924 0.9999969601631165 0.0017483718693256378
vn -0.0017453256295993924 0.9999969601631165 0.0017483718693256378
vn 0.0017453256295993924 -0.9999969601631165 -0.0017483718693256378
vn 0.0017453256295993924 -0.9999969601631165 -0.0017483718693256378
vn 0.0017453256295993924 -0.9999969601631165 -0.0017483718693256378
vn 0.0017453256295993924 -0.9999969601631165 -0.0017483718693256378
vn 0.0017453256295993924 -0.9999969601631165 -0.0017483718693256378
vn 0.0017453256295993924 -0.9999969601631165 -0.0017483718693256378
vn 0.0017453283071517944 -0.0017453256295993924 0.9999969601631165
vn 0.0017453283071517944 -0.0017453256295993924 0.9999969601631165
vn 0.0017453283071517944 -0.0017453256295993924 0.9999969601631165
vn 0.0017453283071517944 -0.0017453256295993924 0.9999969601631165
vn 0.0017453283071517944 -0.0017453256295993924 0.9999969601631165
vn 0.0017453283071517944 -0.0017453256295993924 0.9999969601631165
vn -0.0017453283071517944 0.0017453256295993924 -0.9999969601631165
vn -0.0017453283071517944 0.0017453256295993924 -0.9999969601631165
vn -0.0017453283071517944 0.0017453256295993924 -0.9999969601631165
vn -0.0017453283071517944 0.0017453256295993924 -0.9999969601631165
vn -0.0017453283071517944 0.0017453256295993924 -0.9999969601631165
vn -0.0017453283071517944 0.0017453256295993924 -0.9999969601631165
usemtl 1
f 1/1/1 3/2/2 2/3/3
f 3/4/4 4/5/5 2/6/6
usemtl 1
f 5/7/7 7/8/8 6/9/9
f 7/10/10 8/11/11 6/12/12
usemtl 1
f 5/13/13 6/14/14 2/15/15
f 6/16/16 1/17/17 2/18/18
usemtl 1
f 8/19/19 7/20/20 3/21/21
f 7/22/22 4/23/23 3/24/24
usemtl 1
f 6/25/25 8/26/26 1/27/27
f 8/28/28 3/29/29 1/30/30
usemtl 1
f 2/31/31 4/32/32 5/33/33
f 4/34/34 7/35/35 5/36/36
