# Blender v2.79 (sub 0) OBJ File: ''
# www.blender.org
mtllib trd_rail_le.mtl
o 1
v 2.500000 11.813703 2.813715
v 2.500000 11.313707 3.313711
v 2.500000 0.999996 -7.999994
v 2.500000 0.000001 -8.000000
v 1.500000 0.999996 -7.999994
v 1.500000 0.000001 -8.000000
v 1.500000 11.813703 2.813715
v 1.500000 11.313707 3.313711
vt 0.656856 0.000000
vt 0.828428 0.000000
vt 0.656856 0.955806
vt 0.828428 1.000000
vt 0.485284 0.044194
vt 0.656856 0.000000
vt 0.485284 1.000000
vt 0.656856 1.000000
vt 0.242642 0.044194
vt 0.242642 1.000000
vt 0.000000 0.044194
vt 0.000000 1.000000
vt 0.485284 0.000000
vt 0.485284 1.000000
vt 0.242642 0.000000
vt 0.242642 1.000000
vt 0.828428 0.000000
vt 1.000000 0.000000
vt 0.828428 0.062500
vt 1.000000 0.062500
vt 0.000000 0.000000
vt 0.242642 0.000000
vn 1.0000 0.0000 0.0000
vn -1.0000 -0.0000 0.0000
vn 0.0000 0.7071 -0.7071
vn 0.0000 -0.7071 0.7071
vn 0.0000 0.7071 0.7071
vn 0.0000 0.0000 -1.0000
usemtl 0.016
s 1
f 1/1/1 2/2/1 3/3/1
f 2/2/1 4/4/1 3/3/1
f 5/5/2 6/6/2 7/7/2
f 6/6/2 8/8/2 7/7/2
f 5/9/3 7/10/3 3/11/3
f 7/10/3 1/12/3 3/11/3
f 8/13/4 6/14/4 2/15/4
f 6/14/4 4/16/4 2/15/4
f 7/17/5 8/18/5 1/19/5
f 8/18/5 2/20/5 1/19/5
f 3/11/6 4/21/6 5/9/6
f 4/21/6 6/22/6 5/9/6
o 2
v -1.500000 11.813703 2.813715
v -1.500000 11.313707 3.313711
v -1.500000 0.999996 -7.999994
v -1.500000 0.000001 -8.000000
v -2.500000 0.999996 -7.999994
v -2.500000 0.000001 -8.000000
v -2.500000 11.813703 2.813715
v -2.500000 11.313707 3.313711
vt 0.656855 1.000000
vt 0.485283 1.000000
vt 0.656856 0.044194
vt 0.485285 0.000000
vt 0.656857 0.044194
vt 0.828429 0.000000
vt 0.656856 1.000000
vt 0.828428 1.000000
vt 0.242642 0.955806
vt 0.242642 0.000000
vt 0.485283 0.955806
vt 0.485283 0.000000
vt 0.242641 0.000000
vt 0.242642 1.000000
vt 0.000000 0.000000
vt 0.000000 1.000000
vt 0.828429 0.000000
vt 1.000000 0.000000
vt 0.828429 0.062500
vt 1.000000 0.062500
vt 0.485283 1.000000
vn 1.0000 -0.0000 0.0000
vn -1.0000 0.0000 0.0000
vn 0.0000 0.7071 -0.7071
vn 0.0000 -0.7071 0.7071
vn 0.0000 0.7071 0.7071
vn 0.0000 0.0000 -1.0000
usemtl 0.016
s 1
f 9/23/7 10/24/7 11/25/7
f 10/24/7 12/26/7 11/25/7
f 13/27/8 14/28/8 15/29/8
f 14/28/8 16/30/8 15/29/8
f 13/31/9 15/32/9 11/33/9
f 15/32/9 9/34/9 11/33/9
f 16/35/10 14/36/10 10/37/10
f 14/36/10 12/38/10 10/37/10
f 15/39/11 16/40/11 9/41/11
f 16/40/11 10/42/11 9/41/11
f 11/33/12 12/43/12 13/31/12
f 12/43/12 14/36/12 13/31/12
o 3
v -1.500000 16.999998 8.000003
v -1.500000 16.000002 7.999998
v -1.500000 11.343145 2.343148
v -1.500000 10.843150 2.843143
v -2.500000 11.343145 2.343148
v -2.500000 10.843150 2.843143
v -2.500000 16.999998 8.000003
v -2.500000 16.000002 7.999998
vt 0.656855 1.000000
vt 0.485283 0.911611
vt 0.656856 0.000000
vt 0.485284 0.000000
vt 0.656856 0.000000
vt 0.828428 0.000000
vt 0.656856 1.000000
vt 0.828428 0.911611
vt 0.242642 1.000000
vt 0.242642 0.000000
vt 0.485283 1.000000
vt 0.485283 0.000000
vt 0.242642 0.088388
vt 0.242642 1.000000
vt 0.000000 0.088388
vt 0.000000 1.000000
vt 0.000000 0.000000
vt 0.828428 0.000000
vt 1.000000 0.000000
vt 0.828428 0.125000
vt 1.000000 0.125000
vn 1.0000 0.0000 0.0000
vn -1.0000 0.0000 0.0000
vn 0.0000 0.7071 -0.7071
vn 0.0000 -0.7071 0.7071
vn 0.0000 -0.0000 1.0000
vn 0.0000 -0.7071 -0.7071
usemtl 0.016
s 1
f 17/44/13 18/45/13 19/46/13
f 18/45/13 20/47/13 19/46/13
f 21/48/14 22/49/14 23/50/14
f 22/49/14 24/51/14 23/50/14
f 21/52/15 23/53/15 19/54/15
f 23/53/15 17/55/15 19/54/15
f 24/56/16 22/57/16 18/58/16
f 22/57/16 20/59/16 18/58/16
f 23/53/17 24/56/17 17/60/17
f 24/56/17 18/58/17 17/60/17
f 19/61/18 20/62/18 21/63/18
f 20/62/18 22/64/18 21/63/18
o 4
v 2.500000 16.999998 8.000003
v 2.500000 16.000002 7.999998
v 2.500000 11.343145 2.343148
v 2.500000 10.843150 2.843143
v 1.500000 11.343145 2.343148
v 1.500000 10.843150 2.843143
v 1.500000 16.999998 8.000003
v 1.500000 16.000002 7.999998
vt 0.656855 1.000000
vt 0.485283 0.911611
vt 0.656856 0.000000
vt 0.485284 0.000000
vt 0.656856 0.000000
vt 0.828428 0.000000
vt 0.656856 1.000000
vt 0.828428 0.911611
vt 0.242642 1.000000
vt 0.242642 0.000000
vt 0.485283 1.000000
vt 0.485283 0.000000
vt 0.242642 0.088388
vt 0.242642 1.000000
vt 0.000000 0.088388
vt 0.000000 1.000000
vt 0.000000 0.000000
vt 0.828428 0.000000
vt 1.000000 0.000000
vt 0.828428 0.125000
vt 1.000000 0.125000
vn 1.0000 0.0000 0.0000
vn -1.0000 0.0000 0.0000
vn 0.0000 0.7071 -0.7071
vn 0.0000 -0.7071 0.7071
vn 0.0000 -0.0000 1.0000
vn 0.0000 -0.7071 -0.7071
usemtl 0.016
s 1
f 25/65/19 26/66/19 27/67/19
f 26/66/19 28/68/19 27/67/19
f 29/69/20 30/70/20 31/71/20
f 30/70/20 32/72/20 31/71/20
f 29/73/21 31/74/21 27/75/21
f 31/74/21 25/76/21 27/75/21
f 32/77/22 30/78/22 26/79/22
f 30/78/22 28/80/22 26/79/22
f 31/74/23 32/77/23 25/81/23
f 32/77/23 26/79/23 25/81/23
f 27/82/24 28/83/24 29/84/24
f 28/83/24 30/85/24 29/84/24
