# Blender v2.79 (sub 0) OBJ File: ''
# www.blender.org
mtllib trd_rail_se.mtl
o 1
v -1.500000 0.999999 8.000000
v -1.500000 -0.000001 8.000000
v -1.500000 1.000001 -8.000000
v -1.500000 0.000001 -8.000000
v -2.500000 1.000001 -8.000000
v -2.500000 0.000001 -8.000000
v -2.500000 0.999999 8.000000
v -2.500000 -0.000001 8.000000
vt 0.800000 1.000000
vt 0.600000 1.000000
vt 0.800000 0.000000
vt 0.600000 0.000000
vt 0.200000 1.000000
vt 0.000001 1.000000
vt 0.200000 0.000000
vt 0.000000 0.000000
vt 0.400000 1.000000
vt 0.400001 0.000000
vt 0.600000 1.000000
vt 0.600000 0.000000
vt 0.400000 0.000000
vt 0.400000 1.000000
vt 0.200000 0.000000
vt 0.200001 1.000000
vt 0.800000 0.062500
vt 0.800000 0.000000
vt 1.000000 0.062500
vt 1.000000 0.000000
vt 0.800000 0.125000
vt 0.800000 0.062500
vt 1.000000 0.125000
vt 1.000000 0.062500
vn 1.0000 0.0000 0.0000
vn -1.0000 0.0000 0.0000
vn 0.0000 1.0000 0.0000
vn 0.0000 -1.0000 -0.0000
vn 0.0000 0.0000 1.0000
vn 0.0000 0.0000 -1.0000
usemtl 0.018
s 1
f 1/1/1 2/2/1 3/3/1
f 2/2/1 4/4/1 3/3/1
f 5/5/2 6/6/2 7/7/2
f 6/6/2 8/8/2 7/7/2
f 5/9/3 7/10/3 3/11/3
f 7/10/3 1/12/3 3/11/3
f 8/13/4 6/14/4 2/15/4
f 6/14/4 4/16/4 2/15/4
f 7/17/5 8/18/5 1/19/5
f 8/18/5 2/20/5 1/19/5
f 3/21/6 4/22/6 5/23/6
f 4/22/6 6/24/6 5/23/6
o 2
v 2.500000 0.999999 8.000000
v 2.500000 -0.000001 8.000000
v 2.500000 1.000001 -8.000000
v 2.500000 0.000001 -8.000000
v 1.500000 1.000001 -8.000000
v 1.500000 0.000001 -8.000000
v 1.500000 0.999999 8.000000
v 1.500000 -0.000001 8.000000
vt 0.800000 1.000000
vt 0.600000 1.000000
vt 0.800000 0.000000
vt 0.600000 0.000000
vt 0.200000 1.000000
vt 0.000001 1.000000
vt 0.200000 0.000000
vt 0.000000 0.000000
vt 0.400000 1.000000
vt 0.400001 0.000000
vt 0.600000 1.000000
vt 0.600000 0.000000
vt 0.400000 0.000000
vt 0.400000 1.000000
vt 0.200000 0.000000
vt 0.200001 1.000000
vt 1.000000 0.125000
vt 0.800000 0.125000
vt 1.000000 0.062500
vt 0.800000 0.062500
vt 1.000000 0.000000
vt 0.800000 0.062500
vt 1.000000 0.062500
vn 1.0000 0.0000 0.0000
vn -1.0000 0.0000 0.0000
vn 0.0000 1.0000 0.0000
vn 0.0000 -1.0000 -0.0000
vn 0.0000 0.0000 1.0000
vn 0.0000 0.0000 -1.0000
usemtl 0.018
s 1
f 9/25/7 10/26/7 11/27/7
f 10/26/7 12/28/7 11/27/7
f 13/29/8 14/30/8 15/31/8
f 14/30/8 16/32/8 15/31/8
f 13/33/9 15/34/9 11/35/9
f 15/34/9 9/36/9 11/35/9
f 16/37/10 14/38/10 10/39/10
f 14/38/10 12/40/10 10/39/10
f 15/41/11 16/42/11 9/43/11
f 16/42/11 10/44/11 9/43/11
f 11/27/12 12/45/12 13/46/12
f 12/45/12 14/47/12 13/46/12
