# Blender v2.79 (sub 0) OBJ File: ''
# www.blender.org
mtllib wire_mono_conv.mtl
o 2.000_2.003
v 0.500000 8.000000 8.000001
v 0.500000 -0.000000 8.000000
v 0.500000 8.000000 7.000001
v 0.500000 0.000000 7.000000
v -0.500000 8.000000 7.000001
v -0.500000 0.000000 7.000000
v -0.500000 8.000000 8.000001
v -0.500000 -0.000000 8.000000
vt 0.000000 1.000000
vt 0.000000 0.625000
vt 0.062500 1.000000
vt 0.062500 0.625000
vt 0.000000 1.000000
vt 0.000000 0.625000
vt 0.062500 1.000000
vt 0.062500 0.625000
vt 0.000000 0.937500
vt 0.062500 0.937500
vt 0.000000 1.000000
vt 0.000000 0.937500
vt 0.062500 1.000000
vt 0.062500 0.937500
vt 0.000000 1.000000
vt 0.000000 0.625000
vt 0.062500 1.000000
vt 0.062500 0.625000
vt 0.000000 1.000000
vt 0.000000 0.625000
vt 0.062500 1.000000
vt 0.062500 0.625000
vn 1.0000 0.0000 0.0000
vn -1.0000 0.0000 0.0000
vn 0.0000 1.0000 0.0000
vn 0.0000 -1.0000 -0.0000
vn 0.0000 -0.0000 1.0000
vn 0.0000 0.0000 -1.0000
usemtl 0
s 1
f 1/1/1 2/2/1 3/3/1
f 2/2/1 4/4/1 3/3/1
f 5/5/2 6/6/2 7/7/2
f 6/6/2 8/8/2 7/7/2
f 5/5/3 7/9/3 3/3/3
f 7/9/3 1/10/3 3/3/3
f 8/11/4 6/12/4 2/13/4
f 6/12/4 4/14/4 2/13/4
f 7/15/5 8/16/5 1/17/5
f 8/16/5 2/18/5 1/17/5
f 3/19/6 4/20/6 5/21/6
f 4/20/6 6/22/6 5/21/6
o 0.009
v 4.000000 -12.000001 -6.999999
v 4.000000 -13.000001 -7.000001
v 4.000000 -11.999998 -7.999999
v 4.000000 -12.999998 -8.000001
v -4.000000 -11.999998 -7.999999
v -4.000000 -12.999998 -8.000001
v -4.000000 -12.000001 -6.999999
v -4.000000 -13.000001 -7.000001
vt 0.000000 1.000000
vt 0.000000 0.625000
vt 0.500000 1.000000
vt 0.500000 0.625000
vt 0.000000 1.000000
vt 0.000000 0.625000
vt 0.500000 1.000000
vt 0.500000 0.625000
vt 0.000000 0.500000
vt 0.250000 1.000000
vt 0.250000 0.500000
vt 0.000000 1.000000
vt 0.000000 0.500000
vt 0.250000 1.000000
vt 0.250000 0.500000
vt 0.000000 1.000000
vt 0.000000 0.625000
vt 0.250000 1.000000
vt 0.250000 0.625000
vt 0.000000 1.000000
vt 0.000000 0.625000
vt 0.250000 1.000000
vt 0.250000 0.625000
vn 1.0000 0.0000 0.0000
vn -1.0000 0.0000 0.0000
vn 0.0000 1.0000 0.0000
vn 0.0000 -1.0000 -0.0000
vn 0.0000 -0.0000 1.0000
vn 0.0000 0.0000 -1.0000
usemtl 0.003
s 1
f 9/23/7 10/24/7 11/25/7
f 10/24/7 12/26/7 11/25/7
f 13/27/8 14/28/8 15/29/8
f 14/28/8 16/30/8 15/29/8
f 13/27/9 15/31/9 11/32/9
f 15/31/9 9/33/9 11/32/9
f 16/34/10 14/35/10 10/36/10
f 14/35/10 12/37/10 10/36/10
f 15/38/11 16/39/11 9/40/11
f 16/39/11 10/41/11 9/40/11
f 11/42/12 12/43/12 13/44/12
f 12/43/12 14/45/12 13/44/12
o 2.001
v 0.500000 7.000000 7.000001
v 0.500000 -0.000000 7.000000
v 0.500000 7.000000 6.500001
v 0.500000 0.000000 6.500000
v -0.500000 7.000000 6.500001
v -0.500000 0.000000 6.500000
v -0.500000 7.000000 7.000001
v -0.500000 -0.000000 7.000000
vt 0.000000 1.000000
vt 0.000000 0.625000
vt 0.062500 1.000000
vt 0.062500 0.625000
vt 0.000000 1.000000
vt 0.000000 0.625000
vt 0.062500 1.000000
vt 0.062500 0.625000
vt 0.000000 0.937500
vt 0.062500 0.937500
vt 0.000000 1.000000
vt 0.000000 0.937500
vt 0.062500 1.000000
vt 0.062500 0.937500
vt 0.000000 1.000000
vt 0.000000 0.625000
vt 0.062500 1.000000
vt 0.062500 0.625000
vt 0.000000 1.000000
vt 0.000000 0.625000
vt 0.062500 1.000000
vt 0.062500 0.625000
vn 1.0000 0.0000 0.0000
vn -1.0000 0.0000 0.0000
vn 0.0000 1.0000 0.0000
vn 0.0000 -1.0000 -0.0000
vn 0.0000 -0.0000 1.0000
vn 0.0000 0.0000 -1.0000
usemtl 0
s 1
f 17/46/13 18/47/13 19/48/13
f 18/47/13 20/49/13 19/48/13
f 21/50/14 22/51/14 23/52/14
f 22/51/14 24/53/14 23/52/14
f 21/50/15 23/54/15 19/48/15
f 23/54/15 17/55/15 19/48/15
f 24/56/16 22/57/16 18/58/16
f 22/57/16 20/59/16 18/58/16
f 23/60/17 24/61/17 17/62/17
f 24/61/17 18/63/17 17/62/17
f 19/64/18 20/65/18 21/66/18
f 20/65/18 22/67/18 21/66/18
o 0.004
v -0.500000 0.999999 7.000000
v -0.500000 -0.000001 7.000000
v 3.000000 -11.999999 -7.000000
v 3.000000 -12.999999 -7.000000
v 4.000000 -11.999999 -7.000000
v 4.000000 -12.999999 -7.000000
v 0.500000 0.999999 7.000000
v 0.500000 -0.000001 7.000000
vt 0.000000 1.000000
vt 1.000000 1.000000
vt 0.000000 0.937500
vt 1.000000 0.937500
vt 0.000000 1.000000
vt 1.000000 1.000000
vt 0.000000 0.937500
vt 1.000000 0.937500
vt 0.062500 1.000000
vt 0.000000 0.000000
vt 0.062500 0.000000
vt 0.000000 1.000000
vt 0.062500 1.000000
vt 0.000000 0.000000
vt 0.062500 0.000000
vt 0.000000 1.000000
vt 0.062500 1.000000
vt 0.000000 0.937500
vt 0.062500 0.937500
vt 0.000000 1.000000
vt 0.062500 1.000000
vt 0.000000 0.937500
vt 0.062500 0.937500
vn -0.9701 0.0000 -0.2425
vn 0.9701 0.0000 0.2425
vn 0.0000 0.7328 -0.6805
vn 0.0000 -0.7328 0.6805
vn 0.0000 0.0000 1.0000
vn 0.0000 0.0000 -1.0000
usemtl 0
s 1
f 25/68/19 27/69/19 26/70/19
f 26/70/19 27/69/19 28/71/19
f 29/72/20 31/73/20 30/74/20
f 30/74/20 31/73/20 32/75/20
f 29/72/21 27/76/21 31/77/21
f 31/77/21 27/76/21 25/78/21
f 32/79/22 26/80/22 30/81/22
f 30/81/22 26/80/22 28/82/22
f 31/83/23 25/84/23 32/85/23
f 32/85/23 25/84/23 26/86/23
f 27/87/24 29/88/24 28/89/24
f 28/89/24 29/88/24 30/90/24
o 0.003
v 0.500000 0.999999 7.000000
v 0.500000 -0.000001 7.000000
v -3.000000 -11.999999 -7.000000
v -3.000000 -12.999999 -7.000000
v -4.000000 -11.999999 -7.000000
v -4.000000 -12.999999 -7.000000
v -0.500000 0.999999 7.000000
v -0.500000 -0.000001 7.000000
vt 0.000000 1.000000
vt 0.000000 0.937500
vt 1.000000 1.000000
vt 1.000000 0.937500
vt 0.000000 1.000000
vt 0.000000 0.937500
vt 1.000000 1.000000
vt 1.000000 0.937500
vt 0.000000 0.000000
vt 0.062500 1.000000
vt 0.062500 0.000000
vt 0.000000 1.000000
vt 0.000000 0.000000
vt 0.062500 1.000000
vt 0.062500 0.000000
vt 0.000000 1.000000
vt 0.000000 0.937500
vt 0.062500 1.000000
vt 0.062500 0.937500
vt 0.000000 1.000000
vt 0.000000 0.937500
vt 0.062500 1.000000
vt 0.062500 0.937500
vn 0.9701 0.0000 -0.2425
vn -0.9701 0.0000 0.2425
vn 0.0000 0.7328 -0.6805
vn 0.0000 -0.7328 0.6805
vn 0.0000 0.0000 1.0000
vn 0.0000 0.0000 -1.0000
usemtl 0
s 1
f 33/91/25 34/92/25 35/93/25
f 34/92/25 36/94/25 35/93/25
f 37/95/26 38/96/26 39/97/26
f 38/96/26 40/98/26 39/97/26
f 37/95/27 39/99/27 35/100/27
f 39/99/27 33/101/27 35/100/27
f 40/102/28 38/103/28 34/104/28
f 38/103/28 36/105/28 34/104/28
f 39/106/29 40/107/29 33/108/29
f 40/107/29 34/109/29 33/108/29
f 35/110/30 36/111/30 37/112/30
f 36/111/30 38/113/30 37/112/30
o 1.001
v 0.500000 7.999999 7.000001
v 0.500000 6.999999 7.000001
v 0.500000 -11.999999 -6.999999
v 0.500000 -12.999999 -6.999999
v -0.500000 -11.999999 -6.999999
v -0.500000 -12.999999 -6.999999
v -0.500000 7.999999 7.000001
v -0.500000 6.999999 7.000001
vt 0.000000 1.000000
vt 0.000000 0.937500
vt 1.000000 1.000000
vt 1.000000 0.937500
vt 0.000000 1.000000
vt 0.000000 0.937500
vt 1.000000 1.000000
vt 1.000000 0.937500
vt 0.000000 0.000000
vt 0.062500 1.000000
vt 0.062500 0.000000
vt 0.000000 1.000000
vt 0.000000 0.000000
vt 0.062500 1.000000
vt 0.062500 0.000000
vt 0.000000 1.000000
vt 0.000000 0.937500
vt 0.062500 1.000000
vt 0.062500 0.937500
vt 0.000000 1.000000
vt 0.000000 0.937500
vt 0.062500 1.000000
vt 0.062500 0.937500
vn 1.0000 0.0000 0.0000
vn -1.0000 0.0000 0.0000
vn 0.0000 0.5735 -0.8192
vn 0.0000 -0.5735 0.8192
vn 0.0000 -0.0000 1.0000
vn 0.0000 0.0000 -1.0000
usemtl 0
s 1
f 41/114/31 42/115/31 43/116/31
f 42/115/31 44/117/31 43/116/31
f 45/118/32 46/119/32 47/120/32
f 46/119/32 48/121/32 47/120/32
f 45/118/33 47/122/33 43/123/33
f 47/122/33 41/124/33 43/123/33
f 48/125/34 46/126/34 42/127/34
f 46/126/34 44/128/34 42/127/34
f 47/129/35 48/130/35 41/131/35
f 48/130/35 42/132/35 41/131/35
f 43/133/36 44/134/36 45/135/36
f 44/134/36 46/136/36 45/135/36
