# Blender v2.79 (sub 0) OBJ File: ''
# www.blender.org
mtllib glass_shield_al.mtl
o 0
v 8.000000 -7.500000 0.999999
v 8.000000 -8.000000 0.999999
v 8.000000 -7.500000 -1.000001
v 8.000000 -8.000000 -1.000001
v -8.000000 -7.500000 -1.000001
v -8.000000 -8.000000 -1.000001
v -8.000000 -7.500000 0.999999
v -8.000000 -8.000000 0.999999
vt 0.500000 0.500000
vt 0.500000 0.468750
vt 0.562500 0.500000
vt 0.562500 0.468750
vt 0.500000 0.500000
vt 0.500000 0.468750
vt 0.562500 0.500000
vt 0.562500 0.468750
vt 0.500000 0.437500
vt 1.000000 0.500000
vt 1.000000 0.437500
vt 0.500000 0.500000
vt 0.500000 0.437500
vt 1.000000 0.500000
vt 1.000000 0.437500
vt 0.500000 0.500000
vt 0.500000 0.468750
vt 1.000000 0.500000
vt 1.000000 0.468750
vt 0.500000 0.500000
vt 0.500000 0.468750
vt 1.000000 0.500000
vt 1.000000 0.468750
vn 1.0000 0.0000 0.0000
vn -1.0000 0.0000 0.0000
vn 0.0000 1.0000 0.0000
vn 0.0000 -1.0000 0.0000
vn 0.0000 -0.0000 1.0000
vn 0.0000 0.0000 -1.0000
usemtl 0
s 1
f 1/1/1 2/2/1 3/3/1
f 2/2/1 4/4/1 3/3/1
f 5/5/2 6/6/2 7/7/2
f 6/6/2 8/8/2 7/7/2
f 5/5/3 7/9/3 3/10/3
f 7/9/3 1/11/3 3/10/3
f 8/12/4 6/13/4 2/14/4
f 6/13/4 4/15/4 2/14/4
f 7/16/5 8/17/5 1/18/5
f 8/17/5 2/19/5 1/18/5
f 3/20/6 4/21/6 5/22/6
f 4/21/6 6/23/6 5/22/6
o 3
v 8.000000 7.500000 1.000001
v 8.000000 -7.500000 0.999999
v 8.000000 7.500000 -0.999999
v 8.000000 -7.500000 -1.000001
v 7.500000 7.500000 -0.999999
v 7.500000 -7.500000 -1.000001
v 7.500000 7.500000 1.000001
v 7.500000 -7.500000 0.999999
vt 0.000000 1.000000
vt 0.000000 1.000000
vt 0.000000 1.000000
vt 0.000000 1.000000
vt 0.000000 1.000000
vt 0.000000 1.000000
vt 0.000000 1.000000
vt 0.000000 1.000000
vt 0.500000 0.500000
vt 0.500000 0.062500
vt 0.562500 0.500000
vt 0.562500 0.062500
vt 0.500000 0.500000
vt 0.500000 0.062500
vt 0.562500 0.500000
vt 0.562500 0.062500
vt 0.500000 0.500000
vt 0.500000 0.062500
vt 0.531250 0.500000
vt 0.531250 0.062500
vt 0.500000 0.500000
vt 0.500000 0.062500
vt 0.531250 0.500000
vt 0.531250 0.062500
vn 0.0000 1.0000 0.0000
vn 0.0000 -1.0000 0.0000
vn 1.0000 0.0000 0.0000
vn -1.0000 -0.0000 0.0000
vn 0.0000 -0.0000 1.0000
vn 0.0000 0.0000 -1.0000
usemtl $transparent
s 1
f 13/24/7 15/25/7 11/26/7
f 15/25/7 9/27/7 11/26/7
f 16/28/8 14/29/8 10/30/8
f 14/29/8 12/31/8 10/30/8
usemtl 0
f 9/32/9 10/33/9 11/34/9
f 10/33/9 12/35/9 11/34/9
f 13/36/10 14/37/10 15/38/10
f 14/37/10 16/39/10 15/38/10
f 15/40/11 16/41/11 9/42/11
f 16/41/11 10/43/11 9/42/11
f 11/44/12 12/45/12 13/46/12
f 12/45/12 14/47/12 13/46/12
o 1
v 8.000000 8.000000 1.000001
v 8.000000 7.500000 1.000001
v 8.000000 8.000000 -0.999999
v 8.000000 7.500000 -0.999999
v -8.000000 8.000000 -0.999999
v -8.000000 7.500000 -0.999999
v -8.000000 8.000000 1.000001
v -8.000000 7.500000 1.000001
vt 0.500000 0.500000
vt 0.500000 0.468750
vt 0.562500 0.500000
vt 0.562500 0.468750
vt 0.500000 0.500000
vt 0.500000 0.468750
vt 0.562500 0.500000
vt 0.562500 0.468750
vt 0.500000 0.437500
vt 1.000000 0.500000
vt 1.000000 0.437500
vt 0.500000 0.500000
vt 0.500000 0.437500
vt 1.000000 0.500000
vt 1.000000 0.437500
vt 0.500000 0.500000
vt 0.500000 0.468750
vt 1.000000 0.500000
vt 1.000000 0.468750
vt 0.500000 0.500000
vt 0.500000 0.468750
vt 1.000000 0.500000
vt 1.000000 0.468750
vn 1.0000 0.0000 0.0000
vn -1.0000 0.0000 0.0000
vn 0.0000 1.0000 0.0000
vn 0.0000 -1.0000 0.0000
vn 0.0000 -0.0000 1.0000
vn 0.0000 0.0000 -1.0000
usemtl 0
s 1
f 17/48/13 18/49/13 19/50/13
f 18/49/13 20/51/13 19/50/13
f 21/52/14 22/53/14 23/54/14
f 22/53/14 24/55/14 23/54/14
f 21/52/15 23/56/15 19/57/15
f 23/56/15 17/58/15 19/57/15
f 24/59/16 22/60/16 18/61/16
f 22/60/16 20/62/16 18/61/16
f 23/63/17 24/64/17 17/65/17
f 24/64/17 18/66/17 17/65/17
f 19/67/18 20/68/18 21/69/18
f 20/68/18 22/70/18 21/69/18
o 4
v 7.450000 7.450000 1.000001
v 7.450000 -7.450000 0.999999
v 7.450000 7.450000 -0.999999
v 7.450000 -7.450000 -1.000001
v -7.450000 7.450000 -0.999999
v -7.450000 -7.450000 -1.000001
v -7.450000 7.450000 1.000001
v -7.450000 -7.450000 0.999999
vt 0.000000 1.000000
vt 0.000000 1.000000
vt 0.000000 1.000000
vt 0.000000 1.000000
vt 0.000000 1.000000
vt 0.000000 1.000000
vt 0.000000 1.000000
vt 0.000000 1.000000
vt 0.000000 0.500000
vt 0.500000 1.000000
vt 0.500000 0.500000
vt 0.000000 0.500000
vt 0.500000 1.000000
vt 0.500000 0.500000
vn 1.0000 0.0000 0.0000
vn -1.0000 0.0000 0.0000
vn 0.0000 1.0000 0.0000
vn 0.0000 -1.0000 0.0000
vn 0.0000 -0.0000 1.0000
vn 0.0000 0.0000 -1.0000
usemtl $transparent
s 1
f 25/71/19 26/72/19 27/73/19
f 26/72/19 28/74/19 27/73/19
f 29/75/20 30/76/20 31/77/20
f 30/76/20 32/78/20 31/77/20
f 29/75/21 31/77/21 27/73/21
f 31/77/21 25/71/21 27/73/21
f 32/78/22 30/76/22 26/72/22
f 30/76/22 28/74/22 26/72/22
usemtl 0
f 31/77/23 32/79/23 25/80/23
f 32/79/23 26/81/23 25/80/23
f 27/73/24 28/82/24 29/83/24
f 28/82/24 30/84/24 29/83/24
o 2
v -7.500000 7.500000 1.000001
v -7.500000 -7.500000 0.999999
v -7.500000 7.500000 -0.999999
v -7.500000 -7.500000 -1.000001
v -8.000000 7.500000 -0.999999
v -8.000000 -7.500000 -1.000001
v -8.000000 7.500000 1.000001
v -8.000000 -7.500000 0.999999
vt 0.000000 1.000000
vt 0.000000 1.000000
vt 0.000000 1.000000
vt 0.000000 1.000000
vt 0.000000 1.000000
vt 0.000000 1.000000
vt 0.000000 1.000000
vt 0.000000 1.000000
vt 0.500000 0.500000
vt 0.500000 0.062500
vt 0.562500 0.500000
vt 0.562500 0.062500
vt 0.500000 0.500000
vt 0.500000 0.062500
vt 0.562500 0.500000
vt 0.562500 0.062500
vt 0.500000 0.500000
vt 0.500000 0.062500
vt 0.531250 0.500000
vt 0.531250 0.062500
vt 0.500000 0.500000
vt 0.500000 0.062500
vt 0.531250 0.500000
vt 0.531250 0.062500
vn 0.0000 1.0000 0.0000
vn 0.0000 -1.0000 0.0000
vn 1.0000 0.0000 0.0000
vn -1.0000 0.0000 0.0000
vn 0.0000 -0.0000 1.0000
vn 0.0000 0.0000 -1.0000
usemtl $transparent
s 1
f 37/85/25 39/86/25 35/87/25
f 39/86/25 33/88/25 35/87/25
f 40/89/26 38/90/26 34/91/26
f 38/90/26 36/92/26 34/91/26
usemtl 0
f 33/93/27 34/94/27 35/95/27
f 34/94/27 36/96/27 35/95/27
f 37/97/28 38/98/28 39/99/28
f 38/98/28 40/100/28 39/99/28
f 39/101/29 40/102/29 33/103/29
f 40/102/29 34/104/29 33/103/29
f 35/105/30 36/106/30 37/107/30
f 36/106/30 38/108/30 37/107/30
