mtllib signal_box_sign1.mtl
o 0
v -1.9956305907689966 0.49126580951269716 3.004349328810349
v -1.9973759191925637 0.4930111352587119 2.0043523686472327
v -1.993885265022982 -0.5087311506504193 3.0026009569410235
v -1.995630593446549 -0.5069858249044046 2.002603996777907
v -2.99737287935568 0.49126276338938624 2.0060946454759687
v -2.995627550932113 0.4895174376433715 3.006091605639085
v -2.9956275536096655 -0.5087341967737302 2.004346273606643
v -2.9938822251860984 -0.5104795225197449 3.0043432337697595
vt 0 1
vt 0 0
vt 1 1
vt 0 0
vt 1 0
vt 1 1
vt 0 1
vt 0 0
vt 1 1
vt 0 0
vt 1 0
vt 1 1
vt 0 1
vt 0 0
vt 1 1
vt 0 0
vt 1 0
vt 1 1
vt 0 1
vt 0 0
vt 1 1
vt 0 0
vt 1 0
vt 1 1
vt 0 1
vt 0 0
vt 1 1
vt 0 0
vt 1 0
vt 1 1
vt 0 1
vt 0 0
vt 1 1
vt 0 0
vt 1 0
vt 1 1
vn 0.9999969601631165 0.0017483718693256378 -0.0017422769451513886
vn 0.9999969601631165 0.0017483718693256378 -0.0017422769451513886
vn 0.9999969601631165 0.0017483718693256378 -0.0017422769451513886
vn 0.9999969601631165 0.0017483718693256378 -0.0017422769451513886
vn 0.9999969601631165 0.0017483718693256378 -0.0017422769451513886
vn 0.9999969601631165 0.0017483718693256378 -0.0017422769451513886
vn -0.9999969601631165 -0.0017483718693256378 0.0017422769451513886
vn -0.9999969601631165 -0.0017483718693256378 0.0017422769451513886
vn -0.9999969601631165 -0.0017483718693256378 0.0017422769451513886
vn -0.9999969601631165 -0.0017483718693256378 0.0017422769451513886
vn -0.9999969601631165 -0.0017483718693256378 0.0017422769451513886
vn -0.9999969601631165 -0.0017483718693256378 0.0017422769451513886
vn -0.0017453256295993924 0.9999969601631165 0.0017483718693256378
vn -0.0017453256295993924 0.9999969601631165 0.0017483718693256378
vn -0.0017453256295993924 0.9999969601631165 0.0017483718693256378
vn -0.0017453256295993924 0.9999969601631165 0.0017483718693256378
vn -0.0017453256295993924 0.9999969601631165 0.0017483718693256378
vn -0.0017453256295993924 0.9999969601631165 0.0017483718693256378
vn 0.0017453256295993924 -0.9999969601631165 -0.0017483718693256378
vn 0.0017453256295993924 -0.9999969601631165 -0.0017483718693256378
vn 0.0017453256295993924 -0.9999969601631165 -0.0017483718693256378
vn 0.0017453256295993924 -0.9999969601631165 -0.0017483718693256378
vn 0.0017453256295993924 -0.9999969601631165 -0.0017483718693256378
vn 0.0017453256295993924 -0.9999969601631165 -0.0017483718693256378
vn 0.0017453283071517944 -0.0017453256295993924 0.9999969601631165
vn 0.0017453283071517944 -0.0017453256295993924 0.9999969601631165
vn 0.0017453283071517944 -0.0017453256295993924 0.9999969601631165
vn 0.0017453283071517944 -0.0017453256295993924 0.9999969601631165
vn 0.0017453283071517944 -0.0017453256295993924 0.9999969601631165
vn 0.0017453283071517944 -0.0017453256295993924 0.9999969601631165
vn -0.0017453283071517944 0.0017453256295993924 -0.9999969601631165
vn -0.0017453283071517944 0.0017453256295993924 -0.9999969601631165
vn -0.0017453283071517944 0.0017453256295993924 -0.9999969601631165
vn -0.0017453283071517944 0.0017453256295993924 -0.9999969601631165
vn -0.0017453283071517944 0.0017453256295993924 -0.9999969601631165
vn -0.0017453283071517944 0.0017453256295993924 -0.9999969601631165
usemtl 2
f 1/1/1 3/2/2 2/3/3
f 3/4/4 4/5/5 2/6/6
usemtl 2
f 5/7/7 7/8/8 6/9/9
f 7/10/10 8/11/11 6/12/12
usemtl 2
f 5/13/13 6/14/14 2/15/15
f 6/16/16 1/17/17 2/18/18
usemtl 2
f 8/19/19 7/20/20 3/21/21
f 7/22/22 4/23/23 3/24/24
usemtl 2
f 6/25/25 8/26/26 1/27/27
f 8/28/28 3/29/29 1/30/30
usemtl 2
f 2/31/31 4/32/32 5/33/33
f 4/34/34 7/35/35 5/36/36
