# Blender v2.79 (sub 0) OBJ File: ''
# www.blender.org
mtllib signal_pillar_one.mtl
o 10.001
v 1.506104 -0.003487 6.997376
v 1.506977 -0.503485 6.996502
v 1.502614 0.000004 4.997382
v 1.503486 -0.499994 4.996508
v 1.002615 -0.000870 4.998253
v 1.003488 -0.500868 4.997379
v 1.006106 -0.004361 6.998247
v 1.006978 -0.504359 6.997373
vt 0.000000 1.000000
vt 0.000000 0.937500
vt 0.250000 1.000000
vt 0.250000 0.937500
vt 0.000000 1.000000
vt 0.000000 0.937500
vt 0.250000 1.000000
vt 0.250000 0.937500
vt 0.000000 0.750000
vt 0.062500 1.000000
vt 0.062500 0.750000
vt 0.000000 1.000000
vt 0.000000 0.750000
vt 0.062500 1.000000
vt 0.062500 0.750000
vt 0.000000 1.000000
vt 0.000000 0.937500
vt 0.062500 1.000000
vt 0.062500 0.937500
vt 0.000000 1.000000
vt 0.000000 0.937500
vt 0.062500 1.000000
vt 0.062500 0.937500
vn 1.0000 0.0017 -0.0017
vn -1.0000 -0.0017 0.0017
vn -0.0017 1.0000 0.0017
vn 0.0017 -1.0000 -0.0017
vn 0.0017 -0.0017 1.0000
vn -0.0017 0.0017 -1.0000
usemtl 1
s 1
f 1/1/1 2/2/1 3/3/1
f 2/2/1 4/4/1 3/3/1
f 5/5/2 6/6/2 7/7/2
f 6/6/2 8/8/2 7/7/2
f 5/5/3 7/9/3 3/10/3
f 7/9/3 1/11/3 3/10/3
f 8/12/4 6/13/4 2/14/4
f 6/13/4 4/15/4 2/14/4
f 7/16/5 8/17/5 1/18/5
f 8/17/5 2/19/5 1/18/5
f 3/20/6 4/21/6 5/22/6
f 4/21/6 6/23/6 5/22/6
o 4.001
v -0.492482 -1.013984 15.006577
v -0.491610 -1.513982 15.004829
v -2.029661 -1.010209 7.620898
v -2.028789 -1.510207 7.619149
v -2.491266 -1.011350 8.005190
v -2.490393 -1.511349 8.003442
v -0.954087 -1.015125 15.390870
v -0.953214 -1.515124 15.389121
vt 0.000000 1.000000
vt 0.000000 0.937500
vt 0.500000 1.000000
vt 0.500000 0.937500
vt 0.000000 1.000000
vt 0.000000 0.937500
vt 0.500000 1.000000
vt 0.500000 0.937500
vt 0.000000 0.500000
vt 0.062500 1.000000
vt 0.062500 0.500000
vt 0.000000 1.000000
vt 0.000000 0.500000
vt 0.062500 1.000000
vt 0.062500 0.500000
vt 0.000000 1.000000
vt 0.000000 0.937500
vt 0.062500 1.000000
vt 0.062500 0.937500
vt 0.000000 1.000000
vt 0.000000 0.937500
vt 0.062500 1.000000
vt 0.062500 0.937500
vn 0.9790 0.0024 -0.2038
vn -0.9790 -0.0024 0.2038
vn -0.0017 1.0000 0.0009
vn 0.0017 -1.0000 -0.0009
vn 0.6398 -0.0016 0.7685
vn -0.6398 0.0016 -0.7685
usemtl 1
s 1
f 9/24/7 10/25/7 11/26/7
f 10/25/7 12/27/7 11/26/7
f 13/28/8 14/29/8 15/30/8
f 14/29/8 16/31/8 15/30/8
f 13/28/9 15/32/9 11/33/9
f 15/32/9 9/34/9 11/33/9
f 16/35/10 14/36/10 10/37/10
f 14/36/10 12/38/10 10/37/10
f 15/39/11 16/40/11 9/41/11
f 16/40/11 10/42/11 9/41/11
f 11/43/12 12/44/12 13/45/12
f 12/44/12 14/46/12 13/45/12
o 2.001
v 0.980076 1.488257 15.392859
v 0.980949 0.988258 15.391110
v 2.504355 1.497384 7.996512
v 2.505228 0.997385 7.994763
v 2.042083 1.496910 7.615439
v 2.042956 0.996912 7.613691
v 0.517804 1.487783 15.011786
v 0.518677 0.987784 15.010038
vt 0.000000 1.000000
vt 0.000000 0.937500
vt 0.500000 1.000000
vt 0.500000 0.937500
vt 0.000000 1.000000
vt 0.000000 0.937500
vt 0.500000 1.000000
vt 0.500000 0.937500
vt 0.000000 0.500000
vt 0.062500 1.000000
vt 0.062500 0.500000
vt 0.000000 1.000000
vt 0.000000 0.500000
vt 0.062500 1.000000
vt 0.062500 0.500000
vt 0.000000 1.000000
vt 0.000000 0.937500
vt 0.062500 1.000000
vt 0.062500 0.937500
vt 0.000000 1.000000
vt 0.000000 0.937500
vt 0.062500 1.000000
vt 0.062500 0.937500
vn 0.9794 0.0010 0.2018
vn -0.9794 -0.0010 -0.2018
vn -0.0017 1.0000 0.0009
vn 0.0017 -1.0000 -0.0009
vn -0.6361 -0.0038 0.7716
vn 0.6361 0.0038 -0.7716
usemtl 1
s 1
f 17/47/13 18/48/13 19/49/13
f 18/48/13 20/50/13 19/49/13
f 21/51/14 22/52/14 23/53/14
f 22/52/14 24/54/14 23/53/14
f 21/51/15 23/55/15 19/56/15
f 23/55/15 17/57/15 19/56/15
f 24/58/16 22/59/16 18/60/16
f 22/59/16 20/61/16 18/60/16
f 23/62/17 24/63/17 17/64/17
f 24/63/17 18/65/17 17/64/17
f 19/66/18 20/67/18 21/68/18
f 20/67/18 22/69/18 21/68/18
o 13.001
v -0.993888 -0.007858 7.001732
v -0.993016 -0.507856 7.000857
v -0.997379 -0.004367 5.001738
v -0.996506 -0.504365 5.000863
v -1.497378 -0.005241 5.002609
v -1.496505 -0.505239 5.001735
v -1.493887 -0.008732 7.002603
v -1.493014 -0.508730 7.001729
vt 0.000000 1.000000
vt 0.000000 0.937500
vt 0.250000 1.000000
vt 0.250000 0.937500
vt 0.000000 1.000000
vt 0.000000 0.937500
vt 0.250000 1.000000
vt 0.250000 0.937500
vt 0.000000 0.750000
vt 0.062500 1.000000
vt 0.062500 0.750000
vt 0.000000 1.000000
vt 0.000000 0.750000
vt 0.062500 1.000000
vt 0.062500 0.750000
vt 0.000000 1.000000
vt 0.000000 0.937500
vt 0.062500 1.000000
vt 0.062500 0.937500
vt 0.000000 1.000000
vt 0.000000 0.937500
vt 0.062500 1.000000
vt 0.062500 0.937500
vn 1.0000 0.0017 -0.0017
vn -1.0000 -0.0017 0.0017
vn -0.0017 1.0000 0.0017
vn 0.0017 -1.0000 -0.0017
vn 0.0017 -0.0017 1.0000
vn -0.0017 0.0017 -1.0000
usemtl 1
s 1
f 25/70/19 26/71/19 27/72/19
f 26/71/19 28/73/19 27/72/19
f 29/74/20 30/75/20 31/76/20
f 30/75/20 32/77/20 31/76/20
f 29/74/21 31/78/21 27/79/21
f 31/78/21 25/80/21 27/79/21
f 32/81/22 30/82/22 26/83/22
f 30/82/22 28/84/22 26/83/22
f 31/85/23 32/86/23 25/87/23
f 32/86/23 26/88/23 25/87/23
f 27/89/24 28/90/24 29/91/24
f 28/90/24 30/92/24 29/91/24
o 6.001
v 1.003488 1.495634 7.000870
v 1.004360 0.995636 6.999995
v 0.993888 1.505234 1.500886
v 0.994761 1.005236 1.500012
v -1.006106 1.501738 1.504371
v -1.005233 1.001739 1.503497
v -0.996506 1.492137 7.004354
v -0.995634 0.992139 7.003480
vt 0.000000 1.000000
vt 0.000000 0.968750
vt 0.343750 1.000000
vt 0.343750 0.968750
vt 0.000000 1.000000
vt 0.000000 0.968750
vt 0.343750 1.000000
vt 0.343750 0.968750
vt 0.000000 0.656250
vt 0.125000 1.000000
vt 0.125000 0.656250
vt 0.000000 1.000000
vt 0.000000 0.656250
vt 0.125000 1.000000
vt 0.125000 0.656250
vt 0.000000 1.000000
vt 0.000000 0.968750
vt 0.125000 1.000000
vt 0.125000 0.968750
vt 0.000000 1.000000
vt 0.000000 0.968750
vt 0.125000 1.000000
vt 0.125000 0.968750
vn 1.0000 0.0017 -0.0017
vn -1.0000 -0.0017 0.0017
vn -0.0017 1.0000 0.0017
vn 0.0017 -1.0000 -0.0017
vn 0.0017 -0.0017 1.0000
vn -0.0017 0.0017 -1.0000
usemtl 1
s 1
f 33/93/25 34/94/25 35/95/25
f 34/94/25 36/96/25 35/95/25
f 37/97/26 38/98/26 39/99/26
f 38/98/26 40/100/26 39/99/26
f 37/97/27 39/101/27 35/102/27
f 39/101/27 33/103/27 35/102/27
f 40/104/28 38/105/28 34/106/28
f 38/105/28 36/107/28 34/106/28
f 39/108/29 40/109/29 33/110/29
f 40/109/29 34/111/29 33/110/29
f 35/112/30 36/113/30 37/114/30
f 36/113/30 38/115/30 37/114/30
o 3.001
v 0.984440 -1.011736 15.384116
v 0.985312 -1.511734 15.382368
v 2.508719 -1.002609 7.987769
v 2.509592 -1.502607 7.986020
v 2.046447 -1.003082 7.606696
v 2.047319 -1.503081 7.604948
v 0.522167 -1.012210 15.003044
v 0.523040 -1.512208 15.001295
vt 0.000000 1.000000
vt 0.000000 0.937500
vt 0.500000 1.000000
vt 0.500000 0.937500
vt 0.000000 1.000000
vt 0.000000 0.937500
vt 0.500000 1.000000
vt 0.500000 0.937500
vt 0.000000 0.500000
vt 0.062500 1.000000
vt 0.062500 0.500000
vt 0.000000 1.000000
vt 0.000000 0.500000
vt 0.062500 1.000000
vt 0.062500 0.500000
vt 0.000000 1.000000
vt 0.000000 0.937500
vt 0.062500 1.000000
vt 0.062500 0.937500
vt 0.000000 1.000000
vt 0.000000 0.937500
vt 0.062500 1.000000
vt 0.062500 0.937500
vn 0.9794 0.0010 0.2018
vn -0.9794 -0.0010 -0.2018
vn -0.0017 1.0000 0.0009
vn 0.0017 -1.0000 -0.0009
vn -0.6361 -0.0038 0.7716
vn 0.6361 0.0038 -0.7716
usemtl 1
s 1
f 41/116/31 42/117/31 43/118/31
f 42/117/31 44/119/31 43/118/31
f 45/120/32 46/121/32 47/122/32
f 46/121/32 48/123/32 47/122/32
f 45/120/33 47/124/33 43/125/33
f 47/124/33 41/126/33 43/125/33
f 48/127/34 46/128/34 42/129/34
f 46/128/34 44/130/34 42/129/34
f 47/131/35 48/132/35 41/133/35
f 48/132/35 42/134/35 41/133/35
f 43/135/36 44/136/36 45/137/36
f 44/136/36 46/138/36 45/137/36
o 1.001
v -0.496846 1.486009 15.015321
v -0.495973 0.986011 15.013572
v -2.034025 1.489784 7.629642
v -2.033152 0.989785 7.627892
v -2.495629 1.488642 8.013933
v -2.494756 0.988644 8.012184
v -0.958450 1.484867 15.399612
v -0.957577 0.984869 15.397864
vt 0.000000 1.000000
vt 0.000000 0.937500
vt 0.500000 1.000000
vt 0.500000 0.937500
vt 0.000000 1.000000
vt 0.000000 0.937500
vt 0.500000 1.000000
vt 0.500000 0.937500
vt 0.000000 0.500000
vt 0.062500 1.000000
vt 0.062500 0.500000
vt 0.000000 1.000000
vt 0.000000 0.500000
vt 0.062500 1.000000
vt 0.062500 0.500000
vt 0.000000 1.000000
vt 0.000000 0.937500
vt 0.062500 1.000000
vt 0.062500 0.937500
vt 0.000000 1.000000
vt 0.000000 0.937500
vt 0.062500 1.000000
vt 0.062500 0.937500
vn 0.9790 0.0024 -0.2038
vn -0.9790 -0.0024 0.2038
vn -0.0017 1.0000 0.0009
vn 0.0017 -1.0000 -0.0009
vn 0.6398 -0.0016 0.7685
vn -0.6398 0.0016 -0.7685
usemtl 1
s 1
f 49/139/37 50/140/37 51/141/37
f 50/140/37 52/142/37 51/141/37
f 53/143/38 54/144/38 55/145/38
f 54/144/38 56/146/38 55/145/38
f 53/143/39 55/147/39 51/148/39
f 55/147/39 49/149/39 51/148/39
f 56/150/40 54/151/40 50/152/40
f 54/151/40 52/153/40 50/152/40
f 55/154/41 56/155/41 49/156/41
f 56/155/41 50/157/41 49/156/41
f 51/158/42 52/159/42 53/160/42
f 52/159/42 54/161/42 53/160/42
o 9.001
v 1.505231 0.496512 6.998250
v 1.506104 -0.003487 6.997375
v 1.499123 0.502621 3.498261
v 1.499995 0.002623 3.497386
v 0.999124 0.501747 3.499132
v 0.999997 0.001748 3.498257
v 1.005233 0.495638 6.999121
v 1.006106 -0.004361 6.998247
vt 0.000000 1.000000
vt 0.000000 0.937500
vt 0.437500 1.000000
vt 0.437500 0.937500
vt 0.000000 1.000000
vt 0.000000 0.937500
vt 0.437500 1.000000
vt 0.437500 0.937500
vt 0.000000 0.562500
vt 0.062500 1.000000
vt 0.062500 0.562500
vt 0.000000 1.000000
vt 0.000000 0.562500
vt 0.062500 1.000000
vt 0.062500 0.562500
vt 0.000000 1.000000
vt 0.000000 0.937500
vt 0.062500 1.000000
vt 0.062500 0.937500
vt 0.000000 1.000000
vt 0.000000 0.937500
vt 0.062500 1.000000
vt 0.062500 0.937500
vn 1.0000 0.0017 -0.0017
vn -1.0000 -0.0017 0.0017
vn -0.0017 1.0000 0.0017
vn 0.0017 -1.0000 -0.0017
vn 0.0017 -0.0017 1.0000
vn -0.0017 0.0017 -1.0000
usemtl 1
s 1
f 57/162/43 58/163/43 59/164/43
f 58/163/43 60/165/43 59/164/43
f 61/166/44 62/167/44 63/168/44
f 62/167/44 64/169/44 63/168/44
f 61/166/45 63/170/45 59/171/45
f 63/170/45 57/172/45 59/171/45
f 64/173/46 62/174/46 58/175/46
f 62/174/46 60/176/46 58/175/46
f 63/177/47 64/178/47 57/179/47
f 64/178/47 58/180/47 57/179/47
f 59/181/48 60/182/48 61/183/48
f 60/182/48 62/184/48 61/183/48
o 8.001
v 1.504359 0.996510 6.999125
v 1.505231 0.496512 6.998250
v 1.495632 1.005238 1.999139
v 1.496505 0.505239 1.998265
v 0.995634 1.004364 2.000010
v 0.996506 0.504365 1.999136
v 1.004360 0.995636 6.999995
v 1.005233 0.495638 6.999121
vt 0.000000 1.000000
vt 0.000000 0.937500
vt 0.500000 1.000000
vt 0.500000 0.937500
vt 0.000000 1.000000
vt 0.000000 0.937500
vt 0.500000 1.000000
vt 0.500000 0.937500
vt 0.000000 0.500000
vt 0.062500 1.000000
vt 0.062500 0.500000
vt 0.000000 1.000000
vt 0.000000 0.500000
vt 0.062500 1.000000
vt 0.062500 0.500000
vt 0.000000 1.000000
vt 0.000000 0.937500
vt 0.062500 1.000000
vt 0.062500 0.937500
vt 0.000000 1.000000
vt 0.000000 0.937500
vt 0.062500 1.000000
vt 0.062500 0.937500
vn 1.0000 0.0017 -0.0017
vn -1.0000 -0.0017 0.0017
vn -0.0017 1.0000 0.0017
vn 0.0017 -1.0000 -0.0017
vn 0.0017 -0.0017 1.0000
vn -0.0017 0.0017 -1.0000
usemtl 1
s 1
f 65/185/49 66/186/49 67/187/49
f 66/186/49 68/188/49 67/187/49
f 69/189/50 70/190/50 71/191/50
f 70/190/50 72/192/50 71/191/50
f 69/189/51 71/193/51 67/194/51
f 71/193/51 65/195/51 67/194/51
f 72/196/52 70/197/52 66/198/52
f 70/197/52 68/199/52 66/198/52
f 71/200/53 72/201/53 65/202/53
f 72/201/53 66/203/53 65/202/53
f 67/204/54 68/205/54 69/206/54
f 68/205/54 70/207/54 69/206/54
o 7.001
v 0.493890 1.504360 1.501758
v 0.494762 1.004362 1.500883
v 0.493017 1.505233 1.001759
v 0.493890 1.005234 1.000885
v -0.506980 1.503484 1.003501
v -0.506107 1.003486 1.002627
v -0.506107 1.502612 1.503500
v -0.505234 1.002613 1.502626
vt 0.000000 1.000000
vt 0.000000 0.937500
vt 0.062500 1.000000
vt 0.062500 0.937500
vt 0.000000 1.000000
vt 0.000000 0.937500
vt 0.062500 1.000000
vt 0.062500 0.937500
vt 0.000000 0.937500
vt 0.125000 1.000000
vt 0.125000 0.937500
vt 0.000000 1.000000
vt 0.125000 1.000000
vt 0.125000 0.937500
vt 0.000000 1.000000
vt 0.000000 0.937500
vt 0.125000 1.000000
vt 0.125000 0.937500
vt 0.000000 1.000000
vt 0.000000 0.937500
vt 0.125000 1.000000
vt 0.125000 0.937500
vn 1.0000 0.0017 -0.0017
vn -1.0000 -0.0017 0.0017
vn -0.0017 1.0000 0.0017
vn 0.0017 -1.0000 -0.0017
vn 0.0017 -0.0017 1.0000
vn -0.0017 0.0017 -1.0000
usemtl 1
s 1
f 73/208/55 74/209/55 75/210/55
f 74/209/55 76/211/55 75/210/55
f 77/212/56 78/213/56 79/214/56
f 78/213/56 80/215/56 79/214/56
f 77/212/57 79/216/57 75/217/57
f 79/216/57 73/218/57 75/217/57
f 80/219/58 78/213/58 74/220/58
f 78/213/58 76/221/58 74/220/58
f 79/222/59 80/223/59 73/224/59
f 80/223/59 74/225/59 73/224/59
f 75/226/60 76/227/60 77/228/60
f 76/227/60 78/229/60 77/228/60
o 11.001
v -0.995634 0.992139 7.003480
v -0.994761 0.492141 7.002605
v -1.004360 1.000867 2.003495
v -1.003488 0.500868 2.002621
v -1.504359 0.999993 2.004366
v -1.503486 0.499994 2.003492
v -1.495632 0.991265 7.004351
v -1.494759 0.491267 7.003477
vt 0.000000 1.000000
vt 0.000000 0.937500
vt 0.500000 1.000000
vt 0.500000 0.937500
vt 0.000000 1.000000
vt 0.000000 0.937500
vt 0.500000 1.000000
vt 0.500000 0.937500
vt 0.000000 0.500000
vt 0.062500 1.000000
vt 0.062500 0.500000
vt 0.000000 1.000000
vt 0.000000 0.500000
vt 0.062500 1.000000
vt 0.062500 0.500000
vt 0.000000 1.000000
vt 0.000000 0.937500
vt 0.062500 1.000000
vt 0.062500 0.937500
vt 0.000000 1.000000
vt 0.000000 0.937500
vt 0.062500 1.000000
vt 0.062500 0.937500
vn 1.0000 0.0017 -0.0017
vn -1.0000 -0.0017 0.0017
vn -0.0017 1.0000 0.0017
vn 0.0017 -1.0000 -0.0017
vn 0.0017 -0.0017 1.0000
vn -0.0017 0.0017 -1.0000
usemtl 1
s 1
f 81/230/61 82/231/61 83/232/61
f 82/231/61 84/233/61 83/232/61
f 85/234/62 86/235/62 87/236/62
f 86/235/62 88/237/62 87/236/62
f 85/234/63 87/238/63 83/239/63
f 87/238/63 81/240/63 83/239/63
f 88/241/64 86/242/64 82/243/64
f 86/242/64 84/244/64 82/243/64
f 87/245/65 88/246/65 81/247/65
f 88/246/65 82/248/65 81/247/65
f 83/249/66 84/250/66 85/251/66
f 84/250/66 86/252/66 85/251/66
o 12.001
v -0.994761 0.492141 7.002605
v -0.993888 -0.007858 7.001731
v -1.000870 0.498250 3.502616
v -0.999997 -0.001748 3.501742
v -1.500868 0.497376 3.503488
v -1.499995 -0.002623 3.502613
v -1.494759 0.491267 7.003477
v -1.493887 -0.008732 7.002603
vt 0.000000 1.000000
vt 0.000000 0.937500
vt 0.437500 1.000000
vt 0.437500 0.937500
vt 0.000000 1.000000
vt 0.000000 0.937500
vt 0.437500 1.000000
vt 0.437500 0.937500
vt 0.000000 0.562500
vt 0.062500 1.000000
vt 0.062500 0.562500
vt 0.000000 1.000000
vt 0.000000 0.562500
vt 0.062500 1.000000
vt 0.062500 0.562500
vt 0.000000 1.000000
vt 0.000000 0.937500
vt 0.062500 1.000000
vt 0.062500 0.937500
vt 0.000000 1.000000
vt 0.000000 0.937500
vt 0.062500 1.000000
vt 0.062500 0.937500
vn 1.0000 0.0017 -0.0017
vn -1.0000 -0.0017 0.0017
vn -0.0017 1.0000 0.0017
vn 0.0017 -1.0000 -0.0017
vn 0.0017 -0.0017 1.0000
vn -0.0017 0.0017 -1.0000
usemtl 1
s 1
f 89/253/67 90/254/67 91/255/67
f 90/254/67 92/256/67 91/255/67
f 93/257/68 94/258/68 95/259/68
f 94/258/68 96/260/68 95/259/68
f 93/257/69 95/261/69 91/262/69
f 95/261/69 89/263/69 91/262/69
f 96/264/70 94/265/70 90/266/70
f 94/265/70 92/267/70 90/266/70
f 95/268/71 96/269/71 89/270/71
f 96/269/71 90/271/71 89/270/71
f 91/272/72 92/273/72 93/274/72
f 92/273/72 94/275/72 93/274/72
o 0.003
v -0.000424 4.235646 8.014812
v 4.249609 0.000436 7.985192
v -0.001296 4.236519 7.014815
v 4.248736 0.001308 6.985195
v -4.236519 -0.013527 7.014763
v 0.013513 -4.248737 6.985143
v -4.235647 -0.014400 8.014760
v 0.014386 -4.249610 7.985140
vt 0.000000 1.000000
vt 0.000000 0.625000
vt 0.031250 1.000000
vt 0.031250 0.625000
vt 0.000000 1.000000
vt 0.000000 0.625000
vt 0.031250 1.000000
vt 0.031250 0.625000
vt 0.000000 0.968750
vt 0.375000 1.000000
vt 0.375000 0.968750
vt 0.000000 1.000000
vt 0.000000 0.968750
vt 0.375000 1.000000
vt 0.375000 0.968750
vt 0.000000 1.000000
vt 0.000000 0.625000
vt 0.375000 1.000000
vt 0.375000 0.625000
vt 0.000000 1.000000
vt 0.000000 0.625000
vt 0.375000 1.000000
vt 0.375000 0.625000
vn 0.7059 0.7083 0.0000
vn -0.7059 -0.7083 -0.0000
vn -0.7083 0.7059 0.0012
vn 0.7083 -0.7059 -0.0012
vn 0.0035 -0.0035 1.0000
vn -0.0035 0.0035 -1.0000
usemtl 1
s 1
f 97/276/73 98/277/73 99/278/73
f 98/277/73 100/279/73 99/278/73
f 101/280/74 102/281/74 103/282/74
f 102/281/74 104/283/74 103/282/74
f 101/280/75 103/284/75 99/285/75
f 103/284/75 97/286/75 99/285/75
f 104/287/76 102/288/76 98/289/76
f 102/288/76 100/290/76 98/289/76
f 103/291/77 104/292/77 97/293/77
f 104/292/77 98/294/77 97/293/77
f 99/295/78 100/296/78 101/297/78
f 100/296/78 102/298/78 101/297/78
o 5.001
v 1.004360 0.995636 6.999990
v 1.007851 -1.004358 6.992997
v 1.003488 0.996508 5.999994
v 1.006978 -1.003485 5.993000
v -0.996506 0.993012 6.006963
v -0.993016 -1.006982 5.999969
v -0.995634 0.992139 7.006960
v -0.992143 -1.007855 6.999966
vt 0.750000 0.250000
vt 0.750000 0.000000
vt 0.812500 0.250000
vt 0.812500 0.000000
vt 0.750000 0.250000
vt 0.750000 0.000000
vt 0.812500 0.250000
vt 0.812500 0.000000
vt 0.750000 0.187500
vt 1.000000 0.250000
vt 1.000000 0.187500
vt 0.750000 0.250000
vt 0.750000 0.187500
vt 1.000000 0.250000
vt 1.000000 0.187500
vt 0.750000 0.250000
vt 0.750000 0.000000
vt 1.000000 0.250000
vt 1.000000 0.000000
vt 0.750000 0.250000
vt 0.750000 0.000000
vt 1.000000 0.250000
vt 1.000000 0.000000
vn 1.0000 0.0017 -0.0009
vn -1.0000 -0.0017 0.0009
vn -0.0017 1.0000 0.0009
vn 0.0017 -1.0000 -0.0009
vn 0.0035 -0.0035 1.0000
vn -0.0035 0.0035 -1.0000
usemtl 1
s 1
f 105/299/79 106/300/79 107/301/79
f 106/300/79 108/302/79 107/301/79
f 109/303/80 110/304/80 111/305/80
f 110/304/80 112/306/80 111/305/80
f 109/303/81 111/307/81 107/308/81
f 111/307/81 105/309/81 107/308/81
f 112/310/82 110/311/82 106/312/82
f 110/311/82 108/313/82 106/312/82
f 111/314/83 112/315/83 105/316/83
f 112/315/83 106/317/83 105/316/83
f 107/318/84 108/319/84 109/320/84
f 108/319/84 110/321/84 109/320/84
