# Blender v2.79 (sub 0) OBJ File: ''
# www.blender.org
mtllib signal_pillar_base.mtl
o 0_Cylinder
v 0.000000 -8.000000 -3.000000
v 0.000000 8.000000 -3.000000
v 2.121320 -8.000000 -2.121320
v 2.121320 8.000000 -2.121320
v 3.000000 -8.000000 0.000000
v 3.000000 8.000000 0.000000
v 2.121320 -8.000000 2.121320
v 2.121320 8.000000 2.121320
v -0.000000 -8.000000 3.000000
v -0.000000 8.000000 3.000000
v -2.121321 -8.000000 2.121320
v -2.121321 8.000000 2.121320
v -3.000000 -8.000000 -0.000000
v -3.000000 8.000000 -0.000000
v -2.121321 -8.000000 -2.121320
v -2.121321 8.000000 -2.121320
v -0.000000 8.000000 -0.000000
v -0.000000 -8.000000 -0.000000
vt 0.076505 0.000000
vt 0.184699 1.000000
vt 0.076505 1.000000
vt 0.184699 0.000000
vt 0.261204 1.000000
vt 0.445903 1.000000
vt 0.337709 0.000000
vt 0.445903 0.000000
vt 0.337709 1.000000
vt 0.261204 0.000000
vt 0.630602 0.000000
vt 0.738796 1.000000
vt 0.630602 1.000000
vt 0.630602 1.000000
vt 0.554097 0.000000
vt 0.630602 0.000000
vt 0.738796 0.447929
vt 0.815301 0.346455
vt 0.869398 0.519682
vt 0.554097 1.000000
vt 0.445903 0.000000
vt 0.000000 0.000000
vt 0.000000 1.000000
vt 0.261204 0.000000
vt 0.261204 1.000000
vt 0.738796 0.000000
vt 0.445903 1.000000
vt 0.923495 0.000000
vt 1.000000 0.101474
vt 0.869398 0.173227
vt 1.000000 0.244981
vt 0.923495 0.346455
vt 0.815301 0.346455
vt 0.738796 0.244981
vt 0.738796 0.101474
vt 0.815301 0.000000
vt 0.923495 0.346455
vt 1.000000 0.447929
vt 1.000000 0.591435
vt 0.923495 0.692910
vt 0.815301 0.692910
vt 0.738796 0.591435
vn 0.3827 0.0000 -0.9239
vn 0.9239 0.0000 -0.3827
vn 0.9239 0.0000 0.3827
vn 0.3827 0.0000 0.9239
vn -0.3827 0.0000 0.9239
vn -0.9239 0.0000 0.3827
vn 0.0000 -1.0000 0.0000
vn -0.9239 0.0000 -0.3827
vn -0.3827 0.0000 -0.9239
vn 0.0000 1.0000 0.0000
usemtl None
s off
f 2/1/1 3/2/1 1/3/1
f 4/4/2 5/5/2 3/2/2
f 6/6/3 7/7/3 5/8/3
f 8/9/4 9/10/4 7/7/4
f 10/11/5 11/12/5 9/13/5
f 12/14/6 13/15/6 11/16/6
f 1/17/7 3/18/7 18/19/7
f 14/20/8 15/21/8 13/15/8
f 16/22/9 1/3/9 15/23/9
f 2/1/1 4/4/1 3/2/1
f 4/4/2 6/24/2 5/5/2
f 6/6/3 8/9/3 7/7/3
f 8/9/4 10/25/4 9/10/4
f 10/11/5 12/26/5 11/12/5
f 12/14/6 14/20/6 13/15/6
f 14/20/8 16/27/8 15/21/8
f 16/22/9 2/1/9 1/3/9
f 4/28/10 2/29/10 17/30/10
f 2/29/10 16/31/10 17/30/10
f 16/31/10 14/32/10 17/30/10
f 14/32/10 12/33/10 17/30/10
f 12/33/10 10/34/10 17/30/10
f 10/34/10 8/35/10 17/30/10
f 8/35/10 6/36/10 17/30/10
f 6/36/10 4/28/10 17/30/10
f 3/18/7 5/37/7 18/19/7
f 5/37/7 7/38/7 18/19/7
f 7/38/7 9/39/7 18/19/7
f 9/39/7 11/40/7 18/19/7
f 11/40/7 13/41/7 18/19/7
f 13/41/7 15/42/7 18/19/7
f 15/42/7 1/17/7 18/19/7
