mtllib track_side_base.mtl
o 0
v 2 -6.699999928474426 8
v 2 -6.699999928474426 -8
v 2 -7.9999998807907104 8
v 2 -7.9999998807907104 -8
v -2 -6.699999928474426 -8
v -2 -6.699999928474426 8
v -2 -7.9999998807907104 -8
v -2 -7.9999998807907104 8
vt 0 1
vt 0 0.91875
vt 1 1
vt 0 0.91875
vt 1 0.91875
vt 1 1
vt 0 1
vt 0 0.91875
vt 1 1
vt 0 0.91875
vt 1 0.91875
vt 1 1
vt 0 1
vt 0 0
vt 0.25 1
vt 0 0
vt 0.25 0
vt 0.25 1
vt 0 1
vt 0 0
vt 0.25 1
vt 0 0
vt 0.25 0
vt 0.25 1
vt 0 1
vt 0 0.91875
vt 0.25 1
vt 0 0.91875
vt 0.25 0.91875
vt 0.25 1
vt 0 1
vt 0 0.91875
vt 0.25 1
vt 0 0.91875
vt 0.25 0.91875
vt 0.25 1
vn 1 0 0
vn 1 0 0
vn 1 0 0
vn 1 0 0
vn 1 0 0
vn 1 0 0
vn -1 0 0
vn -1 0 0
vn -1 0 0
vn -1 0 0
vn -1 0 0
vn -1 0 0
vn 0 1 0
vn 0 1 0
vn 0 1 0
vn 0 1 0
vn 0 1 0
vn 0 1 0
vn 0 -1 0
vn 0 -1 0
vn 0 -1 0
vn 0 -1 0
vn 0 -1 0
vn 0 -1 0
vn 0 0 1
vn 0 0 1
vn 0 0 1
vn 0 0 1
vn 0 0 1
vn 0 0 1
vn 0 0 -1
vn 0 0 -1
vn 0 0 -1
vn 0 0 -1
vn 0 0 -1
vn 0 0 -1
usemtl nonef 1/1/1 3/2/2 2/3/3
f 3/4/4 4/5/5 2/6/6
usemtl nonef 5/7/7 7/8/8 6/9/9
f 7/10/10 8/11/11 6/12/12
usemtl nonef 5/13/13 6/14/14 2/15/15
f 6/16/16 1/17/17 2/18/18
usemtl nonef 8/19/19 7/20/20 3/21/21
f 7/22/22 4/23/23 3/24/24
usemtl nonef 6/25/25 8/26/26 1/27/27
f 8/28/28 3/29/29 1/30/30
usemtl nonef 2/31/31 4/32/32 5/33/33
f 4/34/34 7/35/35 5/36/36
o 1
v 0.4238804876804352 -3.3826833069324493 8
v 0.4238804876804352 -3.3826833069324493 -8
v -1.1068532168865204 -7.078201323747635 8
v -1.1068532168865204 -7.078201323747635 -8
v -0.4999990165233612 -2.9999998807907104 -8
v -0.4999990165233612 -2.9999998807907104 8
v -2.0307327210903168 -6.695517897605896 -8
v -2.0307327210903168 -6.695517897605896 8
vt 0 1
vt 0 0.75
vt 1 1
vt 0 0.75
vt 1 0.75
vt 1 1
vt 0 1
vt 0 0.75
vt 1 1
vt 0 0.75
vt 1 0.75
vt 1 1
vt 0 1
vt 0 0
vt 0.0625 1
vt 0 0
vt 0.0625 0
vt 0.0625 1
vt 0 1
vt 0 0
vt 0.0625 1
vt 0 0
vt 0.0625 0
vt 0.0625 1
vt 0 1
vt 0 0.75
vt 0.0625 1
vt 0 0.75
vt 0.0625 0.75
vt 0.0625 1
vt 0 1
vt 0 0.75
vt 0.0625 1
vt 0 0.75
vt 0.0625 0.75
vt 0.0625 1
vn 0.9238795638084412 -0.3826834559440613 0
vn 0.9238795638084412 -0.3826834559440613 0
vn 0.9238795638084412 -0.3826834559440613 0
vn 0.9238795638084412 -0.3826834559440613 0
vn 0.9238795638084412 -0.3826834559440613 0
vn 0.9238795638084412 -0.3826834559440613 0
vn -0.9238795638084412 0.3826834559440613 0
vn -0.9238795638084412 0.3826834559440613 0
vn -0.9238795638084412 0.3826834559440613 0
vn -0.9238795638084412 0.3826834559440613 0
vn -0.9238795638084412 0.3826834559440613 0
vn -0.9238795638084412 0.3826834559440613 0
vn 0.3826834559440613 0.9238795638084412 0
vn 0.3826834559440613 0.9238795638084412 0
vn 0.3826834559440613 0.9238795638084412 0
vn 0.3826834559440613 0.9238795638084412 0
vn 0.3826834559440613 0.9238795638084412 0
vn 0.3826834559440613 0.9238795638084412 0
vn -0.3826834559440613 -0.9238795638084412 0
vn -0.3826834559440613 -0.9238795638084412 0
vn -0.3826834559440613 -0.9238795638084412 0
vn -0.3826834559440613 -0.9238795638084412 0
vn -0.3826834559440613 -0.9238795638084412 0
vn -0.3826834559440613 -0.9238795638084412 0
vn 0 0 1
vn 0 0 1
vn 0 0 1
vn 0 0 1
vn 0 0 1
vn 0 0 1
vn 0 0 -1
vn 0 0 -1
vn 0 0 -1
vn 0 0 -1
vn 0 0 -1
vn 0 0 -1
usemtl nonef 9/37/37 11/38/38 10/39/39
f 11/40/40 12/41/41 10/42/42
usemtl nonef 13/43/43 15/44/44 14/45/45
f 15/46/46 16/47/47 14/48/48
usemtl nonef 13/49/49 14/50/50 10/51/51
f 14/52/52 9/53/53 10/54/54
usemtl nonef 16/55/55 15/56/56 11/57/57
f 15/58/58 12/59/59 11/60/60
usemtl nonef 14/61/61 16/62/62 9/63/63
f 16/64/64 11/65/65 9/66/66
usemtl nonef 10/67/67 12/68/68 13/69/69
f 12/70/70 15/71/71 13/72/72
o 2
v 0.4999999701976776 -2.9999998807907104 8
v 0.4999999701976776 -2.9999998807907104 -8
v 2.030733674764633 -6.695517897605896 8
v 2.030733674764633 -6.695517897605896 -8
v -0.4238795340061188 -3.3826833069324493 -8
v -0.4238795340061188 -3.3826833069324493 8
v 1.1068541705608368 -7.078201323747635 -8
v 1.1068541705608368 -7.078201323747635 8
vt 0 1
vt 0 0.75
vt 1 1
vt 0 0.75
vt 1 0.75
vt 1 1
vt 0 1
vt 0 0.75
vt 1 1
vt 0 0.75
vt 1 0.75
vt 1 1
vt 0 1
vt 0 0
vt 0.0625 1
vt 0 0
vt 0.0625 0
vt 0.0625 1
vt 0 1
vt 0 0
vt 0.0625 1
vt 0 0
vt 0.0625 0
vt 0.0625 1
vt 0 1
vt 0 0.75
vt 0.0625 1
vt 0 0.75
vt 0.0625 0.75
vt 0.0625 1
vt 0 1
vt 0 0.75
vt 0.0625 1
vt 0 0.75
vt 0.0625 0.75
vt 0.0625 1
vn 0.9238795638084412 0.3826834559440613 0
vn 0.9238795638084412 0.3826834559440613 0
vn 0.9238795638084412 0.3826834559440613 0
vn 0.9238795638084412 0.3826834559440613 0
vn 0.9238795638084412 0.3826834559440613 0
vn 0.9238795638084412 0.3826834559440613 0
vn -0.9238795638084412 -0.3826834559440613 0
vn -0.9238795638084412 -0.3826834559440613 0
vn -0.9238795638084412 -0.3826834559440613 0
vn -0.9238795638084412 -0.3826834559440613 0
vn -0.9238795638084412 -0.3826834559440613 0
vn -0.9238795638084412 -0.3826834559440613 0
vn -0.3826834559440613 0.9238795638084412 0
vn -0.3826834559440613 0.9238795638084412 0
vn -0.3826834559440613 0.9238795638084412 0
vn -0.3826834559440613 0.9238795638084412 0
vn -0.3826834559440613 0.9238795638084412 0
vn -0.3826834559440613 0.9238795638084412 0
vn 0.3826834559440613 -0.9238795638084412 0
vn 0.3826834559440613 -0.9238795638084412 0
vn 0.3826834559440613 -0.9238795638084412 0
vn 0.3826834559440613 -0.9238795638084412 0
vn 0.3826834559440613 -0.9238795638084412 0
vn 0.3826834559440613 -0.9238795638084412 0
vn 0 0 1
vn 0 0 1
vn 0 0 1
vn 0 0 1
vn 0 0 1
vn 0 0 1
vn 0 0 -1
vn 0 0 -1
vn 0 0 -1
vn 0 0 -1
vn 0 0 -1
vn 0 0 -1
usemtl nonef 17/73/73 19/74/74 18/75/75
f 19/76/76 20/77/77 18/78/78
usemtl nonef 21/79/79 23/80/80 22/81/81
f 23/82/82 24/83/83 22/84/84
usemtl nonef 21/85/85 22/86/86 18/87/87
f 22/88/88 17/89/89 18/90/90
usemtl nonef 24/91/91 23/92/92 19/93/93
f 23/94/94 20/95/95 19/96/96
usemtl nonef 22/97/97 24/98/98 17/99/99
f 24/100/100 19/101/101 17/102/102
usemtl nonef 18/103/103 20/104/104 21/105/105
f 20/106/106 23/107/107 21/108/108
o 3
v 0.5 -3 8
v 0.5 -3 -8
v 0.5 -4 8
v 0.5 -4 -8
v -0.5 -3 -8
v -0.5 -3 8
v -0.5 -4 -8
v -0.5 -4 8
vt 0 1
vt 0 0.9375
vt 1 1
vt 0 0.9375
vt 1 0.9375
vt 1 1
vt 0 1
vt 0 0.9375
vt 1 1
vt 0 0.9375
vt 1 0.9375
vt 1 1
vt 0 1
vt 0 0
vt 0.0625 1
vt 0 0
vt 0.0625 0
vt 0.0625 1
vt 0 1
vt 0 0
vt 0.0625 1
vt 0 0
vt 0.0625 0
vt 0.0625 1
vt 0 1
vt 0 0.9375
vt 0.0625 1
vt 0 0.9375
vt 0.0625 0.9375
vt 0.0625 1
vt 0 1
vt 0 0.9375
vt 0.0625 1
vt 0 0.9375
vt 0.0625 0.9375
vt 0.0625 1
vn 1 0 0
vn 1 0 0
vn 1 0 0
vn 1 0 0
vn 1 0 0
vn 1 0 0
vn -1 0 0
vn -1 0 0
vn -1 0 0
vn -1 0 0
vn -1 0 0
vn -1 0 0
vn 0 1 0
vn 0 1 0
vn 0 1 0
vn 0 1 0
vn 0 1 0
vn 0 1 0
vn 0 -1 0
vn 0 -1 0
vn 0 -1 0
vn 0 -1 0
vn 0 -1 0
vn 0 -1 0
vn 0 0 1
vn 0 0 1
vn 0 0 1
vn 0 0 1
vn 0 0 1
vn 0 0 1
vn 0 0 -1
vn 0 0 -1
vn 0 0 -1
vn 0 0 -1
vn 0 0 -1
vn 0 0 -1
usemtl nonef 25/109/109 27/110/110 26/111/111
f 27/112/112 28/113/113 26/114/114
usemtl nonef 29/115/115 31/116/116 30/117/117
f 31/118/118 32/119/119 30/120/120
usemtl nonef 29/121/121 30/122/122 26/123/123
f 30/124/124 25/125/125 26/126/126
usemtl nonef 32/127/127 31/128/128 27/129/129
f 31/130/130 28/131/131 27/132/132
usemtl nonef 30/133/133 32/134/134 25/135/135
f 32/136/136 27/137/137 25/138/138
usemtl nonef 26/139/139 28/140/140 29/141/141
f 28/142/142 31/143/143 29/144/144
