mtllib tri_signal_light_r.mtl
o 0
v 0.9947610002127476 1.5043618654599413 -1.4991155411116779
v 0.9930156717891805 1.506107191205956 -2.4991125012747943
v 0.998251651704777 -0.4956320548662916 -1.5026122848503292
v 0.9965063232812099 -0.49388672912027687 -2.5026092450134456
v -1.0069782485370524 1.5026104474673048 -2.495627947617322
v -1.0052329201134853 1.50086512172129 -1.4956309874542058
v -1.003487597045023 -0.49738347285892814 -2.4991246913559735
v -1.0017422686214559 -0.49912879860494286 -1.499127731192857
vt 0 1
vt 0 0.875
vt 0.0625 1
vt 0 0.875
vt 0.0625 0.875
vt 0.0625 1
vt 0 1
vt 0 0.875
vt 0.0625 1
vt 0 0.875
vt 0.0625 0.875
vt 0.0625 1
vt 0 1
vt 0 0.9375
vt 0.125 1
vt 0 0.9375
vt 0.125 0.9375
vt 0.125 1
vt 0 1
vt 0 0.9375
vt 0.125 1
vt 0 0.9375
vt 0.125 0.9375
vt 0.125 1
vt 0 1
vt 0 0.875
vt 0.125 1
vt 0 0.875
vt 0.125 0.875
vt 0.125 1
vt 0 1
vt 0 0.875
vt 0.125 1
vt 0 0.875
vt 0.125 0.875
vt 0.125 1
vn 0.9999969601631165 0.0017483718693256378 -0.0017422769451513886
vn 0.9999969601631165 0.0017483718693256378 -0.0017422769451513886
vn 0.9999969601631165 0.0017483718693256378 -0.0017422769451513886
vn 0.9999969601631165 0.0017483718693256378 -0.0017422769451513886
vn 0.9999969601631165 0.0017483718693256378 -0.0017422769451513886
vn 0.9999969601631165 0.0017483718693256378 -0.0017422769451513886
vn -0.9999969601631165 -0.0017483718693256378 0.0017422769451513886
vn -0.9999969601631165 -0.0017483718693256378 0.0017422769451513886
vn -0.9999969601631165 -0.0017483718693256378 0.0017422769451513886
vn -0.9999969601631165 -0.0017483718693256378 0.0017422769451513886
vn -0.9999969601631165 -0.0017483718693256378 0.0017422769451513886
vn -0.9999969601631165 -0.0017483718693256378 0.0017422769451513886
vn -0.0017453256295993924 0.9999969601631165 0.0017483718693256378
vn -0.0017453256295993924 0.9999969601631165 0.0017483718693256378
vn -0.0017453256295993924 0.9999969601631165 0.0017483718693256378
vn -0.0017453256295993924 0.9999969601631165 0.0017483718693256378
vn -0.0017453256295993924 0.9999969601631165 0.0017483718693256378
vn -0.0017453256295993924 0.9999969601631165 0.0017483718693256378
vn 0.0017453256295993924 -0.9999969601631165 -0.0017483718693256378
vn 0.0017453256295993924 -0.9999969601631165 -0.0017483718693256378
vn 0.0017453256295993924 -0.9999969601631165 -0.0017483718693256378
vn 0.0017453256295993924 -0.9999969601631165 -0.0017483718693256378
vn 0.0017453256295993924 -0.9999969601631165 -0.0017483718693256378
vn 0.0017453256295993924 -0.9999969601631165 -0.0017483718693256378
vn 0.0017453283071517944 -0.0017453256295993924 0.9999969601631165
vn 0.0017453283071517944 -0.0017453256295993924 0.9999969601631165
vn 0.0017453283071517944 -0.0017453256295993924 0.9999969601631165
vn 0.0017453283071517944 -0.0017453256295993924 0.9999969601631165
vn 0.0017453283071517944 -0.0017453256295993924 0.9999969601631165
vn 0.0017453283071517944 -0.0017453256295993924 0.9999969601631165
vn -0.0017453283071517944 0.0017453256295993924 -0.9999969601631165
vn -0.0017453283071517944 0.0017453256295993924 -0.9999969601631165
vn -0.0017453283071517944 0.0017453256295993924 -0.9999969601631165
vn -0.0017453283071517944 0.0017453256295993924 -0.9999969601631165
vn -0.0017453283071517944 0.0017453256295993924 -0.9999969601631165
vn -0.0017453283071517944 0.0017453256295993924 -0.9999969601631165
usemtl 2
f 1/1/1 3/2/2 2/3/3
f 3/4/4 4/5/5 2/6/6
usemtl 2
f 5/7/7 7/8/8 6/9/9
f 7/10/10 8/11/11 6/12/12
usemtl 2
f 5/13/13 6/14/14 2/15/15
f 6/16/16 1/17/17 2/18/18
usemtl 2
f 8/19/19 7/20/20 3/21/21
f 7/22/22 4/23/23 3/24/24
usemtl 2
f 6/25/25 8/26/26 1/27/27
f 8/28/28 3/29/29 1/30/30
usemtl 2
f 2/31/31 4/32/32 5/33/33
f 4/34/34 7/35/35 5/36/36
o 1
v -0.504361717554275 1.0017408163985237 -1.4973762256558985
v -0.5061070459778421 1.0034861421445385 -2.497373185819015
v -0.5026163918082602 0.0017438562354072928 -1.499124597525224
v -0.5043617202318273 0.003489181981422007 -2.4991215576883405
v -1.5061040061409585 1.0017377702752128 -2.495630908990279
v -1.5043586777173914 0.9999924445291981 -1.4956339488271624
v -1.5043586803949438 0.0017408101120963693 -2.4973792808596045
v -1.5026133519713767 -0.0000045156339183449745 -1.497382320696488
vt 0 1
vt 0 0.9375
vt 0.0625 1
vt 0 0.9375
vt 0.0625 0.9375
vt 0.0625 1
vt 0 1
vt 0 0.9375
vt 0.0625 1
vt 0 0.9375
vt 0.0625 0.9375
vt 0.0625 1
vt 0 1
vt 0 0.9375
vt 0.0625 1
vt 0 0.9375
vt 0.0625 0.9375
vt 0.0625 1
vt 0 1
vt 0 0.9375
vt 0.0625 1
vt 0 0.9375
vt 0.0625 0.9375
vt 0.0625 1
vt 0 1
vt 0 0.9375
vt 0.0625 1
vt 0 0.9375
vt 0.0625 0.9375
vt 0.0625 1
vt 0 1
vt 0 0.9375
vt 0.0625 1
vt 0 0.9375
vt 0.0625 0.9375
vt 0.0625 1
vn 0.9999969601631165 0.0017483718693256378 -0.0017422769451513886
vn 0.9999969601631165 0.0017483718693256378 -0.0017422769451513886
vn 0.9999969601631165 0.0017483718693256378 -0.0017422769451513886
vn 0.9999969601631165 0.0017483718693256378 -0.0017422769451513886
vn 0.9999969601631165 0.0017483718693256378 -0.0017422769451513886
vn 0.9999969601631165 0.0017483718693256378 -0.0017422769451513886
vn -0.9999969601631165 -0.0017483718693256378 0.0017422769451513886
vn -0.9999969601631165 -0.0017483718693256378 0.0017422769451513886
vn -0.9999969601631165 -0.0017483718693256378 0.0017422769451513886
vn -0.9999969601631165 -0.0017483718693256378 0.0017422769451513886
vn -0.9999969601631165 -0.0017483718693256378 0.0017422769451513886
vn -0.9999969601631165 -0.0017483718693256378 0.0017422769451513886
vn -0.0017453256295993924 0.9999969601631165 0.0017483718693256378
vn -0.0017453256295993924 0.9999969601631165 0.0017483718693256378
vn -0.0017453256295993924 0.9999969601631165 0.0017483718693256378
vn -0.0017453256295993924 0.9999969601631165 0.0017483718693256378
vn -0.0017453256295993924 0.9999969601631165 0.0017483718693256378
vn -0.0017453256295993924 0.9999969601631165 0.0017483718693256378
vn 0.0017453256295993924 -0.9999969601631165 -0.0017483718693256378
vn 0.0017453256295993924 -0.9999969601631165 -0.0017483718693256378
vn 0.0017453256295993924 -0.9999969601631165 -0.0017483718693256378
vn 0.0017453256295993924 -0.9999969601631165 -0.0017483718693256378
vn 0.0017453256295993924 -0.9999969601631165 -0.0017483718693256378
vn 0.0017453256295993924 -0.9999969601631165 -0.0017483718693256378
vn 0.0017453283071517944 -0.0017453256295993924 0.9999969601631165
vn 0.0017453283071517944 -0.0017453256295993924 0.9999969601631165
vn 0.0017453283071517944 -0.0017453256295993924 0.9999969601631165
vn 0.0017453283071517944 -0.0017453256295993924 0.9999969601631165
vn 0.0017453283071517944 -0.0017453256295993924 0.9999969601631165
vn 0.0017453283071517944 -0.0017453256295993924 0.9999969601631165
vn -0.0017453283071517944 0.0017453256295993924 -0.9999969601631165
vn -0.0017453283071517944 0.0017453256295993924 -0.9999969601631165
vn -0.0017453283071517944 0.0017453256295993924 -0.9999969601631165
vn -0.0017453283071517944 0.0017453256295993924 -0.9999969601631165
vn -0.0017453283071517944 0.0017453256295993924 -0.9999969601631165
vn -0.0017453283071517944 0.0017453256295993924 -0.9999969601631165
usemtl 2
f 9/37/37 11/38/38 10/39/39
f 11/40/40 12/41/41 10/42/42
usemtl 2
f 13/43/43 15/44/44 14/45/45
f 15/46/46 16/47/47 14/48/48
usemtl 2
f 13/49/49 14/50/50 10/51/51
f 14/52/52 9/53/53 10/54/54
usemtl 2
f 16/55/55 15/56/56 11/57/57
f 15/58/58 12/59/59 11/60/60
usemtl 2
f 14/61/61 16/62/62 9/63/63
f 16/64/64 11/65/65 9/66/66
usemtl 2
f 10/67/67 12/68/68 13/69/69
f 12/70/70 15/71/71 13/72/72
o 2
v 0.4973805089830421 0.003492239280603826 -1.500867031281814
v 0.495635180559475 0.00523756502661854 -2.5008639914449304
v 0.4991258347290568 -0.9965047208825126 -1.5026154031511396
v 0.4973805063054897 -0.9947593951364979 -2.502612363314256
v -0.5043617796036415 0.0034891931572929025 -2.4991217146161944
v -0.5026164511800744 0.0017438674112781882 -1.499124754453078
v -0.5026164538576268 -0.9965077670058236 -2.50087008648552
v -0.5008711254340596 -0.9982530927518383 -1.5008731263224036
vt 0 1
vt 0 0.9375
vt 0.0625 1
vt 0 0.9375
vt 0.0625 0.9375
vt 0.0625 1
vt 0 1
vt 0 0.9375
vt 0.0625 1
vt 0 0.9375
vt 0.0625 0.9375
vt 0.0625 1
vt 0 1
vt 0 0.9375
vt 0.0625 1
vt 0 0.9375
vt 0.0625 0.9375
vt 0.0625 1
vt 0 1
vt 0 0.9375
vt 0.0625 1
vt 0 0.9375
vt 0.0625 0.9375
vt 0.0625 1
vt 0 1
vt 0 0.9375
vt 0.0625 1
vt 0 0.9375
vt 0.0625 0.9375
vt 0.0625 1
vt 0 1
vt 0 0.9375
vt 0.0625 1
vt 0 0.9375
vt 0.0625 0.9375
vt 0.0625 1
vn 0.9999969601631165 0.0017483718693256378 -0.0017422769451513886
vn 0.9999969601631165 0.0017483718693256378 -0.0017422769451513886
vn 0.9999969601631165 0.0017483718693256378 -0.0017422769451513886
vn 0.9999969601631165 0.0017483718693256378 -0.0017422769451513886
vn 0.9999969601631165 0.0017483718693256378 -0.0017422769451513886
vn 0.9999969601631165 0.0017483718693256378 -0.0017422769451513886
vn -0.9999969601631165 -0.0017483718693256378 0.0017422769451513886
vn -0.9999969601631165 -0.0017483718693256378 0.0017422769451513886
vn -0.9999969601631165 -0.0017483718693256378 0.0017422769451513886
vn -0.9999969601631165 -0.0017483718693256378 0.0017422769451513886
vn -0.9999969601631165 -0.0017483718693256378 0.0017422769451513886
vn -0.9999969601631165 -0.0017483718693256378 0.0017422769451513886
vn -0.0017453256295993924 0.9999969601631165 0.0017483718693256378
vn -0.0017453256295993924 0.9999969601631165 0.0017483718693256378
vn -0.0017453256295993924 0.9999969601631165 0.0017483718693256378
vn -0.0017453256295993924 0.9999969601631165 0.0017483718693256378
vn -0.0017453256295993924 0.9999969601631165 0.0017483718693256378
vn -0.0017453256295993924 0.9999969601631165 0.0017483718693256378
vn 0.0017453256295993924 -0.9999969601631165 -0.0017483718693256378
vn 0.0017453256295993924 -0.9999969601631165 -0.0017483718693256378
vn 0.0017453256295993924 -0.9999969601631165 -0.0017483718693256378
vn 0.0017453256295993924 -0.9999969601631165 -0.0017483718693256378
vn 0.0017453256295993924 -0.9999969601631165 -0.0017483718693256378
vn 0.0017453256295993924 -0.9999969601631165 -0.0017483718693256378
vn 0.0017453283071517944 -0.0017453256295993924 0.9999969601631165
vn 0.0017453283071517944 -0.0017453256295993924 0.9999969601631165
vn 0.0017453283071517944 -0.0017453256295993924 0.9999969601631165
vn 0.0017453283071517944 -0.0017453256295993924 0.9999969601631165
vn 0.0017453283071517944 -0.0017453256295993924 0.9999969601631165
vn 0.0017453283071517944 -0.0017453256295993924 0.9999969601631165
vn -0.0017453283071517944 0.0017453256295993924 -0.9999969601631165
vn -0.0017453283071517944 0.0017453256295993924 -0.9999969601631165
vn -0.0017453283071517944 0.0017453256295993924 -0.9999969601631165
vn -0.0017453283071517944 0.0017453256295993924 -0.9999969601631165
vn -0.0017453283071517944 0.0017453256295993924 -0.9999969601631165
vn -0.0017453283071517944 0.0017453256295993924 -0.9999969601631165
usemtl 2
f 17/73/73 19/74/74 18/75/75
f 19/76/76 20/77/77 18/78/78
usemtl 2
f 21/79/79 23/80/80 22/81/81
f 23/82/82 24/83/83 22/84/84
usemtl 2
f 21/85/85 22/86/86 18/87/87
f 22/88/88 17/89/89 18/90/90
usemtl 2
f 24/91/91 23/92/92 19/93/93
f 23/94/94 20/95/95 19/96/96
usemtl 2
f 22/97/97 24/98/98 17/99/99
f 24/100/100 19/101/101 17/102/102
usemtl 2
f 18/103/103 20/104/104 21/105/105
f 20/106/106 23/107/107 21/108/108
o 3
v 1.4956321431673132 1.0052375824889168 -1.5008608323987573
v 1.493886814743746 1.0069829082349315 -2.500857792561874
v 1.497377468913328 0.005240622325800359 -1.502609204268083
v 1.4956321404897608 0.0069859480718150735 -2.5026061644311994
v 0.4938898545806296 1.005234536365606 -2.4991155157331377
v 0.49563518300419673 1.0034892106195912 -1.4991185555700213
v 0.49563518032664433 0.005237576202489436 -2.5008638876024634
v 0.49738050875021145 0.0034922504564747214 -1.500866927439347
vt 0 1
vt 0 0.9375
vt 0.0625 1
vt 0 0.9375
vt 0.0625 0.9375
vt 0.0625 1
vt 0 1
vt 0 0.9375
vt 0.0625 1
vt 0 0.9375
vt 0.0625 0.9375
vt 0.0625 1
vt 0 1
vt 0 0.9375
vt 0.0625 1
vt 0 0.9375
vt 0.0625 0.9375
vt 0.0625 1
vt 0 1
vt 0 0.9375
vt 0.0625 1
vt 0 0.9375
vt 0.0625 0.9375
vt 0.0625 1
vt 0 1
vt 0 0.9375
vt 0.0625 1
vt 0 0.9375
vt 0.0625 0.9375
vt 0.0625 1
vt 0 1
vt 0 0.9375
vt 0.0625 1
vt 0 0.9375
vt 0.0625 0.9375
vt 0.0625 1
vn 0.9999969601631165 0.0017483718693256378 -0.0017422769451513886
vn 0.9999969601631165 0.0017483718693256378 -0.0017422769451513886
vn 0.9999969601631165 0.0017483718693256378 -0.0017422769451513886
vn 0.9999969601631165 0.0017483718693256378 -0.0017422769451513886
vn 0.9999969601631165 0.0017483718693256378 -0.0017422769451513886
vn 0.9999969601631165 0.0017483718693256378 -0.0017422769451513886
vn -0.9999969601631165 -0.0017483718693256378 0.0017422769451513886
vn -0.9999969601631165 -0.0017483718693256378 0.0017422769451513886
vn -0.9999969601631165 -0.0017483718693256378 0.0017422769451513886
vn -0.9999969601631165 -0.0017483718693256378 0.0017422769451513886
vn -0.9999969601631165 -0.0017483718693256378 0.0017422769451513886
vn -0.9999969601631165 -0.0017483718693256378 0.0017422769451513886
vn -0.0017453256295993924 0.9999969601631165 0.0017483718693256378
vn -0.0017453256295993924 0.9999969601631165 0.0017483718693256378
vn -0.0017453256295993924 0.9999969601631165 0.0017483718693256378
vn -0.0017453256295993924 0.9999969601631165 0.0017483718693256378
vn -0.0017453256295993924 0.9999969601631165 0.0017483718693256378
vn -0.0017453256295993924 0.9999969601631165 0.0017483718693256378
vn 0.0017453256295993924 -0.9999969601631165 -0.0017483718693256378
vn 0.0017453256295993924 -0.9999969601631165 -0.0017483718693256378
vn 0.0017453256295993924 -0.9999969601631165 -0.0017483718693256378
vn 0.0017453256295993924 -0.9999969601631165 -0.0017483718693256378
vn 0.0017453256295993924 -0.9999969601631165 -0.0017483718693256378
vn 0.0017453256295993924 -0.9999969601631165 -0.0017483718693256378
vn 0.0017453283071517944 -0.0017453256295993924 0.9999969601631165
vn 0.0017453283071517944 -0.0017453256295993924 0.9999969601631165
vn 0.0017453283071517944 -0.0017453256295993924 0.9999969601631165
vn 0.0017453283071517944 -0.0017453256295993924 0.9999969601631165
vn 0.0017453283071517944 -0.0017453256295993924 0.9999969601631165
vn 0.0017453283071517944 -0.0017453256295993924 0.9999969601631165
vn -0.0017453283071517944 0.0017453256295993924 -0.9999969601631165
vn -0.0017453283071517944 0.0017453256295993924 -0.9999969601631165
vn -0.0017453283071517944 0.0017453256295993924 -0.9999969601631165
vn -0.0017453283071517944 0.0017453256295993924 -0.9999969601631165
vn -0.0017453283071517944 0.0017453256295993924 -0.9999969601631165
vn -0.0017453283071517944 0.0017453256295993924 -0.9999969601631165
usemtl 2
f 25/109/109 27/110/110 26/111/111
f 27/112/112 28/113/113 26/114/114
usemtl 2
f 29/115/115 31/116/116 30/117/117
f 31/118/118 32/119/119 30/120/120
usemtl 2
f 29/121/121 30/122/122 26/123/123
f 30/124/124 25/125/125 26/126/126
usemtl 2
f 32/127/127 31/128/128 27/129/129
f 31/130/130 28/131/131 27/132/132
usemtl 2
f 30/133/133 32/134/134 25/135/135
f 32/136/136 27/137/137 25/138/138
usemtl 2
f 26/139/139 28/140/140 29/141/141
f 28/142/142 31/143/143 29/144/144
o 4
v 0.49388985749101266 2.0034861596068367 -1.4973701459821314
v 0.49214452906744555 2.0052314853528515 -2.497367106145248
v 0.4956351832370274 1.0034891994437203 -1.499118517851457
v 0.49388985481346026 1.005234525189735 -2.4991154780145735
v -0.5078524310956709 2.003483113483526 -2.4956248293165118
v -0.5061071026721038 2.001737787737511 -1.4956278691533953
v -0.5061071053496562 1.0034861533204094 -2.4973732011858374
v -0.5043617769260891 1.0017408275743946 -1.497376241022721
vt 0 1
vt 0 0.9375
vt 0.0625 1
vt 0 0.9375
vt 0.0625 0.9375
vt 0.0625 1
vt 0 1
vt 0 0.9375
vt 0.0625 1
vt 0 0.9375
vt 0.0625 0.9375
vt 0.0625 1
vt 0 1
vt 0 0.9375
vt 0.0625 1
vt 0 0.9375
vt 0.0625 0.9375
vt 0.0625 1
vt 0 1
vt 0 0.9375
vt 0.0625 1
vt 0 0.9375
vt 0.0625 0.9375
vt 0.0625 1
vt 0 1
vt 0 0.9375
vt 0.0625 1
vt 0 0.9375
vt 0.0625 0.9375
vt 0.0625 1
vt 0 1
vt 0 0.9375
vt 0.0625 1
vt 0 0.9375
vt 0.0625 0.9375
vt 0.0625 1
vn 0.9999969601631165 0.0017483718693256378 -0.0017422769451513886
vn 0.9999969601631165 0.0017483718693256378 -0.0017422769451513886
vn 0.9999969601631165 0.0017483718693256378 -0.0017422769451513886
vn 0.9999969601631165 0.0017483718693256378 -0.0017422769451513886
vn 0.9999969601631165 0.0017483718693256378 -0.0017422769451513886
vn 0.9999969601631165 0.0017483718693256378 -0.0017422769451513886
vn -0.9999969601631165 -0.0017483718693256378 0.0017422769451513886
vn -0.9999969601631165 -0.0017483718693256378 0.0017422769451513886
vn -0.9999969601631165 -0.0017483718693256378 0.0017422769451513886
vn -0.9999969601631165 -0.0017483718693256378 0.0017422769451513886
vn -0.9999969601631165 -0.0017483718693256378 0.0017422769451513886
vn -0.9999969601631165 -0.0017483718693256378 0.0017422769451513886
vn -0.0017453256295993924 0.9999969601631165 0.0017483718693256378
vn -0.0017453256295993924 0.9999969601631165 0.0017483718693256378
vn -0.0017453256295993924 0.9999969601631165 0.0017483718693256378
vn -0.0017453256295993924 0.9999969601631165 0.0017483718693256378
vn -0.0017453256295993924 0.9999969601631165 0.0017483718693256378
vn -0.0017453256295993924 0.9999969601631165 0.0017483718693256378
vn 0.0017453256295993924 -0.9999969601631165 -0.0017483718693256378
vn 0.0017453256295993924 -0.9999969601631165 -0.0017483718693256378
vn 0.0017453256295993924 -0.9999969601631165 -0.0017483718693256378
vn 0.0017453256295993924 -0.9999969601631165 -0.0017483718693256378
vn 0.0017453256295993924 -0.9999969601631165 -0.0017483718693256378
vn 0.0017453256295993924 -0.9999969601631165 -0.0017483718693256378
vn 0.0017453283071517944 -0.0017453256295993924 0.9999969601631165
vn 0.0017453283071517944 -0.0017453256295993924 0.9999969601631165
vn 0.0017453283071517944 -0.0017453256295993924 0.9999969601631165
vn 0.0017453283071517944 -0.0017453256295993924 0.9999969601631165
vn 0.0017453283071517944 -0.0017453256295993924 0.9999969601631165
vn 0.0017453283071517944 -0.0017453256295993924 0.9999969601631165
vn -0.0017453283071517944 0.0017453256295993924 -0.9999969601631165
vn -0.0017453283071517944 0.0017453256295993924 -0.9999969601631165
vn -0.0017453283071517944 0.0017453256295993924 -0.9999969601631165
vn -0.0017453283071517944 0.0017453256295993924 -0.9999969601631165
vn -0.0017453283071517944 0.0017453256295993924 -0.9999969601631165
vn -0.0017453283071517944 0.0017453256295993924 -0.9999969601631165
usemtl 2
f 33/145/145 35/146/146 34/147/147
f 35/148/148 36/149/149 34/150/150
usemtl 2
f 37/151/151 39/152/152 38/153/153
f 39/154/154 40/155/155 38/156/156
usemtl 2
f 37/157/157 38/158/158 34/159/159
f 38/160/160 33/161/161 34/162/162
usemtl 2
f 40/163/163 39/164/164 35/165/165
f 39/166/166 36/167/167 35/168/168
usemtl 2
f 38/169/169 40/170/170 33/171/171
f 40/172/172 35/173/173 33/174/174
usemtl 2
f 34/175/175 36/176/176 37/177/177
f 36/178/178 39/179/179 37/180/180
