mtllib tri_signal_light_g.mtl
o 0
v 0.9877796972286887 5.504349765717052 -1.4921220089308918
v 0.9860343688051216 5.506095091463067 -2.492118969094008
v 0.9912703487207182 3.504355845390819 -1.495618752669543
v 0.9895250202971511 3.5061011711368337 -2.4956157128326595
v -1.0139595515211113 5.502598347724415 -2.488634415436536
v -1.0122142230975442 5.500853021978401 -1.4886374552734196
v -1.0104689000290819 3.5026044273981825 -2.4921311591751873
v -1.0087235716055147 3.5008591016521677 -1.492134199012071
vt 0 1
vt 0 0.875
vt 0.0625 1
vt 0 0.875
vt 0.0625 0.875
vt 0.0625 1
vt 0 1
vt 0 0.875
vt 0.0625 1
vt 0 0.875
vt 0.0625 0.875
vt 0.0625 1
vt 0 1
vt 0 0.9375
vt 0.125 1
vt 0 0.9375
vt 0.125 0.9375
vt 0.125 1
vt 0 1
vt 0 0.9375
vt 0.125 1
vt 0 0.9375
vt 0.125 0.9375
vt 0.125 1
vt 0 1
vt 0 0.875
vt 0.125 1
vt 0 0.875
vt 0.125 0.875
vt 0.125 1
vt 0 1
vt 0 0.875
vt 0.125 1
vt 0 0.875
vt 0.125 0.875
vt 0.125 1
vn 0.9999969601631165 0.0017483718693256378 -0.0017422769451513886
vn 0.9999969601631165 0.0017483718693256378 -0.0017422769451513886
vn 0.9999969601631165 0.0017483718693256378 -0.0017422769451513886
vn 0.9999969601631165 0.0017483718693256378 -0.0017422769451513886
vn 0.9999969601631165 0.0017483718693256378 -0.0017422769451513886
vn 0.9999969601631165 0.0017483718693256378 -0.0017422769451513886
vn -0.9999969601631165 -0.0017483718693256378 0.0017422769451513886
vn -0.9999969601631165 -0.0017483718693256378 0.0017422769451513886
vn -0.9999969601631165 -0.0017483718693256378 0.0017422769451513886
vn -0.9999969601631165 -0.0017483718693256378 0.0017422769451513886
vn -0.9999969601631165 -0.0017483718693256378 0.0017422769451513886
vn -0.9999969601631165 -0.0017483718693256378 0.0017422769451513886
vn -0.0017453256295993924 0.9999969601631165 0.0017483718693256378
vn -0.0017453256295993924 0.9999969601631165 0.0017483718693256378
vn -0.0017453256295993924 0.9999969601631165 0.0017483718693256378
vn -0.0017453256295993924 0.9999969601631165 0.0017483718693256378
vn -0.0017453256295993924 0.9999969601631165 0.0017483718693256378
vn -0.0017453256295993924 0.9999969601631165 0.0017483718693256378
vn 0.0017453256295993924 -0.9999969601631165 -0.0017483718693256378
vn 0.0017453256295993924 -0.9999969601631165 -0.0017483718693256378
vn 0.0017453256295993924 -0.9999969601631165 -0.0017483718693256378
vn 0.0017453256295993924 -0.9999969601631165 -0.0017483718693256378
vn 0.0017453256295993924 -0.9999969601631165 -0.0017483718693256378
vn 0.0017453256295993924 -0.9999969601631165 -0.0017483718693256378
vn 0.0017453283071517944 -0.0017453256295993924 0.9999969601631165
vn 0.0017453283071517944 -0.0017453256295993924 0.9999969601631165
vn 0.0017453283071517944 -0.0017453256295993924 0.9999969601631165
vn 0.0017453283071517944 -0.0017453256295993924 0.9999969601631165
vn 0.0017453283071517944 -0.0017453256295993924 0.9999969601631165
vn 0.0017453283071517944 -0.0017453256295993924 0.9999969601631165
vn -0.0017453283071517944 0.0017453256295993924 -0.9999969601631165
vn -0.0017453283071517944 0.0017453256295993924 -0.9999969601631165
vn -0.0017453283071517944 0.0017453256295993924 -0.9999969601631165
vn -0.0017453283071517944 0.0017453256295993924 -0.9999969601631165
vn -0.0017453283071517944 0.0017453256295993924 -0.9999969601631165
vn -0.0017453283071517944 0.0017453256295993924 -0.9999969601631165
usemtl 1
f 1/1/1 3/2/2 2/3/3
f 3/4/4 4/5/5 2/6/6
usemtl 1
f 5/7/7 7/8/8 6/9/9
f 7/10/10 8/11/11 6/12/12
usemtl 1
f 5/13/13 6/14/14 2/15/15
f 6/16/16 1/17/17 2/18/18
usemtl 1
f 8/19/19 7/20/20 3/21/21
f 7/22/22 4/23/23 3/24/24
usemtl 1
f 6/25/25 8/26/26 1/27/27
f 8/28/28 3/29/29 1/30/30
usemtl 1
f 2/31/31 4/32/32 5/33/33
f 4/34/34 7/35/35 5/36/36
o 1
v 0.49039920553332195 4.00347996072378 -1.4938734991010278
v 0.48865387710975483 4.005225286469795 -2.4938704592641443
v 0.49214453127933666 3.0034830005606636 -1.4956218709703535
v 0.49039920285576954 3.0052283263066784 -2.49561883113347
v -0.5113430830533616 4.003476914600469 -2.4921281824354082
v -0.5095977546297945 4.0017315888544545 -1.4921312222722918
v -0.5095977573073469 3.0034799544373527 -2.493876554304734
v -0.5078524288837798 3.001734628691338 -1.4938795941416174
vt 0 1
vt 0 0.9375
vt 0.0625 1
vt 0 0.9375
vt 0.0625 0.9375
vt 0.0625 1
vt 0 1
vt 0 0.9375
vt 0.0625 1
vt 0 0.9375
vt 0.0625 0.9375
vt 0.0625 1
vt 0 1
vt 0 0.9375
vt 0.0625 1
vt 0 0.9375
vt 0.0625 0.9375
vt 0.0625 1
vt 0 1
vt 0 0.9375
vt 0.0625 1
vt 0 0.9375
vt 0.0625 0.9375
vt 0.0625 1
vt 0 1
vt 0 0.9375
vt 0.0625 1
vt 0 0.9375
vt 0.0625 0.9375
vt 0.0625 1
vt 0 1
vt 0 0.9375
vt 0.0625 1
vt 0 0.9375
vt 0.0625 0.9375
vt 0.0625 1
vn 0.9999969601631165 0.0017483718693256378 -0.0017422769451513886
vn 0.9999969601631165 0.0017483718693256378 -0.0017422769451513886
vn 0.9999969601631165 0.0017483718693256378 -0.0017422769451513886
vn 0.9999969601631165 0.0017483718693256378 -0.0017422769451513886
vn 0.9999969601631165 0.0017483718693256378 -0.0017422769451513886
vn 0.9999969601631165 0.0017483718693256378 -0.0017422769451513886
vn -0.9999969601631165 -0.0017483718693256378 0.0017422769451513886
vn -0.9999969601631165 -0.0017483718693256378 0.0017422769451513886
vn -0.9999969601631165 -0.0017483718693256378 0.0017422769451513886
vn -0.9999969601631165 -0.0017483718693256378 0.0017422769451513886
vn -0.9999969601631165 -0.0017483718693256378 0.0017422769451513886
vn -0.9999969601631165 -0.0017483718693256378 0.0017422769451513886
vn -0.0017453256295993924 0.9999969601631165 0.0017483718693256378
vn -0.0017453256295993924 0.9999969601631165 0.0017483718693256378
vn -0.0017453256295993924 0.9999969601631165 0.0017483718693256378
vn -0.0017453256295993924 0.9999969601631165 0.0017483718693256378
vn -0.0017453256295993924 0.9999969601631165 0.0017483718693256378
vn -0.0017453256295993924 0.9999969601631165 0.0017483718693256378
vn 0.0017453256295993924 -0.9999969601631165 -0.0017483718693256378
vn 0.0017453256295993924 -0.9999969601631165 -0.0017483718693256378
vn 0.0017453256295993924 -0.9999969601631165 -0.0017483718693256378
vn 0.0017453256295993924 -0.9999969601631165 -0.0017483718693256378
vn 0.0017453256295993924 -0.9999969601631165 -0.0017483718693256378
vn 0.0017453256295993924 -0.9999969601631165 -0.0017483718693256378
vn 0.0017453283071517944 -0.0017453256295993924 0.9999969601631165
vn 0.0017453283071517944 -0.0017453256295993924 0.9999969601631165
vn 0.0017453283071517944 -0.0017453256295993924 0.9999969601631165
vn 0.0017453283071517944 -0.0017453256295993924 0.9999969601631165
vn 0.0017453283071517944 -0.0017453256295993924 0.9999969601631165
vn 0.0017453283071517944 -0.0017453256295993924 0.9999969601631165
vn -0.0017453283071517944 0.0017453256295993924 -0.9999969601631165
vn -0.0017453283071517944 0.0017453256295993924 -0.9999969601631165
vn -0.0017453283071517944 0.0017453256295993924 -0.9999969601631165
vn -0.0017453283071517944 0.0017453256295993924 -0.9999969601631165
vn -0.0017453283071517944 0.0017453256295993924 -0.9999969601631165
vn -0.0017453283071517944 0.0017453256295993924 -0.9999969601631165
usemtl 1
f 9/37/37 11/38/38 10/39/39
f 11/40/40 12/41/41 10/42/42
usemtl 1
f 13/43/43 15/44/44 14/45/45
f 15/46/46 16/47/47 14/48/48
usemtl 1
f 13/49/49 14/50/50 10/51/51
f 14/52/52 9/53/53 10/54/54
usemtl 1
f 16/55/55 15/56/56 11/57/57
f 15/58/58 12/59/59 11/60/60
usemtl 1
f 14/61/61 16/62/62 9/63/63
f 16/64/64 11/65/65 9/66/66
usemtl 1
f 10/67/67 12/68/68 13/69/69
f 12/70/70 15/71/71 13/72/72
o 2
v 1.488650829938706 5.0052251847228035 -1.4938673002179712
v 1.486905501515139 5.006970510468818 -2.4938642603810877
v 1.4903961556847207 4.005228224559687 -1.4956156720872968
v 1.4886508272611536 4.006973550305702 -2.4956126322504133
v 0.48690854135202244 5.005222138599493 -2.4921219835523516
v 0.48865386977558956 5.003476812853478 -1.4921250233892351
v 0.48865386709803715 4.005225178436376 -2.4938703554216772
v 0.49039919552160427 4.003479852690361 -1.4938733952585608
vt 0 1
vt 0 0.9375
vt 0.0625 1
vt 0 0.9375
vt 0.0625 0.9375
vt 0.0625 1
vt 0 1
vt 0 0.9375
vt 0.0625 1
vt 0 0.9375
vt 0.0625 0.9375
vt 0.0625 1
vt 0 1
vt 0 0.9375
vt 0.0625 1
vt 0 0.9375
vt 0.0625 0.9375
vt 0.0625 1
vt 0 1
vt 0 0.9375
vt 0.0625 1
vt 0 0.9375
vt 0.0625 0.9375
vt 0.0625 1
vt 0 1
vt 0 0.9375
vt 0.0625 1
vt 0 0.9375
vt 0.0625 0.9375
vt 0.0625 1
vt 0 1
vt 0 0.9375
vt 0.0625 1
vt 0 0.9375
vt 0.0625 0.9375
vt 0.0625 1
vn 0.9999969601631165 0.0017483718693256378 -0.0017422769451513886
vn 0.9999969601631165 0.0017483718693256378 -0.0017422769451513886
vn 0.9999969601631165 0.0017483718693256378 -0.0017422769451513886
vn 0.9999969601631165 0.0017483718693256378 -0.0017422769451513886
vn 0.9999969601631165 0.0017483718693256378 -0.0017422769451513886
vn 0.9999969601631165 0.0017483718693256378 -0.0017422769451513886
vn -0.9999969601631165 -0.0017483718693256378 0.0017422769451513886
vn -0.9999969601631165 -0.0017483718693256378 0.0017422769451513886
vn -0.9999969601631165 -0.0017483718693256378 0.0017422769451513886
vn -0.9999969601631165 -0.0017483718693256378 0.0017422769451513886
vn -0.9999969601631165 -0.0017483718693256378 0.0017422769451513886
vn -0.9999969601631165 -0.0017483718693256378 0.0017422769451513886
vn -0.0017453256295993924 0.9999969601631165 0.0017483718693256378
vn -0.0017453256295993924 0.9999969601631165 0.0017483718693256378
vn -0.0017453256295993924 0.9999969601631165 0.0017483718693256378
vn -0.0017453256295993924 0.9999969601631165 0.0017483718693256378
vn -0.0017453256295993924 0.9999969601631165 0.0017483718693256378
vn -0.0017453256295993924 0.9999969601631165 0.0017483718693256378
vn 0.0017453256295993924 -0.9999969601631165 -0.0017483718693256378
vn 0.0017453256295993924 -0.9999969601631165 -0.0017483718693256378
vn 0.0017453256295993924 -0.9999969601631165 -0.0017483718693256378
vn 0.0017453256295993924 -0.9999969601631165 -0.0017483718693256378
vn 0.0017453256295993924 -0.9999969601631165 -0.0017483718693256378
vn 0.0017453256295993924 -0.9999969601631165 -0.0017483718693256378
vn 0.0017453283071517944 -0.0017453256295993924 0.9999969601631165
vn 0.0017453283071517944 -0.0017453256295993924 0.9999969601631165
vn 0.0017453283071517944 -0.0017453256295993924 0.9999969601631165
vn 0.0017453283071517944 -0.0017453256295993924 0.9999969601631165
vn 0.0017453283071517944 -0.0017453256295993924 0.9999969601631165
vn 0.0017453283071517944 -0.0017453256295993924 0.9999969601631165
vn -0.0017453283071517944 0.0017453256295993924 -0.9999969601631165
vn -0.0017453283071517944 0.0017453256295993924 -0.9999969601631165
vn -0.0017453283071517944 0.0017453256295993924 -0.9999969601631165
vn -0.0017453283071517944 0.0017453256295993924 -0.9999969601631165
vn -0.0017453283071517944 0.0017453256295993924 -0.9999969601631165
vn -0.0017453283071517944 0.0017453256295993924 -0.9999969601631165
usemtl 1
f 17/73/73 19/74/74 18/75/75
f 19/76/76 20/77/77 18/78/78
usemtl 1
f 21/79/79 23/80/80 22/81/81
f 23/82/82 24/83/83 22/84/84
usemtl 1
f 21/85/85 22/86/86 18/87/87
f 22/88/88 17/89/89 18/90/90
usemtl 1
f 24/91/91 23/92/92 19/93/93
f 23/94/94 20/95/95 19/96/96
usemtl 1
f 22/97/97 24/98/98 17/99/99
f 24/100/100 19/101/101 17/102/102
usemtl 1
f 18/103/103 20/104/104 21/105/105
f 20/106/106 23/107/107 21/108/108
o 3
v -0.5113430903875269 5.0017285378417 -1.4903828126844019
v -0.513088418811094 5.003473863587715 -2.4903797728475183
v -0.5095977646415122 4.001731577678584 -1.4921311845537275
v -0.5113430930650793 4.003476903424598 -2.492128144716844
v -1.5130853789742105 5.001725491718389 -2.4886374960187823
v -1.5113400505506434 4.999980165972374 -1.4886405358556658
v -1.5113400532281958 4.001728531555273 -2.490385867888108
v -1.5095947248046286 3.999983205809258 -1.4903889077249914
vt 0 1
vt 0 0.9375
vt 0.0625 1
vt 0 0.9375
vt 0.0625 0.9375
vt 0.0625 1
vt 0 1
vt 0 0.9375
vt 0.0625 1
vt 0 0.9375
vt 0.0625 0.9375
vt 0.0625 1
vt 0 1
vt 0 0.9375
vt 0.0625 1
vt 0 0.9375
vt 0.0625 0.9375
vt 0.0625 1
vt 0 1
vt 0 0.9375
vt 0.0625 1
vt 0 0.9375
vt 0.0625 0.9375
vt 0.0625 1
vt 0 1
vt 0 0.9375
vt 0.0625 1
vt 0 0.9375
vt 0.0625 0.9375
vt 0.0625 1
vt 0 1
vt 0 0.9375
vt 0.0625 1
vt 0 0.9375
vt 0.0625 0.9375
vt 0.0625 1
vn 0.9999969601631165 0.0017483718693256378 -0.0017422769451513886
vn 0.9999969601631165 0.0017483718693256378 -0.0017422769451513886
vn 0.9999969601631165 0.0017483718693256378 -0.0017422769451513886
vn 0.9999969601631165 0.0017483718693256378 -0.0017422769451513886
vn 0.9999969601631165 0.0017483718693256378 -0.0017422769451513886
vn 0.9999969601631165 0.0017483718693256378 -0.0017422769451513886
vn -0.9999969601631165 -0.0017483718693256378 0.0017422769451513886
vn -0.9999969601631165 -0.0017483718693256378 0.0017422769451513886
vn -0.9999969601631165 -0.0017483718693256378 0.0017422769451513886
vn -0.9999969601631165 -0.0017483718693256378 0.0017422769451513886
vn -0.9999969601631165 -0.0017483718693256378 0.0017422769451513886
vn -0.9999969601631165 -0.0017483718693256378 0.0017422769451513886
vn -0.0017453256295993924 0.9999969601631165 0.0017483718693256378
vn -0.0017453256295993924 0.9999969601631165 0.0017483718693256378
vn -0.0017453256295993924 0.9999969601631165 0.0017483718693256378
vn -0.0017453256295993924 0.9999969601631165 0.0017483718693256378
vn -0.0017453256295993924 0.9999969601631165 0.0017483718693256378
vn -0.0017453256295993924 0.9999969601631165 0.0017483718693256378
vn 0.0017453256295993924 -0.9999969601631165 -0.0017483718693256378
vn 0.0017453256295993924 -0.9999969601631165 -0.0017483718693256378
vn 0.0017453256295993924 -0.9999969601631165 -0.0017483718693256378
vn 0.0017453256295993924 -0.9999969601631165 -0.0017483718693256378
vn 0.0017453256295993924 -0.9999969601631165 -0.0017483718693256378
vn 0.0017453256295993924 -0.9999969601631165 -0.0017483718693256378
vn 0.0017453283071517944 -0.0017453256295993924 0.9999969601631165
vn 0.0017453283071517944 -0.0017453256295993924 0.9999969601631165
vn 0.0017453283071517944 -0.0017453256295993924 0.9999969601631165
vn 0.0017453283071517944 -0.0017453256295993924 0.9999969601631165
vn 0.0017453283071517944 -0.0017453256295993924 0.9999969601631165
vn 0.0017453283071517944 -0.0017453256295993924 0.9999969601631165
vn -0.0017453283071517944 0.0017453256295993924 -0.9999969601631165
vn -0.0017453283071517944 0.0017453256295993924 -0.9999969601631165
vn -0.0017453283071517944 0.0017453256295993924 -0.9999969601631165
vn -0.0017453283071517944 0.0017453256295993924 -0.9999969601631165
vn -0.0017453283071517944 0.0017453256295993924 -0.9999969601631165
vn -0.0017453283071517944 0.0017453256295993924 -0.9999969601631165
usemtl 1
f 25/109/109 27/110/110 26/111/111
f 27/112/112 28/113/113 26/114/114
usemtl 1
f 29/115/115 31/116/116 30/117/117
f 31/118/118 32/119/119 30/120/120
usemtl 1
f 29/121/121 30/122/122 26/123/123
f 30/124/124 25/125/125 26/126/126
usemtl 1
f 32/127/127 31/128/128 27/129/129
f 31/130/130 28/131/131 27/132/132
usemtl 1
f 30/133/133 32/134/134 25/135/135
f 32/136/136 27/137/137 25/138/138
usemtl 1
f 26/139/139 28/140/140 29/141/141
f 28/142/142 31/143/143 29/144/144
o 4
v 0.4869085545069538 6.0034737618407235 -1.4903767330106348
v 0.4851632260833867 6.005219087586738 -2.4903736931737512
v 0.4886538802529685 5.003476801677607 -1.4921251048799604
v 0.4869085518294014 5.005222127423622 -2.492122065043077
v -0.5148337340797298 6.0034707157174125 -2.488631416345015
v -0.5130884056561626 6.001725389971398 -1.4886344561818987
v -0.513088408333715 5.003473755554296 -2.490379788214341
v -0.5113430799101479 5.001728429808281 -1.4903828280512244
vt 0 1
vt 0 0.9375
vt 0.0625 1
vt 0 0.9375
vt 0.0625 0.9375
vt 0.0625 1
vt 0 1
vt 0 0.9375
vt 0.0625 1
vt 0 0.9375
vt 0.0625 0.9375
vt 0.0625 1
vt 0 1
vt 0 0.9375
vt 0.0625 1
vt 0 0.9375
vt 0.0625 0.9375
vt 0.0625 1
vt 0 1
vt 0 0.9375
vt 0.0625 1
vt 0 0.9375
vt 0.0625 0.9375
vt 0.0625 1
vt 0 1
vt 0 0.9375
vt 0.0625 1
vt 0 0.9375
vt 0.0625 0.9375
vt 0.0625 1
vt 0 1
vt 0 0.9375
vt 0.0625 1
vt 0 0.9375
vt 0.0625 0.9375
vt 0.0625 1
vn 0.9999969601631165 0.0017483718693256378 -0.0017422769451513886
vn 0.9999969601631165 0.0017483718693256378 -0.0017422769451513886
vn 0.9999969601631165 0.0017483718693256378 -0.0017422769451513886
vn 0.9999969601631165 0.0017483718693256378 -0.0017422769451513886
vn 0.9999969601631165 0.0017483718693256378 -0.0017422769451513886
vn 0.9999969601631165 0.0017483718693256378 -0.0017422769451513886
vn -0.9999969601631165 -0.0017483718693256378 0.0017422769451513886
vn -0.9999969601631165 -0.0017483718693256378 0.0017422769451513886
vn -0.9999969601631165 -0.0017483718693256378 0.0017422769451513886
vn -0.9999969601631165 -0.0017483718693256378 0.0017422769451513886
vn -0.9999969601631165 -0.0017483718693256378 0.0017422769451513886
vn -0.9999969601631165 -0.0017483718693256378 0.0017422769451513886
vn -0.0017453256295993924 0.9999969601631165 0.0017483718693256378
vn -0.0017453256295993924 0.9999969601631165 0.0017483718693256378
vn -0.0017453256295993924 0.9999969601631165 0.0017483718693256378
vn -0.0017453256295993924 0.9999969601631165 0.0017483718693256378
vn -0.0017453256295993924 0.9999969601631165 0.0017483718693256378
vn -0.0017453256295993924 0.9999969601631165 0.0017483718693256378
vn 0.0017453256295993924 -0.9999969601631165 -0.0017483718693256378
vn 0.0017453256295993924 -0.9999969601631165 -0.0017483718693256378
vn 0.0017453256295993924 -0.9999969601631165 -0.0017483718693256378
vn 0.0017453256295993924 -0.9999969601631165 -0.0017483718693256378
vn 0.0017453256295993924 -0.9999969601631165 -0.0017483718693256378
vn 0.0017453256295993924 -0.9999969601631165 -0.0017483718693256378
vn 0.0017453283071517944 -0.0017453256295993924 0.9999969601631165
vn 0.0017453283071517944 -0.0017453256295993924 0.9999969601631165
vn 0.0017453283071517944 -0.0017453256295993924 0.9999969601631165
vn 0.0017453283071517944 -0.0017453256295993924 0.9999969601631165
vn 0.0017453283071517944 -0.0017453256295993924 0.9999969601631165
vn 0.0017453283071517944 -0.0017453256295993924 0.9999969601631165
vn -0.0017453283071517944 0.0017453256295993924 -0.9999969601631165
vn -0.0017453283071517944 0.0017453256295993924 -0.9999969601631165
vn -0.0017453283071517944 0.0017453256295993924 -0.9999969601631165
vn -0.0017453283071517944 0.0017453256295993924 -0.9999969601631165
vn -0.0017453283071517944 0.0017453256295993924 -0.9999969601631165
vn -0.0017453283071517944 0.0017453256295993924 -0.9999969601631165
usemtl 1
f 33/145/145 35/146/146 34/147/147
f 35/148/148 36/149/149 34/150/150
usemtl 1
f 37/151/151 39/152/152 38/153/153
f 39/154/154 40/155/155 38/156/156
usemtl 1
f 37/157/157 38/158/158 34/159/159
f 38/160/160 33/161/161 34/162/162
usemtl 1
f 40/163/163 39/164/164 35/165/165
f 39/166/166 36/167/167 35/168/168
usemtl 1
f 38/169/169 40/170/170 33/171/171
f 40/172/172 35/173/173 33/174/174
usemtl 1
f 34/175/175 36/176/176 37/177/177
f 36/178/178 39/179/179 37/180/180
