mtllib platform_light_full_light.mtl
o 0
v 8 0.9238798469305038 -3.617316707968712
v 8 1.3065632730722427 -4.541196212172508
v 8 0 -4
v 8 0.38268376886844635 -4.923879638314247
v -8 1.3065632730722427 -4.541196212172508
v -8 0.9238798469305038 -3.617316707968712
v -8 0.38268376886844635 -4.923879638314247
v -8 0 -4
vt 0 1
vt 0 0.9375
vt 0.0625 1
vt 0 0.9375
vt 0.0625 0.9375
vt 0.0625 1
vt 0 1
vt 0 0.9375
vt 0.0625 1
vt 0 0.9375
vt 0.0625 0.9375
vt 0.0625 1
vt 0 1
vt 0 0.9375
vt 1 1
vt 0 0.9375
vt 1 0.9375
vt 1 1
vt 0 1
vt 0 0.9375
vt 1 1
vt 0 0.9375
vt 1 0.9375
vt 1 1
vt 0 1
vt 0 0.9375
vt 1 1
vt 0 0.9375
vt 1 0.9375
vt 1 1
vt 0 1
vt 0 0.9375
vt 1 1
vt 0 0.9375
vt 1 0.9375
vt 1 1
vn 1 0 0
vn 1 0 0
vn 1 0 0
vn 1 0 0
vn 1 0 0
vn 1 0 0
vn -1 0 0
vn -1 0 0
vn -1 0 0
vn -1 0 0
vn -1 0 0
vn -1 0 0
vn 0 0.9238795638084412 0.3826834559440613
vn 0 0.9238795638084412 0.3826834559440613
vn 0 0.9238795638084412 0.3826834559440613
vn 0 0.9238795638084412 0.3826834559440613
vn 0 0.9238795638084412 0.3826834559440613
vn 0 0.9238795638084412 0.3826834559440613
vn 0 -0.9238795638084412 -0.3826834559440613
vn 0 -0.9238795638084412 -0.3826834559440613
vn 0 -0.9238795638084412 -0.3826834559440613
vn 0 -0.9238795638084412 -0.3826834559440613
vn 0 -0.9238795638084412 -0.3826834559440613
vn 0 -0.9238795638084412 -0.3826834559440613
vn 0 -0.3826834559440613 0.9238795638084412
vn 0 -0.3826834559440613 0.9238795638084412
vn 0 -0.3826834559440613 0.9238795638084412
vn 0 -0.3826834559440613 0.9238795638084412
vn 0 -0.3826834559440613 0.9238795638084412
vn 0 -0.3826834559440613 0.9238795638084412
vn 0 0.3826834559440613 -0.9238795638084412
vn 0 0.3826834559440613 -0.9238795638084412
vn 0 0.3826834559440613 -0.9238795638084412
vn 0 0.3826834559440613 -0.9238795638084412
vn 0 0.3826834559440613 -0.9238795638084412
vn 0 0.3826834559440613 -0.9238795638084412
usemtl 1
f 1/1/1 3/2/2 2/3/3
f 3/4/4 4/5/5 2/6/6
usemtl 1
f 5/7/7 7/8/8 6/9/9
f 7/10/10 8/11/11 6/12/12
usemtl 1
f 5/13/13 6/14/14 2/15/15
f 6/16/16 1/17/17 2/18/18
usemtl 1
f 8/19/19 7/20/20 3/21/21
f 7/22/22 4/23/23 3/24/24
usemtl 1
f 6/25/25 8/26/26 1/27/27
f 8/28/28 3/29/29 1/30/30
usemtl 1
f 2/31/31 4/32/32 5/33/33
f 4/34/34 7/35/35 5/36/36
o 1
v 8 1.3065627962350845 4.541196212172508
v 8 0.9238793700933456 3.617316707968712
v 8 0.38268329203128815 4.923879638314247
v 8 0 4
v -8 0.9238793700933456 3.617316707968712
v -8 1.3065627962350845 4.541196212172508
v -8 0 4
v -8 0.38268329203128815 4.923879638314247
vt 0 1
vt 0 0.9375
vt 0.0625 1
vt 0 0.9375
vt 0.0625 0.9375
vt 0.0625 1
vt 0 1
vt 0 0.9375
vt 0.0625 1
vt 0 0.9375
vt 0.0625 0.9375
vt 0.0625 1
vt 0 1
vt 0 0.9375
vt 1 1
vt 0 0.9375
vt 1 0.9375
vt 1 1
vt 0 1
vt 0 0.9375
vt 1 1
vt 0 0.9375
vt 1 0.9375
vt 1 1
vt 0 1
vt 0 0.9375
vt 1 1
vt 0 0.9375
vt 1 0.9375
vt 1 1
vt 0 1
vt 0 0.9375
vt 1 1
vt 0 0.9375
vt 1 0.9375
vt 1 1
vn 1 0 0
vn 1 0 0
vn 1 0 0
vn 1 0 0
vn 1 0 0
vn 1 0 0
vn -1 0 0
vn -1 0 0
vn -1 0 0
vn -1 0 0
vn -1 0 0
vn -1 0 0
vn 0 0.9238795638084412 -0.3826834559440613
vn 0 0.9238795638084412 -0.3826834559440613
vn 0 0.9238795638084412 -0.3826834559440613
vn 0 0.9238795638084412 -0.3826834559440613
vn 0 0.9238795638084412 -0.3826834559440613
vn 0 0.9238795638084412 -0.3826834559440613
vn 0 -0.9238795638084412 0.3826834559440613
vn 0 -0.9238795638084412 0.3826834559440613
vn 0 -0.9238795638084412 0.3826834559440613
vn 0 -0.9238795638084412 0.3826834559440613
vn 0 -0.9238795638084412 0.3826834559440613
vn 0 -0.9238795638084412 0.3826834559440613
vn 0 0.3826834559440613 0.9238795638084412
vn 0 0.3826834559440613 0.9238795638084412
vn 0 0.3826834559440613 0.9238795638084412
vn 0 0.3826834559440613 0.9238795638084412
vn 0 0.3826834559440613 0.9238795638084412
vn 0 0.3826834559440613 0.9238795638084412
vn 0 -0.3826834559440613 -0.9238795638084412
vn 0 -0.3826834559440613 -0.9238795638084412
vn 0 -0.3826834559440613 -0.9238795638084412
vn 0 -0.3826834559440613 -0.9238795638084412
vn 0 -0.3826834559440613 -0.9238795638084412
vn 0 -0.3826834559440613 -0.9238795638084412
usemtl 1
f 9/37/37 11/38/38 10/39/39
f 11/40/40 12/41/41 10/42/42
usemtl 1
f 13/43/43 15/44/44 14/45/45
f 15/46/46 16/47/47 14/48/48
usemtl 1
f 13/49/49 14/50/50 10/51/51
f 14/52/52 9/53/53 10/54/54
usemtl 1
f 16/55/55 15/56/56 11/57/57
f 15/58/58 12/59/59 11/60/60
usemtl 1
f 14/61/61 16/62/62 9/63/63
f 16/64/64 11/65/65 9/66/66
usemtl 1
f 10/67/67 12/68/68 13/69/69
f 12/70/70 15/71/71 13/72/72
