# Blender v2.79 (sub 0) OBJ File: ''
# www.blender.org
mtllib platform_light_half_base.mtl
o 0
v 8.017429 -5.992976 3.975558
v 8.020920 -7.992970 3.972061
v 8.003467 -5.979013 -4.024417
v 8.006957 -7.979007 -4.027915
v -7.996485 -6.006987 -3.996541
v -7.992994 -8.006980 -4.000039
v -7.982522 -6.020950 4.003435
v -7.979032 -8.020945 3.999938
vt 0.000000 1.000000
vt 0.000000 0.875000
vt 0.500000 1.000000
vt 0.500000 0.875000
vt 0.000000 1.000000
vt 0.000000 0.875000
vt 0.500000 1.000000
vt 0.500000 0.875000
vt 0.000000 0.500000
vt 1.000000 1.000000
vt 1.000000 0.500000
vt 0.000000 1.000000
vt 0.000000 0.500000
vt 1.000000 1.000000
vt 1.000000 0.500000
vt 0.000000 1.000000
vt 0.000000 0.875000
vt 1.000000 1.000000
vt 1.000000 0.875000
vt 0.000000 1.000000
vt 0.000000 0.875000
vt 1.000000 1.000000
vt 1.000000 0.875000
vn 1.0000 0.0017 -0.0017
vn -1.0000 -0.0017 0.0017
vn -0.0017 1.0000 0.0017
vn 0.0017 -1.0000 -0.0017
vn 0.0017 -0.0017 1.0000
vn -0.0017 0.0017 -1.0000
usemtl 0
s 1
f 1/1/1 2/2/1 3/3/1
f 2/2/1 4/4/1 3/3/1
f 5/5/2 6/6/2 7/7/2
f 6/6/2 8/8/2 7/7/2
f 5/5/3 7/9/3 3/10/3
f 7/9/3 1/11/3 3/10/3
f 8/12/4 6/13/4 2/14/4
f 6/13/4 4/15/4 2/14/4
f 7/16/5 8/17/5 1/18/5
f 8/17/5 2/19/5 1/18/5
f 3/20/6 4/21/6 5/22/6
f 4/21/6 6/23/6 5/22/6
o 1
v 8.011722 0.012242 0.986058
v 8.013467 -5.987755 3.484310
v 8.008230 0.015733 -1.013936
v 8.009975 -5.984264 -3.515684
v -7.991721 -0.012241 -0.986059
v -7.989975 -6.012239 -3.487808
v -7.988230 -0.015732 1.013935
v -7.986485 -6.015729 3.512186
vt 0.613719 0.804288
vt 0.886389 0.695580
vt 0.613605 0.891212
vt 0.886389 0.999812
vt 0.000000 0.804368
vt 0.272784 0.695768
vt 0.000113 0.891291
vt 0.272784 1.000000
vt 1.000000 0.695389
vt 0.909091 0.695389
vt 1.000000 0.000000
vt 0.909091 0.000000
vt 0.000000 0.000000
vt 0.318182 0.000379
vt 0.000000 0.695389
vt 0.318182 0.695768
vt 0.613605 0.695389
vt 0.318182 0.695958
vt 0.613605 0.000000
vt 0.318182 0.000569
vt 0.613605 0.000000
vt 0.909091 0.000191
vt 0.613605 0.695389
vt 0.909091 0.695580
vn 1.0000 -0.0004 -0.0017
vn 1.0000 0.0003 -0.0008
vn 1.0000 0.0001 -0.0011
vn 1.0000 0.0005 -0.0005
vn -1.0000 -0.0010 0.0017
vn -1.0000 -0.0003 0.0008
vn -1.0000 -0.0005 0.0011
vn -1.0000 -0.0001 0.0005
vn -0.0017 1.0000 0.0017
vn 0.0017 -1.0000 -0.0005
vn 0.0009 0.3844 0.9232
vn -0.0023 0.3848 -0.9230
usemtl 0
s 1
f 9/24/7 10/25/8 11/26/9
f 10/25/8 12/27/10 11/26/9
f 13/28/11 14/29/12 15/30/13
f 14/29/12 16/31/14 15/30/13
f 13/32/15 15/33/15 11/34/15
f 15/33/15 9/35/15 11/34/15
f 16/36/16 14/37/16 10/38/16
f 14/37/16 12/39/16 10/38/16
f 15/40/17 16/41/17 9/42/17
f 16/41/17 10/43/17 9/42/17
f 11/44/18 12/45/18 13/46/18
f 12/45/18 14/47/18 13/46/18
