mtllib platform_light_half_light.mtl
o 0
v 8.002521785936551 -3.0593010783195496 -1.6366286240518093
v 8.000241405592533 -2.675006330013275 -2.5598362646996975
v 8.00346634836751 -3.9825098514556885 -2.020926173776388
v 8.001185968023492 -3.598215103149414 -2.9441338144242764
v -7.9997099570173305 -2.7029802799224854 -2.5319598354399204
v -7.997429576673312 -3.0872750282287598 -1.6087521947920322
v -7.998765394586371 -3.6261890530586243 -2.9162573851644993
v -7.996485014242353 -4.010483801364899 -1.993049744516611
vt 0 1
vt 0 0.9375
vt 0.0625 1
vt 0 0.9375
vt 0.0625 0.9375
vt 0.0625 1
vt 0 1
vt 0 0.9375
vt 0.0625 1
vt 0 0.9375
vt 0.0625 0.9375
vt 0.0625 1
vt 0 1
vt 0 0.9375
vt 1 1
vt 0 0.9375
vt 1 0.9375
vt 1 1
vt 0 1
vt 0 0.9375
vt 1 1
vt 0 0.9375
vt 1 0.9375
vt 1 1
vt 0 1
vt 0 0.9375
vt 1 1
vt 0 0.9375
vt 1 0.9375
vt 1 1
vt 0 1
vt 0 0.9375
vt 1 1
vt 0 0.9375
vt 1 0.9375
vt 1 1
vn 0.9999969601631165 0.0017483718693256378 -0.0017422768287360668
vn 0.9999969601631165 0.0017483718693256378 -0.0017422768287360668
vn 0.9999969601631165 0.0017483718693256378 -0.0017422768287360668
vn 0.9999969601631165 0.0017483718693256378 -0.0017422768287360668
vn 0.9999969601631165 0.0017483718693256378 -0.0017422768287360668
vn 0.9999969601631165 0.0017483718693256378 -0.0017422768287360668
vn -0.9999969601631165 -0.0017483718693256378 0.0017422768287360668
vn -0.9999969601631165 -0.0017483718693256378 0.0017422768287360668
vn -0.9999969601631165 -0.0017483718693256378 0.0017422768287360668
vn -0.9999969601631165 -0.0017483718693256378 0.0017422768287360668
vn -0.9999969601631165 -0.0017483718693256378 0.0017422768287360668
vn -0.9999969601631165 -0.0017483718693256378 0.0017422768287360668
vn -0.0009445624309591949 0.9232088327407837 0.38429757952690125
vn -0.0009445624309591949 0.9232088327407837 0.38429757952690125
vn -0.0009445624309591949 0.9232088327407837 0.38429757952690125
vn -0.0009445624309591949 0.9232088327407837 0.38429757952690125
vn -0.0009445624309591949 0.9232088327407837 0.38429757952690125
vn -0.0009445624309591949 0.9232088327407837 0.38429757952690125
vn 0.0009445624309591949 -0.9232088327407837 -0.38429757952690125
vn 0.0009445624309591949 -0.9232088327407837 -0.38429757952690125
vn 0.0009445624309591949 -0.9232088327407837 -0.38429757952690125
vn 0.0009445624309591949 -0.9232088327407837 -0.38429757952690125
vn 0.0009445624309591949 -0.9232088327407837 -0.38429757952690125
vn 0.0009445624309591949 -0.9232088327407837 -0.38429757952690125
vn 0.00228038034401834 -0.3842947483062744 0.9232076406478882
vn 0.00228038034401834 -0.3842947483062744 0.9232076406478882
vn 0.00228038034401834 -0.3842947483062744 0.9232076406478882
vn 0.00228038034401834 -0.3842947483062744 0.9232076406478882
vn 0.00228038034401834 -0.3842947483062744 0.9232076406478882
vn 0.00228038034401834 -0.3842947483062744 0.9232076406478882
vn -0.00228038034401834 0.3842947483062744 -0.9232076406478882
vn -0.00228038034401834 0.3842947483062744 -0.9232076406478882
vn -0.00228038034401834 0.3842947483062744 -0.9232076406478882
vn -0.00228038034401834 0.3842947483062744 -0.9232076406478882
vn -0.00228038034401834 0.3842947483062744 -0.9232076406478882
vn -0.00228038034401834 0.3842947483062744 -0.9232076406478882
usemtl 1
f 1/1/1 3/2/2 2/3/3
f 3/4/4 4/5/5 2/6/6
usemtl 1
f 5/7/7 7/8/8 6/9/9
f 7/10/10 8/11/11 6/12/12
usemtl 1
f 5/13/13 6/14/14 2/15/15
f 6/16/16 1/17/17 2/18/18
usemtl 1
f 8/19/19 7/20/20 3/21/21
f 7/22/22 4/23/23 3/24/24
usemtl 1
f 6/25/25 8/26/26 1/27/27
f 8/28/28 3/29/29 1/30/30
usemtl 1
f 2/31/31 4/32/32 5/33/33
f 4/34/34 7/35/35 5/36/36
o 1
v 8.009111850959016 -2.683876633644104 2.5225418843328953
v 8.008167285035597 -3.064946413040161 1.5979961194097996
v 8.01139222990605 -3.608421266078949 2.903608862310648
v 8.010447663982632 -3.989491045475006 1.9790630973875523
v -7.991784077574266 -3.0929203629493713 1.6258725486695766
v -7.990839511650847 -2.711850583553314 2.5504183135926723
v -7.989503698627232 -4.017464995384216 2.0069395266473293
v -7.988559132703813 -3.636395215988159 2.931485291570425
vt 0 1
vt 0 0.9375
vt 0.0625 1
vt 0 0.9375
vt 0.0625 0.9375
vt 0.0625 1
vt 0 1
vt 0 0.9375
vt 0.0625 1
vt 0 0.9375
vt 0.0625 0.9375
vt 0.0625 1
vt 0 1
vt 0 0.9375
vt 1 1
vt 0 0.9375
vt 1 0.9375
vt 1 1
vt 0 1
vt 0 0.9375
vt 1 1
vt 0 0.9375
vt 1 0.9375
vt 1 1
vt 0 1
vt 0 0.9375
vt 1 1
vt 0 0.9375
vt 1 0.9375
vt 1 1
vt 0 1
vt 0 0.9375
vt 1 1
vt 0 0.9375
vt 1 0.9375
vt 1 1
vn 0.9999969601631165 0.0017483718693256378 -0.0017422768287360668
vn 0.9999969601631165 0.0017483718693256378 -0.0017422768287360668
vn 0.9999969601631165 0.0017483718693256378 -0.0017422768287360668
vn 0.9999969601631165 0.0017483718693256378 -0.0017422768287360668
vn 0.9999969601631165 0.0017483718693256378 -0.0017422768287360668
vn 0.9999969601631165 0.0017483718693256378 -0.0017422768287360668
vn -0.9999969601631165 -0.0017483718693256378 0.0017422768287360668
vn -0.9999969601631165 -0.0017483718693256378 0.0017422768287360668
vn -0.9999969601631165 -0.0017483718693256378 0.0017422768287360668
vn -0.9999969601631165 -0.0017483718693256378 0.0017422768287360668
vn -0.9999969601631165 -0.0017483718693256378 0.0017422768287360668
vn -0.9999969601631165 -0.0017483718693256378 0.0017422768287360668
vn -0.002280378947034478 0.924544632434845 -0.3810669779777527
vn -0.002280378947034478 0.924544632434845 -0.3810669779777527
vn -0.002280378947034478 0.924544632434845 -0.3810669779777527
vn -0.002280378947034478 0.924544632434845 -0.3810669779777527
vn -0.002280378947034478 0.924544632434845 -0.3810669779777527
vn -0.002280378947034478 0.924544632434845 -0.3810669779777527
vn 0.002280378947034478 -0.924544632434845 0.3810669779777527
vn 0.002280378947034478 -0.924544632434845 0.3810669779777527
vn 0.002280378947034478 -0.924544632434845 0.3810669779777527
vn 0.002280378947034478 -0.924544632434845 0.3810669779777527
vn 0.002280378947034478 -0.924544632434845 0.3810669779777527
vn 0.002280378947034478 -0.924544632434845 0.3810669779777527
vn 0.0009445659234188497 0.3810698091983795 0.9245458245277405
vn 0.0009445659234188497 0.3810698091983795 0.9245458245277405
vn 0.0009445659234188497 0.3810698091983795 0.9245458245277405
vn 0.0009445659234188497 0.3810698091983795 0.9245458245277405
vn 0.0009445659234188497 0.3810698091983795 0.9245458245277405
vn 0.0009445659234188497 0.3810698091983795 0.9245458245277405
vn -0.0009445659234188497 -0.3810698091983795 -0.9245458245277405
vn -0.0009445659234188497 -0.3810698091983795 -0.9245458245277405
vn -0.0009445659234188497 -0.3810698091983795 -0.9245458245277405
vn -0.0009445659234188497 -0.3810698091983795 -0.9245458245277405
vn -0.0009445659234188497 -0.3810698091983795 -0.9245458245277405
vn -0.0009445659234188497 -0.3810698091983795 -0.9245458245277405
usemtl 1
f 9/37/37 11/38/38 10/39/39
f 11/40/40 12/41/41 10/42/42
usemtl 1
f 13/43/43 15/44/44 14/45/45
f 15/46/46 16/47/47 14/48/48
usemtl 1
f 13/49/49 14/50/50 10/51/51
f 14/52/52 9/53/53 10/54/54
usemtl 1
f 16/55/55 15/56/56 11/57/57
f 15/58/58 12/59/59 11/60/60
usemtl 1
f 14/61/61 16/62/62 9/63/63
f 16/64/64 11/65/65 9/66/66
usemtl 1
f 10/67/67 12/68/68 13/69/69
f 12/70/70 15/71/71 13/72/72
