# Made in Blockbench 2.3.2
mtllib station_lamp_back.mtl
o down
v 7.88985302514366 -2.0723933809805426 -7.917411503521809
v 7.88985302514366 -2.0723933809805426 -7.917411503521809
v 7.899975914247809 -7.872375682352036 -7.927552060391456
v 7.899975914247809 -7.872375682352036 -7.927552060391456
v -7.910098845352884 -2.100017656590961 -7.889883528845859
v -7.910098845352884 -2.100017656590961 -7.889883528845859
v -7.899975956248735 -7.899999957962454 -7.900024085715506
v -7.899975956248735 -7.899999957962454 -7.900024085715506
vt 0 1
vt 0 0.625
vt 0 1
vt 0 0.625
vt 0 0.625
vt 0 1
vt 0 1
vt 0 0.625
vt 0 1
vt 0 0.625
vt 0 0.625
vt 0 1
vt 0 1
vt 0 1
vt 1 1
vt 0 1
vt 1 1
vt 1 1
vt 0 1
vt 0 1
vt 1 1
vt 0 1
vt 1 1
vt 1 1
vt 0 1
vt 0 1
vt 0 1
vt 0 1
vt 0 1
vt 0 1
vt 0 1
vt 0 0.625
vt 1 1
vt 0 0.625
vt 1 0.625
vt 1 1
vn 0.9999969538288952 0.001748371874077093 -0.001742276878224663
vn 0.9999969538288952 0.001748371874077093 -0.001742276878224663
vn 0.9999969538288952 0.001748371874077093 -0.001742276878224663
vn 0.9999969538288952 0.001748371874077093 -0.001742276878224663
vn 0.9999969538288952 0.001748371874077093 -0.001742276878224663
vn 0.9999969538288952 0.001748371874077093 -0.001742276878224663
vn -0.9999969538288952 -0.001748371874077093 0.001742276878224663
vn -0.9999969538288952 -0.001748371874077093 0.001742276878224663
vn -0.9999969538288952 -0.001748371874077093 0.001742276878224663
vn -0.9999969538288952 -0.001748371874077093 0.001742276878224663
vn -0.9999969538288952 -0.001748371874077093 0.001742276878224663
vn -0.9999969538288952 -0.001748371874077093 0.001742276878224663
vn -0.0017453257076118665 0.9999969485123263 0.0017483718740770927
vn -0.0017453257076118665 0.9999969485123263 0.0017483718740770927
vn -0.0017453257076118665 0.9999969485123263 0.0017483718740770927
vn -0.0017453257076118665 0.9999969485123263 0.0017483718740770927
vn -0.0017453257076118665 0.9999969485123263 0.0017483718740770927
vn -0.0017453257076118665 0.9999969485123263 0.0017483718740770927
vn 0.0017453257076118665 -0.9999969485123263 -0.0017483718740770927
vn 0.0017453257076118665 -0.9999969485123263 -0.0017483718740770927
vn 0.0017453257076118665 -0.9999969485123263 -0.0017483718740770927
vn 0.0017453257076118665 -0.9999969485123263 -0.0017483718740770927
vn 0.0017453257076118665 -0.9999969485123263 -0.0017483718740770927
vn 0.0017453257076118665 -0.9999969485123263 -0.0017483718740770927
vn 0.0017453283658983088 -0.0017453257076118663 0.9999969538288952
vn 0.0017453283658983088 -0.0017453257076118663 0.9999969538288952
vn 0.0017453283658983088 -0.0017453257076118663 0.9999969538288952
vn 0.0017453283658983088 -0.0017453257076118663 0.9999969538288952
vn 0.0017453283658983088 -0.0017453257076118663 0.9999969538288952
vn 0.0017453283658983088 -0.0017453257076118663 0.9999969538288952
vn -0.0017453283658983088 0.0017453257076118663 -0.9999969538288952
vn -0.0017453283658983088 0.0017453257076118663 -0.9999969538288952
vn -0.0017453283658983088 0.0017453257076118663 -0.9999969538288952
vn -0.0017453283658983088 0.0017453257076118663 -0.9999969538288952
vn -0.0017453283658983088 0.0017453257076118663 -0.9999969538288952
vn -0.0017453283658983088 0.0017453257076118663 -0.9999969538288952
usemtl 1
f 1/1/1 3/2/2 2/3/3
f 3/4/4 4/5/5 2/6/6
usemtl 1
f 5/7/7 7/8/8 6/9/9
f 7/10/10 8/11/11 6/12/12
usemtl 1
f 5/13/13 6/14/14 2/15/15
f 6/16/16 1/17/17 2/18/18
usemtl 1
f 8/19/19 7/20/20 3/21/21
f 7/22/22 4/23/23 3/24/24
usemtl 1
f 2/31/31 4/32/32 5/33/33
f 4/34/34 7/35/35 5/36/36
