# Blender v2.79 (sub 0) OBJ File: ''
# www.blender.org
mtllib nsb_5m_base.mtl
o Cube
v -8.000000 -0.000001 8.000000
v -10.000000 -6.499999 -6.000001
v -10.000000 -6.500001 5.999999
v 10.000000 -6.499999 -6.000001
v 8.000000 -0.000001 8.000000
v 10.000000 -6.500001 5.999999
v -2.000000 2.500000 2.000000
v -8.000000 0.000001 -8.000000
v 8.000000 0.000001 -8.000000
v 2.000000 2.500000 2.000000
v -2.000000 2.500000 -2.000000
v 2.000000 2.500000 -2.000000
v -2.000000 4.000000 2.000001
v 2.000000 4.000000 2.000001
v -2.000000 4.000000 -1.999999
v 2.000000 4.000000 -1.999999
vt 0.387335 0.444445
vt 0.193668 0.833333
vt 0.193668 0.500000
vt 0.460761 0.000000
vt 0.806332 0.555555
vt 0.460762 0.555556
vt 0.000000 0.944444
vt 0.193667 0.444445
vt 0.193668 1.000000
vt 0.172786 0.277778
vt 0.460761 0.444444
vt 0.000000 0.444445
vt 1.000000 0.055556
vt 0.806333 0.555555
vt 0.806332 0.000000
vt 0.654429 0.555556
vt 0.460761 0.944444
vt 0.460761 0.611111
vt 0.172786 0.166667
vt 0.000000 0.000000
vt 0.287976 0.277778
vt 0.460761 0.000000
vt 0.287976 0.166667
vt 0.387335 0.555556
vt 0.430051 0.444445
vt 0.430051 0.555556
vt 0.430051 0.555556
vt 0.387335 0.666667
vt 0.387335 0.555556
vt 0.654429 0.666667
vt 0.769619 0.555556
vt 0.769619 0.666667
vt 0.387335 0.777778
vt 0.430051 0.666667
vt 0.430051 0.777778
vt 0.697145 0.666667
vt 0.654429 0.777778
vt 0.654429 0.666667
vt 0.387335 0.888889
vt 0.806332 0.000000
vt 0.000000 0.500000
vt 1.000000 0.500000
vt 0.654429 1.000000
vt 0.387335 0.444445
vt 0.430051 0.666667
vt 0.654429 0.555556
vt 0.387335 0.666667
vt 0.697145 0.777778
vn -0.9558 0.2941 0.0000
vn 0.0000 -1.0000 -0.0000
vn 0.0000 -0.2941 0.9558
vn -0.3846 0.9231 0.0000
vn 0.0000 -0.2941 -0.9558
vn 0.9558 0.2941 0.0000
vn 0.0000 0.9231 0.3846
vn 0.0000 0.9231 -0.3846
vn 0.3846 0.9231 0.0000
vn -1.0000 0.0000 0.0000
vn 0.0000 -0.0000 1.0000
vn 0.0000 1.0000 0.0000
vn 0.0000 0.0000 -1.0000
vn 1.0000 0.0000 0.0000
usemtl None
s 1
f 1/1/1 2/2/1 3/3/1
f 4/4/2 3/5/2 2/6/2
f 5/7/3 3/8/3 6/9/3
f 7/10/4 8/11/4 1/12/4
f 8/13/5 4/14/5 2/15/5
f 9/16/6 6/17/6 4/18/6
f 10/19/7 1/12/7 5/20/7
f 11/21/8 9/22/8 8/11/8
f 12/23/9 5/20/9 9/22/9
f 13/24/10 11/25/10 7/26/10
f 14/27/11 7/28/11 10/29/11
f 15/30/12 14/31/12 16/32/12
f 15/33/13 12/34/13 11/35/13
f 16/36/14 10/37/14 12/38/14
f 1/1/1 8/39/1 2/2/1
f 4/4/2 6/40/2 3/5/2
f 5/7/3 1/41/3 3/8/3
f 7/10/4 11/21/4 8/11/4
f 8/13/5 9/42/5 4/14/5
f 9/16/6 5/43/6 6/17/6
f 10/19/7 7/10/7 1/12/7
f 11/21/8 12/23/8 9/22/8
f 12/23/9 10/19/9 5/20/9
f 13/24/10 15/44/10 11/25/10
f 14/27/11 13/45/11 7/28/11
f 15/30/12 13/46/12 14/31/12
f 15/33/13 16/47/13 12/34/13
f 16/36/14 14/48/14 10/37/14
