# Blender v2.79 (sub 0) OBJ File: ''
# www.blender.org
mtllib nsc_2a.mtl
o p1
v 0.000000 -6.000000 -12.000000
v 0.000000 6.000000 -12.000000
v 7.053423 6.000000 -9.708204
v 7.053423 -6.000000 -9.708204
v 11.412679 -6.000000 -3.708204
v 11.412678 -6.000000 3.708204
v 7.053422 -6.000000 9.708204
v -0.000001 -6.000000 12.000000
v -7.053424 -6.000000 9.708203
v -11.412678 -6.000000 3.708205
v -11.412678 -6.000000 -3.708205
v -7.053419 -6.000000 -9.708207
v -7.053419 6.000000 -9.708207
v -11.412678 6.000000 -3.708205
v -11.412678 6.000000 3.708205
v -7.053424 6.000000 9.708203
v -0.000001 6.000000 12.000000
v -0.000001 6.000000 10.000000
v -5.877853 6.000000 8.090170
v -9.510565 6.000000 3.090171
v -9.510565 6.000000 -3.090171
v -5.877850 6.000000 -8.090173
v 0.000000 6.000000 -10.000000
v 5.877852 6.000000 -8.090170
v 9.510566 6.000000 -3.090170
v 9.510565 6.000000 3.090170
v 5.877852 6.000000 8.090171
v 7.053422 6.000000 9.708204
v 11.412678 6.000000 3.708204
v 11.412679 6.000000 -3.708204
v 0.000000 -4.000000 -10.000000
v 5.877852 -4.000000 -8.090170
v 9.510566 -4.000000 -3.090170
v -5.877850 -4.000000 -8.090173
v -9.510565 -4.000000 -3.090171
v -9.510565 -4.000000 3.090171
v -5.877853 -4.000000 8.090170
v -0.000001 -4.000000 10.000000
v 5.877852 -4.000000 8.090171
v 9.510565 -4.000000 3.090170
v -0.000000 -4.000000 0.000000
v 0.000000 -6.000000 -0.000001
vt 0.773056 0.943060
vt 0.988687 0.837487
vt 0.988687 0.943060
vt 0.557426 0.894427
vt 0.341795 1.000000
vt 0.341795 0.894427
vt 0.741975 0.381966
vt 0.615231 0.422291
vt 0.720851 0.353496
vt 0.509610 0.068795
vt 0.488486 0.040325
vt 0.615231 0.035191
vt 0.773056 0.837487
vt 0.988687 0.706992
vt 0.773056 0.422291
vt 0.557426 0.527864
vt 0.557426 0.422291
vt 0.773056 0.527864
vt 0.557426 0.658359
vt 0.773056 0.658359
vt 0.557426 0.763932
vt 0.341795 0.763932
vt 0.557426 0.658359
vt 0.341795 0.658359
vt 0.557425 0.527864
vt 0.341795 0.527864
vt 0.557425 0.422291
vt 0.557426 0.763932
vt 0.341795 0.763932
vt 0.557426 0.763932
vt 0.737118 0.851909
vt 0.557426 0.851909
vt 0.737118 0.960655
vt 0.557426 0.960655
vt 0.000000 0.276393
vt 0.000000 0.145898
vt 0.205077 0.211146
vt 0.000000 0.882946
vt 0.179692 0.970924
vt 0.000000 0.970924
vt 0.773056 0.422291
vt 0.952748 0.510269
vt 0.773056 0.510269
vt 0.952748 0.619015
vt 0.773056 0.619015
vt 0.952748 0.706992
vt 0.773056 0.706992
vt 1.000000 0.284701
vt 0.820308 0.196723
vt 1.000000 0.196723
vt 0.820308 0.087977
vt 1.000000 0.087977
vt 0.820308 0.000000
vt 1.000000 0.000000
vt 0.000000 0.774201
vt 0.179692 0.882946
vt 0.557426 1.000000
vt 0.786128 0.156773
vt 0.820308 0.145898
vt 0.820308 0.276393
vt 0.488486 0.381966
vt 0.410154 0.276393
vt 0.444333 0.265519
vt 0.509610 0.353496
vt 0.786128 0.265519
vt 0.615231 0.387100
vt 0.741975 0.040325
vt 0.720851 0.068795
vt 0.444333 0.156773
vt 0.410154 0.145898
vt 0.615231 0.000000
vt 0.773056 0.706992
vt 0.773056 0.763932
vt 0.341795 0.422291
vt 0.737118 0.763932
vt 0.952748 0.422291
vt 0.820308 0.284701
vt 0.179692 0.774201
vt 0.170897 0.774201
vt 0.065277 0.740596
vt 0.170897 0.598246
vt 0.000000 0.652619
vt 0.000000 0.543873
vt 0.065277 0.455896
vt 0.170897 0.422291
vt 0.276518 0.455896
vt 0.341795 0.543873
vt 0.341795 0.652619
vt 0.276518 0.740596
vt 0.078332 0.040325
vt 0.205077 0.000000
vt 0.331821 0.040325
vt 0.410154 0.145898
vt 0.410154 0.276393
vt 0.331822 0.381966
vt 0.205077 0.422291
vt 0.078332 0.381966
vn 0.3090 0.0000 -0.9511
vn -0.3090 0.0000 -0.9511
vn 0.0000 1.0000 0.0000
vn 0.8090 0.0000 -0.5878
vn 1.0000 0.0000 0.0000
vn 0.8090 0.0000 0.5878
vn 0.3090 0.0000 0.9511
vn -0.3090 0.0000 0.9511
vn -0.8090 0.0000 0.5878
vn -1.0000 0.0000 0.0000
vn -0.8090 0.0000 -0.5878
vn 0.0000 -1.0000 0.0000
usemtl None
s off
f 2/1/1 4/2/1 1/3/1
f 13/4/2 1/5/2 12/6/2
f 14/7/3 15/8/3 21/9/3
f 26/10/3 29/11/3 25/12/3
f 3/13/4 5/14/4 4/2/4
f 30/15/5 6/16/5 5/17/5
f 29/18/6 7/19/6 6/16/6
f 28/20/7 8/21/7 7/19/7
f 17/22/8 9/23/8 8/21/8
f 16/24/9 10/25/9 9/23/9
f 15/26/10 11/27/10 10/25/10
f 14/28/11 12/6/11 11/29/11
f 23/30/8 32/31/8 24/32/8
f 24/32/9 33/33/9 25/34/9
f 1/35/12 4/36/12 42/37/12
f 22/38/7 31/39/7 23/40/7
f 25/41/10 40/42/10 26/43/10
f 26/43/11 39/44/11 27/45/11
f 27/45/2 38/46/2 18/47/2
f 18/48/1 37/49/1 19/50/1
f 19/50/4 36/51/4 20/52/4
f 20/52/5 35/53/5 21/54/5
f 21/55/6 34/56/6 22/38/6
f 2/1/1 3/13/1 4/2/1
f 13/4/2 2/57/2 1/5/2
f 23/58/3 2/59/3 13/60/3
f 16/61/3 17/62/3 18/63/3
f 16/61/3 18/63/3 19/64/3
f 22/65/3 23/58/3 13/60/3
f 21/9/3 22/65/3 13/60/3
f 15/8/3 16/61/3 19/64/3
f 15/8/3 19/64/3 20/66/3
f 21/9/3 13/60/3 14/7/3
f 15/8/3 20/66/3 21/9/3
f 3/67/3 2/59/3 23/58/3
f 3/67/3 23/58/3 24/68/3
f 18/63/3 17/62/3 27/69/3
f 27/69/3 17/62/3 28/70/3
f 30/71/3 3/67/3 24/68/3
f 30/71/3 24/68/3 25/12/3
f 27/69/3 28/70/3 26/10/3
f 30/71/3 25/12/3 29/11/3
f 26/10/3 28/70/3 29/11/3
f 3/13/4 30/72/4 5/14/4
f 30/15/5 29/18/5 6/16/5
f 29/18/6 28/20/6 7/19/6
f 28/20/7 17/73/7 8/21/7
f 17/22/8 16/24/8 9/23/8
f 16/24/9 15/26/9 10/25/9
f 15/26/10 14/74/10 11/27/10
f 14/28/11 13/4/11 12/6/11
f 23/30/8 31/75/8 32/31/8
f 24/32/9 32/31/9 33/33/9
f 22/38/7 34/56/7 31/39/7
f 25/41/10 33/76/10 40/42/10
f 26/43/11 40/42/11 39/44/11
f 27/45/2 39/44/2 38/46/2
f 18/48/1 38/77/1 37/49/1
f 19/50/4 37/49/4 36/51/4
f 20/52/5 36/51/5 35/53/5
f 21/55/6 35/78/6 34/56/6
f 31/79/3 34/80/3 41/81/3
f 34/80/3 35/82/3 41/81/3
f 35/82/3 36/83/3 41/81/3
f 36/83/3 37/84/3 41/81/3
f 37/84/3 38/85/3 41/81/3
f 38/85/3 39/86/3 41/81/3
f 39/86/3 40/87/3 41/81/3
f 40/87/3 33/88/3 41/81/3
f 33/88/3 32/89/3 41/81/3
f 32/89/3 31/79/3 41/81/3
f 4/36/12 5/90/12 42/37/12
f 5/90/12 6/91/12 42/37/12
f 6/91/12 7/92/12 42/37/12
f 7/92/12 8/93/12 42/37/12
f 8/93/12 9/94/12 42/37/12
f 9/94/12 10/95/12 42/37/12
f 10/95/12 11/96/12 42/37/12
f 11/96/12 12/97/12 42/37/12
f 12/97/12 1/35/12 42/37/12
o p2
v 6.000000 -6.000003 9.999997
v 6.000000 -7.000003 7.999997
v 6.000000 -5.999997 -10.000003
v 6.000000 -6.999997 -8.000003
v 4.000000 -5.999997 -10.000003
v 4.000000 -6.999997 -8.000003
v 4.000000 -6.000003 9.999997
v 4.000000 -7.000003 7.999997
vt 0.000000 1.000000
vt 0.000000 0.937500
vt 1.000000 1.000000
vt 1.000000 0.937500
vt 0.000000 1.000000
vt 0.000000 0.937500
vt 1.000000 1.000000
vt 1.000000 0.937500
vt 0.000000 0.000000
vt 0.125000 1.000000
vt 0.125000 0.000000
vt 0.000000 1.000000
vt 0.000000 0.000000
vt 0.125000 1.000000
vt 0.125000 0.000000
vt 0.000000 1.000000
vt 0.000000 0.937500
vt 0.125000 1.000000
vt 0.125000 0.937500
vt 0.000000 1.000000
vt 0.000000 0.937500
vt 0.125000 1.000000
vt 0.125000 0.937500
vn 1.0000 0.0000 0.0000
vn -1.0000 0.0000 0.0000
vn 0.0000 1.0000 0.0000
vn 0.0000 -1.0000 -0.0000
vn 0.0000 -0.8944 0.4472
vn 0.0000 -0.8944 -0.4472
usemtl missing.015
s 1
f 43/98/13 44/99/13 45/100/13
f 44/99/13 46/101/13 45/100/13
f 47/102/14 48/103/14 49/104/14
f 48/103/14 50/105/14 49/104/14
f 47/102/15 49/106/15 45/107/15
f 49/106/15 43/108/15 45/107/15
f 50/109/16 48/110/16 44/111/16
f 48/110/16 46/112/16 44/111/16
f 49/113/17 50/114/17 43/115/17
f 50/114/17 44/116/17 43/115/17
f 45/117/18 46/118/18 47/119/18
f 46/118/18 48/120/18 47/119/18
o p3
v -4.000000 -6.000003 9.999997
v -4.000000 -7.000003 7.999997
v -4.000000 -5.999997 -10.000003
v -4.000000 -6.999997 -8.000003
v -6.000000 -5.999997 -10.000003
v -6.000000 -6.999997 -8.000003
v -6.000000 -6.000003 9.999997
v -6.000000 -7.000003 7.999997
vt 0.000000 1.000000
vt 0.000000 0.937500
vt 1.000000 1.000000
vt 1.000000 0.937500
vt 0.000000 1.000000
vt 0.000000 0.937500
vt 1.000000 1.000000
vt 1.000000 0.937500
vt 0.000000 0.000000
vt 0.125000 1.000000
vt 0.125000 0.000000
vt 0.000000 1.000000
vt 0.000000 0.000000
vt 0.125000 1.000000
vt 0.125000 0.000000
vt 0.000000 1.000000
vt 0.000000 0.937500
vt 0.125000 1.000000
vt 0.125000 0.937500
vt 0.000000 1.000000
vt 0.000000 0.937500
vt 0.125000 1.000000
vt 0.125000 0.937500
vn 1.0000 0.0000 0.0000
vn -1.0000 0.0000 0.0000
vn 0.0000 1.0000 0.0000
vn 0.0000 -1.0000 -0.0000
vn 0.0000 -0.8944 0.4472
vn 0.0000 -0.8944 -0.4472
usemtl missing.015
s 1
f 51/121/19 52/122/19 53/123/19
f 52/122/19 54/124/19 53/123/19
f 55/125/20 56/126/20 57/127/20
f 56/126/20 58/128/20 57/127/20
f 55/125/21 57/129/21 53/130/21
f 57/129/21 51/131/21 53/130/21
f 58/132/22 56/133/22 52/134/22
f 56/133/22 54/135/22 52/134/22
f 57/136/23 58/137/23 51/138/23
f 58/137/23 52/139/23 51/138/23
f 53/140/24 54/141/24 55/142/24
f 54/141/24 56/143/24 55/142/24
