mtllib nse_2_print.mtl
o 0
v 23.712606627267427 1.027280530691474 7.96043063894338
v 23.684681372490353 1.0552057426277095 -8.039520723666485
v 22.188327509683198 -2.6709025290009087 7.95663646104238
v 22.160402254906124 -2.6429773170646733 -8.043314901567484
v 23.683756827814 1.0555868096237866 -8.039518444939594
v 23.711682082591075 1.0276615976875512 7.960432917670269
v 22.159477710229773 -2.642596250068596 -8.043312622840594
v 22.187402965006847 -2.6705214620048316 7.956638739769269
vt 0 0.5
vt 0 0.25
vt 1 0.5
vt 0 0.25
vt 1 0.25
vt 1 0.5
vt 0 1
vt 0 1
vt 0 1
vt 0 1
vt 0 1
vt 0 1
vt 0 1
vt 0 1
vt 0 1
vt 0 1
vt 0 1
vt 0 1
vt 0 1
vt 0 1
vt 0 1
vt 0 1
vt 0 1
vt 0 1
vt 0 1
vt 0 1
vt 0 1
vt 0 1
vt 0 1
vt 0 1
vt 0 1
vt 0 1
vt 0 1
vt 0 1
vt 0 1
vt 0 1
vn 0.924544632434845 -0.3810669779777527 -0.002278727013617754
vn 0.924544632434845 -0.3810669779777527 -0.002278727013617754
vn 0.924544632434845 -0.3810669779777527 -0.002278727013617754
vn 0.924544632434845 -0.3810669779777527 -0.002278727013617754
vn 0.924544632434845 -0.3810669779777527 -0.002278727013617754
vn 0.924544632434845 -0.3810669779777527 -0.002278727013617754
vn -0.924544632434845 0.3810669779777527 0.002278727013617754
vn -0.924544632434845 0.3810669779777527 0.002278727013617754
vn -0.924544632434845 0.3810669779777527 0.002278727013617754
vn -0.924544632434845 0.3810669779777527 0.002278727013617754
vn -0.924544632434845 0.3810669779777527 0.002278727013617754
vn -0.924544632434845 0.3810669779777527 0.002278727013617754
vn 0.3810698091983795 0.9245458245277405 0.000948544533457607
vn 0.3810698091983795 0.9245458245277405 0.000948544533457607
vn 0.3810698091983795 0.9245458245277405 0.000948544533457607
vn 0.3810698091983795 0.9245458245277405 0.000948544533457607
vn 0.3810698091983795 0.9245458245277405 0.000948544533457607
vn 0.3810698091983795 0.9245458245277405 0.000948544533457607
vn -0.3810698091983795 -0.9245458245277405 -0.000948544533457607
vn -0.3810698091983795 -0.9245458245277405 -0.000948544533457607
vn -0.3810698091983795 -0.9245458245277405 -0.000948544533457607
vn -0.3810698091983795 -0.9245458245277405 -0.000948544533457607
vn -0.3810698091983795 -0.9245458245277405 -0.000948544533457607
vn -0.3810698091983795 -0.9245458245277405 -0.000948544533457607
vn 0.0017453281907364726 -0.0017453256295993924 0.9999969601631165
vn 0.0017453281907364726 -0.0017453256295993924 0.9999969601631165
vn 0.0017453281907364726 -0.0017453256295993924 0.9999969601631165
vn 0.0017453281907364726 -0.0017453256295993924 0.9999969601631165
vn 0.0017453281907364726 -0.0017453256295993924 0.9999969601631165
vn 0.0017453281907364726 -0.0017453256295993924 0.9999969601631165
vn -0.0017453281907364726 0.0017453256295993924 -0.9999969601631165
vn -0.0017453281907364726 0.0017453256295993924 -0.9999969601631165
vn -0.0017453281907364726 0.0017453256295993924 -0.9999969601631165
vn -0.0017453281907364726 0.0017453256295993924 -0.9999969601631165
vn -0.0017453281907364726 0.0017453256295993924 -0.9999969601631165
vn -0.0017453281907364726 0.0017453256295993924 -0.9999969601631165
usemtl 1
f 1/1/1 3/2/2 2/3/3
f 3/4/4 4/5/5 2/6/6
usemtl $transparent
f 5/7/7 7/8/8 6/9/9
f 7/10/10 8/11/11 6/12/12
usemtl $transparent
f 5/13/13 6/14/14 2/15/15
f 6/16/16 1/17/17 2/18/18
usemtl $transparent
f 8/19/19 7/20/20 3/21/21
f 7/22/22 4/23/23 3/24/24
usemtl $transparent
f 6/25/25 8/26/26 1/27/27
f 8/28/28 3/29/29 1/30/30
usemtl $transparent
f 2/31/31 4/32/32 5/33/33
f 4/34/34 7/35/35 5/36/36
o 1
v -23.68725183113815 0.9447905774057483 8.043015404176735
v -23.715177085915222 0.9727157893419838 -7.956935958433128
v -22.15007283791305 -2.7480399851858044 8.033887303006672
v -22.177998092690125 -2.720114773249569 -7.966064059603191
v -23.716100294732207 0.972331491774006 -7.956935017852171
v -23.688175039955134 0.9444062798377706 8.04301634475769
v -22.17892130150711 -2.7204990708175467 -7.966063119022234
v -22.150996046730036 -2.748424282753782 8.033888243587628
vt 0 1
vt 0 1
vt 0 1
vt 0 1
vt 0 1
vt 0 1
vt 0 0.25
vt 0 0
vt 1 0.25
vt 0 0
vt 1 0
vt 1 0.25
vt 0 1
vt 0 1
vt 0 1
vt 0 1
vt 0 1
vt 0 1
vt 0 1
vt 0 1
vt 0 1
vt 0 1
vt 0 1
vt 0 1
vt 0 1
vt 0 1
vt 0 1
vt 0 1
vt 0 1
vt 0 1
vt 0 1
vt 0 1
vt 0 1
vt 0 1
vt 0 1
vt 0 1
vn 0.9232088327407837 0.38429757952690125 -0.0009405810269527137
vn 0.9232088327407837 0.38429757952690125 -0.0009405810269527137
vn 0.9232088327407837 0.38429757952690125 -0.0009405810269527137
vn 0.9232088327407837 0.38429757952690125 -0.0009405810269527137
vn 0.9232088327407837 0.38429757952690125 -0.0009405810269527137
vn 0.9232088327407837 0.38429757952690125 -0.0009405810269527137
vn -0.9232088327407837 -0.38429757952690125 0.0009405810269527137
vn -0.9232088327407837 -0.38429757952690125 0.0009405810269527137
vn -0.9232088327407837 -0.38429757952690125 0.0009405810269527137
vn -0.9232088327407837 -0.38429757952690125 0.0009405810269527137
vn -0.9232088327407837 -0.38429757952690125 0.0009405810269527137
vn -0.9232088327407837 -0.38429757952690125 0.0009405810269527137
vn -0.3842947483062744 0.9232076406478882 0.0022820255253463984
vn -0.3842947483062744 0.9232076406478882 0.0022820255253463984
vn -0.3842947483062744 0.9232076406478882 0.0022820255253463984
vn -0.3842947483062744 0.9232076406478882 0.0022820255253463984
vn -0.3842947483062744 0.9232076406478882 0.0022820255253463984
vn -0.3842947483062744 0.9232076406478882 0.0022820255253463984
vn 0.3842947483062744 -0.9232076406478882 -0.0022820255253463984
vn 0.3842947483062744 -0.9232076406478882 -0.0022820255253463984
vn 0.3842947483062744 -0.9232076406478882 -0.0022820255253463984
vn 0.3842947483062744 -0.9232076406478882 -0.0022820255253463984
vn 0.3842947483062744 -0.9232076406478882 -0.0022820255253463984
vn 0.3842947483062744 -0.9232076406478882 -0.0022820255253463984
vn 0.0017453283071517944 -0.0017453255131840706 0.9999969601631165
vn 0.0017453283071517944 -0.0017453255131840706 0.9999969601631165
vn 0.0017453283071517944 -0.0017453255131840706 0.9999969601631165
vn 0.0017453283071517944 -0.0017453255131840706 0.9999969601631165
vn 0.0017453283071517944 -0.0017453255131840706 0.9999969601631165
vn 0.0017453283071517944 -0.0017453255131840706 0.9999969601631165
vn -0.0017453283071517944 0.0017453255131840706 -0.9999969601631165
vn -0.0017453283071517944 0.0017453255131840706 -0.9999969601631165
vn -0.0017453283071517944 0.0017453255131840706 -0.9999969601631165
vn -0.0017453283071517944 0.0017453255131840706 -0.9999969601631165
vn -0.0017453283071517944 0.0017453255131840706 -0.9999969601631165
vn -0.0017453283071517944 0.0017453255131840706 -0.9999969601631165
usemtl $transparent
f 9/37/37 11/38/38 10/39/39
f 11/40/40 12/41/41 10/42/42
usemtl 1
f 13/43/43 15/44/44 14/45/45
f 15/46/46 16/47/47 14/48/48
usemtl $transparent
f 13/49/49 14/50/50 10/51/51
f 14/52/52 9/53/53 10/54/54
usemtl $transparent
f 16/55/55 15/56/56 11/57/57
f 15/58/58 12/59/59 11/60/60
usemtl $transparent
f 14/61/61 16/62/62 9/63/63
f 16/64/64 11/65/65 9/66/66
usemtl $transparent
f 10/67/67 12/68/68 13/69/69
f 12/70/70 15/71/71 13/72/72
o 2
v 7.9771127873250345 5.028107992359745 -8.104671849584673
v 7.977111041996529 5.028109737685574 -8.105671846592333
v 7.984094090309094 1.028120151707279 -8.111665337061975
v 7.984092344980587 1.0281218970331079 -8.112665334069636
v -8.022840320613335 5.0001357877763635 -8.077795417332556
v -8.022838575284828 5.000134042450535 -8.076795420324896
v -8.015859017629275 1.0001479471238977 -8.084788904809859
v -8.01585727230077 1.000146201798069 -8.083788907802198
vt 0 1
vt 0 1
vt 0 1
vt 0 1
vt 0 1
vt 0 1
vt 0 1
vt 0 1
vt 0 1
vt 0 1
vt 0 1
vt 0 1
vt 0 1
vt 0 1
vt 0 1
vt 0 1
vt 0 1
vt 0 1
vt 0 1
vt 0 1
vt 0 1
vt 0 1
vt 0 1
vt 0 1
vt 0 1
vt 0 1
vt 0 1
vt 0 1
vt 0 1
vt 0 1
vt 0 1
vt 0 0.75
vt 1 1
vt 0 0.75
vt 1 0.75
vt 1 1
vn 0.9999969601631165 0.0017483718693256378 -0.0017422769451513886
vn 0.9999969601631165 0.0017483718693256378 -0.0017422769451513886
vn 0.9999969601631165 0.0017483718693256378 -0.0017422769451513886
vn 0.9999969601631165 0.0017483718693256378 -0.0017422769451513886
vn 0.9999969601631165 0.0017483718693256378 -0.0017422769451513886
vn 0.9999969601631165 0.0017483718693256378 -0.0017422769451513886
vn -0.9999969601631165 -0.0017483718693256378 0.0017422769451513886
vn -0.9999969601631165 -0.0017483718693256378 0.0017422769451513886
vn -0.9999969601631165 -0.0017483718693256378 0.0017422769451513886
vn -0.9999969601631165 -0.0017483718693256378 0.0017422769451513886
vn -0.9999969601631165 -0.0017483718693256378 0.0017422769451513886
vn -0.9999969601631165 -0.0017483718693256378 0.0017422769451513886
vn -0.0017453256295993924 0.9999969601631165 0.0017483718693256378
vn -0.0017453256295993924 0.9999969601631165 0.0017483718693256378
vn -0.0017453256295993924 0.9999969601631165 0.0017483718693256378
vn -0.0017453256295993924 0.9999969601631165 0.0017483718693256378
vn -0.0017453256295993924 0.9999969601631165 0.0017483718693256378
vn -0.0017453256295993924 0.9999969601631165 0.0017483718693256378
vn 0.0017453256295993924 -0.9999969601631165 -0.0017483718693256378
vn 0.0017453256295993924 -0.9999969601631165 -0.0017483718693256378
vn 0.0017453256295993924 -0.9999969601631165 -0.0017483718693256378
vn 0.0017453256295993924 -0.9999969601631165 -0.0017483718693256378
vn 0.0017453256295993924 -0.9999969601631165 -0.0017483718693256378
vn 0.0017453256295993924 -0.9999969601631165 -0.0017483718693256378
vn 0.0017453283071517944 -0.0017453256295993924 0.9999969601631165
vn 0.0017453283071517944 -0.0017453256295993924 0.9999969601631165
vn 0.0017453283071517944 -0.0017453256295993924 0.9999969601631165
vn 0.0017453283071517944 -0.0017453256295993924 0.9999969601631165
vn 0.0017453283071517944 -0.0017453256295993924 0.9999969601631165
vn 0.0017453283071517944 -0.0017453256295993924 0.9999969601631165
vn -0.0017453283071517944 0.0017453256295993924 -0.9999969601631165
vn -0.0017453283071517944 0.0017453256295993924 -0.9999969601631165
vn -0.0017453283071517944 0.0017453256295993924 -0.9999969601631165
vn -0.0017453283071517944 0.0017453256295993924 -0.9999969601631165
vn -0.0017453283071517944 0.0017453256295993924 -0.9999969601631165
vn -0.0017453283071517944 0.0017453256295993924 -0.9999969601631165
usemtl $transparent
f 17/73/73 19/74/74 18/75/75
f 19/76/76 20/77/77 18/78/78
usemtl $transparent
f 21/79/79 23/80/80 22/81/81
f 23/82/82 24/83/83 22/84/84
usemtl $transparent
f 21/85/85 22/86/86 18/87/87
f 22/88/88 17/89/89 18/90/90
usemtl $transparent
f 24/91/91 23/92/92 19/93/93
f 23/94/94 20/95/95 19/96/96
usemtl $transparent
f 22/97/97 24/98/98 17/99/99
f 24/100/100 19/101/101 17/102/102
usemtl 1
f 18/103/103 20/104/104 21/105/105
f 20/106/106 23/107/107 21/108/108
o 3
v 8.005387107391009 4.999833933064091 8.095279322290327
v 8.005385362062505 4.999835678389919 8.094279325282667
v 8.01236841037507 0.9998460924116248 8.088285834813025
v 8.012366665046562 0.9998478377374536 8.087285837805364
v -7.99456600054736 4.971861728480709 8.122155754542444
v -7.994564255218853 4.97185998315488 8.123155751550104
v -7.9875846975633005 0.9718738878282434 8.115162267065141
v -7.987582952234795 0.9718721425024146 8.116162264072802
vt 0 1
vt 0 1
vt 0 1
vt 0 1
vt 0 1
vt 0 1
vt 0 1
vt 0 1
vt 0 1
vt 0 1
vt 0 1
vt 0 1
vt 0 1
vt 0 1
vt 0 1
vt 0 1
vt 0 1
vt 0 1
vt 0 1
vt 0 1
vt 0 1
vt 0 1
vt 0 1
vt 0 1
vt 0 0.75
vt 0 0.5
vt 1 0.75
vt 0 0.5
vt 1 0.5
vt 1 0.75
vt 0 1
vt 0 1
vt 0 1
vt 0 1
vt 0 1
vt 0 1
vn 0.9999969601631165 0.0017483718693256378 -0.0017422769451513886
vn 0.9999969601631165 0.0017483718693256378 -0.0017422769451513886
vn 0.9999969601631165 0.0017483718693256378 -0.0017422769451513886
vn 0.9999969601631165 0.0017483718693256378 -0.0017422769451513886
vn 0.9999969601631165 0.0017483718693256378 -0.0017422769451513886
vn 0.9999969601631165 0.0017483718693256378 -0.0017422769451513886
vn -0.9999969601631165 -0.0017483718693256378 0.0017422769451513886
vn -0.9999969601631165 -0.0017483718693256378 0.0017422769451513886
vn -0.9999969601631165 -0.0017483718693256378 0.0017422769451513886
vn -0.9999969601631165 -0.0017483718693256378 0.0017422769451513886
vn -0.9999969601631165 -0.0017483718693256378 0.0017422769451513886
vn -0.9999969601631165 -0.0017483718693256378 0.0017422769451513886
vn -0.0017453256295993924 0.9999969601631165 0.0017483718693256378
vn -0.0017453256295993924 0.9999969601631165 0.0017483718693256378
vn -0.0017453256295993924 0.9999969601631165 0.0017483718693256378
vn -0.0017453256295993924 0.9999969601631165 0.0017483718693256378
vn -0.0017453256295993924 0.9999969601631165 0.0017483718693256378
vn -0.0017453256295993924 0.9999969601631165 0.0017483718693256378
vn 0.0017453256295993924 -0.9999969601631165 -0.0017483718693256378
vn 0.0017453256295993924 -0.9999969601631165 -0.0017483718693256378
vn 0.0017453256295993924 -0.9999969601631165 -0.0017483718693256378
vn 0.0017453256295993924 -0.9999969601631165 -0.0017483718693256378
vn 0.0017453256295993924 -0.9999969601631165 -0.0017483718693256378
vn 0.0017453256295993924 -0.9999969601631165 -0.0017483718693256378
vn 0.0017453283071517944 -0.0017453256295993924 0.9999969601631165
vn 0.0017453283071517944 -0.0017453256295993924 0.9999969601631165
vn 0.0017453283071517944 -0.0017453256295993924 0.9999969601631165
vn 0.0017453283071517944 -0.0017453256295993924 0.9999969601631165
vn 0.0017453283071517944 -0.0017453256295993924 0.9999969601631165
vn 0.0017453283071517944 -0.0017453256295993924 0.9999969601631165
vn -0.0017453283071517944 0.0017453256295993924 -0.9999969601631165
vn -0.0017453283071517944 0.0017453256295993924 -0.9999969601631165
vn -0.0017453283071517944 0.0017453256295993924 -0.9999969601631165
vn -0.0017453283071517944 0.0017453256295993924 -0.9999969601631165
vn -0.0017453283071517944 0.0017453256295993924 -0.9999969601631165
vn -0.0017453283071517944 0.0017453256295993924 -0.9999969601631165
usemtl $transparent
f 25/109/109 27/110/110 26/111/111
f 27/112/112 28/113/113 26/114/114
usemtl $transparent
f 29/115/115 31/116/116 30/117/117
f 31/118/118 32/119/119 30/120/120
usemtl $transparent
f 29/121/121 30/122/122 26/123/123
f 30/124/124 25/125/125 26/126/126
usemtl $transparent
f 32/127/127 31/128/128 27/129/129
f 31/130/130 28/131/131 27/132/132
usemtl 1
f 30/133/133 32/134/134 25/135/135
f 32/136/136 27/137/137 25/138/138
usemtl $transparent
f 26/139/139 28/140/140 29/141/141
f 28/142/142 31/143/143 29/144/144
