mtllib nspc_6_print.mtl
o 0
v 7.984094089377771 1.0281202709165687 -8.11166514334688
v 7.984092344049265 1.0281220162423974 -8.11266514035454
v 7.9910753923618305 -2.971867569735897 -8.118658630824182
v 7.991073647033323 -2.9718658244100684 -8.119658627831843
v -8.0158590185606 1.0001480663331872 -8.084788711094763
v -8.015857273232092 1.0001463210073585 -8.083788714087103
v -8.008877715576538 -2.9998397743192786 -8.091782198572066
v -8.008875970248035 -2.9998415196451074 -8.090782201564405
vt 0 1
vt 0 0.75
vt 0 1
vt 0 0.75
vt 0 0.75
vt 0 1
vt 0 1
vt 0 0.75
vt 0 1
vt 0 0.75
vt 0 0.75
vt 0 1
vt 0 1
vt 0 1
vt 1 1
vt 0 1
vt 1 1
vt 1 1
vt 0 1
vt 0 1
vt 1 1
vt 0 1
vt 1 1
vt 1 1
vt 0 1
vt 0 0.75
vt 1 1
vt 0 0.75
vt 1 0.75
vt 1 1
vt 0 0.75
vt 0 0.5
vt 1 0.75
vt 0 0.5
vt 1 0.5
vt 1 0.75
vn 0.9999969601631165 0.0017483718693256378 -0.0017422769451513886
vn 0.9999969601631165 0.0017483718693256378 -0.0017422769451513886
vn 0.9999969601631165 0.0017483718693256378 -0.0017422769451513886
vn 0.9999969601631165 0.0017483718693256378 -0.0017422769451513886
vn 0.9999969601631165 0.0017483718693256378 -0.0017422769451513886
vn 0.9999969601631165 0.0017483718693256378 -0.0017422769451513886
vn -0.9999969601631165 -0.0017483718693256378 0.0017422769451513886
vn -0.9999969601631165 -0.0017483718693256378 0.0017422769451513886
vn -0.9999969601631165 -0.0017483718693256378 0.0017422769451513886
vn -0.9999969601631165 -0.0017483718693256378 0.0017422769451513886
vn -0.9999969601631165 -0.0017483718693256378 0.0017422769451513886
vn -0.9999969601631165 -0.0017483718693256378 0.0017422769451513886
vn -0.0017453256295993924 0.9999969601631165 0.0017483718693256378
vn -0.0017453256295993924 0.9999969601631165 0.0017483718693256378
vn -0.0017453256295993924 0.9999969601631165 0.0017483718693256378
vn -0.0017453256295993924 0.9999969601631165 0.0017483718693256378
vn -0.0017453256295993924 0.9999969601631165 0.0017483718693256378
vn -0.0017453256295993924 0.9999969601631165 0.0017483718693256378
vn 0.0017453256295993924 -0.9999969601631165 -0.0017483718693256378
vn 0.0017453256295993924 -0.9999969601631165 -0.0017483718693256378
vn 0.0017453256295993924 -0.9999969601631165 -0.0017483718693256378
vn 0.0017453256295993924 -0.9999969601631165 -0.0017483718693256378
vn 0.0017453256295993924 -0.9999969601631165 -0.0017483718693256378
vn 0.0017453256295993924 -0.9999969601631165 -0.0017483718693256378
vn 0.0017453283071517944 -0.0017453256295993924 0.9999969601631165
vn 0.0017453283071517944 -0.0017453256295993924 0.9999969601631165
vn 0.0017453283071517944 -0.0017453256295993924 0.9999969601631165
vn 0.0017453283071517944 -0.0017453256295993924 0.9999969601631165
vn 0.0017453283071517944 -0.0017453256295993924 0.9999969601631165
vn 0.0017453283071517944 -0.0017453256295993924 0.9999969601631165
vn -0.0017453283071517944 0.0017453256295993924 -0.9999969601631165
vn -0.0017453283071517944 0.0017453256295993924 -0.9999969601631165
vn -0.0017453283071517944 0.0017453256295993924 -0.9999969601631165
vn -0.0017453283071517944 0.0017453256295993924 -0.9999969601631165
vn -0.0017453283071517944 0.0017453256295993924 -0.9999969601631165
vn -0.0017453283071517944 0.0017453256295993924 -0.9999969601631165
usemtl 0
f 1/1/1 3/2/2 2/3/3
f 3/4/4 4/5/5 2/6/6
usemtl 0
f 5/7/7 7/8/8 6/9/9
f 7/10/10 8/11/11 6/12/12
usemtl 0
f 5/13/13 6/14/14 2/15/15
f 6/16/16 1/17/17 2/18/18
usemtl 0
f 8/19/19 7/20/20 3/21/21
f 7/22/22 4/23/23 3/24/24
usemtl $transparent
f 6/25/25 8/26/26 1/27/27
f 8/28/28 3/29/29 1/30/30
usemtl 1
f 2/31/31 4/32/32 5/33/33
f 4/34/34 7/35/35 5/36/36
o 1
v 8.01236841130639 0.9998459732023353 8.08828602852812
v 8.012366665977886 0.999847718528164 8.08728603152046
v 8.01934971429045 -3.0001418674501306 8.081292541050818
v 8.019347968961943 -3.000140122124302 8.080292544043157
v -7.987584696631979 0.9718737686189538 8.115162460780237
v -7.987582951303471 0.971872023293125 8.116162457787897
v -7.980603393647919 -3.028114072033512 8.108168973302934
v -7.980601648319413 -3.0281158173593408 8.109168970310595
vt 0 1
vt 0 0.75
vt 0 1
vt 0 0.75
vt 0 0.75
vt 0 1
vt 0 1
vt 0 0.75
vt 0 1
vt 0 0.75
vt 0 0.75
vt 0 1
vt 0 1
vt 0 1
vt 1 1
vt 0 1
vt 1 1
vt 1 1
vt 0 1
vt 0 1
vt 1 1
vt 0 1
vt 1 1
vt 1 1
vt 0 1
vt 0 0.75
vt 1 1
vt 0 0.75
vt 1 0.75
vt 1 1
vt 0 1
vt 0 0.75
vt 1 1
vt 0 0.75
vt 1 0.75
vt 1 1
vn 0.9999969601631165 0.0017483718693256378 -0.0017422769451513886
vn 0.9999969601631165 0.0017483718693256378 -0.0017422769451513886
vn 0.9999969601631165 0.0017483718693256378 -0.0017422769451513886
vn 0.9999969601631165 0.0017483718693256378 -0.0017422769451513886
vn 0.9999969601631165 0.0017483718693256378 -0.0017422769451513886
vn 0.9999969601631165 0.0017483718693256378 -0.0017422769451513886
vn -0.9999969601631165 -0.0017483718693256378 0.0017422769451513886
vn -0.9999969601631165 -0.0017483718693256378 0.0017422769451513886
vn -0.9999969601631165 -0.0017483718693256378 0.0017422769451513886
vn -0.9999969601631165 -0.0017483718693256378 0.0017422769451513886
vn -0.9999969601631165 -0.0017483718693256378 0.0017422769451513886
vn -0.9999969601631165 -0.0017483718693256378 0.0017422769451513886
vn -0.0017453256295993924 0.9999969601631165 0.0017483718693256378
vn -0.0017453256295993924 0.9999969601631165 0.0017483718693256378
vn -0.0017453256295993924 0.9999969601631165 0.0017483718693256378
vn -0.0017453256295993924 0.9999969601631165 0.0017483718693256378
vn -0.0017453256295993924 0.9999969601631165 0.0017483718693256378
vn -0.0017453256295993924 0.9999969601631165 0.0017483718693256378
vn 0.0017453256295993924 -0.9999969601631165 -0.0017483718693256378
vn 0.0017453256295993924 -0.9999969601631165 -0.0017483718693256378
vn 0.0017453256295993924 -0.9999969601631165 -0.0017483718693256378
vn 0.0017453256295993924 -0.9999969601631165 -0.0017483718693256378
vn 0.0017453256295993924 -0.9999969601631165 -0.0017483718693256378
vn 0.0017453256295993924 -0.9999969601631165 -0.0017483718693256378
vn 0.0017453283071517944 -0.0017453256295993924 0.9999969601631165
vn 0.0017453283071517944 -0.0017453256295993924 0.9999969601631165
vn 0.0017453283071517944 -0.0017453256295993924 0.9999969601631165
vn 0.0017453283071517944 -0.0017453256295993924 0.9999969601631165
vn 0.0017453283071517944 -0.0017453256295993924 0.9999969601631165
vn 0.0017453283071517944 -0.0017453256295993924 0.9999969601631165
vn -0.0017453283071517944 0.0017453256295993924 -0.9999969601631165
vn -0.0017453283071517944 0.0017453256295993924 -0.9999969601631165
vn -0.0017453283071517944 0.0017453256295993924 -0.9999969601631165
vn -0.0017453283071517944 0.0017453256295993924 -0.9999969601631165
vn -0.0017453283071517944 0.0017453256295993924 -0.9999969601631165
vn -0.0017453283071517944 0.0017453256295993924 -0.9999969601631165
usemtl 0
f 9/37/37 11/38/38 10/39/39
f 11/40/40 12/41/41 10/42/42
usemtl 0
f 13/43/43 15/44/44 14/45/45
f 15/46/46 16/47/47 14/48/48
usemtl 0
f 13/49/49 14/50/50 10/51/51
f 14/52/52 9/53/53 10/54/54
usemtl 0
f 16/55/55 15/56/56 11/57/57
f 15/58/58 12/59/59 11/60/60
usemtl 1
f 14/61/61 16/62/62 9/63/63
f 16/64/64 11/65/65 9/66/66
usemtl $transparent
f 10/67/67 12/68/68 13/69/69
f 12/70/70 15/71/71 13/72/72
o 2
v 13.58449283047355 -3.0819132658728856 7.970935618959518
v 13.556567575696477 -3.05398805393665 -8.029015743650346
v 13.583786959930876 -3.082621606789785 7.970935614649673
v 13.555861705153802 -3.0546963948535497 -8.02901574796019
v 10.723212625745305 -0.23051460041492078 -8.019142698041945
v 10.751137880522379 -0.2584398123511562 7.9808086645679195
v 10.72250675520263 -0.23122294133182208 -8.019142702351788
v 10.750432009979704 -0.2591481532680575 7.980808660258075
vt 0 1
vt 0 1
vt 1 1
vt 0 1
vt 1 1
vt 1 1
vt 0 1
vt 0 1
vt 1 1
vt 0 1
vt 1 1
vt 1 1
vt 1 0.5
vt 0 0.5
vt 1 0.25
vt 0 0.5
vt 0 0.25
vt 1 0.25
vt 0 1
vt 0 1
vt 0 1
vt 0 1
vt 0 1
vt 0 1
vt 0 1
vt 0 1
vt 0.25 1
vt 0 1
vt 0.25 1
vt 0.25 1
vt 0 1
vt 0 1
vt 0 1
vt 0 1
vt 0 1
vt 0 1
vn 0.708338737487793 -0.7058683633804321 -0.0024682614021003246
vn 0.708338737487793 -0.7058683633804321 -0.0024682614021003246
vn 0.708338737487793 -0.7058683633804321 -0.0024682614021003246
vn 0.708338737487793 -0.7058683633804321 -0.0024682614021003246
vn 0.708338737487793 -0.7058683633804321 -0.0024682614021003246
vn 0.708338737487793 -0.7058683633804321 -0.0024682614021003246
vn -0.708338737487793 0.7058683633804321 0.0024682614021003246
vn -0.708338737487793 0.7058683633804321 0.0024682614021003246
vn -0.708338737487793 0.7058683633804321 0.0024682614021003246
vn -0.708338737487793 0.7058683633804321 0.0024682614021003246
vn -0.708338737487793 0.7058683633804321 0.0024682614021003246
vn -0.708338737487793 0.7058683633804321 0.0024682614021003246
vn 0.705870509147644 0.7083408832550049 0.00000430971749665332
vn 0.705870509147644 0.7083408832550049 0.00000430971749665332
vn 0.705870509147644 0.7083408832550049 0.00000430971749665332
vn 0.705870509147644 0.7083408832550049 0.00000430971749665332
vn 0.705870509147644 0.7083408832550049 0.00000430971749665332
vn 0.705870509147644 0.7083408832550049 0.00000430971749665332
vn -0.705870509147644 -0.7083408832550049 -0.00000430971749665332
vn -0.705870509147644 -0.7083408832550049 -0.00000430971749665332
vn -0.705870509147644 -0.7083408832550049 -0.00000430971749665332
vn -0.705870509147644 -0.7083408832550049 -0.00000430971749665332
vn -0.705870509147644 -0.7083408832550049 -0.00000430971749665332
vn -0.705870509147644 -0.7083408832550049 -0.00000430971749665332
vn 0.0017453283071517944 -0.0017453257460147142 0.9999969601631165
vn 0.0017453283071517944 -0.0017453257460147142 0.9999969601631165
vn 0.0017453283071517944 -0.0017453257460147142 0.9999969601631165
vn 0.0017453283071517944 -0.0017453257460147142 0.9999969601631165
vn 0.0017453283071517944 -0.0017453257460147142 0.9999969601631165
vn 0.0017453283071517944 -0.0017453257460147142 0.9999969601631165
vn -0.0017453283071517944 0.0017453257460147142 -0.9999969601631165
vn -0.0017453283071517944 0.0017453257460147142 -0.9999969601631165
vn -0.0017453283071517944 0.0017453257460147142 -0.9999969601631165
vn -0.0017453283071517944 0.0017453257460147142 -0.9999969601631165
vn -0.0017453283071517944 0.0017453257460147142 -0.9999969601631165
vn -0.0017453283071517944 0.0017453257460147142 -0.9999969601631165
usemtl 0
f 17/73/73 19/74/74 18/75/75
f 19/76/76 20/77/77 18/78/78
usemtl 0
f 21/79/79 23/80/80 22/81/81
f 23/82/82 24/83/83 22/84/84
usemtl 1
f 21/85/85 22/86/86 18/87/87
f 22/88/88 17/89/89 18/90/90
usemtl $transparent
f 24/91/91 23/92/92 19/93/93
f 23/94/94 20/95/95 19/96/96
usemtl 0
f 22/97/97 24/98/98 17/99/99
f 24/100/100 19/101/101 17/102/102
usemtl $transparent
f 18/103/103 20/104/104 21/105/105
f 20/106/106 23/107/107 21/108/108
o 3
v -10.685922027324786 -0.282317047121885 8.018182083979033
v -10.71384728210186 -0.25439183518564956 -7.981769278630832
v -10.685213688553652 -0.2830229155187931 8.018179615717514
v -10.713138943330726 -0.2550977035825577 -7.981771746892349
v -13.537329318692436 -3.087755368205669 -7.981786518008317
v -13.509404063915362 -3.1156805801419045 8.018164844601548
v -13.536620979921302 -3.088461236602577 -7.981788986269834
v -13.508695725144229 -3.1163864485388126 8.01816237634003
vt 0 1
vt 0 1
vt 1 1
vt 0 1
vt 1 1
vt 1 1
vt 0 1
vt 0 1
vt 1 1
vt 0 1
vt 1 1
vt 1 1
vt 0 0
vt 1 0
vt 0 0.25
vt 1 0
vt 1 0.25
vt 0 0.25
vt 0 1
vt 0 1
vt 0 1
vt 0 1
vt 0 1
vt 0 1
vt 0 1
vt 0 1
vt 0.25 1
vt 0 1
vt 0.25 1
vt 0.25 1
vt 0 1
vt 0 1
vt 0.25 1
vt 0 1
vt 0.25 1
vt 0.25 1
vn 0.705870509147644 0.7083408832550049 0.00000430971749665332
vn 0.705870509147644 0.7083408832550049 0.00000430971749665332
vn 0.705870509147644 0.7083408832550049 0.00000430971749665332
vn 0.705870509147644 0.7083408832550049 0.00000430971749665332
vn 0.705870509147644 0.7083408832550049 0.00000430971749665332
vn 0.705870509147644 0.7083408832550049 0.00000430971749665332
vn -0.705870509147644 -0.7083408832550049 -0.00000430971749665332
vn -0.705870509147644 -0.7083408832550049 -0.00000430971749665332
vn -0.705870509147644 -0.7083408832550049 -0.00000430971749665332
vn -0.705870509147644 -0.7083408832550049 -0.00000430971749665332
vn -0.705870509147644 -0.7083408832550049 -0.00000430971749665332
vn -0.705870509147644 -0.7083408832550049 -0.00000430971749665332
vn -0.708338737487793 0.7058683633804321 0.0024682614021003246
vn -0.708338737487793 0.7058683633804321 0.0024682614021003246
vn -0.708338737487793 0.7058683633804321 0.0024682614021003246
vn -0.708338737487793 0.7058683633804321 0.0024682614021003246
vn -0.708338737487793 0.7058683633804321 0.0024682614021003246
vn -0.708338737487793 0.7058683633804321 0.0024682614021003246
vn 0.708338737487793 -0.7058683633804321 -0.0024682614021003246
vn 0.708338737487793 -0.7058683633804321 -0.0024682614021003246
vn 0.708338737487793 -0.7058683633804321 -0.0024682614021003246
vn 0.708338737487793 -0.7058683633804321 -0.0024682614021003246
vn 0.708338737487793 -0.7058683633804321 -0.0024682614021003246
vn 0.708338737487793 -0.7058683633804321 -0.0024682614021003246
vn 0.0017453283071517944 -0.0017453257460147142 0.9999969601631165
vn 0.0017453283071517944 -0.0017453257460147142 0.9999969601631165
vn 0.0017453283071517944 -0.0017453257460147142 0.9999969601631165
vn 0.0017453283071517944 -0.0017453257460147142 0.9999969601631165
vn 0.0017453283071517944 -0.0017453257460147142 0.9999969601631165
vn 0.0017453283071517944 -0.0017453257460147142 0.9999969601631165
vn -0.0017453283071517944 0.0017453257460147142 -0.9999969601631165
vn -0.0017453283071517944 0.0017453257460147142 -0.9999969601631165
vn -0.0017453283071517944 0.0017453257460147142 -0.9999969601631165
vn -0.0017453283071517944 0.0017453257460147142 -0.9999969601631165
vn -0.0017453283071517944 0.0017453257460147142 -0.9999969601631165
vn -0.0017453283071517944 0.0017453257460147142 -0.9999969601631165
usemtl 0
f 25/109/109 27/110/110 26/111/111
f 27/112/112 28/113/113 26/114/114
usemtl 0
f 29/115/115 31/116/116 30/117/117
f 31/118/118 32/119/119 30/120/120
usemtl 1
f 29/121/121 30/122/122 26/123/123
f 30/124/124 25/125/125 26/126/126
usemtl $transparent
f 32/127/127 31/128/128 27/129/129
f 31/130/130 28/131/131 27/132/132
usemtl 0
f 30/133/133 32/134/134 25/135/135
f 32/136/136 27/137/137 25/138/138
usemtl 0
f 26/139/139 28/140/140 29/141/141
f 28/142/142 31/143/143 29/144/144
