# Blender v2.79 (sub 0) OBJ File: ''
# www.blender.org
mtllib nspc_9_print.mtl
o 0
v 8.000000 2.999998 10.100001
v 8.000000 -5.000001 10.099999
v 8.000000 2.999998 10.100001
v 8.000000 -5.000001 10.099999
v -8.000000 2.999998 10.100001
v -8.000000 -5.000001 10.099999
v -8.000000 2.999998 10.100001
v -8.000000 -5.000001 10.099999
vt 0.000000 1.000000
vt 0.000000 0.500000
vt 0.000000 1.000000
vt 0.000000 0.500000
vt 0.000000 1.000000
vt 0.000000 0.500000
vt 0.000000 1.000000
vt 0.000000 0.500000
vt 1.000000 1.000000
vt 1.000000 1.000000
vt 0.000000 1.000000
vt 0.000000 1.000000
vt 1.000000 1.000000
vt 1.000000 1.000000
vt 0.000000 0.500000
vt 0.000000 0.000000
vt 1.000000 0.500000
vt 1.000000 0.000000
vt 0.000000 1.000000
vn 1.0000 0.0000 -0.0000
vn 0.0000 0.0000 -0.0000
vn -1.0000 -0.0000 -0.0000
vn -0.0000 1.0000 -0.0000
vn 0.0000 -1.0000 -0.0000
vn 0.0000 -0.0000 1.0000
vn 0.0000 0.0000 -1.0000
usemtl missing.001
s 1
f 1/1/1 2/2/1 3/3/2
f 2/2/2 4/4/1 3/3/1
f 5/5/3 6/6/2 7/7/2
f 6/6/2 8/8/3 7/7/2
f 5/5/2 7/7/4 3/9/4
f 7/7/4 1/10/2 3/9/4
f 8/11/2 6/12/5 2/13/5
f 6/12/5 4/14/2 2/13/5
f 7/15/6 8/16/6 1/17/6
f 8/16/6 2/18/6 1/17/6
usemtl nonef_26/139/139_28/140/140_29/141/141
f 4/19/7 6/12/7 5/5/7
o 1
v -8.100000 -5.000001 7.999999
v -8.100000 -4.999999 -8.000001
v -8.100000 3.000001 -8.000000
v -8.100000 3.000001 -8.000000
v -8.100000 -4.999999 -8.000001
v -8.100000 2.999999 8.000001
v -8.100000 -5.000001 7.999999
v -8.100000 2.999999 8.000001
vt 0.000000 1.000000
vt 0.000000 1.000000
vt 0.000000 1.000000
vt 0.000000 1.000000
vt 0.000000 0.500000
vt 1.000000 1.000000
vt 1.000000 0.500000
vt 0.000000 0.000000
vt 0.000000 0.000000
vt 0.000000 1.000000
vt 0.000000 0.000000
vt 0.000000 0.000000
vt 0.000000 1.000000
vt 0.000000 0.500000
vt 0.000000 1.000000
vt 0.000000 0.500000
vt 0.000000 0.500000
vn 1.0000 -0.0000 0.0000
vn -1.0000 0.0000 0.0000
vn 0.0000 0.0000 0.0000
vn 0.0000 0.0000 1.0000
vn 0.0000 0.0000 -1.0000
usemtl nonef_1/1/1_3/2/2_2/3/3
s 1
f 9/20/8 10/21/8 11/22/8
usemtl missing.001
f 12/23/9 13/24/9 14/25/9
f 13/24/9 15/26/9 14/25/9
f 12/23/10 14/27/10 11/22/10
f 14/27/10 16/28/10 11/22/10
f 15/29/10 13/30/10 9/20/10
f 13/30/10 10/31/10 9/20/10
f 14/32/11 15/33/11 16/34/11
f 15/33/11 9/35/11 16/34/11
f 11/22/12 10/36/12 12/23/12
f 10/36/12 13/24/12 12/23/12
o 2
v 8.000000 3.000002 -10.099999
v 8.000000 -4.999999 -10.100001
v 8.000000 3.000002 -10.099999
v 8.000000 -4.999999 -10.100001
v -8.000000 3.000002 -10.099999
v -8.000000 -4.999999 -10.100001
v -8.000000 3.000002 -10.099999
v -8.000000 -4.999999 -10.100001
vt 0.000000 1.000000
vt 0.000000 1.000000
vt 0.000000 1.000000
vt 0.000000 0.500000
vt 0.000000 1.000000
vt 0.000000 0.500000
vt 0.000000 1.000000
vt 0.000000 0.500000
vt 0.000000 1.000000
vt 0.000000 0.500000
vt 1.000000 1.000000
vt 1.000000 1.000000
vt 0.000000 1.000000
vt 1.000000 1.000000
vt 1.000000 1.000000
vt 0.000000 0.500000
vt 0.000000 0.000000
vt 1.000000 0.500000
vt 1.000000 0.000000
vn 0.0000 -0.0000 1.0000
vn 1.0000 0.0000 -0.0000
vn 0.0000 0.0000 0.0000
vn -1.0000 -0.0000 -0.0000
vn -0.0000 1.0000 -0.0000
vn 0.0000 -1.0000 -0.0000
vn 0.0000 0.0000 -1.0000
usemtl nonef_22/97/97_24/98/98_17/99/99
s 1
f 24/37/13 18/38/13 17/39/13
usemtl missing.001
f 17/39/14 18/40/15 19/41/15
f 18/40/15 20/42/14 19/41/15
f 21/43/16 22/44/16 23/45/15
f 22/44/15 24/46/16 23/45/16
f 21/43/15 23/45/17 19/47/17
f 23/45/17 17/48/15 19/47/17
f 24/37/15 22/49/18 18/50/18
f 22/49/18 20/51/15 18/50/18
f 19/52/19 20/53/19 21/54/19
f 20/53/19 22/55/19 21/54/19
o 3
v 8.100000 2.999999 8.000001
v 8.100000 -5.000001 7.999999
v 8.100000 3.000001 -8.000000
v 8.100000 -4.999999 -8.000001
v 8.100000 -4.999999 -8.000001
v 8.100000 -5.000001 7.999999
v 8.100000 2.999999 8.000001
v 8.100000 3.000001 -8.000000
vt 0.000000 1.000000
vt 0.000000 0.500000
vt 1.000000 1.000000
vt 1.000000 0.500000
vt 0.000000 1.000000
vt 0.000000 0.000000
vt 0.000000 1.000000
vt 0.000000 0.000000
vt 0.000000 1.000000
vt 0.000000 0.000000
vt 0.000000 1.000000
vt 0.000000 0.000000
vt 0.000000 1.000000
vt 0.000000 0.500000
vt 0.000000 0.500000
vt 0.000000 0.500000
vt 0.000000 1.000000
vn 1.0000 0.0000 0.0000
vn 0.0000 0.0000 0.0000
vn 0.0000 0.0000 1.0000
vn 0.0000 0.0000 -1.0000
vn -1.0000 -0.0000 0.0000
usemtl missing.001
s 1
f 25/56/20 26/57/20 27/58/20
f 26/57/20 28/59/20 27/58/20
f 32/60/21 31/61/21 27/62/21
f 31/61/21 25/63/21 27/62/21
f 30/64/21 29/65/21 26/66/21
f 29/65/21 28/67/21 26/66/21
f 31/68/22 30/69/22 25/56/22
f 30/69/22 26/57/22 25/56/22
f 27/62/23 28/70/23 32/60/23
f 28/70/23 29/71/23 32/60/23
usemtl nonef_13/43/43_15/44/44_14/45/45
f 29/72/24 30/64/24 31/68/24
