# Blender v2.79 (sub 0) OBJ File: ''
# www.blender.org
mtllib nspc_9_jet.mtl
o 0
v 13.999997 2.999999 -24.000004
v 14.000003 27.000000 23.999996
v 13.999997 27.000000 -24.000002
v 14.000003 3.000001 23.999996
vt 0.000000 0.500000
vt 1.000000 1.000000
vt 0.000000 1.000000
vt 1.000000 0.500000
vn -1.0000 0.0000 0.0000
usemtl None
s 1
f 1/1/1 2/2/1 3/3/1
f 1/1/1 4/4/1 2/2/1
o 1
v -13.999996 2.999992 24.000006
v -14.000004 27.000008 -23.999989
v -13.999996 26.999992 24.000011
v -14.000004 3.000009 -23.999996
vt 0.000000 0.000000
vt 1.000000 0.500000
vt 0.000000 0.500000
vt 1.000000 0.000000
vn 1.0000 0.0000 -0.0000
usemtl None
s 1
f 5/5/2 6/6/2 7/7/2
f 5/5/2 8/8/2 6/6/2
