# Blender v2.79 (sub 0) OBJ File: ''
# www.blender.org
mtllib nspc_4_print.mtl
o 3
v 8.100000 2.999998 8.000002
v 8.100000 -5.000002 7.999998
v 8.100000 3.000002 -8.000000
v 8.100000 -4.999998 -8.000002
v 8.100000 3.000002 -8.000000
v 8.100000 2.999998 8.000002
v 8.100000 -5.000002 7.999998
v 8.100000 -4.999998 -8.000002
vt 0.000000 0.500000
vt 0.000000 0.000000
vt 1.000000 0.500000
vt 1.000000 0.000000
vt 0.000000 1.000000
vt 0.000000 0.000000
vt 0.000000 1.000000
vt 0.000000 0.000000
vt 0.000000 1.000000
vt 0.000000 0.000000
vt 0.000000 1.000000
vt 0.000000 0.000000
vt 0.000000 1.000000
vt 0.000000 0.500000
vt 0.000000 1.000000
vt 0.000000 0.500000
vt 0.000000 0.500000
vt 0.000000 0.500000
vt 0.000000 1.000000
vn 1.0000 0.0000 0.0000
vn 0.0000 0.0000 0.0000
vn 0.0000 0.0000 1.0000
vn 0.0000 0.0000 -1.0000
vn -1.0000 -0.0000 0.0000
usemtl missing.001
s 1
f 1/1/1 2/2/1 3/3/1
f 2/2/1 4/4/1 3/3/1
f 5/5/2 6/6/2 3/7/2
f 6/6/2 1/8/2 3/7/2
f 7/9/2 8/10/2 2/11/2
f 8/10/2 4/12/2 2/11/2
f 6/13/3 7/14/3 1/15/3
f 7/14/3 2/16/3 1/15/3
f 3/7/4 4/17/4 5/5/4
f 4/17/4 8/18/4 5/5/4
usemtl nonef_13/43/43_15/44/44_14/45/45
f 8/19/5 7/9/5 6/13/5
o 1
v -8.100000 -5.000002 7.999998
v -8.100000 -4.999998 -8.000002
v -8.100000 3.000002 -8.000000
v -8.100000 3.000002 -8.000000
v -8.100000 -4.999998 -8.000002
v -8.100000 2.999998 8.000002
v -8.100000 -5.000002 7.999998
v -8.100000 2.999998 8.000002
vt 0.000000 1.000000
vt 0.000000 0.500000
vt 1.000000 1.000000
vt 1.000000 0.500000
vt 0.000000 0.000000
vt 0.000000 1.000000
vt 0.000000 0.000000
vt 0.000000 1.000000
vt 0.000000 0.000000
vt 0.000000 1.000000
vt 0.000000 0.000000
vt 0.000000 1.000000
vt 0.000000 0.500000
vt 0.000000 1.000000
vt 0.000000 0.500000
vt 0.000000 0.500000
vt 0.000000 1.000000
vn -1.0000 0.0000 0.0000
vn 0.0000 0.0000 0.0000
vn 0.0000 0.0000 1.0000
vn 0.0000 0.0000 -1.0000
vn 1.0000 0.0000 0.0000
usemtl missing.001
s 1
f 12/20/6 13/21/6 14/22/6
f 13/21/6 15/23/6 14/22/6
f 12/20/7 14/24/7 11/25/7
f 14/24/7 16/26/7 11/25/7
f 15/27/7 13/28/7 9/29/7
f 13/28/7 10/30/7 9/29/7
f 14/31/8 15/32/8 16/33/8
f 15/32/8 9/34/8 16/33/8
f 11/25/9 10/35/9 12/20/9
f 10/35/9 13/21/9 12/20/9
usemtl nonef_1/1/1_3/2/2_2/3/3
f 9/29/10 10/36/10 11/25/10
