# Blender v2.79 (sub 0) OBJ File: ''
# www.blender.org
mtllib nspc_8j_print.mtl
o 3
v 14.751928 12.168811 5.000001
v 16.774471 10.699348 5.000001
v 14.751927 12.168813 -4.999999
v 16.774469 10.699349 -4.999999
v 14.751634 12.168407 -4.999999
v 16.774176 10.698945 -4.999999
v 14.751634 12.168406 5.000001
v 16.774176 10.698943 5.000001
vt 0.000000 0.250000
vt 0.000000 0.000000
vt 1.000000 0.250000
vt 1.000000 0.000000
vt 0.000000 1.000000
vt 0.000000 1.000000
vt 0.000000 1.000000
vt 0.000000 1.000000
vt 0.000000 1.000000
vt 0.000000 1.000000
vt 0.000000 1.000000
vt 0.000000 1.000000
vn 0.5878 0.8090 0.0000
vn -0.5878 -0.8090 0.0000
vn -0.8094 0.5873 0.0000
vn -0.8069 0.5907 0.0000
vn 0.8107 -0.5854 -0.0000
vn 0.8043 -0.5943 -0.0000
vn 0.0000 0.0000 1.0000
vn 0.0000 0.0000 -1.0000
usemtl 1
s 1
f 1/1/1 2/2/1 3/3/1
f 2/2/1 4/4/1 3/3/1
usemtl $transparent
f 5/5/2 6/6/2 7/7/2
f 6/6/2 8/8/2 7/7/2
f 5/5/3 7/7/4 3/9/3
f 7/7/4 1/10/4 3/9/3
f 8/8/5 6/6/6 2/11/5
f 6/6/6 4/12/6 2/11/5
f 7/7/7 8/8/7 1/10/7
f 8/8/7 2/11/7 1/10/7
f 3/9/8 4/12/8 5/5/8
f 4/12/8 6/6/8 5/5/8
o 2
v -14.751573 12.168457 5.000001
v -16.774115 10.698994 5.000001
v -14.751573 12.168458 -4.999999
v -16.774115 10.698996 -4.999999
v -14.751866 12.168863 -4.999999
v -16.774408 10.699400 -4.999999
v -14.751867 12.168861 5.000001
v -16.774410 10.699398 5.000001
vt 0.000000 0.500000
vt 0.000000 0.250000
vt 1.000000 0.500000
vt 1.000000 0.250000
vt 0.000000 1.000000
vt 0.000000 1.000000
vt 0.000000 1.000000
vt 0.000000 1.000000
vt 0.000000 1.000000
vt 0.000000 1.000000
vt 0.000000 1.000000
vt 0.000000 1.000000
vn -0.5878 0.8090 0.0000
vn 0.5878 -0.8090 0.0000
vn 0.8094 0.5873 0.0000
vn 0.8069 0.5907 0.0000
vn -0.8031 -0.5958 -0.0000
vn -0.8114 -0.5845 -0.0000
vn 0.0000 0.0000 1.0000
vn 0.0000 0.0000 -1.0000
usemtl 1
s 1
f 13/13/9 14/14/9 15/15/9
f 14/14/9 16/16/9 15/15/9
usemtl $transparent
f 9/17/10 10/18/10 11/19/10
f 10/18/10 12/20/10 11/19/10
f 13/21/11 15/22/12 11/19/11
f 15/22/12 9/17/12 11/19/11
f 16/23/13 14/24/14 10/18/13
f 14/24/14 12/20/14 10/18/13
f 15/22/15 16/23/15 9/17/15
f 16/23/15 10/18/15 9/17/15
f 11/19/16 12/20/16 13/21/16
f 12/20/16 14/24/16 13/21/16
o 0
v 13.600000 10.899998 10.100427
v 13.600000 4.099998 10.100426
v 13.600000 10.899998 10.099577
v 13.600000 4.099998 10.099576
v -13.600000 10.899998 10.099577
v -13.600000 4.099998 10.099576
v -13.600000 10.899998 10.100427
v -13.600000 4.099998 10.100426
vt 0.000000 1.000000
vt 0.000000 0.750000
vt 1.000000 1.000000
vt 1.000000 0.750000
vt 0.000000 1.000000
vt 0.000000 1.000000
vt 0.000000 1.000000
vt 0.000000 1.000000
vt 0.000000 1.000000
vt 0.000000 1.000000
vt 0.000000 1.000000
vn 0.0000 -0.0000 1.0000
vn 1.0000 -0.0000 0.0000
vn -1.0000 0.0000 0.0000
vn 0.0000 1.0000 0.0000
vn 0.0000 -1.0000 0.0000
vn 0.0000 0.0000 -1.0000
usemtl 1
s 1
f 23/25/17 24/26/17 17/27/17
f 24/26/17 18/28/17 17/27/17
usemtl $transparent
f 17/29/18 18/30/18 19/31/18
f 18/30/18 20/32/18 19/31/18
f 21/33/19 22/34/19 23/25/19
f 22/34/19 24/35/19 23/25/19
f 21/33/20 23/25/20 19/31/20
f 23/25/20 17/29/20 19/31/20
f 24/35/21 22/34/21 18/30/21
f 22/34/21 20/32/21 18/30/21
f 19/31/22 20/32/22 21/33/22
f 20/32/22 22/34/22 21/33/22
o 1
v 13.600000 10.900002 -10.099574
v 13.600000 4.100001 -10.099575
v 13.600000 10.900002 -10.100424
v 13.600000 4.100001 -10.100425
v -13.600000 10.900002 -10.100424
v -13.600000 4.100001 -10.100425
v -13.600000 10.900002 -10.099574
v -13.600000 4.100001 -10.099575
vt 0.000000 0.750000
vt 0.000000 0.500000
vt 1.000000 0.750000
vt 1.000000 0.500000
vt 0.000000 1.000000
vt 0.000000 1.000000
vt 0.000000 1.000000
vt 0.000000 1.000000
vt 0.000000 1.000000
vt 0.000000 1.000000
vt 0.000000 1.000000
vt 0.000000 1.000000
vn 0.0000 0.0000 -1.0000
vn 1.0000 -0.0000 0.0000
vn -1.0000 0.0000 0.0000
vn 0.0000 1.0000 0.0000
vn 0.0000 -1.0000 0.0000
vn 0.0000 -0.0000 1.0000
usemtl 1
s 1
f 27/36/23 28/37/23 29/38/23
f 28/37/23 30/39/23 29/38/23
usemtl $transparent
f 25/40/24 26/41/24 27/42/24
f 26/41/24 28/43/24 27/42/24
f 29/44/25 30/45/25 31/46/25
f 30/45/25 32/47/25 31/46/25
f 29/44/26 31/46/26 27/42/26
f 31/46/26 25/40/26 27/42/26
f 32/47/27 30/45/27 26/41/27
f 30/45/27 28/43/27 26/41/27
f 31/46/28 32/47/28 25/40/28
f 32/47/28 26/41/28 25/40/28
