# Blender v2.79 (sub 0) OBJ File: ''
# www.blender.org
mtllib nsr_d1_main_print.mtl
o printfr
v 10.000000 -1.000000 16.100000
v 26.000000 -1.000000 16.100000
v 10.000000 3.000000 16.100000
v 26.000000 3.000000 16.100000
vt 1.000000 0.500000
vt 0.000000 0.750000
vt 0.000000 0.500000
vt 1.000000 0.750000
vn 0.0000 0.0000 1.0000
usemtl None
s off
f 2/1/1 3/2/1 1/3/1
f 2/1/1 4/4/1 3/2/1
o printf1_printfl
v 26.000000 -1.000000 -16.100000
v 10.000000 -1.000000 -16.100000
v 26.000000 3.000000 -16.100000
v 10.000000 3.000000 -16.100000
vt 1.000000 0.750000
vt 1.000000 0.999999
vt 0.000000 1.000000
vt 0.000000 0.750000
vn 0.0000 0.0000 -1.0000
usemtl None
s off
f 6/5/2 8/6/2 7/7/2
f 5/8/2 6/5/2 7/7/2
o printbr
v -26.000000 -1.000000 16.100000
v -10.000000 -1.000000 16.100000
v -26.000000 3.000000 16.100000
v -10.000000 3.000000 16.100000
vt 1.000000 0.000000
vt 1.000000 0.250000
vt 0.000000 0.250000
vt 0.000000 0.000001
vn 0.0000 0.0000 1.0000
usemtl None
s off
f 10/9/3 12/10/3 11/11/3
f 9/12/3 10/9/3 11/11/3
o printbl
v -10.000000 -1.000000 -16.100000
v -26.000000 -1.000000 -16.100000
v -10.000000 3.000000 -16.100000
v -26.000000 3.000000 -16.100000
vt 1.000000 0.250000
vt 1.000000 0.500000
vt 0.000000 0.500000
vt 0.000000 0.250000
vn 0.0000 0.0000 -1.0000
usemtl None
s off
f 14/13/4 16/14/4 15/15/4
f 13/16/4 14/13/4 15/15/4
