# Blender v2.79 (sub 0) OBJ File: ''
# www.blender.org
mtllib nsr_d2_main_base.mtl
o floor
v -56.000000 13.999989 24.000006
v -56.000000 10.000011 -23.999998
v -56.000000 9.999989 24.000002
v 56.000000 10.000011 -23.999998
v -52.000000 13.999989 24.000006
v 52.000000 14.000011 -23.999994
v 56.000000 14.000011 -23.999994
v 56.000000 9.999989 24.000002
v 56.000000 13.999984 32.000004
v 52.000000 13.999989 24.000006
v 56.000000 13.999989 24.000006
v -52.000000 14.000011 -23.999994
v 56.000000 14.000013 -31.999994
v 52.000000 14.000013 -31.999994
v 56.000000 18.000011 -23.999992
v 56.000000 17.999989 24.000008
v 52.000000 13.999984 32.000004
v 52.000000 17.999989 24.000008
v 52.000000 18.000011 -23.999992
v -56.000000 14.000011 -23.999994
v -56.000000 17.999989 24.000008
v -52.000000 13.999984 32.000004
v -52.000000 17.999989 24.000008
v -56.000000 13.999984 32.000004
v -56.000000 18.000011 -23.999992
v -52.000000 18.000011 -23.999992
v -52.000000 14.000013 -31.999994
v -56.000000 14.000013 -31.999994
vt 0.843750 0.062500
vt 0.812500 0.437500
vt 0.812500 0.062500
vt 0.000000 0.000000
vt 0.375000 0.875000
vt 0.000000 0.875000
vt 0.906250 0.843750
vt 0.906250 0.875000
vt 0.875000 0.875000
vt 0.937500 0.843750
vt 0.937500 0.875000
vt 0.906250 0.875000
vt 0.781250 0.062500
vt 0.750000 0.437500
vt 0.750000 0.062500
vt 0.843750 0.750000
vt 0.812500 0.687500
vt 0.843750 0.687500
vt 0.375000 0.000000
vt 0.750000 0.812500
vt 0.375000 0.812500
vt 0.843750 0.500000
vt 0.812500 0.562500
vt 0.812500 0.500000
vt 0.781250 0.437500
vt 0.812500 0.062500
vt 1.000000 0.062500
vt 0.968750 0.000000
vt 1.000000 0.000000
vt 0.781250 0.937500
vt 0.781250 0.562500
vt 0.812500 0.562500
vt 0.968750 0.437500
vt 1.000000 0.500000
vt 0.968750 0.500000
vt 1.000000 0.437500
vt 0.843750 0.437500
vt 0.875000 0.062500
vt 0.843750 0.625000
vt 0.812500 0.562500
vt 0.843750 0.562500
vt 0.968750 0.062500
vt 0.937500 0.000000
vt 0.968750 0.000000
vt 0.937500 0.437500
vt 0.968750 0.437500
vt 0.968750 0.500000
vt 0.937500 0.500000
vt 0.843750 0.625000
vt 0.812500 0.687500
vt 0.812500 0.625000
vt 0.781250 0.562500
vt 0.781250 0.937500
vt 0.750000 0.937500
vt 0.375000 0.000000
vt 0.875000 0.000000
vt 0.906250 0.031250
vt 0.906250 0.000000
vt 0.906250 0.000000
vt 0.937500 0.031250
vt 0.937500 0.000000
vt 0.812500 0.750000
vt 0.750000 0.000000
vt 0.843750 0.562500
vt 0.781250 0.000000
vt 0.812500 0.437500
vt 0.781250 0.500000
vt 0.968750 0.062500
vt 0.781250 0.500000
vt 0.812500 0.937500
vt 0.781250 1.000000
vt 0.843750 0.000000
vt 0.875000 0.437500
vt 0.843750 0.500000
vt 0.812500 0.625000
vt 0.937500 0.062500
vt 0.843750 0.687500
vt 0.781250 1.000000
vt 0.750000 0.562500
vt 0.781250 0.500000
vn -1.0000 0.0000 0.0000
vn 0.0000 -1.0000 -0.0000
vn 0.0000 -0.0000 1.0000
vn 0.0000 0.0000 -1.0000
vn 1.0000 0.0000 0.0000
vn 0.0000 1.0000 0.0000
vn 0.0000 0.8944 0.4472
vn 0.0000 0.8944 -0.4472
usemtl None.003
s off
f 1/1/1 2/2/1 3/3/1
f 4/4/2 3/5/2 2/6/2
f 5/7/3 1/8/3 3/9/3
f 6/10/4 7/11/4 4/12/4
f 7/13/5 8/14/5 4/15/5
f 9/16/2 10/17/2 11/18/2
f 10/19/6 12/20/6 5/21/6
f 13/22/2 6/23/2 14/24/2
f 11/25/5 7/13/5 15/26/5
f 16/27/7 17/28/7 9/29/7
f 6/30/1 10/31/1 18/32/1
f 19/33/8 13/34/8 14/35/8
f 19/33/6 16/27/6 15/36/6
f 20/37/1 1/1/1 21/38/1
f 22/39/2 1/40/2 5/41/2
f 23/42/7 24/43/7 22/44/7
f 25/45/6 23/42/6 26/46/6
f 25/45/8 27/47/8 28/48/8
f 27/49/2 20/50/2 28/51/2
f 5/52/5 12/53/5 26/54/5
f 1/1/1 20/37/1 2/2/1
f 4/4/2 8/55/2 3/5/2
f 3/9/3 8/56/3 10/57/3
f 8/56/3 11/58/3 10/57/3
f 10/57/3 5/7/3 3/9/3
f 4/12/4 2/59/4 12/60/4
f 2/59/4 20/61/4 12/60/4
f 12/60/4 6/10/4 4/12/4
f 7/13/5 11/25/5 8/14/5
f 9/16/2 17/62/2 10/17/2
f 10/19/6 6/63/6 12/20/6
f 13/22/2 7/64/2 6/23/2
f 7/13/5 13/65/5 15/26/5
f 15/26/5 16/66/5 11/25/5
f 16/66/5 9/67/5 11/25/5
f 16/27/7 18/68/7 17/28/7
f 10/31/1 17/69/1 18/32/1
f 18/32/1 19/70/1 6/30/1
f 19/70/1 14/71/1 6/30/1
f 19/33/8 15/36/8 13/34/8
f 19/33/6 18/68/6 16/27/6
f 1/1/1 24/72/1 21/38/1
f 21/38/1 25/73/1 20/37/1
f 25/73/1 28/74/1 20/37/1
f 22/39/2 24/75/2 1/40/2
f 23/42/7 21/76/7 24/43/7
f 25/45/6 21/76/6 23/42/6
f 25/45/8 26/46/8 27/47/8
f 27/49/2 12/77/2 20/50/2
f 12/53/5 27/78/5 26/54/5
f 26/54/5 23/79/5 5/52/5
f 23/79/5 22/80/5 5/52/5
o main2
v -132.000000 54.000000 8.000024
v -136.000000 42.000000 -7.999981
v -136.000000 42.000000 8.000018
v -132.000000 42.000000 4.000019
v -104.000000 41.999989 12.000018
v -132.000000 54.000000 -7.999975
v -104.000000 49.999989 12.000024
v -104.000000 50.000011 -11.999976
v -104.000000 42.000011 -11.999982
v -124.000000 42.000000 4.000019
v -124.000000 42.000000 -3.999981
v -132.000000 42.000000 -3.999981
v -132.000000 34.000000 -3.999985
v -132.000000 34.000000 4.000015
v -56.000000 1.999984 32.000000
v -80.000000 38.000000 -7.999983
v -56.000000 2.000016 -32.000000
v -124.000000 34.000000 4.000015
v -124.000000 34.000000 -3.999985
v -56.000000 1.999988 24.000000
v -56.000000 13.999984 32.000004
v -56.000000 14.000013 -31.999994
v -80.000000 37.999996 8.000014
v -80.000000 30.000006 -7.999987
v -80.000000 29.999994 8.000012
v -56.000000 2.000012 -24.000000
v -26.000000 1.999988 24.000000
v -12.000000 1.999988 24.000000
v 0.000000 1.999984 32.000000
v 0.000000 13.999984 32.000004
v -56.000000 14.000011 -23.999994
v -56.000000 13.999989 24.000006
v -44.000000 2.000012 -24.000000
v -30.000000 2.000012 -24.000000
v 0.000000 2.000016 -32.000000
v -26.000000 9.999989 24.000002
v -30.000000 9.999989 24.000002
v -48.000000 1.999988 24.000000
v -48.000000 2.000012 -24.000000
v -26.000000 2.000012 -24.000000
v -30.000000 1.999988 24.000000
v 0.000000 13.999989 24.000006
v 0.000000 1.999988 24.000000
v 0.000000 14.000011 -23.999994
v 0.000000 14.000013 -31.999994
v 0.000000 2.000012 -24.000000
v -30.000000 10.000011 -23.999998
v -26.000000 10.000011 -23.999998
v -44.000000 10.000011 -23.999998
v -44.000000 1.999988 24.000000
v -48.000000 10.000011 -23.999998
v -44.000000 9.999989 24.000002
v -48.000000 9.999989 24.000002
v -12.000000 9.999989 24.000002
v -12.000000 2.000012 -24.000000
v -8.000000 2.000012 -24.000000
v -12.000000 10.000011 -23.999998
v -8.000000 9.999989 24.000002
v -8.000000 10.000011 -23.999998
v -8.000000 1.999988 24.000000
vt 0.511269 0.826791
vt 0.568076 0.741002
vt 0.568076 0.826791
vt 0.485533 0.000000
vt 0.429797 0.021407
vt 0.411219 0.000000
vt 0.836214 0.601316
vt 0.846438 0.765017
vt 0.787695 0.764364
vt 0.182670 0.760113
vt 0.089424 0.615119
vt 0.200736 0.616890
vt 0.709263 0.000000
vt 0.699039 0.163701
vt 0.650521 0.000653
vt 0.429797 0.064220
vt 0.392640 0.171253
vt 0.466954 0.064220
vt 0.466954 0.021407
vt 0.111324 0.803007
vt 0.148405 0.760113
vt 0.148405 0.803007
vt 0.734179 0.283630
vt 0.871354 0.615258
vt 0.183851 0.472741
vt 0.734179 0.149759
vt 0.597004 0.481387
vt 0.037119 0.760113
vt 0.074237 0.803007
vt 0.037122 0.803007
vt 0.504111 0.171253
vt 0.037115 0.803007
vt 0.000003 0.760113
vt 0.037119 0.760113
vt 0.074237 0.803007
vt 0.111324 0.760113
vt 0.111324 0.803007
vt 0.299748 0.441310
vt 0.336905 0.441310
vt 0.786888 0.304542
vt 0.299748 0.301483
vt 0.109644 0.471560
vt 0.002918 0.296761
vt 0.185796 0.453291
vt 0.111589 0.452111
vt 0.597004 0.441310
vt 0.559847 0.441310
vt 0.649713 0.460475
vt 0.568076 0.783839
vt 0.584950 0.742980
vt 0.584950 0.785816
vt 0.411219 0.303646
vt 0.336905 0.601860
vt 0.336905 0.676783
vt 0.299748 0.741002
vt 0.871354 0.020912
vt 0.818644 0.000000
vt 0.262644 0.300893
vt 0.040022 0.297351
vt 0.964437 0.012429
vt 1.000000 0.000000
vt 0.871354 0.175015
vt 0.964437 0.911699
vt 0.871354 0.749113
vt 1.000000 0.924128
vt 0.485533 0.303646
vt 0.559847 0.505530
vt 0.559847 0.580453
vt 0.681470 0.765017
vt 0.924698 0.156372
vt 0.947257 0.316363
vt 0.941878 0.295859
vt 0.336905 0.484123
vt 0.559847 0.484123
vt 0.559847 0.601859
vt 0.336905 0.580453
vt 0.037104 0.029765
vt 0.002918 0.000000
vt 0.040022 0.000590
vt 0.000000 0.029174
vt 0.924698 0.767755
vt 0.259726 0.033306
vt 0.296830 0.033896
vt 0.262644 0.004132
vt 0.299748 0.004722
vt 1.000000 0.480707
vt 0.941878 0.628269
vt 0.947257 0.607765
vt 0.427544 0.998022
vt 0.444418 0.742980
vt 0.444418 1.000000
vt 0.410992 0.998527
vt 0.427544 0.741002
vt 0.373911 0.998367
vt 0.410992 0.741002
vt 0.410992 0.998367
vt 0.461291 0.742980
vt 0.444418 0.998022
vt 0.444418 0.741002
vt 0.477844 0.742476
vt 0.461291 1.000000
vt 0.336829 0.998367
vt 0.373911 0.741002
vt 0.373911 0.998367
vt 0.299748 0.998367
vt 0.336829 0.741002
vt 0.336829 0.998367
vt 0.559847 0.698189
vt 0.559847 0.676782
vt 0.511269 0.742476
vt 0.494717 1.000000
vt 0.494717 0.742980
vt 0.477844 0.998023
vt 0.477844 0.741002
vt 0.511269 0.741002
vt 0.108463 0.758933
vt 0.111324 0.760113
vt 0.074234 0.760113
vt 0.000000 0.803007
vt 0.074237 0.760113
vt 0.568076 0.741002
vt 0.336905 0.505530
vt 0.336905 0.741002
vt 0.336905 0.698189
vt 0.597004 0.741002
vt 0.559847 0.741002
vt 0.734179 0.744104
vt 0.882111 0.216022
vt 0.917674 0.203594
vt 1.000000 0.443421
vt 0.946656 0.462064
vt 0.971461 0.408628
vt 0.935898 0.421057
vt 0.906315 0.308288
vt 0.887490 0.236526
vt 0.923053 0.224097
vt 0.966082 0.388125
vt 0.930519 0.400554
vt 0.911694 0.328791
vt 0.935898 0.503071
vt 0.946656 0.462064
vt 0.971461 0.515500
vt 0.917674 0.720534
vt 0.882111 0.708106
vt 0.911694 0.595336
vt 0.930519 0.523574
vt 0.966082 0.536003
vt 0.923053 0.700031
vt 0.887490 0.687602
vt 0.906315 0.615840
vt 0.410992 0.741506
vt 0.373911 0.741002
vt 0.477844 0.999496
vt 0.336829 0.741002
vt 0.299748 0.741002
vt 0.511269 0.999496
vn -0.9487 0.3162 0.0000
vn 0.0000 -1.0000 0.0000
vn -0.1239 0.0413 0.9914
vn 0.1414 0.9899 0.0000
vn -0.1239 0.0413 -0.9914
vn -1.0000 0.0000 0.0000
vn -0.3846 -0.0000 0.9231
vn 0.4472 0.8944 0.0000
vn -0.3846 0.0000 -0.9231
vn 0.0000 -0.0000 1.0000
vn 0.0000 0.0000 -1.0000
vn -0.6402 -0.7682 -0.0000
vn 0.4650 0.8137 -0.3487
vn 0.4650 0.8137 0.3487
vn 1.0000 -0.0000 0.0000
vn -0.4472 -0.8944 -0.0000
vn -0.4433 -0.6999 -0.5600
vn 0.7071 0.7071 0.0000
vn 0.5547 0.0000 -0.8321
vn 0.5547 0.0000 0.8321
vn -0.4433 -0.6999 0.5600
vn 0.0000 1.0000 0.0000
vn -0.1414 -0.0000 0.9899
vn -0.1414 0.0000 -0.9899
usemtl None.003
s off
f 29/81/9 30/82/9 31/83/9
f 30/84/10 32/85/10 31/86/10
f 33/87/11 29/88/11 31/89/11
f 34/90/12 35/91/12 36/92/12
f 34/93/13 37/94/13 30/95/13
f 31/86/10 38/96/10 33/97/10
f 30/84/10 39/98/10 40/99/10
f 32/100/14 41/101/14 42/102/14
f 33/87/15 43/103/15 35/104/15
f 35/91/16 44/105/16 36/92/16
f 37/94/17 36/106/17 45/107/17
f 38/108/18 42/109/18 46/110/18
f 38/96/10 37/111/10 33/97/10
f 40/112/19 47/113/19 41/114/19
f 47/115/10 42/116/10 41/117/10
f 43/118/20 33/97/20 48/119/20
f 43/103/15 49/120/15 35/104/15
f 50/121/21 36/92/21 44/105/21
f 51/122/22 35/91/22 49/123/22
f 52/124/23 51/122/23 53/125/23
f 37/111/20 45/126/20 54/127/20
f 36/106/17 50/128/17 45/107/17
f 39/129/23 46/130/23 47/131/23
f 37/111/24 53/132/24 33/97/24
f 55/133/10 56/134/10 57/135/10
f 33/97/25 53/132/25 48/119/25
f 58/136/18 43/103/18 57/137/18
f 59/138/26 50/121/26 44/105/26
f 60/139/26 51/122/26 49/123/26
f 53/140/27 51/141/27 48/142/27
f 52/143/28 54/144/28 44/145/28
f 52/146/29 37/111/29 54/127/29
f 61/147/10 45/126/10 62/148/10
f 50/128/19 63/149/19 45/107/19
f 60/150/19 64/151/19 65/152/19
f 61/147/10 66/153/10 67/154/10
f 68/155/10 69/156/10 62/148/10
f 70/157/23 57/158/23 71/159/23
f 60/139/30 58/160/30 70/157/30
f 54/144/28 59/161/28 44/145/28
f 50/121/30 72/162/30 73/163/30
f 51/141/27 60/150/27 48/142/27
f 73/163/23 74/164/23 63/165/23
f 72/166/18 75/167/18 76/168/18
f 76/169/23 55/170/23 68/171/23
f 75/172/30 64/173/30 76/169/30
f 65/174/14 62/175/14 69/176/14
f 77/177/23 78/178/23 61/179/23
f 79/180/30 80/181/30 77/177/30
f 81/182/14 67/183/14 66/184/14
f 82/185/14 83/186/14 56/187/14
f 84/188/10 56/134/10 83/189/10
f 85/190/30 86/191/30 87/192/30
f 87/192/23 88/193/23 84/194/23
f 29/81/9 34/195/9 30/82/9
f 30/84/10 40/99/10 32/85/10
f 33/87/31 35/104/31 29/88/31
f 34/90/12 29/196/12 35/91/12
f 34/93/32 36/106/32 37/94/32
f 31/86/10 32/85/10 38/96/10
f 30/84/10 37/111/10 39/98/10
f 32/100/14 40/197/14 41/101/14
f 35/91/16 51/122/16 44/105/16
f 38/108/18 32/198/18 42/109/18
f 38/96/10 39/98/10 37/111/10
f 40/112/19 39/199/19 47/113/19
f 47/115/10 46/200/10 42/116/10
f 52/124/23 44/105/23 51/122/23
f 39/129/23 38/201/23 46/130/23
f 37/111/24 52/146/24 53/132/24
f 43/118/10 48/119/10 66/153/10
f 78/202/10 69/156/10 43/118/10
f 69/156/10 55/133/10 43/118/10
f 43/118/10 66/153/10 78/202/10
f 71/203/10 57/135/10 88/204/10
f 57/135/10 43/118/10 55/133/10
f 88/204/10 57/135/10 56/134/10
f 58/136/18 49/120/18 43/103/18
f 54/127/10 45/126/10 67/154/10
f 45/126/10 63/205/10 62/148/10
f 67/154/10 45/126/10 61/147/10
f 63/205/10 74/206/10 84/188/10
f 83/189/10 68/155/10 63/205/10
f 68/155/10 62/148/10 63/205/10
f 63/205/10 84/188/10 83/189/10
f 50/128/19 73/207/19 63/149/19
f 66/208/19 48/142/19 81/209/19
f 48/142/19 60/150/19 81/209/19
f 70/210/19 71/211/19 86/212/19
f 71/211/19 88/213/19 86/212/19
f 69/214/19 78/215/19 80/216/19
f 80/216/19 81/209/19 60/150/19
f 60/150/19 70/210/19 64/151/19
f 70/210/19 86/212/19 82/217/19
f 82/217/19 56/218/19 55/219/19
f 70/210/19 82/217/19 64/151/19
f 65/152/19 69/214/19 80/216/19
f 82/217/19 55/219/19 64/151/19
f 65/152/19 80/216/19 60/150/19
f 61/147/10 78/202/10 66/153/10
f 68/155/10 55/133/10 69/156/10
f 70/157/23 58/160/23 57/158/23
f 60/139/30 49/123/30 58/160/30
f 50/121/30 59/138/30 72/162/30
f 73/163/23 72/162/23 74/164/23
f 84/220/18 74/221/18 87/222/18
f 74/221/18 72/166/18 87/222/18
f 59/161/18 54/144/18 79/223/18
f 54/144/18 67/224/18 79/223/18
f 68/225/18 83/226/18 85/227/18
f 85/227/18 87/222/18 72/166/18
f 72/166/18 59/161/18 75/167/18
f 59/161/18 79/223/18 77/228/18
f 77/228/18 61/229/18 62/230/18
f 59/161/18 77/228/18 75/167/18
f 76/168/18 68/225/18 85/227/18
f 77/228/18 62/230/18 75/167/18
f 76/168/18 85/227/18 72/166/18
f 76/169/23 64/173/23 55/170/23
f 75/172/30 65/231/30 64/173/30
f 65/174/14 75/232/14 62/175/14
f 77/177/23 80/181/23 78/178/23
f 79/180/30 81/233/30 80/181/30
f 81/182/14 79/234/14 67/183/14
f 82/185/14 85/235/14 83/186/14
f 84/188/10 88/204/10 56/134/10
f 85/190/30 82/236/30 86/191/30
f 87/192/23 86/191/23 88/193/23
o main1
v 132.000000 54.000000 8.000024
v 136.000000 42.000000 8.000018
v 136.000000 42.000000 -7.999981
v 132.000000 42.000000 4.000019
v 104.000000 41.999989 12.000018
v 132.000000 54.000000 -7.999975
v 104.000000 50.000011 -11.999976
v 104.000000 49.999989 12.000024
v 104.000000 42.000011 -11.999982
v 124.000000 42.000000 4.000019
v 132.000000 42.000000 -3.999981
v 124.000000 42.000000 -3.999981
v 132.000000 34.000000 4.000015
v 132.000000 34.000000 -3.999985
v 56.000000 1.999984 32.000000
v 80.000000 38.000000 -7.999983
v 56.000000 2.000016 -32.000000
v 124.000000 34.000000 4.000015
v 124.000000 34.000000 -3.999985
v 56.000000 1.999988 24.000000
v 56.000000 13.999984 32.000004
v 56.000000 14.000013 -31.999994
v 80.000000 37.999996 8.000014
v 80.000000 30.000006 -7.999987
v 80.000000 29.999994 8.000012
v 56.000000 2.000012 -24.000000
v 26.000000 1.999988 24.000000
v 0.000000 1.999984 32.000000
v 12.000000 1.999988 24.000000
v 0.000000 13.999984 32.000004
v 56.000000 14.000011 -23.999994
v 56.000000 13.999989 24.000006
v 44.000000 2.000012 -24.000000
v 30.000000 2.000012 -24.000000
v 0.000000 2.000016 -32.000000
v 30.000000 9.999989 24.000002
v 26.000000 9.999989 24.000002
v 48.000000 2.000012 -24.000000
v 48.000000 1.999988 24.000000
v 26.000000 2.000012 -24.000000
v 30.000000 1.999988 24.000000
v 0.000000 13.999989 24.000006
v 0.000000 1.999988 24.000000
v 0.000000 14.000013 -31.999994
v 0.000000 14.000011 -23.999994
v 0.000000 2.000012 -24.000000
v 26.000000 10.000011 -23.999998
v 30.000000 10.000011 -23.999998
v 44.000000 10.000011 -23.999998
v 44.000000 1.999988 24.000000
v 48.000000 10.000011 -23.999998
v 44.000000 9.999989 24.000002
v 48.000000 9.999989 24.000002
v 12.000000 9.999989 24.000002
v 12.000000 2.000012 -24.000000
v 8.000000 2.000012 -24.000000
v 12.000000 10.000011 -23.999998
v 8.000000 10.000011 -23.999998
v 8.000000 9.999989 24.000002
v 8.000000 1.999988 24.000000
vt 0.511269 0.826791
vt 0.568076 0.826791
vt 0.568076 0.741002
vt 0.485533 0.000000
vt 0.411219 0.000000
vt 0.429797 0.021407
vt 0.836214 0.601316
vt 0.787695 0.764364
vt 0.846438 0.765017
vt 0.182670 0.760113
vt 0.200736 0.616890
vt 0.089424 0.615119
vt 0.709263 0.000000
vt 0.650521 0.000653
vt 0.699039 0.163701
vt 0.392640 0.171253
vt 0.429797 0.064220
vt 0.466954 0.021407
vt 0.466954 0.064220
vt 0.111324 0.803007
vt 0.148405 0.803007
vt 0.148405 0.760113
vt 0.871354 0.615258
vt 0.734179 0.283630
vt 0.183851 0.472741
vt 0.597004 0.481387
vt 0.734179 0.149759
vt 0.037119 0.760113
vt 0.037122 0.803007
vt 0.074237 0.803007
vt 0.504111 0.171253
vt 0.037115 0.803007
vt 0.037119 0.760113
vt 0.000003 0.760113
vt 0.074237 0.803007
vt 0.111324 0.803007
vt 0.111324 0.760113
vt 0.299748 0.441310
vt 0.336905 0.441310
vt 0.786888 0.304542
vt 0.299748 0.301483
vt 0.109644 0.471560
vt 0.002918 0.296761
vt 0.185796 0.453291
vt 0.111589 0.452111
vt 0.559847 0.441310
vt 0.597004 0.441310
vt 0.649713 0.460475
vt 0.568076 0.783839
vt 0.584950 0.785816
vt 0.584950 0.742980
vt 0.411219 0.303646
vt 0.336905 0.601860
vt 0.299748 0.741002
vt 0.336905 0.676783
vt 0.871354 0.020912
vt 0.818644 0.000000
vt 0.262644 0.300893
vt 0.040022 0.297351
vt 0.964437 0.012429
vt 0.871354 0.175015
vt 1.000000 0.000000
vt 0.964437 0.911699
vt 1.000000 0.924128
vt 0.871354 0.749113
vt 0.485533 0.303646
vt 0.559847 0.505530
vt 0.559847 0.580453
vt 0.681470 0.765017
vt 0.924698 0.156372
vt 0.941878 0.295859
vt 0.947257 0.316363
vt 0.559847 0.484123
vt 0.336905 0.484123
vt 0.559847 0.601859
vt 0.336905 0.580453
vt 0.037104 0.029765
vt 0.040022 0.000590
vt 0.002918 0.000000
vt 0.000000 0.029174
vt 0.924698 0.767755
vt 0.296830 0.033896
vt 0.259726 0.033306
vt 0.299748 0.004722
vt 0.262644 0.004132
vt 1.000000 0.480707
vt 0.947257 0.607765
vt 0.941878 0.628269
vt 0.427544 0.998022
vt 0.444418 1.000000
vt 0.444418 0.742980
vt 0.410992 0.998527
vt 0.427544 0.741002
vt 0.373911 0.998367
vt 0.410992 0.998367
vt 0.410992 0.741002
vt 0.461291 0.742980
vt 0.444418 0.741002
vt 0.444418 0.998022
vt 0.477844 0.742476
vt 0.461291 1.000000
vt 0.336829 0.998367
vt 0.373911 0.998367
vt 0.373911 0.741002
vt 0.299748 0.998367
vt 0.336829 0.998367
vt 0.336829 0.741002
vt 0.559847 0.698189
vt 0.559847 0.676782
vt 0.511269 0.742476
vt 0.494717 0.742980
vt 0.494717 1.000000
vt 0.477844 0.741002
vt 0.477844 0.998023
vt 0.511269 0.741002
vt 0.108463 0.758933
vt 0.111324 0.760113
vt 0.074234 0.760113
vt 0.000000 0.803007
vt 0.074237 0.760113
vt 0.568076 0.741002
vt 0.336905 0.505530
vt 0.336905 0.741002
vt 0.336905 0.698189
vt 0.597004 0.741002
vt 0.559847 0.741002
vt 0.734179 0.744104
vt 0.882111 0.216022
vt 0.917674 0.203594
vt 1.000000 0.443421
vt 0.971461 0.408628
vt 0.946656 0.462064
vt 0.935898 0.421057
vt 0.906315 0.308288
vt 0.923053 0.224097
vt 0.887490 0.236526
vt 0.966082 0.388125
vt 0.911694 0.328791
vt 0.930519 0.400554
vt 0.935898 0.503071
vt 0.971461 0.515500
vt 0.946656 0.462064
vt 0.917674 0.720534
vt 0.882111 0.708106
vt 0.911694 0.595336
vt 0.966082 0.536003
vt 0.930519 0.523574
vt 0.923053 0.700031
vt 0.906315 0.615840
vt 0.887490 0.687602
vt 0.410992 0.741506
vt 0.373911 0.741002
vt 0.477844 0.999496
vt 0.336829 0.741002
vt 0.299748 0.741002
vt 0.511269 0.999496
vn 0.9487 0.3162 0.0000
vn 0.0000 -1.0000 0.0000
vn 0.1239 0.0413 0.9914
vn -0.1414 0.9899 0.0000
vn 0.1239 0.0413 -0.9914
vn 1.0000 0.0000 0.0000
vn 0.3846 -0.0000 0.9231
vn -0.4472 0.8944 0.0000
vn 0.3846 0.0000 -0.9231
vn 0.0000 -0.0000 1.0000
vn 0.0000 0.0000 -1.0000
vn 0.6402 -0.7682 -0.0000
vn -0.4650 0.8137 -0.3487
vn -0.4650 0.8137 0.3487
vn -1.0000 -0.0000 0.0000
vn 0.4472 -0.8944 -0.0000
vn 0.4433 -0.6999 -0.5600
vn -0.7071 0.7071 0.0000
vn -0.5547 0.0000 -0.8321
vn -0.5547 0.0000 0.8321
vn 0.4433 -0.6999 0.5600
vn 0.0000 1.0000 0.0000
vn 0.1414 -0.0000 0.9899
vn 0.1414 0.0000 -0.9899
usemtl None.003
s off
f 89/237/33 90/238/33 91/239/33
f 91/240/34 90/241/34 92/242/34
f 93/243/35 90/244/35 89/245/35
f 94/246/36 95/247/36 96/248/36
f 94/249/37 91/250/37 97/251/37
f 90/241/34 93/252/34 98/253/34
f 91/240/34 99/254/34 100/255/34
f 92/256/38 101/257/38 102/258/38
f 93/243/39 96/259/39 103/260/39
f 96/248/40 95/247/40 104/261/40
f 97/251/41 105/262/41 95/263/41
f 98/264/42 106/265/42 101/266/42
f 98/253/34 93/252/34 97/267/34
f 99/268/43 102/269/43 107/270/43
f 107/271/34 102/272/34 101/273/34
f 103/274/44 108/275/44 93/252/44
f 103/260/39 96/259/39 109/276/39
f 110/277/45 104/261/45 95/247/45
f 111/278/46 109/279/46 96/248/46
f 112/280/47 113/281/47 111/278/47
f 97/267/44 114/282/44 105/283/44
f 95/263/41 105/262/41 110/284/41
f 100/285/47 107/286/47 106/287/47
f 97/267/48 93/252/48 113/288/48
f 115/289/34 116/290/34 117/291/34
f 93/252/49 108/275/49 113/288/49
f 118/292/42 116/293/42 103/260/42
f 119/294/50 104/261/50 110/277/50
f 120/295/50 109/279/50 111/278/50
f 113/296/51 108/297/51 111/298/51
f 112/299/52 104/300/52 114/301/52
f 112/302/53 114/282/53 97/267/53
f 121/303/34 122/304/34 105/283/34
f 110/284/43 105/262/43 123/305/43
f 120/306/43 124/307/43 125/308/43
f 121/303/34 126/309/34 127/310/34
f 128/311/34 122/304/34 129/312/34
f 130/313/47 131/314/47 116/315/47
f 120/295/54 130/313/54 118/316/54
f 114/301/52 104/300/52 119/317/52
f 110/277/54 132/318/54 133/319/54
f 111/298/51 108/297/51 120/306/51
f 132/318/47 123/320/47 134/321/47
f 133/322/42 135/323/42 136/324/42
f 135/325/47 128/326/47 115/327/47
f 136/328/54 135/325/54 125/329/54
f 124/330/38 129/331/38 122/332/38
f 137/333/47 121/334/47 138/335/47
f 139/336/54 137/333/54 140/337/54
f 141/338/38 127/339/38 126/340/38
f 142/341/38 117/342/38 143/343/38
f 144/344/34 143/345/34 117/291/34
f 145/346/54 146/347/54 147/348/54
f 146/347/47 144/349/47 148/350/47
f 89/237/33 91/239/33 94/351/33
f 91/240/34 92/242/34 99/254/34
f 93/243/55 89/245/55 96/259/55
f 94/246/36 96/248/36 89/352/36
f 94/249/56 97/251/56 95/263/56
f 90/241/34 98/253/34 92/242/34
f 91/240/34 100/255/34 97/267/34
f 92/256/38 102/258/38 99/353/38
f 96/248/40 104/261/40 111/278/40
f 98/264/42 101/266/42 92/354/42
f 98/253/34 97/267/34 100/255/34
f 99/268/43 107/270/43 100/355/43
f 107/271/34 101/273/34 106/356/34
f 112/280/47 111/278/47 104/261/47
f 100/285/47 106/287/47 98/357/47
f 97/267/48 113/288/48 112/302/48
f 103/274/34 127/310/34 108/275/34
f 138/358/34 103/274/34 129/312/34
f 129/312/34 103/274/34 115/289/34
f 103/274/34 138/358/34 127/310/34
f 131/359/34 148/360/34 116/290/34
f 116/290/34 115/289/34 103/274/34
f 148/360/34 117/291/34 116/290/34
f 118/292/42 103/260/42 109/276/42
f 114/282/34 126/309/34 105/283/34
f 105/283/34 122/304/34 123/361/34
f 126/309/34 121/303/34 105/283/34
f 123/361/34 144/344/34 134/362/34
f 143/345/34 123/361/34 128/311/34
f 128/311/34 123/361/34 122/304/34
f 123/361/34 143/345/34 144/344/34
f 110/284/43 123/305/43 132/363/43
f 127/364/43 141/365/43 108/297/43
f 108/297/43 141/365/43 120/306/43
f 130/366/43 147/367/43 131/368/43
f 131/368/43 147/367/43 148/369/43
f 129/370/43 140/371/43 138/372/43
f 140/371/43 120/306/43 141/365/43
f 120/306/43 125/308/43 130/366/43
f 130/366/43 142/373/43 147/367/43
f 142/373/43 115/374/43 117/375/43
f 130/366/43 125/308/43 142/373/43
f 124/307/43 140/371/43 129/370/43
f 142/373/43 125/308/43 115/374/43
f 124/307/43 120/306/43 140/371/43
f 121/303/34 127/310/34 138/358/34
f 128/311/34 129/312/34 115/289/34
f 130/313/47 116/315/47 118/316/47
f 120/295/54 118/316/54 109/279/54
f 110/277/54 133/319/54 119/294/54
f 132/318/47 134/321/47 133/319/47
f 144/376/42 146/377/42 134/378/42
f 134/378/42 146/377/42 133/322/42
f 119/317/42 139/379/42 114/301/42
f 114/301/42 139/379/42 126/380/42
f 128/381/42 145/382/42 143/383/42
f 145/382/42 133/322/42 146/377/42
f 133/322/42 136/324/42 119/317/42
f 119/317/42 137/384/42 139/379/42
f 137/384/42 122/385/42 121/386/42
f 119/317/42 136/324/42 137/384/42
f 135/323/42 145/382/42 128/381/42
f 137/384/42 136/324/42 122/385/42
f 135/323/42 133/322/42 145/382/42
f 135/325/47 115/327/47 125/329/47
f 136/328/54 125/329/54 124/387/54
f 124/330/38 122/332/38 136/388/38
f 137/333/47 138/335/47 140/337/47
f 139/336/54 140/337/54 141/389/54
f 141/338/38 126/340/38 139/390/38
f 142/341/38 143/343/38 145/391/38
f 144/344/34 117/291/34 148/360/34
f 145/346/54 147/348/54 142/392/54
f 146/347/47 148/350/47 147/348/47
