# Blender v2.79 (sub 0) OBJ File: ''
# www.blender.org
mtllib nsr_d2_shelf_base.mtl
o shelf1
v -40.000000 28.111107 8.000008
v -40.000000 20.111116 -7.999995
v -40.000000 20.111109 8.000004
v -24.000000 20.111109 8.000004
v -8.000000 32.111107 8.000010
v -40.000000 28.111116 -7.999992
v -8.000000 32.111115 -7.999990
v 6.000000 44.111115 -5.999983
v 8.000000 32.111115 -7.999990
v 40.000000 20.111111 8.000004
v 27.500000 16.111113 4.500002
v 36.500000 16.111113 4.500002
v 40.000000 28.111116 -7.999992
v 40.000000 20.111118 -7.999995
v 40.000000 28.111107 8.000008
v 8.000000 32.111107 8.000010
v 6.000000 44.111107 6.000017
v -6.000000 44.111115 -5.999983
v -6.000000 44.111107 6.000017
v -8.000000 12.111119 -5.999999
v -24.000000 20.111116 -7.999995
v -6.000000 8.111126 -4.000000
v -8.000000 12.111115 6.000001
v 6.000000 8.111126 -4.000000
v -6.000000 8.111122 4.000000
v 6.000000 8.111122 4.000000
v 8.000000 12.111119 -5.999999
v 8.000000 12.111115 6.000001
v 24.000000 20.111118 -7.999995
v 24.000000 20.111111 8.000004
v 36.500000 16.111116 -4.499998
v 27.500000 16.111116 -4.499998
v -36.500000 16.111115 -4.499998
v -36.500000 16.111111 4.500002
v -27.500000 16.111115 -4.499998
v -27.500000 16.111111 4.500002
vt 0.291335 1.000000
vt 0.373342 0.833333
vt 0.373342 1.000000
vt 0.533814 0.000000
vt 0.615939 0.166667
vt 0.492751 0.333333
vt 0.907299 0.333333
vt 0.742496 0.000000
vt 0.907299 0.000000
vt 0.249745 0.333333
vt 0.371248 0.479167
vt 0.249745 0.500000
vt 0.615939 0.833333
vt 0.659950 0.703125
vt 0.659950 0.796875
vt 0.291335 0.833333
vt 0.209328 1.000000
vt 0.209328 0.833333
vt 0.742496 0.333333
vt 0.907299 0.666667
vt 0.742496 0.666667
vt 0.538866 1.000000
vt 0.417868 0.854167
vt 0.538866 0.833333
vt 0.659864 0.833333
vt 0.783466 0.958333
vt 0.659864 0.958333
vt 0.659864 1.000000
vt 0.538866 0.854167
vt 0.659864 0.833333
vt 0.742496 0.812500
vt 0.907299 0.666667
vt 0.907299 0.833333
vt 0.907299 0.531250
vt 0.950315 0.427083
vt 0.950315 0.552083
vt 0.865867 0.958333
vt 0.783465 0.833333
vt 0.865867 0.833333
vt 0.907299 0.656250
vt 0.950315 0.552083
vt 0.950315 0.677083
vt 0.000000 0.979167
vt 0.164802 0.833333
vt 0.164802 1.000000
vt 0.126557 0.666667
vt 0.082546 0.796875
vt 0.082546 0.703125
vt 0.907299 0.000000
vt 1.000000 0.093750
vt 0.907299 0.093750
vt 0.164802 0.963542
vt 0.164802 0.869792
vt 0.951824 0.093750
vt 0.907299 0.223958
vt 0.907299 0.130208
vt 0.417868 0.869792
vt 0.417868 0.963542
vt 0.865867 0.833333
vt 0.958568 0.927083
vt 0.865867 0.927083
vt 0.659950 0.036458
vt 0.659950 0.130208
vt 0.126557 0.000000
vt 0.082546 0.130208
vt 0.082546 0.036458
vt 0.951824 0.260417
vt 0.907299 0.390625
vt 0.907299 0.296875
vt 0.699749 0.333333
vt 0.742496 0.479167
vt 0.699749 0.500000
vt 0.492751 0.500000
vt 0.371248 0.354167
vt 0.615939 0.666667
vt 0.208683 0.833333
vt 0.042747 0.500000
vt 0.000000 0.354167
vt 0.042747 0.333333
vt 0.126557 0.166667
vt 0.208682 0.000000
vt 0.533814 0.833333
vt 0.291335 0.833333
vt 0.615939 0.000000
vt 0.742496 0.333333
vt 0.371248 0.354167
vt 0.291335 1.000000
vt 0.907299 0.333333
vt 0.417868 0.979167
vt 0.783465 0.833333
vt 0.538866 0.979167
vt 0.742496 0.687500
vt 0.907299 0.447917
vt 0.783466 0.958333
vt 0.907299 0.572917
vt 0.000000 0.854167
vt 0.126557 0.833333
vt 1.000000 0.000000
vt 0.951824 0.260417
vt 0.958568 0.833333
vt 0.951824 0.427083
vt 0.742496 0.354167
vt 0.371248 0.479167
vt 0.000000 0.479167
vn -1.0000 0.0000 0.0000
vn -0.0000 -0.0000 1.0000
vn -0.1240 0.9923 0.0000
vn 0.0000 0.1644 -0.9864
vn 0.0000 -0.6585 0.7526
vn 1.0000 -0.0000 0.0000
vn 0.1240 0.9923 0.0000
vn 0.9864 0.1644 0.0000
vn 0.0000 1.0000 0.0000
vn -0.9864 0.1644 0.0000
vn -0.4472 -0.8944 -0.0000
vn -0.8944 -0.4472 -0.0000
vn 0.0000 -1.0000 -0.0000
vn 0.8944 -0.4472 -0.0000
vn 0.4472 -0.8944 -0.0000
vn 0.0000 -0.6585 -0.7526
vn 0.7526 -0.6585 -0.0000
vn -0.7526 -0.6585 -0.0000
vn 0.0000 -0.4472 0.8944
vn 0.0000 0.1644 0.9864
vn -0.0744 -0.0992 0.9923
vn 0.0000 -0.0995 0.9950
vn 0.0000 0.0000 -1.0000
vn 0.0000 -0.4472 -0.8944
vn 0.0000 -0.0995 -0.9950
vn 0.0744 -0.0992 -0.9923
vn -0.0744 -0.0992 -0.9923
vn 0.0744 -0.0992 0.9923
usemtl None.009
s off
f 1/1/1 2/2/1 3/3/1
f 1/4/2 4/5/2 5/6/2
f 6/7/3 5/8/3 7/9/3
f 7/10/4 8/11/4 9/12/4
f 10/13/5 11/14/5 12/15/5
f 13/16/6 10/17/6 14/18/6
f 15/19/7 9/20/7 16/21/7
f 9/22/8 17/23/8 16/24/8
f 17/25/9 18/26/9 19/27/9
f 5/28/10 18/29/10 7/30/10
f 20/31/11 4/32/11 21/33/11
f 22/34/12 23/35/12 20/36/12
f 24/37/13 25/38/13 22/39/13
f 26/40/14 27/41/14 28/42/14
f 28/43/15 29/44/15 30/45/15
f 29/46/16 31/47/16 32/48/16
f 31/49/13 11/50/13 32/51/13
f 14/18/17 12/52/17 31/53/17
f 30/54/18 32/55/18 11/56/18
f 3/3/18 33/57/18 34/58/18
f 35/59/13 34/60/13 33/61/13
f 4/5/5 34/62/5 36/63/5
f 2/64/16 35/65/16 33/66/16
f 21/67/17 36/68/17 35/69/17
f 23/70/19 26/71/19 28/72/19
f 16/73/20 19/74/20 5/6/20
f 30/75/21 16/73/21 28/72/21
f 16/73/22 23/70/22 28/72/22
f 13/76/23 29/46/23 9/12/23
f 27/77/24 22/78/24 20/79/24
f 7/10/25 27/77/25 20/79/25
f 21/80/26 7/10/26 20/79/26
f 6/81/23 21/80/23 2/64/23
f 27/77/27 9/12/27 29/46/27
f 23/70/28 5/6/28 4/5/28
f 15/82/2 30/75/2 10/13/2
f 1/1/1 6/83/1 2/2/1
f 1/4/2 3/84/2 4/5/2
f 6/7/3 1/85/3 5/8/3
f 7/10/4 18/86/4 8/11/4
f 10/13/5 30/75/5 11/14/5
f 13/16/6 15/87/6 10/17/6
f 15/19/7 13/88/7 9/20/7
f 9/22/8 8/89/8 17/23/8
f 17/25/9 8/90/9 18/26/9
f 5/28/10 19/91/10 18/29/10
f 20/31/11 23/92/11 4/32/11
f 22/34/12 25/93/12 23/35/12
f 24/37/13 26/94/13 25/38/13
f 26/40/14 24/95/14 27/41/14
f 28/43/15 27/96/15 29/44/15
f 29/46/16 14/97/16 31/47/16
f 31/49/13 12/98/13 11/50/13
f 14/18/17 10/17/17 12/52/17
f 30/54/18 29/99/18 32/55/18
f 3/3/18 2/2/18 33/57/18
f 35/59/13 36/100/13 34/60/13
f 4/5/5 3/84/5 34/62/5
f 2/64/16 21/80/16 35/65/16
f 21/67/17 4/101/17 36/68/17
f 23/70/19 25/102/19 26/71/19
f 16/73/20 17/103/20 19/74/20
f 16/73/22 5/6/22 23/70/22
f 13/76/23 14/97/23 29/46/23
f 27/77/24 24/104/24 22/78/24
f 7/10/25 9/12/25 27/77/25
f 6/81/23 7/10/23 21/80/23
f 15/82/2 16/73/2 30/75/2
