# Blender v2.79 (sub 0) OBJ File: ''
# www.blender.org
mtllib nspga_base.mtl
o 1
v 6.020926 -5.999964 5.979036
v 6.022671 -6.999961 5.977288
v 5.999982 -5.979019 -6.020927
v 6.001727 -6.979015 -6.022676
v -5.999982 -5.999999 -6.000020
v -5.998237 -6.999996 -6.001768
v -5.979038 -6.020945 5.999944
v -5.977293 -7.020942 5.998196
vt 0.125000 0.937500
vt 0.125000 0.875000
vt 0.875000 0.937500
vt 0.875000 0.875000
vt 0.125000 0.937500
vt 0.125000 0.875000
vt 0.875000 0.937500
vt 0.875000 0.875000
vt 0.000000 1.000000
vt 0.000000 0.000000
vt 1.000000 1.000000
vt 1.000000 0.000000
vt 0.125000 0.875000
vt 0.125000 0.125000
vt 0.875000 0.875000
vt 0.875000 0.125000
vt 0.125000 0.937500
vt 0.875000 0.937500
vt 0.125000 0.937500
vt 0.125000 0.875000
vt 0.875000 0.937500
vt 0.875000 0.875000
vn 1.0000 0.0017 -0.0017
vn -1.0000 -0.0017 0.0017
vn -0.0017 1.0000 0.0017
vn 0.0017 -1.0000 -0.0017
vn 0.0017 -0.0017 1.0000
vn -0.0017 0.0017 -1.0000
usemtl 0.001
s 1
f 1/1/1 2/2/1 3/3/1
f 2/2/1 4/4/1 3/3/1
f 5/5/2 6/6/2 7/7/2
f 6/6/2 8/8/2 7/7/2
f 5/9/3 7/10/3 3/11/3
f 7/10/3 1/12/3 3/11/3
f 8/13/4 6/14/4 2/15/4
f 6/14/4 4/16/4 2/15/4
f 7/17/5 8/13/5 1/18/5
f 8/13/5 2/15/5 1/18/5
f 3/19/6 4/20/6 5/21/6
f 4/20/6 6/22/6 5/21/6
o 0
v 7.024413 -6.999959 6.975543
v 7.026159 -7.999955 6.973794
v 6.999979 -6.975522 -7.024415
v 7.001724 -7.975519 -7.026164
v -6.999979 -6.999999 -7.000023
v -6.998233 -7.999996 -7.001771
v -6.975544 -7.024436 6.999935
v -6.973799 -8.024432 6.998186
vt 0.000000 1.000000
vt 0.000000 0.937500
vt 1.000000 1.000000
vt 1.000000 0.937500
vt 0.000000 1.000000
vt 0.000000 0.937500
vt 1.000000 1.000000
vt 1.000000 0.937500
vt 0.000000 0.000000
vt 1.000000 0.000000
vt 0.062500 0.937500
vt 0.062500 0.062500
vt 0.937500 0.937500
vt 0.937500 0.062500
vt 0.000000 1.000000
vt 0.000000 0.937500
vt 1.000000 1.000000
vt 1.000000 0.937500
vt 0.000000 1.000000
vt 0.000000 0.937500
vt 1.000000 1.000000
vt 1.000000 0.937500
vn 1.0000 0.0018 -0.0017
vn 1.0000 0.0017 -0.0017
vn -1.0000 -0.0017 0.0017
vn -0.0017 1.0000 0.0017
vn 0.0017 -1.0000 -0.0017
vn 0.0017 -0.0017 1.0000
vn -0.0017 0.0017 -1.0000
usemtl 0.001
s 1
f 9/23/7 10/24/7 11/25/8
f 10/24/7 12/26/8 11/25/8
f 13/27/9 14/28/9 15/29/9
f 14/28/9 16/30/9 15/29/9
f 13/27/10 15/31/10 11/25/10
f 15/31/10 9/32/10 11/25/10
f 16/33/11 14/34/11 10/35/11
f 14/34/11 12/36/11 10/35/11
f 15/37/12 16/38/12 9/39/12
f 16/38/12 10/40/12 9/39/12
f 11/41/13 12/42/13 13/43/13
f 12/42/13 14/44/13 13/43/13
