# Blender v2.79 (sub 0) OBJ File: ''
# www.blender.org
mtllib nspga_print.mtl
o 0
v 5.000000 -5.900001 4.999999
v 5.000000 -5.900001 4.999999
v 5.000000 -5.899999 -5.000001
v 5.000000 -5.899999 -5.000001
v -5.000000 -5.899999 -5.000001
v -5.000000 -5.899999 -5.000001
v -5.000000 -5.900001 4.999999
v -5.000000 -5.900001 4.999999
vt 0.000000 1.000000
vt 0.000000 1.000000
vt 0.000000 1.000000
vt 0.000000 1.000000
vt 0.625000 1.000000
vt 0.625000 1.000000
vt 0.000000 1.000000
vt 0.625000 1.000000
vt 0.625000 1.000000
vt 0.000000 1.000000
vt 0.000000 1.000000
vt 0.625000 1.000000
vt 0.625000 1.000000
vt 0.000000 1.000000
vt 0.625000 1.000000
vt 0.625000 1.000000
vt 1.000000 0.000000
vt 1.000000 1.000000
vt 0.000000 0.000000
vn 0.0000 -1.0000 -0.0000
vn 0.0000 0.0000 0.0000
vn 0.0000 0.0000 1.0000
vn 0.0000 0.0000 -1.0000
vn 0.0000 1.0000 0.0000
usemtl nonef_8/19/19_7/20/20_3/21/21
s 1
f 6/1/1 4/2/1 2/3/1
usemtl missing
f 1/4/2 2/3/2 3/5/2
f 2/3/2 4/6/2 3/5/2
f 5/7/2 6/1/2 7/8/2
f 6/1/2 8/9/2 7/8/2
f 7/10/3 8/11/3 1/12/3
f 8/11/3 2/13/3 1/12/3
f 3/14/4 4/2/4 5/15/4
f 4/2/4 6/16/4 5/15/4
usemtl 1
f 5/17/5 7/18/5 3/19/5
f 7/18/5 1/4/5 3/19/5
