# 3ds Max Wavefront OBJ Exporter v0.97b - (c)2007 guruware
# File Created: 23.05.2015 00:49:59

#
# object Box01
#

v  0.5000 0.5000 -0.5000
v  0.5000 0.5000 0.5000
v  -0.1250 0.5000 0.5000
v  -0.1250 0.5000 -0.5000
v  0.5000 1.0000 0.5000
v  -0.1250 1.0000 0.5000
v  0.5000 1.0000 -0.5000
v  -0.1250 1.0000 -0.5000
# 8 vertices

vn 0.0000 -1.0000 -0.0000
vn 0.0000 0.0000 1.0000
vn 1.0000 0.0000 -0.0000
vn 0.0000 0.0000 -1.0000
vn -1.0000 0.0000 -0.0000
# 5 vertex normals

vt 1.0000 0.6250 0.0000
vt -0.0000 0.6250 0.0000
vt -0.0000 -0.0000 0.0000
vt 1.0000 -0.0000 0.0000
vt 1.0000 1.0000 0.0000
vt 0.3750 1.0000 0.0000
vt 0.3750 0.5000 0.0000
vt 1.0000 0.5000 0.0000
vt 0.0000 1.0000 0.0000
vt -0.0000 0.5000 0.0000
vt 0.6250 1.0000 0.0000
vt 0.6250 0.5000 0.0000
# 12 texture coords

g Box01
s 2
f 1/1/1 2/2/1 3/3/1 4/4/1 
s 8
f 5/5/2 6/6/2 3/7/2 2/8/2 
s 16
f 7/5/3 5/9/3 2/10/3 1/8/3 
s 32
f 8/11/4 7/9/4 1/10/4 4/12/4 
s 64
f 6/5/5 8/9/5 4/10/5 3/8/5 
# 5 polygons

