# Blender v2.79 (sub 0) OBJ File: ''
# www.blender.org
mtllib gate_front_main.mtl
o 5
v -2.000000 7.999998 8.000002
v -2.000000 5.549998 8.000000
v -2.000000 7.999998 6.000002
v -2.000000 5.549998 6.000000
v -4.000000 7.999998 7.500002
v -4.000000 5.549998 6.000000
v -4.000000 7.999998 8.000002
v -4.000000 5.549998 8.000000
vt 0.291667 0.725521
vt 0.291667 0.500000
vt 0.500000 0.725520
vt 0.500000 0.500000
vt 0.031250 0.564783
vt 0.125000 0.815902
vt 0.000000 0.548587
vt 0.000000 0.751119
vt 0.291667 0.564783
vt 0.166667 0.500000
vt 0.208333 0.815902
vt 0.208333 1.000000
vt 0.000000 0.815902
vt 0.000000 1.000000
vt 0.291667 0.951041
vt 0.291667 0.725521
vt 0.500000 0.951041
vt 0.500000 0.725521
vt 0.291667 0.767314
vn 1.0000 0.0000 0.0000
vn -1.0000 0.0000 0.0000
vn -0.0000 1.0000 0.0000
vn 0.0000 -1.0000 -0.0000
vn 0.0000 -0.0000 1.0000
vn 0.0000 0.0000 -1.0000
vn -0.2844 0.2322 -0.9302
vn -0.3494 0.2852 -0.8925
vn -0.5388 0.4399 -0.7184
usemtl 0.007
s 1
f 1/1/1 2/2/1 3/3/1
f 2/2/1 4/4/1 3/3/1
f 5/5/2 6/6/2 7/7/2
f 6/6/2 8/8/2 7/7/2
f 5/5/3 7/7/3 3/9/3
f 7/7/3 1/10/3 3/9/3
f 8/11/4 6/12/4 2/13/4
f 6/12/4 4/14/4 2/13/4
f 7/15/5 8/16/5 1/17/5
f 8/16/5 2/18/5 1/17/5
f 4/19/6 6/6/7 3/9/8
f 6/6/7 5/5/9 3/9/8
o 0
v 2.000000 7.999998 6.000002
v 2.000000 -8.000002 5.999998
v 2.000000 5.550000 0.000002
v 2.000000 -8.000000 -0.000002
v -2.000000 5.550000 0.000002
v -2.000000 -8.000000 -0.000002
v -2.000000 7.999998 6.000002
v -2.000000 -8.000002 5.999998
vt 0.150000 0.500000
vt 0.150000 0.863636
vt 0.000000 0.555682
vt 0.000000 0.863636
vt 0.300000 0.555682
vt 0.300000 0.863636
vt 0.150000 0.500000
vt 0.150000 0.863636
vt 0.400000 0.955248
vt 0.400000 0.807955
vt 0.500000 0.955248
vt 0.500000 0.807955
vt 0.100000 0.863636
vt 0.100000 1.000000
vt 0.000000 0.863636
vt 0.000000 1.000000
vt 0.400000 0.500000
vt 0.400000 0.863636
vt 0.300000 0.500000
vt 0.300000 0.863636
vt 0.500000 0.500000
vt 0.500000 0.807955
vt 0.400000 0.500000
vt 0.400000 0.807954
vn 1.0000 0.0000 0.0000
vn -1.0000 0.0000 0.0000
vn 0.0000 0.9258 -0.3780
vn 0.0000 -1.0000 -0.0000
vn 0.0000 -0.0000 1.0000
vn 0.0000 0.0000 -1.0000
usemtl 0.002
s 1
f 9/20/10 10/21/10 11/22/10
f 10/21/10 12/23/10 11/22/10
f 13/24/11 14/25/11 15/26/11
f 14/25/11 16/27/11 15/26/11
f 13/28/12 15/29/12 11/30/12
f 15/29/12 9/31/12 11/30/12
f 16/32/13 14/33/13 10/34/13
f 14/33/13 12/35/13 10/34/13
f 15/36/14 16/37/14 9/38/14
f 16/37/14 10/39/14 9/38/14
f 11/40/15 12/41/15 13/42/15
f 12/41/15 14/43/15 13/42/15
o 2
v 4.000000 -8.000002 5.999998
v 2.000000 -8.000000 -0.000002
v 2.000000 5.550000 0.000002
v 4.000000 5.549998 6.000002
v 2.000000 7.999998 6.000002
v 2.000000 -8.000002 5.999998
vt 0.000000 1.000000
vt 0.194939 0.576563
vt 0.194939 1.000000
vt 0.379873 0.576562
vt 0.379873 1.000000
vt 0.194939 0.500000
vt 0.194939 1.000000
vt 0.441518 0.677878
vt 0.500000 0.500000
vt 0.500000 0.697642
vt 0.175445 0.500000
vt 0.000000 0.576562
vt 0.441518 0.500000
vt 0.441518 1.000000
vt 0.379873 0.576563
vt 0.379874 1.000000
vn 0.9487 0.0000 -0.3162
vn -1.0000 0.0000 0.0000
vn 0.0000 -1.0000 -0.0000
vn 0.7501 0.6123 -0.2500
vn -0.0000 -0.0000 1.0000
usemtl 0.003
s 1
f 18/44/16 20/45/16 17/46/16
f 19/47/17 18/48/17 21/49/17
f 18/48/17 22/50/17 21/49/17
f 22/51/18 18/52/18 17/53/18
f 21/54/19 20/45/19 19/55/19
f 21/56/20 22/57/20 20/58/20
f 22/57/20 17/59/20 20/58/20
f 18/44/16 19/55/16 20/45/16
o 3
v 4.000000 5.549998 8.000002
v 4.000000 -8.000002 7.999998
v 4.000000 5.549998 6.000002
v 4.000000 -8.000002 5.999998
v -4.000000 5.549998 6.000002
v -4.000000 -8.000002 5.999998
v -4.000000 5.549998 8.000002
v -4.000000 -8.000002 7.999998
vt 0.400000 0.814385
vt 0.400000 0.500000
vt 0.450000 0.814385
vt 0.450000 0.500000
vt 0.500000 0.500000
vt 0.500000 0.814385
vt 0.450000 0.500000
vt 0.450000 0.814385
vt 0.100000 1.000000
vt 0.050000 1.000000
vt 0.100000 0.814385
vt 0.050000 0.814385
vt 0.050000 1.000000
vt 0.000000 1.000000
vt 0.050000 0.814385
vt 0.000000 0.814385
vt 0.200000 0.814385
vt 0.200000 0.500000
vt 0.200000 0.500000
vt 0.200000 0.814385
vt 0.000000 0.500000
vt 0.000000 0.814385
vn 1.0000 0.0000 0.0000
vn -1.0000 0.0000 0.0000
vn 0.0000 1.0000 0.0000
vn 0.0000 -1.0000 0.0000
vn 0.0000 -0.0000 1.0000
vn 0.0000 0.0000 -1.0000
usemtl 0.005
s 1
f 23/60/21 24/61/21 25/62/21
f 24/61/21 26/63/21 25/62/21
f 27/64/22 28/65/22 29/66/22
f 28/65/22 30/67/22 29/66/22
f 27/68/23 29/69/23 25/70/23
f 29/69/23 23/71/23 25/70/23
f 30/72/24 28/73/24 24/74/24
f 28/73/24 26/75/24 24/74/24
f 29/76/25 30/77/25 23/60/25
f 30/77/25 24/61/25 23/60/25
f 25/78/26 26/79/26 27/80/26
f 26/79/26 28/81/26 27/80/26
o 1
v -2.000000 -8.000002 5.999998
v -2.000000 -8.000000 -0.000002
v -2.000000 5.550000 0.000002
v -2.000000 7.999998 6.000002
v -4.000000 5.549998 6.000002
v -4.000000 -8.000002 5.999998
vt 0.379873 1.000000
vt 0.194939 0.576562
vt 0.379873 0.500000
vt 0.194939 1.000000
vt 0.000000 0.576563
vt 0.000000 1.000000
vt 0.500000 0.500000
vt 0.500000 0.697642
vt 0.441518 0.519764
vt 0.019494 0.500000
vt 0.379873 0.923437
vt 0.379874 0.500000
vt 0.441518 1.000000
vt 0.441518 0.500000
vn 1.0000 -0.0000 0.0000
vn -0.9487 0.0000 -0.3162
vn 0.0000 -1.0000 -0.0000
vn -0.7501 0.6123 -0.2500
vn 0.0000 -0.0000 1.0000
usemtl 0.004
s 1
f 31/82/27 33/83/27 34/84/27
f 33/83/28 32/85/28 35/86/28
f 32/85/28 36/87/28 35/86/28
f 36/88/29 32/89/29 31/90/29
f 35/86/30 34/91/30 33/83/30
f 35/92/31 36/93/31 34/94/31
f 36/93/31 31/95/31 34/94/31
f 31/82/27 32/85/27 33/83/27
o 6
v 4.000000 7.999998 8.000002
v 4.000000 5.549998 8.000000
v 4.000000 7.999998 7.500002
v 4.000000 5.549998 6.000000
v 2.000000 7.999998 6.000002
v 2.000000 5.549998 6.000000
v 2.000000 7.999998 8.000002
v 2.000000 5.549998 8.000000
vt 0.500000 0.500000
vt 0.500000 0.725521
vt 0.291667 0.500000
vt 0.291667 0.725520
vt 0.125000 0.500000
vt 0.031250 0.751119
vt 0.000000 0.767315
vt 0.208333 0.815902
vt 0.208333 1.000000
vt 0.000000 0.815902
vt 0.000000 1.000000
vt 0.291667 0.751119
vt 0.291667 0.548587
vt 0.500000 0.725521
vt 0.500000 0.951041
vt 0.291667 0.951041
vt 0.166667 0.815902
vt 0.000000 0.564783
vn -1.0000 0.0000 0.0000
vn 1.0000 0.0000 0.0000
vn 0.0000 -1.0000 -0.0000
vn 0.0000 1.0000 0.0000
vn 0.5388 0.4399 -0.7184
vn 0.2844 0.2322 -0.9302
vn 0.3494 0.2852 -0.8925
vn 0.0000 0.0000 -1.0000
vn 0.0000 -0.0000 1.0000
usemtl 0.006
s 1
f 41/96/32 42/97/32 43/98/32
f 42/97/32 44/99/32 43/98/32
f 40/100/33 39/101/33 37/102/33
f 44/103/34 42/104/34 38/105/34
f 42/104/34 40/106/34 38/105/34
f 37/102/35 39/101/35 41/107/35
f 39/101/36 40/100/37 41/107/38
f 40/100/37 42/108/39 41/107/38
f 38/109/40 37/110/40 43/111/40
f 44/99/40 38/109/40 43/111/40
f 43/112/35 37/102/35 41/107/35
f 38/113/33 40/100/33 37/102/33
o 4
v 2.000000 7.999998 8.000002
v 2.000000 5.549998 8.000000
v 2.000000 7.999998 6.000002
v 2.000000 5.549998 6.000000
v -2.000000 7.999998 6.000002
v -2.000000 5.549998 6.000000
v -2.000000 7.999998 8.000002
v -2.000000 5.549998 8.000000
vt 0.162921 0.903125
vt 0.162921 0.750000
vt 0.275281 0.903125
vt 0.275281 0.750000
vt 0.500000 0.500000
vt 0.500000 0.653125
vt 0.387640 0.500000
vt 0.387640 0.653125
vt 0.112360 1.000000
vt 0.000000 1.000000
vt 0.112360 0.750000
vt 0.000000 0.750000
vt 0.387640 0.750000
vt 0.275281 0.750000
vt 0.387640 0.500000
vt 0.275281 0.500000
vt 0.000000 0.500000
vt 0.137640 0.500000
vt 0.137640 0.750000
vt 0.275281 0.750000
vt 0.137640 0.750000
vt 0.275281 0.500000
vt 0.137640 0.500000
vn 1.0000 0.0000 0.0000
vn -1.0000 0.0000 0.0000
vn 0.0000 1.0000 0.0000
vn 0.0000 -1.0000 -0.0000
vn 0.0000 -0.0000 1.0000
vn 0.0000 0.0000 -1.0000
usemtl 0.002
s 1
f 45/114/41 46/115/41 47/116/41
f 46/115/41 48/117/41 47/116/41
f 49/118/42 50/119/42 51/120/42
f 50/119/42 52/121/42 51/120/42
f 49/122/43 51/123/43 47/124/43
f 51/123/43 45/125/43 47/124/43
f 52/126/44 50/127/44 46/128/44
f 50/127/44 48/129/44 46/128/44
f 51/130/45 52/131/45 45/125/45
f 52/131/45 46/132/45 45/125/45
f 47/133/46 48/134/46 49/135/46
f 48/134/46 50/136/46 49/135/46
