mtllib gate_screen_1.mtl
o 0
v 1.5 6.998513075741487 3.271447830961433
v 1.5 5.850462797316268 0.49980931835004405
v 1.5 6.997589196193401 3.2718305144057513
v 1.5 5.849538917768186 0.5001920017943622
v 0.5 5.850462797316268 0.49980931835004405
v 0.5 6.998513075741487 3.271447830961433
v 0.5 5.849538917768186 0.5001920017943622
v 0.5 6.997589196193401 3.2718305144057513
vt 0 1
vt 0 1
vt 0.1875 1
vt 0 1
vt 0.1875 1
vt 0.1875 1
vt 0 1
vt 0 1
vt 0.1875 1
vt 0 1
vt 0.1875 1
vt 0.1875 1
vt 0.5 0
vt 0.5 1
vt 0 0
vt 0.5 1
vt 0 1
vt 0 0
vt 0 1
vt 0 1
vt 0 1
vt 0 1
vt 0 1
vt 0 1
vt 0 1
vt 0 1
vt 0.0625 1
vt 0 1
vt 0.0625 1
vt 0.0625 1
vt 0 1
vt 0 1
vt 0.0625 1
vt 0 1
vt 0.0625 1
vt 0.0625 1
vn 1 0 0
vn 1 0 0
vn 1 0 0
vn 1 0 0
vn 1 0 0
vn 1 0 0
vn -1 0 0
vn -1 0 0
vn -1 0 0
vn -1 0 0
vn -1 0 0
vn -1 0 0
vn 0 0.9238795638084412 -0.3826834559440613
vn 0 0.9238795638084412 -0.3826834559440613
vn 0 0.9238795638084412 -0.3826834559440613
vn 0 0.9238795638084412 -0.3826834559440613
vn 0 0.9238795638084412 -0.3826834559440613
vn 0 0.9238795638084412 -0.3826834559440613
vn 0 -0.9238795638084412 0.3826834559440613
vn 0 -0.9238795638084412 0.3826834559440613
vn 0 -0.9238795638084412 0.3826834559440613
vn 0 -0.9238795638084412 0.3826834559440613
vn 0 -0.9238795638084412 0.3826834559440613
vn 0 -0.9238795638084412 0.3826834559440613
vn 0 0.3826834559440613 0.9238795638084412
vn 0 0.3826834559440613 0.9238795638084412
vn 0 0.3826834559440613 0.9238795638084412
vn 0 0.3826834559440613 0.9238795638084412
vn 0 0.3826834559440613 0.9238795638084412
vn 0 0.3826834559440613 0.9238795638084412
vn 0 -0.3826834559440613 -0.9238795638084412
vn 0 -0.3826834559440613 -0.9238795638084412
vn 0 -0.3826834559440613 -0.9238795638084412
vn 0 -0.3826834559440613 -0.9238795638084412
vn 0 -0.3826834559440613 -0.9238795638084412
vn 0 -0.3826834559440613 -0.9238795638084412
usemtl 0
f 1/1/1 3/2/2 2/3/3
f 3/4/4 4/5/5 2/6/6
usemtl 0
f 5/7/7 7/8/8 6/9/9
f 7/10/10 8/11/11 6/12/12
usemtl 0
f 5/13/13 6/14/14 2/15/15
f 6/16/16 1/17/17 2/18/18
usemtl $transparent
f 8/19/19 7/20/20 3/21/21
f 7/22/22 4/23/23 3/24/24
usemtl 0
f 6/25/25 8/26/26 1/27/27
f 8/28/28 3/29/29 1/30/30
usemtl 0
f 2/31/31 4/32/32 5/33/33
f 4/34/34 7/35/35 5/36/36
